<svg xmlns="http://www.w3.org/2000/svg" viewBox="0 0 179.5 179.5"><style>.st0{fill:#fffdfd}.st1{fill:#d22529}.st2{fill:#f79620}.st3{fill:#b22f54}.st4{fill:#f16b24}.st5{fill:#ef433d}.st6{fill:#f15c24}.st7{fill:#ef423d}.st8{fill:#f2613f}.st9{fill:#f79822}.st10{fill:#b33256}.st11{fill:#ef453f}.st12{fill:#f26d25}.st13{fill:#f15d25}.st14{fill:#f26341}.st15{fill:#d2262a}</style><path class="st0" d="M151.6 127.2c-8.7.4-16.5 4.7-21.3 13.6-4.7 8.9-4.2 17.7 1 26.4.8 1.4 1.6 1.8 3.1.9 13.8-8.7 25-19.9 33.6-33.6 1-1.6.5-2.3-.9-3.1-4.3-2.8-9-4.2-15.5-4.2zM52.3 27.1c-.1-5.8-1.4-10.4-4-14.7-1-1.6-1.7-2-3.5-.9-13.6 8.6-24.7 19.6-33.3 33.2-1.2 1.9-.7 2.7 1 3.6 8.8 5.1 17.8 5.5 26.6.5C47.8 44 52 36.3 52.3 27.1zm37.3 152.4c7 .2 14-.6 20.9-2.1 5.7-1.2 5.5 0 3.5-6.3-3.5-11.3-14.5-18.3-26.9-17.5-10.8.7-20.6 9.6-23 20.5-.4 2.1.6 2.4 2.1 2.8 7.7 1.6 15.5 2.8 23.4 2.6zM89.6 0C81.6.1 73.8 1.2 66 2.8c-2.2.4-2.2 1.4-1.8 3.1 2.8 12 13.3 20.3 25.5 20.3 12.2-.1 22.6-8.6 25.2-20.6.3-1.5.2-2.4-1.7-2.7C105.5 1.2 97.6.1 89.6 0zm89.9 89.4c.1-7.6-1.1-15.3-2.6-23-.4-2.2-1.3-2.6-3.4-2-12.1 3.1-20.1 13.3-20 25.7.1 12.1 8.4 22.2 20.4 25 1.9.4 2.5-.2 2.8-1.9 1.7-7.8 2.9-15.6 2.8-23.8zM0 89.5c.1 8.1 1.2 16.1 2.9 24 .3 1.5 1 1.8 2.4 1.6C17 113 26 102.2 26.1 90.4c.1-13-8.4-23.7-20.6-26.1-1.5-.3-2.2-.1-2.6 1.6C1.2 73.6.1 81.5 0 89.5zm52.2 63.3c0-9.7-5.1-18.5-13.9-22.9-9-4.5-17.8-3.9-26.3 1.4-1.3.8-1.4 1.5-.6 2.7 8.6 13.8 19.7 25 33.5 33.6 1.6 1 2.3.9 3.3-.7 2.6-4.3 4-8.9 4-14.1zm74.9-125.6c.3 9 4.5 16.8 13.2 21.6 8.9 4.9 17.8 4.5 26.6-.7 1.5-.9 2-1.6.9-3.3-8.7-13.8-19.9-24.9-33.7-33.6-1.5-.9-2.1-.5-2.9.8-2.7 4.4-4 9.1-4.1 15.2zM63.5 55.4c0-4.6-3.7-8.4-8.2-8.3-4.5 0-8.3 3.9-8.3 8.3s3.7 8.1 8.1 8.1c4.7.1 8.4-3.5 8.4-8.1zm18.1 82.9c-.1 4.7 3.5 8.3 8.1 8.3 4.4 0 8.1-3.7 8.1-8.1 0-4.4-3.6-8.1-8.1-8.2-4.5 0-8.1 3.5-8.1 8zm56.7-56.7c-4.5 0-8 3.5-8 8.1 0 4.4 3.7 8.1 8.1 8.1 4.5 0 8.2-3.7 8.2-8.3-.1-4.5-3.7-7.9-8.3-7.9zM89.6 49.2c4.7 0 8.2-3.4 8.2-7.9S94.1 33 89.6 33c-4.5 0-8 3.6-8 8.2 0 4.7 3.3 8 8 8zm-34.3 82.9c4.5 0 8.1-3.5 8.2-8 0-4.6-3.6-8.2-8.2-8.2-4.5 0-8.1 3.7-8.1 8.1 0 4.5 3.6 8.1 8.1 8.1zm-6.1-42.4c0-4.7-3.2-8.1-7.9-8.2-4.6 0-8.3 3.6-8.3 8.1 0 4.4 3.7 8.1 8.1 8.1 4.6.1 8.1-3.3 8.1-8zm83-34.4c0-4.5-3.6-8.1-8-8.2-4.5-.1-8.2 3.7-8.1 8.3 0 4.5 3.6 8.1 8.1 8 4.4-.1 7.9-3.7 8-8.1zm0 68.9c0-4.5-3.4-8.1-7.9-8.2-4.6-.1-8.2 3.5-8.2 8.1 0 4.5 3.6 8.1 8.1 8.1 4.3 0 7.9-3.5 8-8z"/><path class="st1" d="M151.6 127.2c6.5 0 11.2 1.4 15.5 4.1 1.4.8 1.9 1.5.9 3.1-8.7 13.8-19.8 25-33.6 33.6-1.5 1-2.3.5-3.1-.9-5.1-8.6-5.7-17.5-1-26.4 4.8-8.9 12.6-13.1 21.3-13.5z"/><path class="st2" d="M52.3 27.1C52 36.3 47.8 44 39.1 48.9c-8.8 4.9-17.8 4.5-26.6-.5-1.6-1-2.2-1.7-1-3.6 8.6-13.6 19.7-24.6 33.3-33.2 1.8-1.1 2.5-.7 3.5.9 2.6 4.2 3.9 8.8 4 14.6z"/><path class="st3" d="M89.6 179.5c-8 .2-15.7-1-23.4-2.6-1.5-.3-2.5-.7-2.1-2.8 2.3-10.9 12.2-19.9 23-20.5 12.5-.8 23.4 6.1 26.9 17.5 1.9 6.2 2.1 5.1-3.5 6.3-6.9 1.4-13.9 2.3-20.9 2.1z"/><path class="st4" d="M89.6 0c8 .1 15.9 1.2 23.7 2.8 1.9.4 2 1.2 1.7 2.7-2.6 12-13 20.5-25.2 20.6-12.2.1-22.7-8.3-25.5-20.3-.4-1.7-.4-2.7 1.8-3.1C73.9 1.2 81.7.1 89.6 0z"/><path class="st5" d="M179.5 89.4c.1 8.2-1 16-2.6 23.8-.4 1.7-1 2.3-2.8 1.9-12-2.7-20.3-12.9-20.4-25-.1-12.4 7.9-22.6 20-25.7 2.1-.5 3-.1 3.4 2 1.3 7.7 2.5 15.4 2.4 23z"/><path class="st6" d="M0 89.5c.1-8 1.2-15.9 2.9-23.7.4-1.7 1.1-1.9 2.6-1.6 12.2 2.4 20.7 13.2 20.6 26.1C26 102.1 17 112.9 5.3 115c-1.4.3-2 0-2.4-1.6C1.2 105.6.1 97.6 0 89.5z"/><path class="st7" d="M52.2 152.8c0 5.1-1.4 9.8-4 14.2-1 1.6-1.7 1.7-3.3.7-13.8-8.6-24.9-19.8-33.5-33.6-.8-1.3-.8-1.9.6-2.7 8.5-5.3 17.4-5.9 26.3-1.4 8.7 4.4 13.8 13.1 13.9 22.8z"/><path class="st8" d="M127.1 27.2c.1-6 1.4-10.8 4.2-15.1.8-1.3 1.4-1.7 2.9-.8 13.8 8.6 25 19.8 33.7 33.6 1.1 1.7.5 2.4-.9 3.3-8.8 5.1-17.7 5.6-26.6.7-8.8-4.9-13-12.7-13.3-21.7z"/><path class="st9" d="M63.5 55.4c0 4.6-3.7 8.1-8.3 8.1-4.4 0-8.1-3.7-8.1-8.1 0-4.4 3.8-8.3 8.3-8.3 4.4 0 8.1 3.8 8.1 8.3z"/><path class="st10" d="M81.6 138.3c.1-4.5 3.7-8 8.2-8 4.4.1 8.1 3.7 8.1 8.2 0 4.4-3.7 8.1-8.1 8.1-4.7 0-8.3-3.6-8.2-8.3z"/><path class="st11" d="M138.3 81.6c4.6 0 8.1 3.5 8.2 7.9 0 4.6-3.6 8.3-8.2 8.3-4.4 0-8.1-3.7-8.1-8.1.1-4.6 3.6-8.1 8.1-8.1z"/><path class="st12" d="M89.6 49.2c-4.7 0-8-3.3-8-8 0-4.6 3.5-8.1 8-8.2 4.5 0 8.3 3.7 8.2 8.3 0 4.5-3.5 7.9-8.2 7.9z"/><path class="st11" d="M55.3 132.1c-4.5 0-8.1-3.6-8.1-8s3.6-8.1 8.1-8.1c4.7 0 8.3 3.5 8.2 8.2-.1 4.3-3.7 7.9-8.2 7.9z"/><path class="st13" d="M49.2 89.7c0 4.7-3.4 8.1-8 8.1-4.4 0-8.1-3.7-8.1-8.1 0-4.6 3.6-8.2 8.3-8.1 4.5 0 7.8 3.4 7.8 8.1z"/><path class="st14" d="M132.2 55.3c0 4.5-3.6 8.1-8.1 8.1-4.5.1-8.1-3.5-8.1-8 0-4.6 3.6-8.3 8.1-8.3s8.1 3.7 8.1 8.2z"/><path class="st15" d="M132.2 124.2c0 4.5-3.6 8-8.1 8s-8-3.6-8.1-8.1c0-4.6 3.6-8.2 8.2-8.1 4.5.1 8 3.6 8 8.2z"/></svg>