<svg width="80" height="82" viewBox="0 -1 80 82" xmlns="http://www.w3.org/2000/svg" xmlns:xlink="http://www.w3.org/1999/xlink"><defs><rect id="a" width="80" height="80" rx="6"/><mask id="b" x="0" y="0" width="80" height="80" fill="#fff"><use xlink:href="#a"/></mask><path id="c" d="M18 63.906h43.77v-47.43H18z"/></defs><use stroke="#E1E0E5" mask="url(#b)" stroke-width="4" fill="none" xlink:href="#a"/><path d="M53.912 26.395h6.922l-8.795-8.95v7.076c0 1.033.84 1.874 1.873 1.874z" fill="#CCC" fill-rule="evenodd"/><mask id="d" fill="#fff"><use xlink:href="#c"/></mask><path fill="#CCC" fill-rule="evenodd" mask="url(#d)" d="M18 49.461h30.805V36.123H18z"/><path d="M53.912 28.3a3.783 3.783 0 0 1-3.779-3.779v-8.045H26.25a2.382 2.382 0 0 0-2.381 2.382v15.36h25.413c.789 0 1.429.64 1.429 1.428v14.291c0 .79-.64 1.43-1.43 1.43H23.87v10.157a2.382 2.382 0 0 0 2.381 2.382H59.39a2.382 2.382 0 0 0 2.382-2.382V28.3h-7.859z" fill="#CCC" fill-rule="evenodd" mask="url(#d)"/><path d="M25.51 40.4c-.65 0-1.155.245-1.512.734-.357.49-.536 1.171-.536 2.046 0 1.82.683 2.73 2.049 2.73.573 0 1.267-.143 2.082-.43v1.451c-.67.28-1.418.42-2.244.42-1.187 0-2.095-.361-2.724-1.081-.63-.72-.944-1.754-.944-3.101 0-.849.155-1.592.464-2.23a3.347 3.347 0 0 1 1.331-1.469c.579-.34 1.257-.51 2.035-.51.793 0 1.59.191 2.39.575l-.559 1.406a9.138 9.138 0 0 0-.921-.38 2.741 2.741 0 0 0-.91-.161m9.322 4.572c0 .737-.265 1.317-.796 1.741-.53.425-1.268.637-2.213.637-.871 0-1.641-.164-2.311-.491V45.25a9.5 9.5 0 0 0 1.398.52c.382.1.73.15 1.047.15.38 0 .67-.073.874-.218.203-.145.304-.361.304-.647a.714.714 0 0 0-.134-.428 1.51 1.51 0 0 0-.394-.36c-.173-.115-.525-.299-1.058-.552-.498-.235-.872-.46-1.122-.676a2.524 2.524 0 0 1-.597-.753 2.146 2.146 0 0 1-.223-1.005c0-.722.244-1.29.734-1.703.49-.413 1.166-.62 2.03-.62.423 0 .828.05 1.213.151.385.1.788.242 1.209.425l-.558 1.345a8.147 8.147 0 0 0-1.08-.374 3.49 3.49 0 0 0-.84-.106c-.328 0-.58.076-.754.229a.755.755 0 0 0-.263.597c0 .153.035.285.106.4.071.113.183.222.338.329.155.106.52.296 1.097.572.763.365 1.286.73 1.568 1.097.283.366.425.816.425 1.348m6.821-5.894h1.747l-2.774 8.161H38.74l-2.77-8.161h1.748l1.536 4.856a20.41 20.41 0 0 1 .435 1.798c.04-.342.18-.942.419-1.798l1.546-4.856z" fill="#FFF" fill-rule="evenodd" mask="url(#d)"/></svg>