<svg width="736" height="264" viewBox="0 0 736 264" xmlns="http://www.w3.org/2000/svg" xmlns:xlink="http://www.w3.org/1999/xlink"><title>Page 1</title><defs><path id="a" d="M0 263.99h735.952V0H0z"/></defs><g fill="none" fill-rule="evenodd"><path d="M644.243 236.675c0 4.272-13.532 7.735-30.223 7.735-16.692 0-30.223-3.463-30.223-7.735 0-4.271 13.531-7.734 30.223-7.734 16.691 0 30.223 3.463 30.223 7.734zm-525.307-3.377c0 2.986-9.46 5.407-21.13 5.407-11.668 0-21.129-2.42-21.129-5.407s9.461-5.407 21.13-5.407c11.67 0 21.13 2.42 21.13 5.407" fill="#E6E6E6"/><mask id="b" fill="#fff"><use xlink:href="#a"/></mask><path fill="#CCC" mask="url(#b)" d="M161.879 111.906h49.597v-3.094h-49.597zm0 22.688h28.932V131.5h-28.932zm0 22.687h28.932v-3.094h-28.932zm0 22.689h28.932v-3.094h-28.932zm0 22.687h39.264v-3.094H161.88z"/><path fill="#FFF" mask="url(#b)" d="M489.454 209.332l-45.617-26.285v-52.57l45.617-26.286 45.617 26.286v52.57z"/><path d="M446.938 181.261l42.515 24.5 42.517-24.5v-48.998l-42.517-24.5-42.515 24.5v48.998zm42.515 31.644l-48.715-28.072v-56.142l48.715-28.072 48.717 28.072v56.142l-48.717 28.072z" fill="#E79DA9" mask="url(#b)"/><path fill="#E7A1AA" mask="url(#b)" d="M518.7 174.006l-20.88-27.016L484.43 166l-8.598-12.208-16.13 20.27h32.26l-.039-.057zm-37.454-33.539a5.485 5.485 0 0 1-5.49 5.48 5.485 5.485 0 0 1-5.491-5.48 5.485 5.485 0 0 1 5.49-5.48 5.485 5.485 0 0 1 5.491 5.48"/><path d="M256.315 207.923c-28.05 0-50.87-22.775-50.87-50.77 0-27.995 22.82-50.77 50.87-50.77 28.05 0 50.869 22.775 50.869 50.77 0 27.995-22.82 50.77-50.869 50.77" fill="#FFF" mask="url(#b)"/><path d="M256.315 102.838c-30.008 0-54.422 24.365-54.422 54.315s24.414 54.315 54.422 54.315c30.008 0 54.421-24.366 54.421-54.315 0-29.95-24.413-54.315-54.421-54.315m0 7.09c26.132 0 47.316 21.143 47.316 47.225 0 26.081-21.184 47.224-47.316 47.224s-47.316-21.143-47.316-47.224c0-26.082 21.184-47.224 47.316-47.224" fill="#E79DA9" mask="url(#b)"/><path d="M458.892 252.565c0 6.31-36.758 11.424-82.101 11.424-45.344 0-82.101-5.115-82.101-11.424 0-6.309 36.757-11.424 82.1-11.424 45.344 0 82.102 5.115 82.102 11.424m-153.526-23.637c0 3.703-21.569 6.703-48.175 6.703-26.606 0-48.175-3-48.175-6.703 0-3.702 21.569-6.703 48.175-6.703 26.606 0 48.175 3.001 48.175 6.703m231.699 0c0 3.703-21.568 6.703-48.174 6.703-26.606 0-48.175-3-48.175-6.703 0-3.702 21.569-6.703 48.175-6.703 26.606 0 48.174 3.001 48.174 6.703" fill="#E6E6E6" mask="url(#b)"/><path d="M287.926 144.38c0 3.926-3.19 7.108-7.122 7.108-3.933 0-7.122-3.182-7.122-7.108 0-3.926 3.189-7.107 7.122-7.107s7.122 3.181 7.122 7.107m-47.532 0c0 3.926-3.189 7.108-7.122 7.108s-7.122-3.182-7.122-7.108c0-3.926 3.189-7.107 7.122-7.107s7.122 3.181 7.122 7.107m-1.578 22.633c0-3.822 2.114-7.156 5.232-8.914-.89-1.034-2.194-1.706-3.66-1.706h-14.232c-2.667 0-4.849 2.178-4.849 4.84v1.413c0 2.663 2.182 4.84 4.85 4.84h12.683c-.008-.158-.024-.314-.024-.473m49.104-10.62h-14.232c-1.558 0-2.935.755-3.824 1.904 2.939 1.801 4.908 5.029 4.908 8.716 0 .16-.016.315-.023.473h13.17c2.668 0 4.85-2.177 4.85-4.84v-1.413c0-2.662-2.182-4.84-4.85-4.84m-31.125-.799c-5.387 0-9.77-4.375-9.77-9.752 0-5.377 4.383-9.751 9.77-9.751 5.388 0 9.77 4.374 9.77 9.751s-4.382 9.752-9.77 9.752" fill="#E7A1AA" mask="url(#b)"/><path d="M376.79 224.2c-41.57 0-75.39-33.754-75.39-75.243 0-41.49 33.82-75.244 75.39-75.244 41.571 0 75.392 33.754 75.392 75.244 0 41.489-33.82 75.244-75.391 75.244" fill="#FFF" mask="url(#b)"/><path d="M376.79 70.167c-43.529 0-78.943 35.344-78.943 78.79 0 43.444 35.414 78.79 78.944 78.79s78.944-35.346 78.944-78.79c0-43.446-35.415-78.79-78.944-78.79m0 7.091c39.675 0 71.839 32.101 71.839 71.699s-32.164 71.699-71.84 71.699c-39.675 0-71.838-32.101-71.838-71.7 0-39.597 32.163-71.698 71.839-71.698" fill="#C2132B" mask="url(#b)"/><path d="M357.182 172.486h13.287v-41.59h-13.287v41.59zm26.5 0h13.287v-41.59h-13.287v41.59zm26.5-41.59h13.048L375.854 97.74l-46.086 33.157h14.2v41.589h-14.2v11.882h93.462v-11.882h-13.047v-41.59z" fill="#C2132B" mask="url(#b)"/><path fill="#CCC" mask="url(#b)" d="M504.751 83.203h3.1v-19.25h-3.1zM55.624 147.656h11.538v-3.093H55.624zm12.399 10.313h11.539v-3.094H68.023zm-12.399 10.312h11.538v-3.093H55.624zM579.73 71.085c-1.218-1.29-1.887-3.076-1.887-5.028 0-3.97 2.773-7.99 8.076-7.99 5.339 0 10.54 4.8 10.592 4.85l1.097 1.023 1.06-1.058C614 47.58 626.112 56.4 626.615 56.78l2.493 1.91v-3.138c0-14.619 11.916-26.512 26.564-26.512 14.647 0 26.564 11.893 26.564 26.512a26.44 26.44 0 0 1-3.156 12.513h-14.097v3.093h30.048v-3.093h-12.484a29.584 29.584 0 0 0 2.789-12.513c0-16.324-13.308-29.606-29.664-29.606-15.48 0-28.23 11.899-29.55 27.013-4.702-2.229-15.84-5.286-28.622 6.741-2.053-1.625-6.621-4.726-11.582-4.726-7.259 0-11.176 5.71-11.176 11.083 0 2.743.968 5.282 2.728 7.148 1.989 2.11 4.834 3.224 8.23 3.224h60.601v-3.094H585.7c-2.52 0-4.584-.778-5.971-2.25m123.679.073h7.556v-3.093h-7.556zm-47.735 14.623h60.289v-3.093h-60.29zm70.597 0h9.682v-3.093h-9.682zM165.028 47.137a37.136 37.136 0 0 0 1.344-9.933c0-20.514-16.722-37.203-37.276-37.203A37.344 37.344 0 0 0 99.08 15.153a22.24 22.24 0 0 0-3.959-.363c-12.382 0-22.457 10.055-22.457 22.414 0 3.476.808 6.858 2.335 9.932H62.166v3.094h41.318v-3.094H78.529a19.202 19.202 0 0 1-2.765-9.932c0-10.653 8.684-19.32 19.357-19.32 1.4 0 2.843.166 4.292.494l1.018.23.597-.856a34.239 34.239 0 0 1 28.068-14.657c18.845 0 34.177 15.3 34.177 34.11 0 3.76-.61 7.455-1.81 10.981l-.697 2.045h24.78v-3.094h-20.518zM83.195 65.88h41.718v-3.094H83.195zm-49.339 0h41.718v-3.094H33.856zm12.14-15.642h9.085v-3.093h-9.085zm145.131-.011h16.323v-3.094h-16.323z"/><path d="M249.069 173.7h15.45c3.686 0 6.701-3.009 6.701-6.687 0-3.679-3.015-6.688-6.7-6.688h-15.451c-3.686 0-6.7 3.01-6.7 6.688s3.014 6.688 6.7 6.688" fill="#E7A1AA" mask="url(#b)"/><path d="M643.21 151.866a34.008 34.008 0 0 0-15.676-12.974h.177v-22.344h15.499v35.318zm-27.382 48.96v-9.13l11.558-11.535-2.192-2.187-9.366 9.347v-26.945h-3.1v16.375l-7.815-7.801-2.193 2.187 10.009 9.989v19.649c-15.99-1.065-28.674-14.379-28.674-30.602 0-16.918 13.79-30.68 30.74-30.68s30.74 13.762 30.74 30.68c0 16.57-13.234 30.106-29.707 30.654zm-8.184-84.278h16.967v21.304a33.806 33.806 0 0 0-16.967-.688v-20.616zm58.896 62.906v-66h-61.996v23.203h-42.708v-55h-109.87v30.766h3.1V84.75h103.67v55h41.37a34.029 34.029 0 0 0-14.524 13.406h-39.328v3.094h37.723a33.495 33.495 0 0 0-3.008 13.406h-33.682v3.094h33.777c1.274 16.741 14.821 30.108 31.665 31.126v34.358h3.1V203.92c18.182-.548 32.806-15.47 32.806-33.747 0-4.332-.83-8.47-2.325-12.278v-41.347h17.13v66h41.848v-3.094H666.54z" fill="#CCC" mask="url(#b)"/><path fill="#CCC" mask="url(#b)" d="M545.049 135.11h3.1V93.86h-3.1zm-13.433-18.563h3.1V93.859h-3.1zm-13.432-5.157h3.1V93.86h-3.1zm-13.433-8.25h3.1v-9.28h-3.1zm-13.432-6.187h3.1v-3.094h-3.1zm-13.433 3.094h3.1v-6.188h-3.1zm-13.432 7.218h3.1V93.86h-3.1zm-355.272 39.017h22.732v-3.094h-22.732zm52.697-57.063h80.595v-3.094h-80.595z"/><path d="M119.373 186.805c0 11.17-8.798 20.303-19.836 20.923v-5.684l7.944-7.927-2.192-2.187-5.752 5.74v-17.714h-3.1v10.324l-4.668-4.658-2.192 2.187 6.86 6.846v13.037c-10.698-.969-19.112-9.961-19.112-20.887 0-11.57 9.432-20.983 21.024-20.983s21.024 9.413 21.024 20.983zM291.23 76.5v18.321l-28.607-9.304V61.032H142.419v65.313H99.71V92.829H38.748v66H0v3.094h41.848v-66h24.626v28.016h-10.85v3.093h10.85v57.922h3.1v-47.61h9.988v-3.093h-9.989V116.72h9.989v-3.094h-9.989V95.923h27.038v66.875c-12.493.892-22.386 11.315-22.386 24.007 0 12.633 9.802 23.018 22.212 23.995v23.589h3.1V210.85c12.51-.608 22.542-10.774 22.917-23.32h9.46v-3.093h-9.56c-.714-7.277-4.688-13.613-10.441-17.531h20.002v-3.094h-25.832v.192a24.097 24.097 0 0 0-6.372-1.22v-33.347h42.708v79.407h3.1V64.126h114.004v23.637l34.807 11.321v-19.49h9.436v16.204h3.1V79.595h9.487v7.39h3.1V76.5H291.23z" fill="#CCC" mask="url(#b)"/></g></svg>