<svg width="736" height="343" viewBox="0 0 736 343" xmlns="http://www.w3.org/2000/svg" xmlns:xlink="http://www.w3.org/1999/xlink"><title>Collections illustration</title><defs><path id="a" d="M0 342.261h735.351V0H0z"/></defs><g fill="none" fill-rule="evenodd"><path d="M443.347 103.42V57.989h91.435v45.431c0 25.247-20.469 45.713-45.718 45.713-25.248 0-45.717-20.466-45.717-45.713z" fill="#E6E6E6"/><path d="M478.177 134.924c-23.407 0-42.45-19.042-42.45-42.448V50.31h84.9v42.166c0 23.406-19.043 42.448-42.45 42.448" fill="#FFF"/><path d="M523.894 47.044H432.46v45.432c0 25.247 20.468 45.714 45.717 45.714 25.248 0 45.717-20.467 45.717-45.714V47.044zm-6.533 6.533v38.899c0 21.605-17.578 39.182-39.184 39.182-21.606 0-39.184-17.577-39.184-39.182v-38.9h78.368z" fill="#C2132B"/><path d="M299.254 104.78c0 4.874-6.428 8.673-7.857 13.07-1.48 4.56 1.436 11.401-1.325 15.195-2.789 3.833-10.216 3.16-14.048 5.949-3.795 2.76-5.435 10.047-9.994 11.527-4.398 1.428-9.988-3.456-14.862-3.456-4.875 0-10.464 4.884-14.863 3.456-4.558-1.48-6.2-8.766-9.993-11.527-3.833-2.79-11.26-2.116-14.049-5.949-2.76-3.794.155-10.636-1.325-15.193-1.428-4.398-7.856-8.198-7.856-13.072 0-4.874 6.428-8.672 7.855-13.07 1.48-4.559-1.435-11.4 1.326-15.195 2.79-3.832 10.216-3.16 14.049-5.948 3.794-2.761 5.435-10.048 9.993-11.527 4.399-1.429 9.988 3.455 14.863 3.455 4.874 0 10.464-4.884 14.862-3.455 4.56 1.48 6.199 8.766 9.994 11.527 3.832 2.789 11.259 2.116 14.048 5.948 2.761 3.794-.154 10.636 1.325 15.194 1.429 4.398 7.857 8.197 7.857 13.071" fill="#E6E6E6"/><path d="M310.181 89.579c0 4.874-6.428 8.672-7.856 13.07-1.48 4.559 1.436 11.401-1.325 15.195-2.79 3.832-10.217 3.16-14.048 5.949-3.796 2.76-5.435 10.047-9.994 11.526-4.399 1.429-9.988-3.455-14.863-3.455-4.874 0-10.464 4.884-14.862 3.455-4.559-1.48-6.2-8.766-9.994-11.526-3.832-2.79-11.259-2.117-14.048-5.949-2.761-3.794.154-10.636-1.325-15.193-1.429-4.399-7.857-8.198-7.857-13.072 0-4.874 6.428-8.673 7.856-13.07 1.48-4.56-1.435-11.401 1.326-15.195 2.79-3.833 10.216-3.16 14.048-5.949 3.794-2.76 5.435-10.047 9.994-11.527 4.398-1.428 9.988 3.456 14.862 3.456 4.875 0 10.464-4.884 14.863-3.456 4.559 1.48 6.198 8.766 9.994 11.527 3.831 2.79 11.259 2.116 14.048 5.949 2.761 3.794-.155 10.636 1.325 15.193 1.428 4.398 7.856 8.198 7.856 13.072" fill="#FFF"/><path d="M248.98 46.841c-.272 0-.52.033-.739.103-1.436.466-2.784 2.688-4.089 4.837-1.387 2.284-2.821 4.647-4.992 6.225-2.195 1.599-4.906 2.243-7.529 2.867-2.425.576-4.934 1.172-5.8 2.362-.844 1.16-.643 3.713-.447 6.18.213 2.7.435 5.492-.413 8.102-.815 2.51-2.599 4.58-4.324 6.58-1.658 1.922-3.372 3.91-3.372 5.482 0 1.571 1.714 3.559 3.372 5.481 1.725 2.001 3.509 4.071 4.324 6.582.848 2.608.626 5.402.413 8.101-.196 2.467-.397 5.018.447 6.18.866 1.187 3.375 1.785 5.8 2.362 2.623.623 5.334 1.268 7.53 2.867 2.17 1.578 3.604 3.94 4.991 6.225 1.305 2.149 2.653 4.37 4.09 4.836 1.31.424 3.645-.542 5.9-1.478 2.534-1.05 5.154-2.138 7.954-2.138 2.799 0 5.419 1.088 7.952 2.138 2.256.936 4.59 1.903 5.901 1.478 1.436-.466 2.784-2.687 4.088-4.836 1.389-2.285 2.822-4.647 4.992-6.225 2.196-1.599 4.907-2.244 7.53-2.867 2.426-.577 4.934-1.173 5.8-2.362.845-1.162.642-3.714.448-6.18-.215-2.7-.436-5.493.412-8.101.816-2.512 2.599-4.58 4.325-6.582 1.658-1.922 3.372-3.91 3.372-5.481 0-1.572-1.714-3.56-3.372-5.483-1.726-2-3.51-4.069-4.325-6.58-.848-2.609-.627-5.401-.412-8.101.194-2.467.397-5.02-.448-6.18-.866-1.19-3.374-1.786-5.8-2.362-2.623-.624-5.334-1.268-7.53-2.867-2.17-1.578-3.603-3.94-4.992-6.225-1.304-2.149-2.652-4.37-4.088-4.837-1.314-.426-3.646.542-5.9 1.479-2.536 1.05-5.154 2.137-7.953 2.137-2.8 0-5.42-1.087-7.954-2.137-1.878-.78-3.81-1.582-5.162-1.582m-.022 92.006c-.908 0-1.82-.125-2.734-.421-3.743-1.215-5.822-4.64-7.656-7.66-1.052-1.732-2.14-3.525-3.25-4.333-1.139-.828-3.202-1.319-5.198-1.793-3.414-.812-7.284-1.732-9.57-4.874-2.266-3.114-1.953-7.058-1.678-10.538.163-2.063.332-4.196-.114-5.568-.408-1.26-1.756-2.823-3.059-4.334-2.323-2.695-4.957-5.748-4.957-9.747 0-4 2.634-7.053 4.957-9.748 1.304-1.51 2.65-3.072 3.059-4.332.445-1.373.277-3.505.114-5.57-.275-3.479-.588-7.424 1.678-10.538 2.286-3.14 6.156-4.062 9.571-4.874 1.996-.474 4.058-.964 5.197-1.793 1.11-.807 2.198-2.6 3.25-4.333 1.834-3.02 3.913-6.445 7.656-7.66 3.606-1.17 7.226.331 10.423 1.658 1.94.806 3.95 1.639 5.449 1.639 1.498 0 3.507-.833 5.448-1.639 3.194-1.326 6.818-2.825 10.423-1.658 3.743 1.215 5.821 4.64 7.655 7.66 1.053 1.733 2.141 3.526 3.25 4.333 1.14.829 3.202 1.319 5.197 1.793 3.416.812 7.285 1.733 9.572 4.874 2.265 3.114 1.953 7.06 1.677 10.539-.163 2.064-.332 4.196.115 5.57.408 1.258 1.755 2.821 3.058 4.331 2.323 2.695 4.957 5.748 4.957 9.748 0 3.999-2.634 7.052-4.957 9.747-1.302 1.511-2.65 3.073-3.058 4.332-.447 1.373-.278 3.506-.115 5.57.276 3.479.588 7.424-1.677 10.538-2.287 3.142-6.156 4.062-9.57 4.874-1.996.474-4.06.965-5.197 1.793-1.11.808-2.2 2.6-3.252 4.334-1.834 3.02-3.912 6.444-7.655 7.659-3.607 1.171-7.229-.332-10.423-1.657-1.941-.806-3.95-1.64-5.448-1.64-1.498 0-3.507.834-5.45 1.64-2.386.99-5.011 2.078-7.688 2.078" fill="#C2132B"/><path d="M139.905 107.338c0 51.408-31.319 93.082-69.952 93.082C31.319 200.42 0 158.746 0 107.338c0-51.407 31.32-93.081 69.953-93.081s69.952 41.674 69.952 93.081" fill="#E6E6E6"/><path d="M149.056 94.715c0 51.407-31.32 93.081-69.953 93.081-38.634 0-69.953-41.674-69.953-93.081 0-51.408 31.32-93.082 69.953-93.082s69.953 41.674 69.953 93.082" fill="#FFF"/><path d="M79.102 3.266c-37.672 0-68.32 41.023-68.32 91.449 0 50.425 30.648 91.448 68.32 91.448 37.673 0 68.32-41.023 68.32-91.448 0-50.426-30.647-91.449-68.32-91.449m0 186.163c-39.472 0-71.585-42.489-71.585-94.714C7.517 42.489 39.63 0 79.102 0c39.473 0 71.586 42.489 71.586 94.715 0 52.225-32.113 94.714-71.586 94.714" fill="#E7A1AA"/><path d="M132.656 94.34c0 41.515-23.78 75.17-53.115 75.17-29.334 0-53.115-33.655-53.115-75.17 0-41.516 23.78-75.172 53.115-75.172s53.115 33.656 53.115 75.171" fill="#FFF"/><path d="M79.54 20.802c-28.387 0-51.481 32.989-51.481 73.537 0 40.55 23.094 73.538 51.482 73.538 28.387 0 51.481-32.989 51.481-73.538 0-40.548-23.094-73.537-51.481-73.537m0 150.341c-30.19 0-54.749-34.454-54.749-76.804s24.56-76.803 54.749-76.803c30.189 0 54.748 34.453 54.748 76.803 0 42.35-24.56 76.804-54.748 76.804" fill="#E7A1AA"/><path fill="#F2F2F2" d="M73.356 121.25l-29.29-16.91V70.52l29.29-16.91 29.291 16.91v33.82z"/><path d="M49.175 130.29h60.323" fill="#FFF"/><mask id="b" fill="#fff"><use xlink:href="#a"/></mask><path fill="#E7A1AA" mask="url(#b)" d="M49.176 131.923h60.321v-3.266H49.176z"/><path d="M67.684 141.177h26.571" fill="#FFF" mask="url(#b)"/><path fill="#E7A1AA" mask="url(#b)" d="M67.685 142.81h26.57v-3.266h-26.57z"/><path fill="#FFF" mask="url(#b)" d="M79.336 113.96L52.851 98.67V68.09L79.336 52.8l26.485 15.29v30.58z"/><path d="M54.484 97.727l24.852 14.348 24.851-14.348V69.034l-24.85-14.348-24.853 14.348v28.693zm24.852 18.119L51.218 99.613V67.147l28.118-16.232 28.117 16.232v32.466l-28.117 16.233z" fill="#E7A1AA" mask="url(#b)"/><path fill="#E7A1AA" mask="url(#b)" d="M94.925 90.393L83.98 76.207l-7.018 9.983-4.507-6.411L64 90.423h16.91l-.021-.03zM75.294 72.781a2.878 2.878 0 1 1-5.756 0 2.878 2.878 0 0 1 5.756 0"/><path d="M722.286 195.235H620.67c-7.185 0-13.065-5.879-13.065-13.064V76.207c0-7.185 5.88-13.064 13.065-13.064h101.617c7.186 0 13.065 5.88 13.065 13.064v105.964c0 7.185-5.879 13.064-13.065 13.064" fill="#E6E6E6" mask="url(#b)"/><path d="M711.828 57.452l-35.88-35.877a7.749 7.749 0 0 0-7.406-10.035 7.75 7.75 0 0 0-7.75 7.749c0 .5.053.989.143 1.463l-36.703 36.7 2.31 2.31 35.817-35.816a7.725 7.725 0 0 0 11.901.56l35.26 35.254 2.309-2.309z" fill="#F2F2F2" mask="url(#b)"/><path d="M167.02 170.377a4.905 4.905 0 0 0-4.9 4.9v55.552a4.904 4.904 0 0 0 4.9 4.9h18.509c2.7 0 4.899-2.198 4.899-4.9v-55.553a4.905 4.905 0 0 0-4.9-4.899H167.02zm18.509 68.617h-18.51c-4.502 0-8.165-3.662-8.165-8.165v-55.553c0-4.502 3.663-8.165 8.166-8.165h18.509c4.503 0 8.165 3.663 8.165 8.165v55.553c0 4.503-3.662 8.165-8.165 8.165zm368-68.617a4.905 4.905 0 0 0-4.9 4.9v55.552a4.904 4.904 0 0 0 4.9 4.9h18.508c2.702 0 4.9-2.198 4.9-4.9v-55.553a4.905 4.905 0 0 0-4.9-4.899H553.53zm18.508 68.617H553.53c-4.503 0-8.166-3.662-8.166-8.165v-55.553c0-4.502 3.663-8.165 8.166-8.165h18.508c4.504 0 8.166 3.663 8.166 8.165v55.553c0 4.503-3.662 8.165-8.166 8.165z" fill="#CCC" mask="url(#b)"/><path d="M421.553 192.301c-1.972 0-5.738.642-5.738.642l-51.43 12.765v30.544l57.168.02c14.249 0 25.799-3.927 25.799-18.175 0-14.246-11.55-25.796-25.799-25.796" fill="#FFF" mask="url(#b)"/><path d="M366.019 234.62l55.536.02c16.485 0 24.164-5.257 24.164-16.543 0-13.323-10.84-24.163-24.165-24.163-1.477 0-4.344.43-5.406.61l-50.13 12.44v27.636zm55.535 3.286l-58.801-.023v-33.452l52.786-13.097c.16-.027 3.927-.666 6.015-.666 15.125 0 27.431 12.305 27.431 27.429 0 13.143-9.228 19.81-27.43 19.81z" fill="#CCC" mask="url(#b)"/><path d="M376.173 221.545h-41.977c-4.047 0-7.358 3.31-7.358 7.357 0 4.047 3.311 7.358 7.358 7.358h41.977c4.047 0 7.358-3.311 7.358-7.358 0-4.046-3.311-7.357-7.358-7.357" fill="#FFF" mask="url(#b)"/><path d="M334.196 223.178a5.73 5.73 0 0 0-5.725 5.724 5.732 5.732 0 0 0 5.725 5.725h41.977a5.732 5.732 0 0 0 5.725-5.725 5.73 5.73 0 0 0-5.725-5.724h-41.977zm41.977 14.715h-41.977c-4.958 0-8.99-4.033-8.99-8.99 0-4.959 4.032-8.991 8.99-8.991h41.977c4.957 0 8.991 4.032 8.991 8.99s-4.034 8.991-8.99 8.991zm129.494-8.028c-11.434 0-20.018-8.628-27.888-16.535-10.933-10.985-20.374-20.478-35.69-9.62l-1.887-2.664c17.57-12.455 28.919-1.049 39.892 9.98 11.678 11.735 22.71 22.818 41.837 9.54l1.863 2.683c-6.81 4.728-12.781 6.616-18.127 6.616" fill="#CCC" mask="url(#b)"/><path d="M398.916 221.545h-19.851c-4.047 0-7.358 3.31-7.358 7.357 0 4.047 3.311 7.358 7.358 7.358h19.851c4.047 0 7.358-3.311 7.358-7.358 0-4.046-3.31-7.357-7.358-7.357" fill="#FFF" mask="url(#b)"/><path d="M379.065 223.178a5.73 5.73 0 0 0-5.725 5.724 5.732 5.732 0 0 0 5.725 5.725h19.851a5.732 5.732 0 0 0 5.725-5.725 5.73 5.73 0 0 0-5.725-5.724h-19.851zm19.851 14.715h-19.851c-4.958 0-8.991-4.033-8.991-8.99 0-4.959 4.033-8.991 8.99-8.991h19.852c4.958 0 8.991 4.032 8.991 8.99s-4.033 8.991-8.99 8.991z" fill="#CCC" mask="url(#b)"/><path d="M378.637 202.17l1.339-19.518-10.607 8.783a22.492 22.492 0 0 0-23.908.383l-11.07-9.166 1.34 19.518s-.611 5.487-.611 8.623c0 12.487 17.797 18.255 22.611 18.255 4.815 0 22.612-5.768 22.612-18.255 0-3.055-1.706-8.623-1.706-8.623" fill="#FFF" mask="url(#b)"/><path d="M336.282 186.337l1.089 15.869-.016.146c-.007.054-.601 5.433-.601 8.441 0 11.276 16.825 16.621 20.977 16.621 4.152 0 20.979-5.345 20.979-16.62 0-2.302-1.18-6.66-1.635-8.145l-.089-.289 1.1-16.023-8.568 7.095-.992-.599a20.922 20.922 0 0 0-10.795-3.017c-4.04 0-7.976 1.167-11.382 3.373l-1.006.653-9.06-7.505zm21.449 44.343c-2.95 0-8.839-1.637-13.945-4.674-6.739-4.005-10.299-9.265-10.299-15.213 0-2.936.504-7.737.605-8.655l-1.591-23.171 13.103 10.849a24.126 24.126 0 0 1 12.127-3.266c3.994 0 7.933 1.001 11.465 2.907l12.67-10.49-1.58 23.02c.363 1.23 1.69 5.928 1.69 8.806 0 5.948-3.562 11.208-10.3 15.213-5.107 3.037-10.996 4.674-13.945 4.674zm208.319-61.936h-3.267c0-52.957 7.605-80.727 7.682-81.001l3.145.88c-.076.27-7.56 27.672-7.56 80.121" fill="#CCC" mask="url(#b)"/><path d="M566.592 144.805l-3.267-.073c.522-23.074-14.188-41.735-14.338-41.92l2.55-2.043c.637.795 15.602 19.744 15.055 44.036m-390.318 23.939h-3.266c0-27.073-8.46-44.836-8.547-45.012l2.94-1.424c.362.747 8.873 18.62 8.873 46.436" fill="#CCC" mask="url(#b)"/><path d="M174.115 168.985c-5.963-40.11 4.269-88.82 4.373-89.309l3.193.682c-.103.482-10.211 48.63-4.336 88.146l-3.23.48z" fill="#CCC" mask="url(#b)"/><path fill="#FFF" mask="url(#b)" d="M221.652 234.155l-21.672-7.32-4.498-22.426 17.175-15.109 21.673 7.32 4.498 22.426z"/><path d="M201.396 225.591l19.885 6.715 15.76-13.863-4.127-20.578-19.885-6.716-15.76 13.863 4.127 20.58zm20.627 10.412l-23.46-7.922-4.866-24.275 18.59-16.354 23.46 7.921 4.868 24.277-18.592 16.353z" fill="#E7A1AA" mask="url(#b)"/><path fill="#FFF" mask="url(#b)" d="M219.813 224.984l-12.81-4.326-2.659-13.257 10.152-8.93 12.811 4.326 2.66 13.257z"/><path d="M208.42 219.412l11.023 3.723 8.736-7.686-2.288-11.407-11.023-3.723-8.739 7.685 2.29 11.408zm11.765 7.42l-14.599-4.928-3.029-15.105 11.568-10.178 14.598 4.931 3.03 15.105-11.568 10.176z" fill="#E7A1AA" mask="url(#b)"/><path d="M414.137 126.237c-4.174 7.297-15.39 7.709-22.171 11.65-6.994 4.068-12.982 13.516-21.074 13.555-7.842.038-13.882-9.216-21.179-13.39-7.297-4.174-18.336-4.689-22.279-11.468-4.067-6.995 1.042-16.944 1.003-25.035-.04-7.843-5.369-17.72-1.194-25.016 4.174-7.297 15.39-7.71 22.171-11.652 6.994-4.066 12.982-13.513 21.074-13.554 7.842-.038 13.882 9.216 21.18 13.39 7.296 4.175 18.335 4.689 22.278 11.468 4.067 6.995-1.042 16.945-1.003 25.035.04 7.843 5.369 17.72 1.194 25.017" fill="#E6E6E6" mask="url(#b)"/><path d="M414.229 114.353c-4.175 7.297-15.391 7.709-22.172 11.65-6.994 4.068-12.982 13.515-21.074 13.555-7.842.038-13.881-9.216-21.178-13.39-7.298-4.174-18.337-4.689-22.28-11.468-4.067-6.995 1.042-16.944 1.003-25.035-.039-7.843-5.368-17.72-1.194-25.016 4.174-7.297 15.39-7.71 22.171-11.652 6.994-4.066 12.983-13.513 21.074-13.554 7.843-.038 13.882 9.216 21.18 13.39 7.297 4.175 18.336 4.689 22.278 11.468 4.068 6.995-1.042 16.945-1.003 25.035.04 7.843 5.369 17.72 1.195 25.017" fill="#FFF" mask="url(#b)"/><path d="M370.627 42.71h-.032c-3.952.02-7.688 3.393-11.645 6.964-2.462 2.223-5.008 4.522-7.804 6.146-2.684 1.563-5.859 2.59-8.93 3.585-5.125 1.66-9.967 3.23-12.046 6.866-2.08 3.636-.979 8.605.188 13.864.698 3.15 1.421 6.408 1.436 9.514.017 3.232-.675 6.592-1.343 9.841-1.074 5.22-2.087 10.151-.1 13.567 1.889 3.25 6.595 4.8 11.58 6.439 3.226 1.062 6.563 2.16 9.495 3.837 2.933 1.677 5.57 3.997 8.12 6.24 3.93 3.455 7.643 6.719 11.39 6.719h.032c3.952-.02 7.687-3.392 11.644-6.964 2.463-2.223 5.008-4.523 7.804-6.147 2.685-1.561 5.86-2.59 8.93-3.584 5.125-1.661 9.967-3.23 12.046-6.866h.001c2.08-3.636.98-8.605-.188-13.864-.699-3.151-1.422-6.408-1.437-9.514-.015-3.233.675-6.592 1.344-9.842 1.074-5.221 2.089-10.152.1-13.568-1.888-3.25-6.595-4.798-11.578-6.437-3.227-1.063-6.564-2.16-9.498-3.838-2.932-1.678-5.57-3.998-8.122-6.24-3.928-3.455-7.64-6.718-11.387-6.718zm.307 100.114c-6.21 0-11.036-4.243-15.702-8.347-2.412-2.12-4.692-4.125-7.05-5.474-2.358-1.349-5.241-2.298-8.293-3.302-5.924-1.95-12.05-3.965-15.187-9.36-3.24-5.572-1.865-12.263-.65-18.167.628-3.056 1.223-5.942 1.21-8.493-.012-2.407-.629-5.187-1.282-8.13-1.32-5.952-2.815-12.695.518-18.523 3.334-5.83 9.907-7.958 15.706-9.837 2.868-.93 5.579-1.807 7.66-3.016 2.205-1.283 4.392-3.259 6.71-5.349 4.472-4.039 9.543-8.617 15.989-8.648h.067c6.208 0 11.033 4.241 15.699 8.344 2.414 2.122 4.693 4.127 7.05 5.476 2.36 1.35 5.244 2.298 8.297 3.303 5.923 1.949 12.047 3.964 15.185 9.359 3.24 5.572 1.864 12.263.65 18.167-.63 3.056-1.224 5.942-1.21 8.493.011 2.407.628 5.188 1.28 8.131 1.321 5.951 2.817 12.694-.519 18.523h.002c-3.334 5.829-9.907 7.958-15.705 9.837-2.87.929-5.578 1.807-7.66 3.017-2.206 1.282-4.394 3.257-6.71 5.349-4.473 4.039-9.542 8.615-15.989 8.647h-.066z" fill="#C2132B" mask="url(#b)"/><path fill="#CCC" mask="url(#b)" d="M698.631 48.875L657.143 7.39l-41.49 41.485-2.309-2.31 43.799-43.794 43.797 43.795z"/><path d="M666.76 11.612a9.617 9.617 0 0 1-9.617 9.617c-5.312 0-9.618-4.305-9.618-9.617 0-5.311 4.306-9.616 9.618-9.616 5.31 0 9.617 4.305 9.617 9.616" fill="#FFF" mask="url(#b)"/><path d="M657.142 3.63c-4.402 0-7.984 3.58-7.984 7.982 0 4.403 3.582 7.985 7.984 7.985s7.984-3.582 7.984-7.985c0-4.401-3.582-7.983-7.984-7.983m0 19.234c-6.202 0-11.25-5.047-11.25-11.25 0-6.204 5.048-11.25 11.25-11.25 6.203 0 11.25 5.046 11.25 11.25 0 6.203-5.047 11.25-11.25 11.25" fill="#CCC" mask="url(#b)"/><path d="M262.56 107.15h20.992l-10.39-33.869-10.602 33.87zm25.41 3.267h-29.854l15.078-48.17 14.777 48.17z" fill="#C2132B" mask="url(#b)"/><path fill="#C2132B" mask="url(#b)" d="M271.545 119.322h3.266V67.763h-3.266z"/><path fill="#C2132B" mask="url(#b)" d="M272.317 102.858l-9.406-5.836 1.722-2.775 9.406 5.836zm1.615-6.107l-1.508-2.897 7.285-3.792 1.506 2.898zm-33.16-1.144h13.837l-6.988-22.326-6.849 22.326zm18.282 3.266h-22.7l11.235-36.627 11.465 36.627z"/><path fill="#C2132B" mask="url(#b)" d="M245.972 104.813h3.266v-37.05h-3.266z"/><path fill="#C2132B" mask="url(#b)" d="M248.466 92.76l-1.722-2.775 6.759-4.194 1.722 2.775zm230.016-25.948c-10.323 0-18.721 8.399-18.721 18.72 0 10.323 8.398 18.721 18.721 18.721 10.322 0 18.721-8.398 18.721-18.72s-8.399-18.72-18.721-18.72m0 40.706c-12.124 0-21.987-9.863-21.987-21.987 0-12.122 9.863-21.986 21.987-21.986 12.124 0 21.987 9.864 21.987 21.986 0 12.124-9.863 21.987-21.987 21.987M370.945 63.494c-5.582 0-10.124 4.541-10.124 10.123 0 3.271-1.019 6.372-2.098 9.655-1.218 3.705-2.476 7.536-2.476 12.118 0 3.437 1.431 11.431 14.698 11.431 13.266 0 14.698-7.994 14.698-11.43 0-4.683-1.356-8.875-2.553-12.572-1.04-3.214-2.022-6.25-2.022-9.202 0-5.582-4.541-10.123-10.123-10.123m0 46.593c-11.082 0-17.965-5.631-17.965-14.697 0-5.105 1.403-9.373 2.64-13.138 1.04-3.16 1.935-5.887 1.935-8.635 0-7.382 6.007-13.389 13.39-13.389 7.383 0 13.39 6.007 13.39 13.389 0 2.436.863 5.106 1.863 8.196 1.27 3.928 2.711 8.379 2.711 13.577 0 9.066-6.883 14.697-17.964 14.697"/><path fill="#C2132B" mask="url(#b)" d="M476.522 117.631h3.266V79.345h-3.266z"/><path fill="#C2132B" mask="url(#b)" d="M479.31 99.876L477 97.567l7.573-7.572 2.31 2.31zM477 93.2l-6.594-6.594 2.31-2.31 6.594 6.595zm-107.876 28.595h3.266v-13.064h-3.266zm-11.488-22.091c-1.073 0-2.147-.114-3.189-.341l.696-3.192c.814.177 1.654.267 2.493.267 6.428 0 11.659-5.23 11.659-11.657h3.266c0 8.23-6.695 14.923-14.925 14.923"/><path d="M384.11 99.704c-8.231 0-14.926-6.694-14.926-14.923h3.266c0 6.427 5.23 11.657 11.66 11.657a11.7 11.7 0 0 0 2.622-.296l.731 3.184a14.998 14.998 0 0 1-3.353.378m-26.474-17.118v-3.267c6.428 0 11.659-5.23 11.659-11.657h3.266c0 8.23-6.695 14.924-14.925 14.924" fill="#C2132B" mask="url(#b)"/><path d="M384.11 82.586c-8.231 0-14.926-6.695-14.926-14.924h3.266c0 6.428 5.23 11.657 11.66 11.657v3.267z" fill="#C2132B" mask="url(#b)"/><path fill="#C2132B" mask="url(#b)" d="M369.295 89.225h3.266V62.6h-3.266z"/><path fill="#E6E6E6" mask="url(#b)" d="M646.134 250.526H96.882v26.94h21.237v64.795h33.57v-64.796h438.18v64.796h33.616v-64.796h22.65z"/><path fill="#FFF" mask="url(#b)" d="M119.647 331.274h30.54v-76.28h-30.54z"/><path d="M121.279 329.641h27.273v-73.014H121.28v73.014zm-3.266 3.266h33.806v-79.546h-33.806v79.546z" fill="#CCC" mask="url(#b)"/><path fill="#FFF" mask="url(#b)" d="M591.742 331.274h30.247v-76.28h-30.247z"/><path d="M593.375 329.641h26.98v-73.014h-26.98v73.014zm-3.266 3.266h33.513v-79.546h-33.513v79.546z" fill="#CCC" mask="url(#b)"/><path fill="#FFF" mask="url(#b)" d="M103.415 264.301h535.098v-26.939H103.415z"/><path d="M105.048 262.668H636.88v-23.674H105.048v23.674zm-3.267 3.266h538.366v-30.206H101.78v30.206zM363.07 214.19l-5.338 5.338-5.34-5.337z" fill="#CCC" mask="url(#b)"/><path d="M363.813 206.167h6.805" fill="#FFF" mask="url(#b)"/><path fill="#CCC" mask="url(#b)" d="M363.813 207.8h6.804v-3.266h-6.804z"/><path d="M344.215 206.167h6.805" fill="#FFF" mask="url(#b)"/><path fill="#CCC" mask="url(#b)" d="M344.215 207.8h6.805v-3.266h-6.805z"/><path d="M434.845 221.545h-25.308c-4.047 0-7.358 3.31-7.358 7.357 0 4.047 3.311 7.358 7.358 7.358h25.308c4.047 0 7.358-3.311 7.358-7.358 0-4.046-3.31-7.357-7.358-7.357" fill="#FFF" mask="url(#b)"/><path d="M409.537 223.178a5.73 5.73 0 0 0-5.725 5.724 5.732 5.732 0 0 0 5.725 5.725h25.308a5.732 5.732 0 0 0 5.725-5.725 5.73 5.73 0 0 0-5.725-5.724h-25.308zm25.308 14.715h-25.308c-4.958 0-8.99-4.033-8.99-8.99 0-4.959 4.032-8.991 8.99-8.991h25.308c4.959 0 8.991 4.032 8.991 8.99s-4.032 8.991-8.99 8.991zm-58.133-1.633h3.267v-6.735h-3.267zm6.533 0h3.266v-6.735h-3.266zm-51.172 0h3.266v-6.735h-3.266zm6.533 0h3.266v-6.735h-3.266z" fill="#CCC" mask="url(#b)"/><path fill="#CCC" mask="url(#b)" d="M407.197 236.26h3.267v-6.735h-3.267zm6.533 0h3.266v-6.735h-3.266z"/><path d="M713.395 179.812H598.713c-3.593 0-6.533-2.94-6.533-6.532V54.252c0-3.592 2.94-6.532 6.533-6.532h114.682c3.593 0 6.532 2.94 6.532 6.532V173.28c0 3.593-2.94 6.532-6.532 6.532" fill="#FFF" mask="url(#b)"/><path d="M598.712 49.353a4.905 4.905 0 0 0-4.9 4.9V173.28a4.904 4.904 0 0 0 4.9 4.9h114.683c2.701 0 4.9-2.198 4.9-4.9V54.252a4.905 4.905 0 0 0-4.9-4.899H598.712zm114.683 132.092H598.712c-4.503 0-8.166-3.662-8.166-8.165V54.252c0-4.502 3.663-8.165 8.166-8.165h114.683c4.503 0 8.166 3.663 8.166 8.165V173.28c0 4.503-3.663 8.165-8.166 8.165z" fill="#E7A1AA" mask="url(#b)"/><path d="M610.471 158.444V93.847c0-14.102 11.474-25.573 25.575-25.573 14.102 0 25.575 11.471 25.575 25.573v64.597h-51.15zm77.672-48.99c-8.188 0-14.852-6.662-14.852-14.85V68.97h29.704v25.636c0 8.187-6.663 14.85-14.852 14.85m-65.75 34.249h26.947m-37.563-13.609h47.906M671.66 84.19h32.968" fill="#FFF" mask="url(#b)"/><path d="M674.925 82.558h26.436V70.603h-26.436v11.955zm26.436 12.047c0 7.287-5.93 13.216-13.217 13.216-7.29 0-13.219-5.929-13.219-13.216v-8.782h26.436v8.782zM671.66 67.337v27.268c0 9.103 7.38 16.482 16.485 16.482 9.104 0 16.483-7.379 16.483-16.482V67.337H671.66z" fill="#E7A1AA" mask="url(#b)"/><path d="M688.143 158.444c-8.188 0-14.852-6.661-14.852-14.85V117.96h29.704v25.636c0 8.188-6.663 14.85-14.852 14.85M671.66 133.18h32.968" fill="#FFF" mask="url(#b)"/><path d="M674.925 131.549h26.436v-11.956h-26.436v11.956zm26.436 12.046c0 7.287-5.93 13.216-13.217 13.216-7.29 0-13.219-5.929-13.219-13.216v-8.781h26.436v8.78zm-29.702-27.268v27.267c0 9.104 7.38 16.483 16.485 16.483 9.104 0 16.483-7.379 16.483-16.482v-27.268H671.66z" fill="#E7A1AA" mask="url(#b)"/><path d="M651.974 100.07c0 11.883-7.334 21.516-16.38 21.516s-16.38-9.633-16.38-21.516 7.334-21.517 16.38-21.517 16.38 9.634 16.38 21.517" fill="#FFF" mask="url(#b)"/><path d="M612.105 156.811h47.883V131.73h-47.883v25.082zm23.942-86.904c13.2 0 23.941 10.739 23.941 23.94v34.616h-47.883V93.847c0-13.201 10.74-23.94 23.942-23.94zm0-3.266c-15.027 0-27.208 12.18-27.208 27.206v66.23h54.416v-66.23c0-15.026-12.181-27.206-27.208-27.206z" fill="#E7A1AA" mask="url(#b)"/><path fill="#E7A1AA" mask="url(#b)" d="M622.393 145.338h26.946v-3.266h-26.946zm13.201-65.151c8.132 0 14.747 8.92 14.747 19.883s-6.615 19.883-14.747 19.883c-8.131 0-14.747-8.92-14.747-19.883 0-10.964 6.616-19.883 14.747-19.883m0 43.032c9.932 0 18.013-10.385 18.013-23.149 0-12.764-8.08-23.15-18.013-23.15-9.932 0-18.013 10.386-18.013 23.15s8.081 23.149 18.013 23.149"/></g></svg>