<svg id="expanded" xmlns="http://www.w3.org/2000/svg" viewBox="0 0 40 40"><defs><style>.cls-1{fill:#9fa0a4}.cls-2{fill:#fff}</style></defs><title>badge-panels-export-tool</title><g id="hex"><path class="cls-1 shape" d="M35.05 30.39l-13.57 7.83a3 3 0 0 1-3 0L4.9 30.39a3 3 0 0 1-1.5-2.6V12.11a3 3 0 0 1 1.5-2.6l13.58-7.83a3 3 0 0 1 3 0l13.57 7.84a3 3 0 0 1 1.5 2.6v15.67a3 3 0 0 1-1.5 2.6z" id="hex-bg-panel"/><path class="cls-2" d="M20 34.95a3.49 3.49 0 0 1-1.75-.47l-10-5.75a3.51 3.51 0 0 1-1.75-3V14.2a3.51 3.51 0 0 1 1.75-3l10-5.75a3.51 3.51 0 0 1 3.5 0l10 5.75a3.51 3.51 0 0 1 1.75 3v11.5a3.51 3.51 0 0 1-1.75 3l-10 5.75a3.49 3.49 0 0 1-1.75.5zM20 6a2.49 2.49 0 0 0-1.25.33L8.77 12a2.51 2.51 0 0 0-1.25 2.2v11.5a2.51 2.51 0 0 0 1.25 2.17l10 5.75a2.51 2.51 0 0 0 2.5 0l10-5.75a2.51 2.51 0 0 0 1.25-2.17V14.2a2.51 2.51 0 0 0-1.34-2.2l-10-5.75A2.5 2.5 0 0 0 20 6z" id="hex-border-stripe"/></g></svg>