<svg width="20" height="20" viewBox="0 0 20 20" xmlns="http://www.w3.org/2000/svg"><title>integrationthumb</title><path d="M7.323 11.284l-1.115 1.115-1.114 1.115-1.114 1.114-.05.05L2.156 12.9 2 18l5.1-.154-1.776-1.776.049-.049 1.114-1.114 1.115-1.115 1.115-1.115.168-.168-1.393-1.393-.17.168zm8.747 3.393l-.05-.049-1.114-1.114-1.114-1.115-1.115-1.115-.169-.168-1.392 1.393.168.168 1.114 1.115 1.115 1.115 1.114 1.114.05.049-1.777 1.776L18 18l-.155-5.099-1.775 1.776zM7.602 6.208L6.487 5.094 5.373 3.979l-.049-.049L7.1 2.155 2 2l.155 5.1L3.93 5.323l.049.048 1.114 1.115 1.114 1.115 1.115 1.114.169.168L8.884 7.49l-.168-.168-1.115-1.115zm5.075 2.508l1.115-1.114 1.114-1.115 1.115-1.115.049-.048 1.775 1.775L18 2l-5.1.155 1.776 1.775-.049.05-1.114 1.114-1.115 1.114-1.114 1.115-.168.168 1.392 1.393.169-.168z" fill="#FDFDFD" fill-rule="evenodd"/></svg>