<svg width="45" height="48" viewBox="0 0 45 48" xmlns="http://www.w3.org/2000/svg"><title>logo</title><g fill="none" fill-rule="evenodd"><path fill="#C30A28" d="M43.66 35.884l-19.522 11.49-19.523-11.49V12.903L24.138 1.412l19.523 11.49z"/><path fill="#FFF" d="M42.987 23.354l-10.704-7.922-4.24-3.607-1.881-1.001-4.268 2.633-4.071.486-4.914 2.09-5.93 3.302-5.133 1.45v3.492l1.404 2.261 4.043 1.317 10.979 1.574 20.694 8.83 3.233-2.27.613-.777z"/><path d="M24.1 46.24L5.2 35.116v-7.55c1.127.294 2.571.555 4.48.844l.038.006.04.006c5.283.81 7.656 2.097 7.825 2.19a28.43 28.43 0 0 1 9.523 10.127c.521.938.987 1.904 1.384 2.87l.015.038L24.1 46.24zm-9.68-25.258c-.017 0-.032.003-.048.005a.896.896 0 0 1 .108-.068.607.607 0 0 1 .29-.077c.169 0 .306.075.412.118a7.2 7.2 0 0 1 .593.303c-.296.043-.508.345-.89.475a.793.793 0 0 1-.169.033.455.455 0 0 0-.297-.789zm14.705-.786c-.333 0-.799-.317-.799-.317.388-.251.458-.79.458-.79a.561.561 0 0 1-.46.233c-.083 0-.139-.018-.139-.018.106-.251-.035-.503-.035-.503a.64.64 0 0 1-.575.322c-.136 0-.236-.034-.236-.034.113-.375.022-.818-.018-.979l-.017-.063a.248.248 0 0 1-.025.043c-.203.325-1.46 1.152-2.301 1.358-.166.04-.285.057-.37.057-.368 0-.089-.308-.089-.308s.03-.053.088-.137l.002-.003a3.14 3.14 0 0 1 1.673-1.19c.092-.027.186-.051.282-.075.415-.102.857-.17 1.276-.17.781 0 1.479.235 1.755.928.175.44.378 1.035.512 1.59.11.456.172.884.133 1.175a.539.539 0 0 1-.044.207h-.013c-.052.107-.134.17-.258.17a.485.485 0 0 1-.119-.016c-.564-.144-1.198-.898-1.198-.898.388-.144.67-.611.67-.611a.367.367 0 0 1-.153.03zm-24.983 2.11c-.083-.473-.941-1.346-1.272-1.668.745-.2 2.172-.584 3.884-1.04 1.62-.433 7.519-5.11 11.928-5.723.575-.08 1.204-.148 1.878-.194.034.003.072.005.117.005.081 0 .167-.008.256-.018.387.006.995.025 1.756.085 1.202.115 2.42.3 3.023.398.516.084 1.372.274 2.314.499 2.043.548 4.19 1.4 6.013 2.722 4.733 3.434 7.445 5.96 7.601 6.318.15.345-7.806-.418-10.652-2.963-.112-.906-.502-1.98-.725-2.541-.24-.604-.848-1.325-2.374-1.325-.706 0-1.397.158-1.852.29a3.856 3.856 0 0 0-.35.124 12.302 12.302 0 0 0-1.47-.3c-1.326-.199-3.43-.517-7.913.874-4.483 1.39-9.433 3.974-10.213 4.808-.78.834.078 2.027.78 2.543.702.517 1.442 1.391 1.715.676.273-.716.156-.875 1.17-.795 1.013.08 6.665.715 9.315.08 2.651-.636 5.302-1.391 5.808-1.948 0 0-.039.676-.234 1.033 0 0 1.13-.158 1.52-.437 0 0-.039.477-.311.676 0 0 .662.238 1.17-.08 0 0-.43.398-.313.755.117.358 1.209.477 3.508.755 2.085.253 7.052 3.737 10.953 10.276l-1.169.689c-1.72-1.055-4.107-2.517-6.159-3.772-3.703-2.265-9.744-4.69-15.045-4.888-3.81-.143-8.171-.178-12.154-1.135 1.125.098 2.432.179 3.43.142.404-.015.792-.035 1.165-.053 1.6-.079 2.864-.141 3.735.196.028.01.056.016.083.016a.234.234 0 0 0 .22-.154.24.24 0 0 0-.136-.308c-.963-.372-2.27-.308-3.925-.226-.37.018-.757.037-1.158.052-2.1.079-5.67-.152-6.873-.804.21-.623 1.05-3.107.956-3.64zm19.043-9.249l-.048.004a6.522 6.522 0 0 1-.19.015l-.081.006a4.895 4.895 0 0 1-.366.005 27.132 27.132 0 0 0 .324-.234c.233-.164.458-.328.674-.485.875-.635 1.639-1.19 2.17-1.278a.866.866 0 0 1 .14-.014c.045 0 .089.005.129.014.402.09 1.128.557 1.778 1.075-.018.07-.03.147-.036.219-.007.071-.01.139-.013.193a1.04 1.04 0 0 1-.017.156c-.02.101-.054.165-.088.192l-.005.004a.055.055 0 0 1-.03.01.127.127 0 0 1-.058-.018c-.124-.069-.182-.303-.193-.379l-.03-.22-.194.1a4.379 4.379 0 0 0-.254.145c-.092.055-.221.133-.3.163.022-.407-.383-.75-.429-.787l-.162-.132-.08.195c-.226.556-1.604.952-2.689 1.055l.048-.004zM5.2 12.867L24.1 1.742 43 12.867v9.428c-3.37-3.35-6.966-5.846-10.692-7.416a.456.456 0 0 0-.08-.05c-1.276-.72-2.467-1.75-2.908-2.252-.762-.868-2.365-2.07-3.214-2.263a1.353 1.353 0 0 0-.298-.033c-.781 0-1.655.635-2.762 1.44-.214.156-.437.317-.666.48-.575.406-.872.577-1.024.648a26.962 26.962 0 0 0-2.78.239c-3.063.425-6.668 2.627-9.3 4.234-1.17.714-2.275 1.388-2.72 1.506l-1.357.363v-6.324zm38.425-1.102L24.724.641a1.227 1.227 0 0 0-1.248 0l-18.9 11.124a1.276 1.276 0 0 0-.624 1.102v6.658l-1.838.495c-1.064.282-1.712.756-1.983 1.448-.4 1.027.188 2.214.817 3.24.728 1.188 1.498 1.914 3.004 2.473v7.935c0 .454.237.874.623 1.1l18.9 11.125a1.229 1.229 0 0 0 1.248 0l18.9-11.124c.387-.227.624-.647.624-1.101v-22.25c0-.454-.237-.873-.623-1.1z" fill="#05012C"/></g></svg>