<svg id="Layer_1" xmlns="http://www.w3.org/2000/svg" viewBox="-926 925 84 84"><style>.st0{fill:#fff}.st1{fill:none;stroke:#e1e0e5;stroke-width:4}.st2{fill:#05012c;fill-opacity:.12}</style><title>placeholderavatar-issuer</title><path id="path-1" class="st0" d="M-918 927h68c3.3 0 6 2.7 6 6v68c0 3.3-2.7 6-6 6h-68c-3.3 0-6-2.7-6-6v-68c0-3.3 2.7-6 6-6z"/><g id="Symbols"><g id="Placeholder-_x2F_-Issuer"><g id="image"><g id="bounds"><path id="path-1_1_" class="st1" d="M-918 927h68c3.3 0 6 2.7 6 6v68c0 3.3-2.7 6-6 6h-68c-3.3 0-6-2.7-6-6v-68c0-3.3 2.7-6 6-6z"/></g></g></g></g><path class="st2" d="M-863.8 951.1l-4.8-4.8-15.4 15.6-15.6-15.6-4.6 4.8 15.4 15.4-15.4 15.6 4.6 4.7 15.6-15.4 15.4 15.4 4.8-4.7-15.5-15.6z"/></svg>