<svg id="expanded" xmlns="http://www.w3.org/2000/svg" viewBox="0 0 40 40"><defs><style>.cls-1{fill:#9fa0a4}.cls-2{fill:#fff}</style></defs><title>badge-panels-export-tool</title><g id="round-bottom"><path class="cls-1 shape" d="M2.8 20.39a17.57 17.57 0 0 0 17.7 17.23 17.92 17.92 0 0 0 17.71-17.85V6.24A3.39 3.39 0 0 0 35.06 3H5.66C4 3 2.78 4.84 2.78 6.2z" id="round-bottom-bg-panel"/><path class="cls-2" d="M20.5 33.38A13.33 13.33 0 0 1 7 20.25V9.16A2.19 2.19 0 0 1 9.33 7h22.35A2.2 2.2 0 0 1 34 9.18v10.6a13.56 13.56 0 0 1-13.5 13.6zM8 20.24a12.34 12.34 0 0 0 12.5 12.14A12.71 12.71 0 0 0 33 19.79V9.18A1.21 1.21 0 0 0 31.68 8H9.33A1.21 1.21 0 0 0 8 9.16v11.08z" id="round-bottom-border-stripe"/></g></svg>