<svg id="expanded" xmlns="http://www.w3.org/2000/svg" viewBox="0 0 40 40"><defs><style>.cls-1{fill:#9fa0a4}.cls-2{fill:#fff}</style></defs><title>badge-panels-export-tool</title><g id="round-top"><path class="cls-1 shape" d="M37.26 18.84A16.64 16.64 0 0 0 20.5 2.52 17 17 0 0 0 3.73 19.44v16.2A2.24 2.24 0 0 0 6 37.88h29a2.63 2.63 0 0 0 2.35-2.64z" id="round-top-bg-panel"/><path class="cls-2" d="M31.08 34H9.91a2.1 2.1 0 0 1-2.21-2.09V19.42A12.87 12.87 0 0 1 20.5 6.51 12.65 12.65 0 0 1 33.29 19v13a2.1 2.1 0 0 1-2.21 2zM20.5 7.51A12 12 0 0 0 8.7 19.42v12.5A1.12 1.12 0 0 0 9.91 33h21.17a1.11 1.11 0 0 0 1.22-1.06V18.99A11.66 11.66 0 0 0 20.5 7.51z" id="round-top-border-stripe"/></g></svg>