<svg width="24" height="24" viewBox="0 0 24 24" xmlns="http://www.w3.org/2000/svg"><title>icon-search-red</title><g fill="none" fill-rule="evenodd"><path d="M0 0h24v24H0z"/><path d="M22 20.189l-5.179-5.179a8.148 8.148 0 0 0 1.572-4.813A8.196 8.196 0 0 0 10.197 2 8.196 8.196 0 0 0 2 10.197a8.196 8.196 0 0 0 8.197 8.196 8.148 8.148 0 0 0 4.813-1.572L20.19 22 22 20.189zm-11.803-4.357a5.642 5.642 0 0 1-5.636-5.635 5.642 5.642 0 0 1 5.636-5.636 5.642 5.642 0 0 1 5.635 5.636 5.642 5.642 0 0 1-5.635 5.635z" fill="#C30A28"/></g></svg>