<svg width="496" height="499" viewBox="0 0 496 499" xmlns="http://www.w3.org/2000/svg"><title>shape-12</title><path d="M495.536 250.031c0-12.397-6.77-22.73-16.445-28.976 15.976-62.342 19.627-154.826-48.11-187.69-64.128-31.096-128.136-18.532-150.977-12.342C274.536 8.84 262.409.245 248.131.245c-14.302 0-26.516 8.651-31.96 20.929-22.294-6.12-86.969-19.167-151.611 12.19C-3.21 66.23.496 158.714 16.448 221.054 6.75 227.302-.004 237.635-.004 250.032c0 12.333 6.69 22.603 16.246 28.865-15.746 62.317-19.19 154.262 48.318 187 64.642 31.357 129.317 18.333 151.61 12.19C221.616 490.365 233.83 499 248.132 499c14.278 0 26.405-8.58 31.873-20.73 22.841 6.167 86.85 18.73 150.976-12.373 67.516-32.738 64.087-124.683 48.286-187 9.555-6.262 16.27-16.532 16.27-28.865" fill="#CCC" fill-rule="evenodd"/></svg>