<svg width="451" height="496" viewBox="0 0 451 496" xmlns="http://www.w3.org/2000/svg"><title>shape-10</title><path d="M436.813 200.462c-33.931-95.815 4.973-146.959 4.973-146.959l-45.028-31.678s-20.376 26.781-45.116 25.165C329.6 45.538 308.169 29.92 306.745.716H143.45c-1.425 29.205-22.863 44.822-44.897 46.274C73.82 48.606 53.45 21.825 53.45 21.825L8.436 53.503s38.877 51.144 4.966 146.96c-33.945 95.787-2.842 199.725 86.925 227.328 82.897 25.486 119.322 61.986 124.418 67.432v.774s.15-.165.349-.398c.198.233.356.398.356.398v-.774c5.096-5.446 41.52-41.946 124.418-67.432 89.767-27.603 120.897-131.541 86.945-227.329" fill="#CCC" fill-rule="evenodd"/></svg>