<svg width="496" height="415" viewBox="0 0 496 415" xmlns="http://www.w3.org/2000/svg"><title>shape-14</title><path d="M495.265 210.157c0-17.31-7.14-32.922-18.598-44.169-.106-.162-12.486-13.93-18.754-23.253-6.669-11.451-14.95-28.331-21.471-50.606-5.648-19.035-18.543-31.627-35.043-38.55C397.653 24.158 330.35.728 247.632.728c-82.768 0-150.07 23.43-153.817 52.853-16.493 6.922-29.388 19.514-34.986 38.549-6.578 22.275-14.796 39.155-21.479 50.606-6.317 9.323-18.648 23.091-18.803 23.253-11.45 11.247-18.55 26.86-18.55 44.169 0 .373.057.676.107 1.042-.05.352-.106.655-.106 1.021 0 17.317 7.098 32.937 18.55 44.184.154.154 12.485 13.922 18.802 23.225 6.683 11.45 14.901 28.359 21.479 50.634 5.598 19.028 18.542 31.676 35.084 38.605.367 3.057 1.395 5.824 3.141 8.162 3.902 5.296 11.092 8.437 19.057 8.437.669 0 1.288-.05 1.95-.099 7.402-.422 14.648-.676 21.634-.676 59.852 0 91.648 16.437 107.732 29.493v.31c.05-.056.155-.113.205-.162.056.05.162.106.211.162v-.31c16.028-13.056 47.88-29.493 107.732-29.493 6.937 0 14.233.254 21.627.676.62.05 1.289.099 1.902.099 8.02 0 15.161-3.14 19.063-8.437 1.746-2.338 2.824-5.105 3.183-8.162 16.493-6.93 29.444-19.577 35.092-38.605 6.52-22.275 14.802-39.183 21.471-50.634 6.268-9.303 18.648-23.07 18.754-23.225 11.458-11.247 18.598-26.867 18.598-44.184 0-.366-.105-.669-.105-1.02 0-.367.105-.67.105-1.043" fill="#CCC" fill-rule="evenodd"/></svg>