<svg width="454" height="497" viewBox="0 0 454 497" xmlns="http://www.w3.org/2000/svg"><title>shape-29</title><path d="M437.54 206.89c-7.25-19.467-13.638-37.234-15.525-62.322-.484-23.299.88-42.597 5.073-53.049 8.855-22.104 16.379-32.87 16.379-32.87S338.637 68.89 338.637.051H114.442c0 68.838-104.79 58.596-104.79 58.596S17.08 69.415 26.014 91.52c4.178 10.452 5.54 29.75 5.04 53.049-1.862 25.088-8.282 42.855-15.483 62.322-33.718 90.984-14.387 197.323 74.782 223.549 84.411 24.863 131.202 62.266 135.944 66.177v.387s.169-.12.258-.218c.024.097.21.218.21.218l.048-.387c4.726-3.911 51.476-41.314 135.927-66.177 89.194-26.226 108.428-132.565 74.799-223.549" fill="#CCC" fill-rule="evenodd"/></svg>