<svg width="500" height="407" viewBox="0 0 500 407" xmlns="http://www.w3.org/2000/svg"><title>shape-22</title><path d="M499.993 202.836h-.172c-2.192-2.657-23.085-28.764-36.942-75.871-6.058-20.457-19.643-34.086-37.108-42.036-5.264-17.607-17.2-29.335-32.514-35.8C389.78 21.83 327.171.022 250.157.022 173.243.022 110.6 21.83 107.164 49.13c-15.314 6.465-27.35 18.215-32.571 35.907-.05.15-.114.265-.114.415-17.308 7.928-30.965 21.55-36.9 41.9-13.609 46.27-33.922 72.12-36.743 75.556h-.8c0 .028-.036.05-.036.05h.236c.05.057.164.186.164.264v.022h.1c2.757 3.45 23.086 29.314 36.657 75.564 5.964 20.343 19.622 33.986 36.929 41.928.071.122.1.25.128.415 5.265 17.664 17.272 29.414 32.565 35.843 3.471 27.371 66.071 49.15 143.042 49.15 76.943 0 139.6-21.779 143.015-49.15 15.335-6.429 27.328-18.179 32.543-35.8 17.428-7.915 31.05-21.565 37.071-41.993 13.886-47.107 34.779-73.215 36.943-75.872h.243s0-.05-.086-.085h.136c0-.022.057-.129.135-.158l.172-.021s-.05-.05-.1-.107c.05-.022.1-.122.1-.122" fill="#CCC" fill-rule="evenodd"/></svg>