<svg width="494" height="361" viewBox="0 0 494 361" xmlns="http://www.w3.org/2000/svg"><title>shape-17</title><path d="M493.758 180.592c0-8.02-4.437-14.772-10.71-18.791 10.298-40.31 11.925-98.355-31.037-121.254-47.007-25.075-101.646-9.582-108.418-9.582-64.652 0-81.095-15.766-96.424-30.474v-.532c-.095.076-.184.158-.278.234a1.877 1.877 0 0 1-.285-.234V.49c-15.348 14.708-31.76 30.474-96.405 30.474-6.792 0-61.45-15.493-108.462 9.582C-1.217 63.446.422 121.49 10.713 161.8 4.428 165.82-.002 172.573-.002 180.59c0 7.988 4.393 14.659 10.62 18.697-10.221 40.316-11.727 98.05 31.12 120.842 47.013 24.974 100.849 10.012 108.463 10.012 64.595 0 81.177 15.703 96.405 30.386v.557c.076-.094.17-.19.285-.278.094.089.183.184.278.278v-.557c15.234-14.683 31.83-30.386 96.424-30.386 7.576 0 61.411 14.962 108.418-10.012 42.848-22.791 41.342-80.526 31.152-120.842 6.209-4.038 10.595-10.709 10.595-18.696" fill="#CCC" fill-rule="evenodd"/></svg>