<svg width="498" height="390" viewBox="0 0 498 390" xmlns="http://www.w3.org/2000/svg"><title>shape-11</title><path d="M497.18 194.531h-.024c-.212-68.112-55.441-123.253-123.588-123.253-.86 0-1.677.124-2.536.153l-26.517-24.317h-7.341s-53.9.735-87.783-45.618c0 0-.535-1.388-.835-1.024-.235-.364-.794 1.024-.794 1.024-33.9 46.353-87.8 45.618-87.8 45.618h-7.318L126.126 71.43c-.864-.03-1.676-.153-2.535-.153C55.461 71.278.215 126.42-.003 194.531v.465c.218 68.112 55.465 123.253 123.594 123.253.859 0 1.67-.13 2.535-.153l26.518 24.318h7.318s53.9-.73 87.8 45.6c0 0 .559 1.411.794 1.04.3.371.835-1.04.835-1.04 33.883-46.33 87.783-45.6 87.783-45.6h7.34l26.518-24.318c.86.023 1.677.153 2.536.153 68.147 0 123.376-55.141 123.588-123.253h.023v-.1c0-.041-.023-.065-.023-.112 0-.065.023-.106.023-.147v-.106z" fill="#CCC" fill-rule="evenodd"/></svg>