<svg width="500" height="294" viewBox="0 0 500 294" xmlns="http://www.w3.org/2000/svg"><title>shape-21</title><path d="M499.245 146.029c0-24.667-13.934-45.447-33.34-53.48-1.847-23.414-17.92-42.02-38.494-44.867l-.113-.347S384.491 40.095 384.491.99H115.125c0 39.106-42.774 46.346-42.774 46.346l-.126.347C51.65 50.529 35.578 69.135 33.73 92.549c-15.513 6.42-27.16 21.18-31.373 39.42-1.407 5.2-2.36 10.62-2.36 16.34 0 24.653 13.94 45.473 33.34 53.5 1.853 23.393 17.953 41.993 38.493 44.84l.12.353s42.807 7.24 42.807 46.333h269.367c0-39.093 42.78-46.333 42.78-46.333l.12-.353c20.573-2.847 36.646-21.447 38.493-44.84 15.513-6.42 27.193-21.2 31.367-39.44 1.413-5.2 2.36-10.614 2.36-16.34" fill="#CCC" fill-rule="evenodd"/></svg>