<svg width="495" height="407" viewBox="0 0 495 407" xmlns="http://www.w3.org/2000/svg"><title>shape-7</title><path d="M494.281 202.337c0-17.276-7.109-32.879-18.544-44.097-.141-.16-12.456-13.916-18.75-23.224-6.66-11.404-14.898-28.244-21.417-50.48-5.616-19.014-18.545-31.616-35.032-38.533-.346-3.064-1.404-5.827-3.154-8.16-3.885-5.256-11.038-8.397-19.013-8.397-.654 0-1.282.019-1.942.07-7.36.442-14.635.699-21.577.699-59.718 0-91.494-16.41-107.513-29.449V.452c-.045.077-.167.115-.211.16-.045-.045-.141-.083-.186-.16v.314c-16.039 13.038-47.795 29.449-107.539 29.449-6.942 0-14.192-.257-21.583-.699a23.937 23.937 0 0 0-1.917-.07c-7.968 0-15.128 3.14-19.032 8.397-1.73 2.333-2.788 5.096-3.134 8.16-16.507 6.917-29.41 19.52-35.026 38.532-6.551 22.237-14.782 39.077-21.442 50.481-6.27 9.308-18.61 23.064-18.731 23.224C7.108 169.458-.001 185.06-.001 202.337c0 .359.07.679.09 1.006-.02.378-.09.68-.09 1.026 0 17.314 7.11 32.871 18.539 44.102.122.192 12.461 13.891 18.73 23.199 6.66 11.43 14.892 28.27 21.443 50.506 5.615 19.007 18.52 31.616 35.026 38.532.346 3.045 1.403 5.82 3.134 8.186 3.904 5.237 11.064 8.366 19.032 8.366.628 0 1.289-.02 1.917-.09 7.39-.423 14.64-.648 21.583-.648 59.744 0 91.5 16.385 107.539 29.436v.302c.045-.045.14-.09.186-.141.044.05.166.096.211.14v-.3c16.02-13.052 47.795-29.437 107.513-29.437 6.942 0 14.218.225 21.577.648.66.07 1.288.09 1.942.09 7.975 0 15.128-3.129 19.013-8.366 1.75-2.365 2.808-5.14 3.154-8.186 16.487-6.916 29.416-19.525 35.032-38.532 6.52-22.237 14.756-39.077 21.417-50.506 6.294-9.308 18.609-23.007 18.75-23.199 11.435-11.23 18.544-26.788 18.544-44.102 0-.347-.096-.648-.115-1.026.02-.327.115-.647.115-1.006" fill="#CCC" fill-rule="evenodd"/></svg>