<svg width="500" height="321" viewBox="0 0 500 321" xmlns="http://www.w3.org/2000/svg"><title>shape-23</title><path d="M499.692 160.11c0-47.81-35.283-86.968-81.17-93.836-.422-2.803-1.29-5.467-2.948-7.678-3.987-5.349-11.25-8.546-19.415-8.546-.651 0-33.401.48-38.006.243C338.639 21.063 297.929.708 250.376.432V.386h-1.059v.046c-47.56.276-88.27 20.631-107.776 49.861-4.605.237-37.362-.243-38.007-.243-8.164 0-15.44 3.197-19.414 8.546-1.665 2.21-2.52 4.875-2.954 7.678C35.278 73.142 0 112.3 0 160.109c0 .099 0 .165.033.237-.033.092-.033.184-.033.29 0 47.756 35.277 86.973 81.165 93.782.434 2.836 1.29 5.474 2.954 7.704 3.973 5.35 11.25 8.573 19.414 8.573.645 0 33.402-.487 38.007-.296 19.506 29.256 60.217 49.605 107.776 49.894v.073h.026c.171 0 .33-.046.5-.046.171 0 .336.046.507.046h.026v-.073c47.553-.29 88.263-20.638 107.777-49.894 4.605-.191 37.355.296 38.006.296 8.165 0 15.428-3.224 19.415-8.573 1.658-2.23 2.526-4.868 2.947-7.704 45.888-6.809 81.171-46.026 81.171-93.782 0-.106 0-.198-.026-.29.026-.072.026-.138.026-.237" fill="#CCC" fill-rule="evenodd"/></svg>