<svg width="498" height="362" viewBox="0 0 498 362" xmlns="http://www.w3.org/2000/svg"><title>shape-8</title><path d="M497.255 180.896c.045-.033.122-.122.122-.122l-.192-.045c-2.218-2.622-23.007-28.59-36.782-75.507-6.218-21.18-20.648-35.23-39.026-42.948-.391-3.417-1.545-6.507-3.506-9.116-4.353-5.871-12.327-9.359-21.212-9.359-.724 0-1.442.026-2.147.07-.257.02-.513.02-.77.02-.916-.41-1.756-1.07-2.718-1.442-.346-2.853-1.307-5.398-2.923-7.57-3.596-4.892-10.237-7.77-17.647-7.77-.59 0-1.218 0-1.801.045-6.827.39-13.59.654-20.026.654-55.385 0-84.872-15.244-99.744-27.334v-.3a1.214 1.214 0 0 1-.186.134 1.246 1.246 0 0 0-.192-.135v.301c-14.865 12.09-44.308 27.334-99.743 27.334-6.436 0-13.167-.263-20.02-.654-.583-.045-1.192-.045-1.801-.045-7.385 0-14.032 2.878-17.628 7.77-1.635 2.172-2.59 4.717-2.949 7.57-1.167.493-2.199 1.263-3.41 1.82h-.096a38.385 38.385 0 0 0-2.103-.07c-8.93 0-16.878 3.487-21.211 9.333-1.988 2.641-3.129 5.75-3.507 9.141-18.378 7.718-32.801 21.77-39.02 42.962C23.64 151.178 3.768 176.754.679 180.639h-.68c2.456 3.013 23.007 28.853 36.616 75.333 6.224 21.186 20.648 35.218 39.032 42.962.391 3.385 1.539 6.468 3.5 9.115 4.353 5.872 12.276 9.353 21.23 9.353.706 0 1.405-.02 2.103-.07h.122c1.193.557 2.199 1.333 3.417 1.82.327 2.852 1.282 5.378 2.897 7.577 3.603 4.884 10.244 7.763 17.648 7.763.615 0 1.218 0 1.782-.052 6.878-.41 13.583-.647 20.038-.647 55.417 0 84.879 15.244 99.75 27.333v.257c.052-.026.148-.07.193-.116.045.045.134.09.18.116v-.257c14.877-12.09 44.339-27.333 99.775-27.333 6.436 0 13.166.237 19.993.647.584.052 1.218.052 1.802.052 7.39 0 14.032-2.879 17.653-7.763 1.61-2.199 2.571-4.725 2.924-7.577.98-.365 1.782-1.026 2.718-1.468.25.02.487.02.788.02.705.05 1.423.076 2.128.076 8.91 0 16.86-3.487 21.186-9.34 1.987-2.615 3.135-5.718 3.513-9.134 18.372-7.718 32.801-21.77 39.045-42.962 13.654-46.57 34.23-72.436 36.64-75.384h.629c0-.02-.026-.045-.045-.064" fill="#CCC" fill-rule="evenodd"/></svg>