<svg width="477" height="495" viewBox="0 0 477 495" xmlns="http://www.w3.org/2000/svg"><title>shape-5</title><path d="M442.095 159.062c-44.973-80.253-9.494-105.41-9.076-105.438-.068.027-.123.027-.198.027-7.316-23.137-35.83-30.15-35.83-30.102-.095.048-.164.096-.273.15 0 0 0-.054-.02-.054-17.083 10.589-39.747 15.363-64.056 14.54-34.705-1.191-64.191-14.938-80.753-37.52 0-.055-.027-.082-.027-.11-9.165 0-18.336 0-27.528.11-16.548 22.582-46.048 36.329-80.726 37.52-24.335.823-46.972-3.951-64.089-14.54v.054c-.096-.054-.198-.102-.294-.15.02-.048-28.535 6.965-35.802 30.102-.075 0-.15 0-.233-.027.452.027 35.932 25.185-9.04 105.438-43.521 78.096-60.514 185.781 42.218 250.048 74.535 51.062 147.59 46.082 161.555 85.637.02.096.076.144.103.254v-.5c13.966-39.555 87.288-34.356 161.842-85.39 102.685-64.268 85.747-171.98 42.227-250.049" fill="#CCC" fill-rule="evenodd"/></svg>