<svg width="496" height="383" viewBox="0 0 496 383" xmlns="http://www.w3.org/2000/svg"><title>shape-24</title><path d="M495.028 193.103c0-36.784-19.888-68.645-49.347-86.229.23-2.076.66-4.152.66-6.333 0-36.778-29.826-66.618-66.625-66.618-9.396 0-18.34 2.028-26.472 5.52C324.848 15.438 288.119.84 247.973.84s-76.868 14.534-105.278 38.604c-8.083-3.493-17.028-5.521-26.423-5.521-36.834 0-66.667 29.84-66.667 66.618 0 2.444.479 4.715.701 7.049C20.417 124.562.001 156.27.001 193.103 0 229.687 20.14 261.25 49.73 278.27c.576 36.271 30.09 65.556 66.542 65.556 6.868 0 13.381-1.313 19.631-3.292 29.507 26.243 68.195 42.354 110.8 42.354 42.937 0 81.916-16.312 111.485-42.916 6.778 2.333 13.959 3.854 21.528 3.854 36.174 0 65.396-28.82 66.389-64.743 29.208-17.632 48.923-49.396 48.923-85.98" fill="#CCC" fill-rule="evenodd"/></svg>