<svg width="495" height="495" viewBox="0 0 495 495" xmlns="http://www.w3.org/2000/svg"><title>shape-1</title><path d="M494.568 247.708c0 31.647-33.161 56.454-44.723 83.947-11.7 28.546-6.2 69.453-27.669 90.946-21.6 21.469-62.4 15.969-90.992 27.807-27.5 11.385-52.246 44.593-83.87 44.593-31.684 0-56.43-33.208-83.922-44.593-28.485-11.838-69.447-6.338-90.97-27.807-21.407-21.493-15.992-62.4-27.807-90.946-11.423-27.493-44.616-52.3-44.616-83.947 0-31.569 33.193-56.4 44.616-83.923 11.815-28.477 6.4-69.415 27.807-90.915 21.523-21.47 62.485-15.962 90.97-27.754C190.884 33.678 215.63.455 247.315.455c31.623 0 56.369 33.223 83.869 44.661 28.592 11.792 69.477 6.285 90.992 27.785 21.47 21.469 15.97 62.407 27.67 90.915 11.56 27.492 44.722 52.323 44.722 83.892" fill="#CCC" fill-rule="evenodd"/></svg>