<svg width="500" height="343" viewBox="0 0 500 343" xmlns="http://www.w3.org/2000/svg"><title>shape-16</title><path d="M499.064 171.368h-.212c-2.158-2.665-23.04-28.742-36.888-75.794-6.259-21.26-20.694-35.36-39.13-43.083-.388-3.441-1.552-6.5-3.546-9.141-4.353-5.882-12.312-9.376-21.283-9.376-.711 0-1.411.011-2.123.052a382.44 382.44 0 0 1-24.153.777c-69.118 0-105.041-19.694-122.294-34.47v.529C232.123 15.62 196.246 35.197 127.37 35.197c-7.788 0-15.9-.259-24.165-.77a32.566 32.566 0 0 0-2.14-.089c-8.93 0-16.907 3.518-21.29 9.394-1.952 2.618-3.134 5.712-3.5 9.142C57.83 60.597 43.366 74.69 37.1 95.962 23.26 143.02 2.4 169.085.211 171.726H0s.089.106.13.13c-.041.041-.13.123-.13.123l.212.018C2.4 174.644 23.258 200.71 37.1 247.785c6.265 21.253 20.73 35.347 39.177 43.089.365 3.429 1.53 6.529 3.5 9.182 4.382 5.859 12.359 9.359 21.288 9.359.706 0 1.435-.024 2.141-.065 8.241-.512 16.377-.776 24.165-.776 69.112 0 105.006 19.676 122.265 34.482v-.559c17.33-14.759 53.206-34.3 122.094-34.3 7.782 0 15.912.253 24.153.77.712.042 1.412.06 2.123.06 8.97 0 16.93-3.495 21.283-9.377 1.994-2.641 3.158-5.747 3.547-9.159 18.435-7.747 32.87-21.847 39.13-43.088 13.846-47.07 34.729-73.147 36.887-75.782l.212-.024s-.065-.088-.106-.106c.041-.041.106-.123.106-.123" fill="#CCC" fill-rule="evenodd"/></svg>