<svg width="369" height="498" viewBox="0 0 369 498" xmlns="http://www.w3.org/2000/svg"><title>shape-27</title><path d="M368.8 157.57v-.75c0-12.882-5.243-24.516-13.76-32.916-.116-.125-9.35-10.35-14.05-17.325-4.99-8.525-11.04-21.075-15.957-37.7-4.209-14.15-13.75-23.525-26.084-28.708C296.108 18.279 246 .854 184.391.854 122.749.854 72.624 18.28 69.774 40.171c-12.191 5.183-21.742 14.558-26 28.708-4.933 16.625-11.033 29.175-15.975 37.7-4.675 6.975-13.875 17.2-14 17.325-8.508 8.4-13.8 20.034-13.8 32.917v1.525c0 5.908 1.234 11.55 3.283 16.725v107.15c0 14.25-.141 28.616-.208 31.875v2.908c0 100.05 82.058 181 182.133 181 100.109 0 180.076-80.517 180.076-180.633v-4.808c.258-5.617.441-21.825.441-36.034V174.588c1.9-5.05 3.075-10.517 3.075-16.242v-.775z" fill="#CCC" fill-rule="evenodd"/></svg>