<svg width="498" height="345" viewBox="0 0 498 345" xmlns="http://www.w3.org/2000/svg"><title>shape-19</title><path d="M.434 158.118c5.155 38.446 36.034 42.446 57.723 108.155 5.723 17.297 19.81 28.588 37.466 34.899a13.993 13.993 0 0 0 3.345 7.371c4.196 4.757 11.777 7.608 20.364 7.608.69 0 1.379-.047 2.068-.074h.101c1.108.466 2.068 1.088 3.25 1.487.311 2.31 1.203 4.358 2.764 6.135 3.446 3.993 9.858 6.304 16.946 6.304.601 0 1.169 0 1.73-.02 6.614-.318 13.02-.548 19.23-.548 40.641 0 66.62 7.25 83.006 15.06v.102a.338.338 0 0 0 .176-.054.382.382 0 0 0 .169.054v-.101c16.385-7.81 42.364-15.06 83.006-15.06 6.237 0 12.649.229 19.23.546.568.02 1.128.02 1.73.02 7.088 0 13.5-2.31 16.946-6.303 1.56-1.777 2.452-3.825 2.763-6.135 1.183-.4 2.142-1.02 3.25-1.487h.102c.689.027 1.385.074 2.067.074 8.588 0 16.17-2.851 20.365-7.608a13.993 13.993 0 0 0 3.345-7.371c17.682-6.311 31.777-17.602 37.473-34.899 21.682-65.71 52.56-69.71 57.716-108.155 3.378-25.244-12.987-46.21-39.676-54.487-2.567-24.385-24.83-43.703-53.344-46.662l-.115-.372s-53.703-5.493-53.98-27.669c-43.432-1.02-84.878-19.08-100.48-28.047V.266a5.4 5.4 0 0 0-.567.311c-.176-.101-.392-.25-.575-.31V.88c-15.567 8.966-57.047 27.027-100.46 28.047-.296 22.176-53.965 27.67-53.965 27.67l-.149.37c-28.52 2.96-50.777 22.278-53.338 46.663C13.42 111.908-2.918 132.874.434 158.118" fill="#CCC" fill-rule="evenodd"/></svg>