<svg width="499" height="401" viewBox="0 0 499 401" xmlns="http://www.w3.org/2000/svg"><title>shape-13</title><path d="M455.61 139.648c-2.35-26.829-23.137-48.144-49.665-51.418l-.198-.37s-53.172-8.226-54.918-51.123c-.048-1.199-.206-2.274-.206-3.52h-7.287c-63.809 0-91.747-30.055-94.041-32.685-2.35 2.63-30.281 32.684-93.994 32.684h-7.342c0 1.247-.15 2.322-.15 3.521-1.857 42.897-55.021 51.123-55.021 51.123l-.096.37c-26.59 3.274-47.322 24.59-49.72 51.418C18.09 148.785.303 172.347 0 200.312c.301 27.98 18.089 51.562 42.973 60.685 2.397 26.829 23.13 48.144 49.719 51.398l.096.39s53.164 8.226 55.02 51.123c0 1.199.15 2.295.15 3.548h7.343c63.713 0 91.644 30.034 93.994 32.65 2.294-2.616 30.232-32.65 94.04-32.65h7.288c0-1.253.158-2.35.206-3.548 1.746-42.897 54.918-51.123 54.918-51.123l.198-.39c26.528-3.254 47.315-24.569 49.665-51.398 24.883-9.123 42.67-32.705 42.924-60.685-.253-27.965-18.04-51.527-42.924-60.664" fill="#CCC" fill-rule="evenodd"/></svg>