<svg width="496" height="366" viewBox="0 0 496 366" xmlns="http://www.w3.org/2000/svg"><title>shape-6</title><path d="M247.702 365.75c-17.894-15.781-56.15-37.538-130.994-37.538-8.281 0-16.919.282-25.675.826-.75.043-1.525.068-2.281.068-9.481 0-17.963-3.712-22.613-9.962-4.125-5.519-4.975-12.813-2.53-21.132l2.693-9-8.05-4.812C22.389 262.788.614 225.194.002 183.637v-1.306c.612-41.556 22.387-79.175 58.25-100.562l8.05-4.832-2.694-8.987c-2.444-8.294-1.594-15.613 2.531-21.131 4.65-6.238 13.132-9.957 22.613-9.957.756 0 1.531.05 2.281.07 8.775.537 17.394.843 25.675.843C191.577 37.775 229.808 16 247.702.2c17.894 15.8 56.156 37.575 131 37.575 8.275 0 16.919-.306 25.669-.844.756-.018 1.506-.069 2.256-.069 9.531 0 17.987 3.72 22.637 9.957 4.107 5.518 4.994 12.837 2.513 21.131l-2.669 8.987 8.05 4.832c35.856 21.387 57.631 59.006 58.269 100.562v1.306c-.638 41.557-22.413 79.15-58.269 100.563l-8.05 4.813 2.669 9c2.481 8.318 1.594 15.612-2.513 21.13-4.65 6.25-13.106 9.963-22.637 9.963-.75 0-1.5-.025-2.256-.068-8.75-.544-17.394-.826-25.67-.826-74.843 0-113.105 21.757-131 37.538" fill="#CCC" fill-rule="evenodd"/></svg>