<svg width="493" height="493" viewBox="0 0 493 493" xmlns="http://www.w3.org/2000/svg"><title>shape-2</title><path d="M492.522 246.704c0 20.815-30.162 37.37-35.27 56.57-5.33 19.86 12.346 49.238 2.3 66.607-10.184 17.646-44.561 16.946-58.869 31.261-14.308 14.308-13.63 48.7-31.261 58.885-17.393 10.085-46.77-7.592-66.631-2.292-19.17 5.13-35.723 35.269-56.546 35.269-20.816 0-37.37-30.139-56.508-35.27-19.87-5.3-49.277 12.347-66.67 2.278-17.622-10.193-16.945-44.562-31.23-58.87-14.315-14.315-48.685-13.638-58.9-31.261-10.039-17.393 7.63-46.746 2.33-66.608-5.13-19.2-35.269-35.754-35.269-56.57 0-20.8 30.139-37.345 35.27-56.545 5.3-19.831-12.37-49.216-2.3-66.616 10.184-17.615 44.554-16.946 58.869-31.215 14.308-14.354 13.638-48.715 31.261-58.908 17.362-10.069 46.77 7.608 66.639 2.331 19.161-5.162 35.715-35.3 56.508-35.3 20.823 0 37.377 30.138 56.546 35.3 19.861 5.277 49.261-12.4 66.63-2.33 17.631 10.192 16.954 44.553 31.285 58.907 14.285 14.27 48.662 13.6 58.87 31.246 10.022 17.37-7.654 46.754-2.324 66.585 5.108 19.2 35.27 35.746 35.27 56.546" fill="#CCC" fill-rule="evenodd"/></svg>