<svg width="488" height="499" viewBox="0 0 488 499" xmlns="http://www.w3.org/2000/svg"><title>shape-20</title><path d="M438.596 116.4c-15.434-36.935-7.776-65.415-3.428-76.626 7.48-15.263 12.395-29.684 15.5-40.197-25.579 21.599-58.75 33.046-93.48 35.855l-29.296.336c-33.158-2.02-59.638-12.382-83.895-32.112-24.263 19.73-50.73 30.092-83.894 32.112l-29.296-.336C96.077 32.623 62.905 21.176 37.333-.423c3.099 10.513 8.033 24.934 15.493 40.197 4.375 11.21 12.027 39.691-3.427 76.625-20.086 48-78.71 137.342-31.395 240.027 46.868 101.677 143.25 58.552 225.993 142.572 82.744-84.02 179.125-40.895 226-142.572 47.31-102.685-11.315-192.027-31.4-240.027" fill="#CCC" fill-rule="evenodd"/></svg>