<svg width="409" height="500" viewBox="0 0 409 500" xmlns="http://www.w3.org/2000/svg"><title>shield-1</title><path d="M204.508 0h1.787l7.696 3.986c5.131 2.657 8.521 4.398 10.17 5.222 1.65.825 7.262 3.505 16.837 8.04 9.575 4.536 14.522 6.827 14.843 6.872.32.046 2.863 1.123 7.628 3.23 4.764 2.108 8.43 3.665 10.995 4.673 2.566 1.008 6.276 2.382 11.132 4.123l9.209 3.299c1.283.458 2.886 1.008 4.81 1.649 1.924.641 4.398 1.42 7.422 2.336 3.023.917 6.872 2.016 11.545 3.299a329.467 329.467 0 0 0 13.606 3.436c4.398 1.008 7.238 1.65 8.521 1.924 1.283.275 5.36 1.054 12.232 2.337 6.872 1.282 11.178 2.061 12.92 2.336 1.74.275 6 .962 12.781 2.062 6.78 1.099 10.216 1.649 10.308 1.649.092 0 3.39.641 9.896 1.924 6.505 1.283 9.78 1.947 9.826 1.993l.07.068-.413 20.479c-.275 13.652-.962 31.29-2.062 52.913-1.1 21.624-1.97 36.742-2.611 45.355-.642 8.613-1.375 15.989-2.2 22.128-.824 6.139-1.786 11.957-2.885 17.454a603.558 603.558 0 0 1-3.574 16.63 1680.163 1680.163 0 0 1-3.436 14.706 343.9 343.9 0 0 1-3.573 13.607 1501.208 1501.208 0 0 0-2.474 8.796c-.275 1.007-.687 2.29-1.237 3.848a211.14 211.14 0 0 0-1.924 5.772c-.733 2.29-1.878 5.59-3.436 9.896-1.558 4.306-2.84 7.742-3.848 10.308a676.885 676.885 0 0 1-3.711 9.208c-1.466 3.573-3.344 7.88-5.635 12.92-2.29 5.039-3.665 7.97-4.123 8.795-.458.825-2.13 3.826-5.017 9.002-2.886 5.177-4.627 8.247-5.222 9.209-.596.962-2.016 3.39-4.26 7.284-2.246 3.894-3.712 6.368-4.399 7.422a471.508 471.508 0 0 0-3.161 4.947c-1.42 2.245-2.566 3.986-3.436 5.223a285.828 285.828 0 0 0-3.024 4.398 130.196 130.196 0 0 1-3.298 4.673c-1.054 1.42-1.878 2.611-2.474 3.573-.596.962-1.466 2.2-2.611 3.711a141.485 141.485 0 0 0-3.299 4.536 120.067 120.067 0 0 1-3.436 4.673 737.129 737.129 0 0 0-3.16 4.123c-.871 1.145-2.727 3.321-5.567 6.528a579.247 579.247 0 0 1-10.033 10.995c-3.848 4.123-7.239 7.65-10.17 10.583-2.933 2.932-4.88 4.787-5.842 5.566-.962.779-3.207 2.749-6.734 5.91-3.528 3.161-5.68 5.085-6.46 5.772-.779.688-2.703 2.383-5.772 5.086-3.07 2.702-5.085 4.443-6.047 5.222-.962.779-2.062 1.695-3.299 2.749a659.904 659.904 0 0 1-5.154 4.33c-2.199 1.832-3.871 3.183-5.016 4.054a56.35 56.35 0 0 1-3.299 2.336c-1.054.687-2.978 1.878-5.772 3.574-2.795 1.695-4.627 2.84-5.498 3.435a48.794 48.794 0 0 1-2.955 1.856 52.816 52.816 0 0 0-3.436 2.199 202.31 202.31 0 0 1-2.611 1.787c-.55.366-1.74 1.007-3.573 1.924-1.833.916-4.032 1.97-6.597 3.16-2.566 1.192-4.353 1.97-5.36 2.337l-1.512.55-1.65-.412c-1.1-.275-2.29-.733-3.573-1.375a691.557 691.557 0 0 1-6.46-3.298c-3.023-1.558-4.764-2.52-5.222-2.886-.458-.367-1.627-1.169-3.505-2.406a197.427 197.427 0 0 0-4.26-2.748c-.963-.596-2.84-1.741-5.635-3.436-2.795-1.695-4.72-2.886-5.773-3.574a56.35 56.35 0 0 1-3.298-2.336 155.962 155.962 0 0 1-3.917-3.092 370.296 370.296 0 0 1-5.841-4.88 4995.377 4995.377 0 0 0-6.323-5.36c-1.786-1.511-4.398-3.802-7.834-6.872-3.436-3.069-5.635-4.993-6.597-5.772-.962-.779-3.07-2.611-6.322-5.497-3.253-2.887-5.062-4.513-5.429-4.88l-4.879-4.879c-2.886-2.886-4.902-4.947-6.047-6.184a2284.92 2284.92 0 0 1-7.559-8.247c-3.894-4.26-6.23-6.871-7.01-7.834-.778-.962-1.924-2.382-3.435-4.26a218.022 218.022 0 0 1-3.574-4.536c-.87-1.145-1.74-2.336-2.611-3.573a339.31 339.31 0 0 0-2.749-3.848 457.553 457.553 0 0 0-2.611-3.574 72.19 72.19 0 0 1-1.993-2.817 107.53 107.53 0 0 0-2.268-3.23 90.165 90.165 0 0 1-2.474-3.573 317.526 317.526 0 0 0-2.748-4.123 127.485 127.485 0 0 1-2.612-3.986 331.077 331.077 0 0 0-2.886-4.536c-1.328-2.061-2.199-3.481-2.611-4.26-.413-.779-1.558-2.749-3.436-5.91-1.879-3.161-3.115-5.223-3.711-6.185-.596-.962-2.084-3.596-4.467-7.902-2.382-4.307-4.169-7.56-5.36-9.759a134.198 134.198 0 0 1-3.16-6.184c-.917-1.924-2.2-4.81-3.85-8.659-1.648-3.848-2.473-5.818-2.473-5.91 0-.091-.825-2.199-2.474-6.322a833.172 833.172 0 0 1-3.848-9.758c-.916-2.382-2.2-6.001-3.848-10.858a454.546 454.546 0 0 1-4.948-15.53c-1.65-5.498-3.482-12.186-5.498-20.066-2.016-7.88-3.436-13.744-4.26-17.592-.825-3.848-1.97-9.438-3.436-16.768s-2.337-12.14-2.612-14.43c-.275-2.291-.87-9.3-1.786-21.029-.917-11.728-1.512-20.57-1.787-26.525-.275-5.956-.596-12.278-.962-18.967-.367-6.688-.87-17.638-1.512-32.847C.321 91.305 0 80.539 0 74.217v-9.484l.893-.48c.596-.321 2.222-.71 4.88-1.169a780.465 780.465 0 0 1 10.994-1.787c4.673-.733 11.774-1.924 21.303-3.573 9.53-1.65 16.356-2.84 20.479-3.573 4.123-.733 9.575-1.879 16.355-3.436 6.78-1.558 12.644-3.024 17.592-4.398 4.948-1.375 9.208-2.657 12.782-3.849a685.443 685.443 0 0 1 8.383-2.748 213.16 213.16 0 0 0 5.773-1.925c1.832-.64 5.497-2.015 10.995-4.123a305.898 305.898 0 0 0 15.462-6.39c4.81-2.154 7.375-3.253 7.696-3.299.32-.046 2.634-1.077 6.94-3.092 4.307-2.016 8.201-3.849 11.683-5.498 3.482-1.65 6.918-3.298 10.308-4.948 3.39-1.649 7.605-3.802 12.644-6.46L202.722 0h1.786z" fill="#CCC" fill-rule="evenodd"/></svg>