<svg width="12" height="12" viewBox="0 0 12 12" xmlns="http://www.w3.org/2000/svg"><title>Fill 3</title><path d="M12 11.735H9.428v-4.14c0-1.04-.373-1.75-1.304-1.75-.71 0-1.134.48-1.32.941-.068.166-.085.396-.085.627v4.322H4.148s.033-7.013 0-7.737h2.571v1.096c.343-.528.953-1.278 2.32-1.278C10.73 3.816 12 4.922 12 7.299v4.436zM1.438 2.94H1.42C.558 2.941 0 2.345 0 1.604 0 .844.576.265 1.454.265c.88 0 1.423.58 1.439 1.339 0 .74-.558 1.337-1.455 1.337zM.152 11.735h2.573V3.998H.152v7.737z" fill="#FFF" fill-rule="evenodd"/></svg>