<svg id="expanded" xmlns="http://www.w3.org/2000/svg" viewBox="0 0 40 40"><defs><style>.cls-1{fill:#9fa0a4}.cls-2{fill:#fff}</style></defs><title>badge-panels-export-tool</title><g id="square"><rect class="cls-1 shape" x="2.71" y="2.83" width="34.33" height="34.33" rx="6" ry="6" id="square-bg-panel"/><path class="cls-2" d="M30.17 33.79H9.58a3.5 3.5 0 0 1-3.5-3.5V9.71a3.5 3.5 0 0 1 3.5-3.5h20.59a3.5 3.5 0 0 1 3.5 3.5v20.58a3.5 3.5 0 0 1-3.5 3.5zM9.58 7.21a2.5 2.5 0 0 0-2.5 2.5v20.58a2.5 2.5 0 0 0 2.5 2.5h20.59a2.5 2.5 0 0 0 2.5-2.5V9.71a2.5 2.5 0 0 0-2.5-2.5z" id="square-border-stripe"/></g></svg>