<svg width="24" height="24" viewBox="0 0 24 24" xmlns="http://www.w3.org/2000/svg"><title>icon-badges</title><g fill="none" fill-rule="evenodd"><path d="M0 0h24v24H0z"/><path d="M5.5 13c1.2 0 2.1.3 2.8.8-2.3 1.1-3.2 3-3.2 3.2v.1H1v-1.3c0-.1 1.1-2.8 4.5-2.8zm0-2a2.5 2.5 0 1 0 0-5 2.5 2.5 0 0 0 0 5zm13 2c-1.2 0-2.1.3-2.8.8 2.3 1.1 3.2 3 3.2 3.2v.1H23v-1.3c0-.1-1.1-2.8-4.5-2.8zm0-2a2.5 2.5 0 1 0 0-5 2.5 2.5 0 0 0 0 5zM9 9c0-1.7 1.3-3 3-3s3 1.3 3 3-1.3 3-3 3-3-1.3-3-3zm3 5c-4.6 0-6 3.3-6 3.3V19h12v-1.7S16.6 14 12 14z" fill="#A09EAF"/></g></svg>