<svg width="24" height="24" viewBox="0 0 24 24" xmlns="http://www.w3.org/2000/svg"><title>icon-pathway</title><g fill="none" fill-rule="evenodd"><path d="M0 0h24v24H0z"/><path d="M20.094 17.552v-1.824c-.014-1.237-.625-2.241-1.343-3.134-1.093-1.338-2.577-2.546-3.744-3.71-.582-.575-1.08-1.135-1.401-1.633-.323-.495-.454-.9-.454-1.203V4h-2.304v2.05c0 .303-.13.707-.454 1.203-.321.497-.82 1.057-1.401 1.633-1.167 1.163-2.651 2.37-3.744 3.71-.718.892-1.33 1.896-1.343 3.133v1.824H2l3.037 3.596 3.029-3.596H6.21v-1.834c0-.283.128-.675.45-1.163.322-.49.82-1.044 1.405-1.618.846-.842 1.86-1.712 2.772-2.643v7.256H8.963l3.04 3.598 3.034-3.598H13.14v-7.279c.917.94 1.94 1.816 2.794 2.664.584.574 1.083 1.13 1.404 1.619.323.487.45.88.45 1.163v1.834h-1.855l3.029 3.595L22 17.552h-1.906z" fill="#A09EAF"/></g></svg>