<svg width="15" height="15" viewBox="0 0 15 15" xmlns="http://www.w3.org/2000/svg"><title>help</title><path d="M10.595 5.723c0 1.566-1.084 2.205-2.427 2.476l-.135.752H6.775l-.283-1.996.062-.061c1.553-.062 2.157-.468 2.157-1.123v-.023c0-.555-.42-.875-1.135-.875-.69 0-1.281.283-1.846.85L4.595 4.478c.713-.787 1.676-1.33 3.018-1.33 1.773 0 2.982.912 2.982 2.551v.024zm-3.199 6.841A1.307 1.307 0 0 1 6.09 11.26c0-.719.585-1.323 1.306-1.323.721 0 1.322.604 1.322 1.323 0 .718-.601 1.304-1.322 1.304zM7.5 0A7.499 7.499 0 0 0 0 7.5 7.5 7.5 0 1 0 7.5 0z" fill="#FFB500" fill-rule="evenodd"/></svg>