<svg id="expanded" xmlns="http://www.w3.org/2000/svg" viewBox="0 0 40 40"><defs><style>.cls-1{fill:#9fa0a4}.cls-2{fill:#fff}</style></defs><title>badge-panels-export-tool</title><g id="triangle-top"><path class="cls-1 shape" d="M6.63 8.17L17 2a6.48 6.48 0 0 1 6.65 0l10.29 6.17a6.48 6.48 0 0 1 3.15 5.56v18a6.48 6.48 0 0 1-6.46 6.48L10 38.27a6.48 6.48 0 0 1-6.5-6.48V13.72a6.48 6.48 0 0 1 3.13-5.55z" id="triangle-top-bg-panel"/><path class="cls-2" d="M10.12 34.83a3.56 3.56 0 0 1-3.56-3.56V14a3.57 3.57 0 0 1 1.73-3.05l10.16-6.1a3.55 3.55 0 0 1 3.65 0l10.16 6.08A3.57 3.57 0 0 1 34 14v17.21a3.56 3.56 0 0 1-3.54 3.56l-20.32.07zM20.28 5.34a2.55 2.55 0 0 0-1.28.37L8.81 11.79A2.57 2.57 0 0 0 7.56 14v17.27a2.56 2.56 0 0 0 2.56 2.56l20.32-.07A2.56 2.56 0 0 0 33 31.21V14a2.57 2.57 0 0 0-1.24-2.19l-10.17-6.1a2.55 2.55 0 0 0-1.31-.37z" id="triangle-top-border-stripe"/></g></svg>