<svg id="expanded" xmlns="http://www.w3.org/2000/svg" viewBox="0 0 40 40"><defs><style>.cls-1{fill:#9fa0a4}.cls-2{fill:#fff}</style></defs><title>badge-panels-export-tool</title><g id="triangle-bottom"><path class="cls-1 shape" d="M33.72 31.62l-10.19 6.1a6.39 6.39 0 0 1-6.57 0l-10.19-6.1a6.39 6.39 0 0 1-3.11-5.48V8.38A6.39 6.39 0 0 1 10 2l20.38-.07a6.39 6.39 0 0 1 6.41 6.39v17.81a6.39 6.39 0 0 1-3.07 5.49z" id="triangle-bottom-bg-panel"/><path class="cls-2" d="M20.25 35.4a3.51 3.51 0 0 1-1.81-.5l-10-6a3.53 3.53 0 0 1-1.71-3v-17a3.52 3.52 0 0 1 3.5-3.52l20-.07a3.52 3.52 0 0 1 3.52 3.52v17.05a3.53 3.53 0 0 1-1.71 3l-10 6a3.52 3.52 0 0 1-1.79.52zm10-29.1l-20 .07a2.52 2.52 0 0 0-2.54 2.51v17A2.53 2.53 0 0 0 8.94 28l10 6a2.51 2.51 0 0 0 2.58 0l10-6a2.53 2.53 0 0 0 1.22-2.16V8.82a2.51 2.51 0 0 0-2.47-2.52z" id="triangle-bottom-border-stripe"/></g></svg>