<?xml version="1.0" encoding="UTF-8" standalone="no"?>
<svg width="12px" height="16px" viewBox="0 0 12 16" version="1.1" xmlns="http://www.w3.org/2000/svg" xmlns:xlink="http://www.w3.org/1999/xlink">
    <!-- Generator: Sketch 3.7.1 (28215) - http://www.bohemiancoding.com/sketch -->
    <title>Shape</title>
    <desc>Created with Sketch.</desc>
    <defs></defs>
    <g id="Pathways" stroke="none" stroke-width="1" fill="none" fill-rule="evenodd">
        <g id="Create-New-Pathway-Form" transform="translate(-96.000000, -583.000000)" fill="#BFBFBF">
            <g id="Form" transform="translate(77.000000, 284.000000)">
                <g id="Last-Name" transform="translate(0.000000, 251.000000)">
                    <path d="M28.6,54.4 L28.6,52 C28.6,49.76 26.84,48 24.6,48 C22.36,48 20.6,49.76 20.6,52 L20.6,54.4 C19.8,54.4 19,55.2 19,56 L19,62.4 C19,63.2 19.8,64 20.6,64 L28.6,64 C29.4,64 30.2,63.2 30.2,62.4 L30.2,56 C30.2,55.2 29.4,54.4 28.6,54.4 L28.6,54.4 Z M27,54.4 L22.2,54.4 L22.2,52 C22.2,50.72 23.32,49.6 24.6,49.6 C25.88,49.6 27,50.72 27,52 L27,54.4 L27,54.4 Z" id="Shape"></path>
                </g>
            </g>
        </g>
    </g>
</svg>