<?xml version="1.0" encoding="UTF-8" standalone="no"?>
<svg width="20px" height="20px" viewBox="0 0 20 20" version="1.1" xmlns="http://www.w3.org/2000/svg" xmlns:xlink="http://www.w3.org/1999/xlink">
    <!-- Generator: Sketch 3.8.3 (29802) - http://www.bohemiancoding.com/sketch -->
    <title>integrationthumb</title>
    <desc>Created with Sketch.</desc>
    <defs></defs>
    <g id="Account" stroke="none" stroke-width="1" fill="none" fill-rule="evenodd">
        <g id="T---App-Integrations---Detail" transform="translate(-218.000000, -788.000000)" fill="#FDFDFD">
            <g id="content" transform="translate(8.000000, 286.000000)">
                <g id="main" transform="translate(0.000000, 264.000000)">
                    <g id="screenshot-1" transform="translate(40.000000, 120.000000)">
                        <g id="action-bar" transform="translate(0.000000, 112.000000)">
                            <g id="expand" transform="translate(170.000000, 6.000000)">
                                <g id="Group">
                                    <path d="M7.32257353,11.2836517 L6.20842922,12.3988399 L5.09378054,13.5135237 L3.97963623,14.6282076 L3.93071273,14.6771326 L2.15484034,12.9012042 L2,18 L7.09964379,17.8456592 L5.3237714,16.0697308 L5.37269489,16.0213101 L6.48734357,14.9066263 L7.60199225,13.7919425 L8.71664092,12.6772587 L8.88459477,12.5092995 L7.49153611,11.1156926 L7.32257353,11.2836517 Z M16.0697916,14.6766282 L16.0208681,14.6282076 L14.9062195,13.5135237 L13.7915708,12.3988399 L12.6769221,11.2836517 L12.5084639,11.1156926 L11.1159096,12.5092995 L11.2838634,12.6772587 L12.3980078,13.7919425 L13.5126564,14.9066263 L14.6273051,16.0213101 L14.6762286,16.0697308 L12.9003562,17.8456592 L18,18 L17.8451597,12.9012042 L16.0697916,14.6766282 Z M7.60199225,6.2080575 L6.48734357,5.09387807 L5.37269489,3.97919425 L5.32427576,3.93026921 L7.09964379,2.15484522 L2,2 L2.15484034,7.09930017 L3.93071273,5.32387617 L3.97963623,5.37229683 L5.09378054,6.48698064 L6.20842922,7.60166446 L7.32257353,8.71634828 L7.49153611,8.88430742 L8.88459477,7.49120484 L8.71664092,7.32274132 L7.60199225,6.2080575 Z M12.6769221,8.71634828 L13.7915708,7.60166446 L14.9062195,6.48698064 L16.0208681,5.37229683 L16.0697916,5.32387617 L17.8451597,7.09930017 L18,2 L12.9003562,2.15484522 L14.6762286,3.93026921 L14.6273051,3.97919425 L13.5126564,5.09387807 L12.3980078,6.2080575 L11.2838634,7.32274132 L11.1159096,7.49120484 L12.5084639,8.88430742 L12.6769221,8.71634828 Z" id="Combined-Shape"></path>
                                </g>
                            </g>
                        </g>
                    </g>
                </g>
            </g>
        </g>
    </g>
</svg>