<?xml version="1.0" encoding="UTF-8" standalone="no"?>
<svg width="24px" height="24px" viewBox="0 0 24 24" version="1.1" xmlns="http://www.w3.org/2000/svg" xmlns:xlink="http://www.w3.org/1999/xlink">
    <!-- Generator: Sketch 3.7.2 (28276) - http://www.bohemiancoding.com/sketch -->
    <title>icon-list-blue</title>
    <desc>Created with Sketch.</desc>
    <defs></defs>
    <g id="Symbols" stroke="none" stroke-width="1" fill="none" fill-rule="evenodd">
        <g id="Icon-/-List-/-Blue">
            <g id="icon">
                <rect id="bounds" x="0" y="0" width="24" height="24"></rect>
                <path d="M3,3 L7,3 L7,7 L3,7 L3,3 Z M9,4 L21,4 L21,6 L9,6 L9,4 Z M3,10 L7,10 L7,14 L3,14 L3,10 Z M9,11 L21,11 L21,13 L9,13 L9,11 Z M3,17 L7,17 L7,21 L3,21 L3,17 Z M9,18 L21,18 L21,20 L9,20 L9,18 Z" id="icon-list" fill="#05012C"></path>
            </g>
        </g>
    </g>
</svg>