<?xml version="1.0" encoding="UTF-8" standalone="no"?>
<svg width="12px" height="12px" viewBox="0 0 12 12" version="1.1" xmlns="http://www.w3.org/2000/svg" xmlns:xlink="http://www.w3.org/1999/xlink">
    <!-- Generator: Sketch 3.8.2 (29753) - http://www.bohemiancoding.com/sketch -->
    <title>Fill 3</title>
    <desc>Created with Sketch.</desc>
    <defs></defs>
    <g id="My-Badges" stroke="none" stroke-width="1" fill="none" fill-rule="evenodd">
        <g id="HD---List---Cards" transform="translate(-518.000000, -310.000000)" fill="#FFFFFF">
            <g id="modal">
                <g id="Modal-/-Share" transform="translate(464.000000, 160.000000)">
                    <g id="content" transform="translate(0.000000, 48.000000)">
                        <g id="bg">
                            <g id="secondary" transform="translate(16.000000, 96.000000)">
                                <g id="linked-in" transform="translate(32.000000, 0.000000)">
                                    <path d="M18,17.734875 L15.4275,17.734875 L15.4275,13.594875 C15.4275,12.555375 15.0555,11.844375 14.124,11.844375 C13.4145,11.844375 12.99,12.325125 12.804,12.786375 C12.73575,12.952125 12.71925,13.182375 12.71925,13.413375 L12.71925,17.734875 L10.1475,17.734875 C10.1475,17.734875 10.1805,10.722375 10.1475,9.997875 L12.71925,9.997875 L12.71925,11.093625 C13.062,10.565625 13.6725,9.815625 15.03825,9.815625 C16.73025,9.815625 18,10.921875 18,13.299375 L18,17.734875 Z M7.43775,8.941125 L7.42125,8.941125 C6.558,8.941125 6,8.344875 6,7.603875 C6,6.844125 6.576,6.265125 7.45425,6.265125 C8.33475,6.265125 8.877,6.844125 8.89275,7.603875 C8.89275,8.344875 8.33475,8.941125 7.43775,8.941125 L7.43775,8.941125 Z M6.1515,17.734875 L8.72475,17.734875 L8.72475,9.997875 L6.1515,9.997875 L6.1515,17.734875 Z" id="Fill-3"></path>
                                </g>
                            </g>
                        </g>
                    </g>
                </g>
            </g>
        </g>
    </g>
</svg>