<?xml version="1.0" encoding="UTF-8" standalone="no"?>
<svg width="24px" height="24px" viewBox="0 0 24 24" version="1.1" xmlns="http://www.w3.org/2000/svg" xmlns:xlink="http://www.w3.org/1999/xlink">
    <!-- Generator: Sketch 3.8.2 (29753) - http://www.bohemiancoding.com/sketch -->
    <title>icon-badges</title>
    <desc>Created with Sketch.</desc>
    <defs></defs>
    <g id="Symbols" stroke="none" stroke-width="1" fill="none" fill-rule="evenodd">
        <g id="Icon-/-Groups">
            <g id="icon">
                <rect id="bounds" x="0" y="0" width="24" height="24"></rect>
                <path d="M5.5,13 C6.7,13 7.6,13.3 8.3,13.8 C6,14.9 5.1,16.8 5.1,17 L5.1,17.1 L1,17.1 L1,15.8 C1,15.7 2.1,13 5.5,13 Z M5.5,11 C6.88071187,11 8,9.88071187 8,8.5 C8,7.11928813 6.88071187,6 5.5,6 C4.11928813,6 3,7.11928813 3,8.5 C3,9.88071187 4.11928813,11 5.5,11 Z M18.5,13 C17.3,13 16.4,13.3 15.7,13.8 C18,14.9 18.9,16.8 18.9,17 L18.9,17.1 L23,17.1 L23,15.8 C23,15.7 21.9,13 18.5,13 Z M18.5,11 C19.8807119,11 21,9.88071187 21,8.5 C21,7.11928813 19.8807119,6 18.5,6 C17.1192881,6 16,7.11928813 16,8.5 C16,9.88071187 17.1192881,11 18.5,11 Z M9,9 C9,7.3 10.3,6 12,6 C13.7,6 15,7.3 15,9 C15,10.7 13.7,12 12,12 C10.3,12 9,10.7 9,9 Z M12,14 C7.4,14 6,17.3 6,17.3 L6,19 L18,19 L18,17.3 C18,17.3 16.6,14 12,14 Z" id="Combined-Shape" fill="#A09EAF"></path>
            </g>
        </g>
    </g>
</svg>