<?xml version="1.0" encoding="UTF-8" standalone="no"?>
<svg width="24px" height="24px" viewBox="0 0 24 24" version="1.1" xmlns="http://www.w3.org/2000/svg" xmlns:xlink="http://www.w3.org/1999/xlink">
    <!-- Generator: Sketch 3.8.2 (29753) - http://www.bohemiancoding.com/sketch -->
    <title>icon-pathway</title>
    <desc>Created with Sketch.</desc>
    <defs></defs>
    <g id="Symbols" stroke="none" stroke-width="1" fill="none" fill-rule="evenodd">
        <g id="Icon-/-Pathway">
            <g id="icon">
                <rect id="bounds" x="0" y="0" width="24" height="24"></rect>
                <path d="M20.0936887,17.5516345 L20.0936887,15.7281942 C20.0800623,14.4906909 19.468541,13.4865057 18.7510672,12.5941128 C17.658171,11.2556626 16.1737232,10.0481931 15.007133,8.88494 C14.4253674,8.30873622 13.9273071,7.74893978 13.6058343,7.25143564 C13.282693,6.75560005 13.1517123,6.35125627 13.1517123,6.04841558 L13.1517123,6.04035095 L13.1517123,4 L10.8482877,4 L10.8482877,4.00111236 L10.8482877,6.04146331 L10.8482877,6.04980603 C10.8482877,6.35264673 10.717307,6.7569905 10.3941657,7.25254801 C10.0726929,7.75005214 9.57463257,8.30984858 8.99286698,8.88633046 C7.82627678,10.0493055 6.341829,11.256775 5.24893283,12.5955033 C4.531459,13.4878961 3.91993771,14.4920814 3.90631127,15.7293066 L3.90631127,17.5527468 L2,17.5527468 L5.03702777,21.1487368 L8.06571282,17.5527468 L6.21029213,17.5527468 L6.21029213,15.7293066 L6.21029213,15.7192953 C6.21029213,15.4364771 6.33793573,15.0435351 6.66052086,14.5563203 C6.98227172,14.0668808 7.48088822,13.5115338 8.06460045,12.9378328 C8.91138642,12.0960525 9.92558295,11.2264631 10.8368859,10.2954157 L10.8368859,17.5513564 L8.9625551,17.5513564 L12.0023638,21.1487368 L15.0368887,17.5513564 L13.1408668,17.5513564 L13.1408668,10.2720561 C14.0582878,11.2117243 15.0816613,12.088266 15.9353995,12.9364424 C16.5191118,13.5101434 17.0177283,14.0654903 17.3394791,14.5549299 C17.6620643,15.0421446 17.7897079,15.4350867 17.7897079,15.7179049 L17.7897079,15.7281942 L17.7897079,17.5516345 L15.9342872,17.5516345 L18.9629722,21.1473463 L22,17.5516345 L20.0936887,17.5516345 Z" id="Fill-1" fill="#A09EAF"></path>
            </g>
        </g>
    </g>
</svg>