<?xml version="1.0" encoding="UTF-8" standalone="no"?>
<svg width="24px" height="24px" viewBox="0 0 24 24" version="1.1" xmlns="http://www.w3.org/2000/svg" xmlns:xlink="http://www.w3.org/1999/xlink" xmlns:sketch="http://www.bohemiancoding.com/sketch/ns">
    <!-- Generator: Sketch 3.4 (15575) - http://www.bohemiancoding.com/sketch -->
    <title>iconShapes</title>
    <desc>Created with Sketch.</desc>
    <defs></defs>
    <g id="Badge-Studio" stroke="none" stroke-width="1" fill="none" fill-rule="evenodd" sketch:type="MSPage">
        <g id="Badge-Studio-Notes" sketch:type="MSArtboardGroup" transform="translate(-62.000000, -241.000000)" fill="#31383E">
            <g id="badgeStudio" sketch:type="MSLayerGroup" transform="translate(37.000000, 92.000000)">
                <g id="sideNav" transform="translate(0.000000, 1.000000)" sketch:type="MSShapeGroup">
                    <g id="sideNavItemOpen" transform="translate(0.000000, 127.000000)">
                        <g id="iconShapes" transform="translate(25.000000, 21.000000)">
                            <path d="M21.3333333,0 L2.66666667,0 C1.2,0 0,1.2 0,2.66666667 L0,21.3333333 C0,22.8 1.2,24 2.66666667,24 L21.3333333,24 C22.8,24 24,22.8 24,21.3333333 L24,2.66666667 C24,1.2 22.8,0 21.3333333,0 L21.3333333,0 Z M20,20 L12,20 L12,12.2666667 C11.0666667,13.0666667 10,13.6 8.66666667,13.6 C6,13.6 3.73333333,11.3333333 3.73333333,8.66666667 C3.73333333,6 6,3.73333333 8.66666667,3.73333333 C11.3333333,3.73333333 13.6,6 13.6,8.66666667 C13.6,10 13.0666667,11.0666667 12.2666667,12 L20,12 L20,20 L20,20 Z" id="Shape"></path>
                        </g>
                    </g>
                </g>
            </g>
        </g>
    </g>
</svg>