<?xml version="1.0" encoding="UTF-8" standalone="no"?>
<svg width="20px" height="22px" viewBox="0 0 20 22" version="1.1" xmlns="http://www.w3.org/2000/svg" xmlns:xlink="http://www.w3.org/1999/xlink" xmlns:sketch="http://www.bohemiancoding.com/sketch/ns">
    <!-- Generator: Sketch 3.3.3 (12072) - http://www.bohemiancoding.com/sketch -->
    <title>iconCopy</title>
    <desc>Created with Sketch.</desc>
    <defs></defs>
    <g id="Components" stroke="none" stroke-width="1" fill="none" fill-rule="evenodd" sketch:type="MSPage">
        <g id="My-Collection---Share" sketch:type="MSArtboardGroup" transform="translate(-970.000000, -334.000000)" fill="#31383E">
            <g id="modal" sketch:type="MSLayerGroup" transform="translate(367.000000, 209.000000)">
                <g id="iconCopy" transform="translate(603.500000, 125.000000)" sketch:type="MSShapeGroup">
                    <path d="M14,0 L2,0 C0.9,0 0,0.9 0,2 L0,16 L2,16 L2,2 L14,2 L14,0 L14,0 Z M17,4 L6,4 C4.9,4 4,4.9 4,6 L4,20 C4,21.1 4.9,22 6,22 L17,22 C18.1,22 19,21.1 19,20 L19,6 C19,4.9 18.1,4 17,4 L17,4 Z M17,20 L6,20 L6,6 L17,6 L17,20 L17,20 Z" id="Shape"></path>
                </g>
            </g>
        </g>
    </g>
</svg>