<?xml version="1.0" encoding="UTF-8" standalone="no"?>
<svg width="20px" height="12px" viewBox="0 0 20 12" version="1.1" xmlns="http://www.w3.org/2000/svg" xmlns:xlink="http://www.w3.org/1999/xlink" xmlns:sketch="http://www.bohemiancoding.com/sketch/ns">
    <!-- Generator: Sketch 3.3.3 (12072) - http://www.bohemiancoding.com/sketch -->
    <title>iconLink</title>
    <desc>Created with Sketch.</desc>
    <defs></defs>
    <g id="Components" stroke="none" stroke-width="1" fill="none" fill-rule="evenodd" sketch:type="MSPage">
        <g id="Canvas---Issuer-View" sketch:type="MSArtboardGroup" transform="translate(-1154.000000, -426.000000)" fill="#31383E">
            <g id="My-Issuers" sketch:type="MSLayerGroup" transform="translate(262.000000, 264.000000)">
                <g id="issuerRowOpen" transform="translate(2.000000, 136.000000)" sketch:type="MSShapeGroup">
                    <g id="issuerHeader">
                        <g id="issuerActions" transform="translate(844.000000, 23.000000)">
                            <g id="iconLink" transform="translate(46.000000, 3.000000)">
                                <path d="M6,7 L14,7 L14,5 L6,5 L6,7 L6,7 Z M1.9,6 C1.9,3.7 3.7,1.9 6,1.9 L9,1.9 L9,0 L6,0 C2.7,0 0,2.7 0,6 C0,9.3 2.7,12 6,12 L9,12 L9,10.1 L6,10.1 C3.7,10.1 1.9,8.3 1.9,6 L1.9,6 Z M14,0 L11,0 L11,1.9 L14,1.9 C16.3,1.9 18.1,3.7 18.1,6 C18.1,8.3 16.3,10.1 14,10.1 L11,10.1 L11,12 L14,12 C17.3,12 20,9.3 20,6 C20,2.7 17.3,0 14,0 L14,0 Z"></path>
                            </g>
                        </g>
                    </g>
                </g>
            </g>
        </g>
    </g>
</svg>