<?xml version="1.0" encoding="UTF-8" standalone="no"?>
<svg width="16px" height="16px" viewBox="0 0 16 16" version="1.1" xmlns="http://www.w3.org/2000/svg" xmlns:xlink="http://www.w3.org/1999/xlink" xmlns:sketch="http://www.bohemiancoding.com/sketch/ns">
    <!-- Generator: Sketch 3.3.3 (12072) - http://www.bohemiancoding.com/sketch -->
    <title>iconSearch</title>
    <desc>Created with Sketch.</desc>
    <defs></defs>
    <g id="Components" stroke="none" stroke-width="1" fill="none" fill-rule="evenodd" sketch:type="MSPage">
        <g id="My-Badges---Badge-Options" sketch:type="MSArtboardGroup" transform="translate(-852.000000, -312.000000)" fill="#5B6C79">
            <g id="searchExpanded" sketch:type="MSLayerGroup" transform="translate(849.000000, 309.000000)">
                <g id="iconSearch" transform="translate(3.000000, 3.000000)" sketch:type="MSShapeGroup">
                    <path d="M11.1111111,9.77777778 L10.4,9.77777778 L10.1333333,9.51111111 C11.0222222,8.53333333 11.5555556,7.2 11.5555556,5.77777778 C11.5555556,2.57777778 8.97777778,0 5.77777778,0 C2.57777778,0 0,2.57777778 0,5.77777778 C0,8.97777778 2.57777778,11.5555556 5.77777778,11.5555556 C7.2,11.5555556 8.53333333,11.0222222 9.51111111,10.1333333 L9.77777778,10.4 L9.77777778,11.1111111 L14.2222222,15.5555556 L15.5555556,14.2222222 L11.1111111,9.77777778 L11.1111111,9.77777778 Z M5.77777778,9.77777778 C3.55555556,9.77777778 1.77777778,8 1.77777778,5.77777778 C1.77777778,3.55555556 3.55555556,1.77777778 5.77777778,1.77777778 C8,1.77777778 9.77777778,3.55555556 9.77777778,5.77777778 C9.77777778,8 8,9.77777778 5.77777778,9.77777778 L5.77777778,9.77777778 Z"></path>
                </g>
            </g>
        </g>
    </g>
</svg>