<?xml version="1.0" encoding="UTF-8" standalone="no"?>
<svg width="24px" height="24px" viewBox="0 0 24 24" version="1.1" xmlns="http://www.w3.org/2000/svg" xmlns:xlink="http://www.w3.org/1999/xlink" xmlns:sketch="http://www.bohemiancoding.com/sketch/ns">
    <!-- Generator: Sketch 3.4 (15575) - http://www.bohemiancoding.com/sketch -->
    <title>iconColors</title>
    <desc>Created with Sketch.</desc>
    <defs></defs>
    <g id="Badge-Studio" stroke="none" stroke-width="1" fill="none" fill-rule="evenodd" sketch:type="MSPage">
        <g id="Badge-Studio-Notes" sketch:type="MSArtboardGroup" transform="translate(-62.000000, -654.000000)" fill="#31383E">
            <g id="badgeStudio" sketch:type="MSLayerGroup" transform="translate(37.000000, 92.000000)">
                <g id="sideNav" transform="translate(0.000000, 1.000000)" sketch:type="MSShapeGroup">
                    <g id="sideNavItem" transform="translate(0.000000, 540.000000)">
                        <g id="iconColors" transform="translate(25.000000, 21.000000)">
                            <path d="M12,0 C5.33333333,0 0,5.33333333 0,12 C0,18.6666667 5.33333333,24 12,24 C13.0666667,24 14,23.0666667 14,22 C14,21.4666667 13.8666667,21.0666667 13.4666667,20.6666667 C13.2,20.2666667 12.9333333,19.8666667 12.9333333,19.3333333 C12.9333333,18.2666667 13.8666667,17.3333333 14.9333333,17.3333333 L17.3333333,17.3333333 C21.0666667,17.3333333 24,14.4 24,10.6666667 C24,4.8 18.6666667,0 12,0 L12,0 Z M4.66666667,12 C3.6,12 2.66666667,11.0666667 2.66666667,10 C2.66666667,8.93333333 3.6,8 4.66666667,8 C5.73333333,8 6.66666667,8.93333333 6.66666667,10 C6.66666667,11.0666667 5.73333333,12 4.66666667,12 L4.66666667,12 Z M8.66666667,6.66666667 C7.6,6.66666667 6.66666667,5.73333333 6.66666667,4.66666667 C6.66666667,3.6 7.6,2.66666667 8.66666667,2.66666667 C9.73333333,2.66666667 10.6666667,3.6 10.6666667,4.66666667 C10.6666667,5.73333333 9.73333333,6.66666667 8.66666667,6.66666667 L8.66666667,6.66666667 Z M15.3333333,6.66666667 C14.2666667,6.66666667 13.3333333,5.73333333 13.3333333,4.66666667 C13.3333333,3.6 14.2666667,2.66666667 15.3333333,2.66666667 C16.4,2.66666667 17.3333333,3.6 17.3333333,4.66666667 C17.3333333,5.73333333 16.4,6.66666667 15.3333333,6.66666667 L15.3333333,6.66666667 Z M19.3333333,12 C18.2666667,12 17.3333333,11.0666667 17.3333333,10 C17.3333333,8.93333333 18.2666667,8 19.3333333,8 C20.4,8 21.3333333,8.93333333 21.3333333,10 C21.3333333,11.0666667 20.4,12 19.3333333,12 L19.3333333,12 Z" id="Shape"></path>
                        </g>
                    </g>
                </g>
            </g>
        </g>
    </g>
</svg>