<?xml version="1.0" encoding="UTF-8" standalone="no"?>
<svg width="22px" height="24px" viewBox="0 0 22 24" version="1.1" xmlns="http://www.w3.org/2000/svg" xmlns:xlink="http://www.w3.org/1999/xlink" xmlns:sketch="http://www.bohemiancoding.com/sketch/ns">
    <!-- Generator: Sketch 3.4 (15575) - http://www.bohemiancoding.com/sketch -->
    <title>iconGraphics</title>
    <desc>Created with Sketch.</desc>
    <defs></defs>
    <g id="Badge-Studio" stroke="none" stroke-width="1" fill="none" fill-rule="evenodd" sketch:type="MSPage">
        <g id="Badge-Studio-Notes" sketch:type="MSArtboardGroup" transform="translate(-63.000000, -589.000000)" fill="#31383E">
            <g id="badgeStudio" sketch:type="MSLayerGroup" transform="translate(37.000000, 92.000000)">
                <g id="sideNav" transform="translate(0.000000, 1.000000)" sketch:type="MSShapeGroup">
                    <g id="sideNavItemHover" transform="translate(0.000000, 476.000000)">
                        <g id="iconGraphics" transform="translate(26.000000, 20.000000)">
                            <path d="M11,0 C12.3444444,0 13.4444444,1.08 13.4444444,2.4 C13.4444444,3.72 12.3444444,4.8 11,4.8 C9.65555556,4.8 8.55555556,3.72 8.55555556,2.4 C8.55555556,1.08 9.65555556,0 11,0 L11,0 Z M22,8.4 L14.6666667,8.4 L14.6666667,24 L12.2222222,24 L12.2222222,16.8 L9.77777778,16.8 L9.77777778,24 L7.33333333,24 L7.33333333,8.4 L0,8.4 L0,6 L22,6 L22,8.4 L22,8.4 Z" id="Shape"></path>
                        </g>
                    </g>
                </g>
            </g>
        </g>
    </g>
</svg>