<?xml version="1.0" encoding="UTF-8" standalone="no"?>
<svg width="16px" height="16px" viewBox="0 0 16 16" version="1.1" xmlns="http://www.w3.org/2000/svg" xmlns:xlink="http://www.w3.org/1999/xlink" xmlns:sketch="http://www.bohemiancoding.com/sketch/ns">
    <!-- Generator: Sketch 3.3.3 (12072) - http://www.bohemiancoding.com/sketch -->
    <title>iconAdd</title>
    <desc>Created with Sketch.</desc>
    <defs></defs>
    <g id="Components" stroke="none" stroke-width="1" fill="none" fill-rule="evenodd" sketch:type="MSPage">
        <g id="My-Badges---Badge-Options" sketch:type="MSArtboardGroup" transform="translate(-665.000000, -600.000000)" fill="#31383E">
            <g id="moreMenu" sketch:type="MSLayerGroup" transform="translate(649.000000, 585.000000)">
                <g id="addToCollection" transform="translate(16.000000, 14.000000)" sketch:type="MSShapeGroup">
                    <g id="iconAdd" transform="translate(0.000000, 1.000000)">
                        <path d="M8,0 C3.6,0 0,3.6 0,8 C0,12.4 3.6,16 8,16 C12.4,16 16,12.4 16,8 C16,3.6 12.4,0 8,0 L8,0 Z M12,8.8 L8.8,8.8 L8.8,12 L7.2,12 L7.2,8.8 L4,8.8 L4,7.2 L7.2,7.2 L7.2,4 L8.8,4 L8.8,7.2 L12,7.2 L12,8.8 L12,8.8 Z"></path>
                    </g>
                </g>
            </g>
        </g>
    </g>
</svg>