<?xml version="1.0" encoding="UTF-8" standalone="no"?>
<svg width="32px" height="32px" viewBox="0 0 32 32" version="1.1" xmlns="http://www.w3.org/2000/svg" xmlns:xlink="http://www.w3.org/1999/xlink" xmlns:sketch="http://www.bohemiancoding.com/sketch/ns">
    <!-- Generator: Sketch 3.3.3 (12072) - http://www.bohemiancoding.com/sketch -->
    <title>iconModuleUnearned</title>
    <desc>Created with Sketch.</desc>
    <defs></defs>
    <g id="Components" stroke="none" stroke-width="1" fill="none" fill-rule="evenodd" sketch:type="MSPage">
        <g id="Canvas---Student-View" sketch:type="MSArtboardGroup" transform="translate(-776.000000, -416.000000)" fill="#DDDDDD">
            <g id="My-Badges" sketch:type="MSLayerGroup" transform="translate(262.000000, 264.000000)">
                <g id="badgeRow" transform="translate(2.000000, 136.000000)" sketch:type="MSShapeGroup">
                    <g id="badgeCardUnearned" transform="translate(497.000000, 0.000000)">
                        <g id="iconModuleUnearned" transform="translate(15.000000, 16.000000)">
                            <path d="M16,0 C7.2,0 0,7.2 0,16 C0,24.8 7.2,32 16,32 C24.8,32 32,24.8 32,16 C32,7.2 24.8,0 16,0 L16,0 Z M16,28.8 C8.96,28.8 3.2,23.04 3.2,16 C3.2,8.96 8.96,3.2 16,3.2 C23.04,3.2 28.8,8.96 28.8,16 C28.8,23.04 23.04,28.8 16,28.8 L16,28.8 Z"></path>
                        </g>
                    </g>
                </g>
            </g>
        </g>
    </g>
</svg>