<?xml version="1.0" encoding="UTF-8" standalone="no"?>
<svg width="192px" height="90px" viewBox="0 0 192 90" version="1.1" xmlns="http://www.w3.org/2000/svg" xmlns:xlink="http://www.w3.org/1999/xlink" xmlns:sketch="http://www.bohemiancoding.com/sketch/ns">
    <!-- Generator: Sketch 3.3.3 (12072) - http://www.bohemiancoding.com/sketch -->
    <title>badgrLogoText + badgrLogo</title>
    <desc>Created with Sketch.</desc>
    <defs></defs>
    <g id="Components" stroke="none" stroke-width="1" fill="none" fill-rule="evenodd" sketch:type="MSPage">
        <g id="My-Collections---Empty" sketch:type="MSArtboardGroup" transform="translate(-54.000000, -104.000000)">
            <g id="My-Collections" sketch:type="MSLayerGroup" transform="translate(40.000000, 104.000000)">
                <g id="Header" transform="translate(0.000000, 0.500000)" sketch:type="MSShapeGroup">
                    <g id="badgrLogoText-+-badgrLogo" transform="translate(13.000000, 0.000000)">
                        <g id="badgrLogo" transform="translate(0.918129, 0.000000)">
                            <path d="M88.9430543,65.4801193 L91.4336678,64.0220511 L88.9430543,65.4801193" id="Fill-1" fill="#3D1719"></path>
                            <path d="M46.9407227,14.3050284 C46.9376629,14.3050284 46.9346032,14.3045114 46.9320534,14.3045114 C46.9295037,14.3050284 46.9269539,14.3050284 46.9244041,14.3055455 C46.9269539,14.3050284 46.9295037,14.3050284 46.9320534,14.3045114 C46.9346032,14.3045114 46.9376629,14.3050284 46.9407227,14.3050284" id="Fill-2" fill="#3D1719"></path>
                            <path d="M53.7705318,26.8950852 C53.7394246,26.8599261 53.724126,26.8185625 53.7200464,26.7746136 C53.724126,26.8185625 53.7394246,26.8599261 53.7705318,26.8950852" id="Fill-3" fill="#3D1719"></path>
                            <path d="M66.1027407,24.1030398 C65.8722416,23.7488636 65.5841178,23.4598352 65.2500982,23.2271648 C65.5841178,23.4598352 65.8722416,23.7488636 66.1027407,24.1030398" id="Fill-4" fill="#3D1719"></path>
                            <path d="M63.294426,27.9245227 L63.294426,27.9245227 C63.4132452,27.848 63.5193155,27.7606193 63.6151868,27.666 C63.5193155,27.7606193 63.4132452,27.848 63.294426,27.9245227" id="Fill-5" fill="#3D1719"></path>
                            <path d="M67.0691028,26.517642 C66.8498227,25.8522045 66.6183038,25.2214091 66.4031034,24.6847159 C66.318451,24.4737614 66.2179902,24.2803864 66.1027407,24.1030398 C66.2179902,24.2803864 66.318451,24.4737614 66.4031034,24.6847159 C66.6183038,25.2214091 66.8498227,25.8527216 67.0691028,26.517642" id="Fill-6" fill="#3D1719"></path>
                            <path d="M65.252138,28.6964716 C65.3877857,28.6964716 65.5147641,28.6752727 65.625934,28.6251193 C65.5147641,28.6752727 65.3877857,28.6964716 65.252138,28.6964716" id="Fill-7" fill="#3D1719"></path>
                            <path d="M61.7186692,11.0212727 C61.5386556,10.8790852 61.3560922,10.7379318 61.1725089,10.6003977 C61.3560922,10.7379318 61.5386556,10.8790852 61.7186692,11.0212727" id="Fill-8" fill="#3D1719"></path>
                            <path d="M60.7303791,23.5653125 C60.4187974,24.0590909 59.0990374,25.0321705 57.6497491,25.8149773 C59.0990374,25.0321705 60.4187974,24.0590909 60.7303791,23.5653125 C60.7538369,23.5280852 60.7783147,23.4903409 60.7900436,23.4593182 L60.7900436,23.4588011 C60.7783147,23.4903409 60.7538369,23.5280852 60.7303791,23.5653125" id="Fill-9" fill="#3D1719"></path>
                            <path d="M64.7177066,22.9205568 C63.9665449,22.5653466 63.0608672,22.421608 62.1041942,22.421608 C61.8476875,22.421608 61.5871012,22.4319489 61.325495,22.4515966 C61.5871012,22.4319489 61.8476875,22.421608 62.1041942,22.421608 C63.0608672,22.421608 63.9665449,22.5653466 64.7177066,22.9205568" id="Fill-10" fill="#3D1719"></path>
                            <path d="M53.7705318,26.8950852 C53.8332561,26.9654034 53.9597246,27.0124545 54.1846141,27.0124545 C54.3931852,27.0124545 54.6853886,26.972125 55.0902918,26.8738864 C54.6853886,26.972125 54.3931852,27.0124545 54.1846141,27.0124545 C53.9597246,27.0124545 53.8332561,26.9654034 53.7705318,26.8950852" id="Fill-11" fill="#3D1719"></path>
                            <path d="M60.9659776,24.333125 C60.962408,24.3067557 60.9593482,24.2819375 60.9557786,24.2566023 C60.9593482,24.2819375 60.962408,24.3067557 60.9659776,24.333125" id="Fill-12" fill="#3D1719"></path>
                            <path d="M33.2132806,31.0691932 C33.1673848,30.9590625 33.1010908,30.8597898 33.0189883,30.7770625 C33.1010908,30.8597898 33.1673848,30.9590625 33.2132806,31.0691932" id="Fill-13" fill="#3D1719"></path>
                            <path d="M61.6651241,11.2937557 C61.6431961,11.4390455 61.6299373,11.5833011 61.621778,11.7130795 C61.6299373,11.5833011 61.6431961,11.4390455 61.6651241,11.2937557" id="Fill-14" fill="#3D1719"></path>
                            <path d="M33.0189883,30.7770625 C32.9368857,30.6938182 32.8394846,30.6260852 32.7308645,30.5800682 C32.8394846,30.6260852 32.9368857,30.6938182 33.0189883,30.7770625" id="Fill-15" fill="#3D1719"></path>
                            <path d="M34.9216253,31.1322727 C34.7793482,31.1839773 34.6437006,31.261017 34.507033,31.3504659 C34.6437006,31.261017 34.7793482,31.1839773 34.9216253,31.1322727" id="Fill-16" fill="#3D1719"></path>
                            <path d="M91.4336678,64.0220511 L95.5826507,61.5934886 L91.4336678,64.0220511" id="Fill-17" fill="#3D1719"></path>
                            <path d="M68.0140469,30.9290739 C68.0150668,31.1177955 68.0048677,31.2925568 67.9824298,31.4497386 C68.0048677,31.2925568 68.0150668,31.1177955 68.0140469,30.9290739" id="Fill-18" fill="#3D1719"></path>
                            <path d="M33.9323152,30.463733 C33.8782602,30.442017 33.8206354,30.4156477 33.7584211,30.3892784 C33.8206354,30.4156477 33.8782602,30.442017 33.9323152,30.463733 C34.364246,30.6390114 35.1409054,31.0764318 35.1409054,31.0764318 C35.1409054,31.0764318 34.364246,30.6390114 33.9323152,30.463733" id="Fill-19" fill="#3D1719"></path>
                            <path d="M33.2846741,31.4269886 C33.2846741,31.6301875 33.2183801,31.8168409 33.1077202,31.9683352 C33.2183801,31.8168409 33.2846741,31.6301875 33.2846741,31.4269886" id="Fill-20" fill="#3D1719"></path>
                            <path d="M32.2821053,30.5175057 C32.3142323,30.5138864 32.3453395,30.5076818 32.3779765,30.5076818 C32.3453395,30.5076818 32.3142323,30.5138864 32.2821053,30.5175057" id="Fill-21" fill="#3D1719"></path>
                            <path d="M33.5600491,30.3106875 C33.4198118,30.2615682 33.2632561,30.2227898 33.0903818,30.2227898 C32.9715626,30.2227898 32.8440742,30.2419205 32.7094464,30.2884545 C32.8440742,30.2419205 32.9715626,30.2227898 33.0903818,30.2227898 C33.2632561,30.2227898 33.4198118,30.2615682 33.5600491,30.3106875" id="Fill-22" fill="#3D1719"></path>
                            <path d="M67.2129097,32.3421591 C67.1241778,32.3421591 67.0267767,32.329233 66.9212163,32.3023466 C67.0272866,32.329233 67.1241778,32.3421591 67.2129097,32.3421591 C67.6030243,32.3421591 67.8309735,32.0919091 67.9385738,31.6731023 C67.8309735,32.0919091 67.6030243,32.3421591 67.2129097,32.3421591" id="Fill-23" fill="#3D1719"></path>
                            <path d="M60.246943,11.5879545 L60.6783638,11.3692443 L60.7436379,11.854233 L60.6783638,11.3692443 L60.246943,11.5879545" id="Fill-24" fill="#3D1719"></path>
                            <path d="M50.8831743,12.5393182 C51.1401909,12.3578352 51.3803791,12.1830739 51.6292364,12.0046932 C51.3803791,12.1830739 51.1401909,12.3578352 50.8831743,12.5393182 C50.7551759,12.6292841 50.611369,12.7326932 50.4594028,12.8423068 C50.4114671,12.8769489 50.3614917,12.912625 50.3125361,12.9483011 C50.3614917,12.913142 50.4114671,12.8769489 50.4594028,12.8423068 C50.611369,12.7326932 50.7551759,12.628767 50.8831743,12.5393182" id="Fill-25" fill="#3D1719"></path>
                            <path d="M50.4206463,13.0584318 C52.8643442,13.0584318 56.9480529,12.1065511 57.5344996,10.6727841 L57.7104336,10.2420852 L57.7706081,10.2906875 L57.7104336,10.2420852 L57.5344996,10.6727841 C56.9480529,12.1065511 52.8643442,13.0584318 50.4206463,13.0584318 C50.3324243,13.0584318 50.247772,13.0568807 50.1651595,13.0542955 C50.247772,13.0568807 50.3324243,13.0584318 50.4206463,13.0584318" id="Fill-26" fill="#3D1719"></path>
                            <path d="M61.3010172,12.7295909 C61.3673112,12.7295909 61.4392146,12.6597898 61.4968394,12.5243239 C61.4392146,12.6597898 61.3673112,12.7295909 61.3010172,12.7295909" id="Fill-27" fill="#3D1719"></path>
                            <path d="M59.0189746,12.2673523 C59.1066867,12.2342614 59.2219362,12.1748011 59.3412653,12.1086193 C59.2219362,12.1748011 59.1066867,12.2342614 59.0189746,12.2673523" id="Fill-28" fill="#3D1719"></path>
                            <path d="M57.5344996,10.6727841 L57.7104336,10.2420852 L57.7706081,10.2906875 L58.069441,10.5331818 C58.1081974,10.5642045 58.2581238,10.6898466 58.4279384,10.8816705 C58.5411481,11.0098977 58.663027,11.1675966 58.7670575,11.3464943 C58.8190728,11.4359432 58.8664985,11.5305625 58.9057649,11.6293182 C58.9842978,11.8278636 59.0312135,12.0429545 59.0189746,12.2673523 C59.1066867,12.2342614 59.2219362,12.1748011 59.3412653,12.1086193 C59.4600845,12.0419205 59.5824734,11.9685 59.6844641,11.9074886 C59.8741669,11.7942557 60.0664194,11.6794716 60.246943,11.5879545 L60.6783638,11.3692443 L60.7436379,11.854233 C60.7670957,12.0212386 60.896114,12.5362159 61.170979,12.6882273 C61.2199346,12.7151136 61.2648105,12.7295909 61.3010172,12.7295909 C61.3673112,12.7295909 61.4392146,12.6597898 61.4968394,12.5243239 C61.5549741,12.389375 61.5993401,12.1892784 61.610559,11.9292045 C61.6136188,11.8650909 61.6171884,11.7916705 61.621778,11.7130795 C61.6299373,11.5833011 61.6431961,11.4390455 61.6651241,11.2937557 C61.6788928,11.2017216 61.6957213,11.1096875 61.7186692,11.0212727 C61.5386556,10.8790852 61.3560922,10.7379318 61.1725089,10.6003977 C59.8879356,9.63765909 58.5579765,8.829 57.7787674,8.65320455 C57.6900355,8.63303977 57.5941642,8.62321591 57.4926834,8.62321591 C56.7568203,8.62321591 55.7675102,9.13819318 54.6134851,9.89773295 C54.2672266,10.12575 53.9056695,10.375483 53.5323834,10.6396932 C53.1585874,10.9044205 52.7725525,11.183108 52.3758086,11.4695511 C52.1361304,11.6432784 51.8786038,11.8257955 51.6292364,12.0046932 C51.3803791,12.1830739 51.1401909,12.3578352 50.8831743,12.5393182 C50.7551759,12.6292841 50.611369,12.7326932 50.4594028,12.8423068 C50.4114671,12.8769489 50.3614917,12.912625 50.3125361,12.9483011 C50.2630706,12.9834602 50.214625,13.0186193 50.1651595,13.0542955 C50.247772,13.0568807 50.3324243,13.0584318 50.4206463,13.0584318 C52.8643442,13.0584318 56.9480529,12.1065511 57.5344996,10.6727841" id="Fill-29" fill="#AB2430"></path>
                            <path d="M46.9244041,14.3055455 C46.9300136,14.3055455 46.9351132,14.3050284 46.9407227,14.3050284 C46.9376629,14.3050284 46.9346032,14.3045114 46.9320534,14.3045114 C46.9295037,14.3050284 46.9269539,14.3050284 46.9244041,14.3055455" id="Fill-30" fill="#AB2430"></path>
                            <path d="M91.5331088,63.963625 C82.8899046,49.5546023 71.885105,41.8764773 67.2669648,41.3211705 C62.171508,40.7079545 59.7533079,40.4452955 59.4942514,39.6573182 C59.235195,38.8693409 60.1852386,37.993983 60.1852386,37.993983 C59.0628307,38.6945795 57.5946741,38.1687443 57.5946741,38.1687443 C58.1989692,37.7313239 58.2856613,36.6806875 58.2856613,36.6806875 C57.4217998,37.2933864 54.9174175,37.6434261 54.9174175,37.6434261 C55.3493482,36.8554489 55.4355304,35.366875 55.4355304,35.366875 C54.3131224,36.5927898 48.4404963,38.256642 42.5683801,39.6573182 C36.695754,41.0585114 24.1738424,39.6573182 21.9285165,39.4820398 C19.6831906,39.3072784 19.9422471,39.6573182 19.337952,41.2332727 C18.7336569,42.8097443 17.0926261,40.883233 15.5382874,39.7452159 C13.9834388,38.6066818 12.0838615,35.9800909 13.8110744,34.1414773 C15.5382874,32.3023466 26.5058604,26.6112273 36.4366976,23.5466989 C46.3680447,20.4821705 51.0315708,21.18225 53.9673739,21.6201875 C54.8312353,21.7489318 55.9434442,21.932483 57.2239378,22.2809716 C57.4717753,22.182733 57.728282,22.0901818 58.0005972,22.0110739 C59.0087756,21.7189432 60.5391464,21.3709716 62.1041942,21.3709716 C65.4841669,21.3709716 66.8299346,22.9583011 67.3633461,24.2891761 C67.858511,25.5259489 68.7208427,27.8909148 68.9691901,29.8892955 C75.2752768,35.4966534 92.9023343,37.1770511 92.5698446,36.4175114 C92.224096,35.6295341 86.2158222,30.0630227 75.7296455,22.4960625 C71.6903027,19.5809602 66.9329452,17.7051193 62.4076166,16.4978182 C60.3208863,16.0030057 58.4233488,15.5836818 57.2810526,15.3990966 C55.9444641,15.1834886 53.2452795,14.7745057 50.5823016,14.5216705 C48.8963949,14.3903409 47.5506272,14.3469091 46.6918653,14.3345 C46.496553,14.35725 46.3058304,14.3727614 46.1268367,14.3727614 C46.0258658,14.3727614 45.9422334,14.368625 45.8672702,14.3634545 C44.374126,14.4642784 42.9799127,14.6142216 41.7045187,14.7905341 C31.9363567,16.1410568 18.8667548,26.4478409 15.279231,27.3992045 C14.0543223,27.7239091 12.8972375,28.0315511 11.8339842,28.314892 C10.8171366,28.5853068 9.88749114,28.8334886 9.0705454,29.0516818 C8.09653395,29.3122727 7.28213799,29.5304659 6.67325334,29.6933352 C7.2214535,30.2233068 8.42188437,31.431125 9.0705454,32.444017 C9.28982547,32.7857841 9.44638124,33.1058352 9.49329697,33.3690114 C9.56826016,33.7929886 9.37192801,34.7805455 9.0705454,35.9304545 C8.53764385,37.9645114 7.67225252,40.5125114 7.37341969,41.3894205 C7.8726643,41.6929261 8.43820289,41.9705795 9.0705454,42.2327216 C9.08431415,42.2384091 9.09604309,42.2446136 9.10930188,42.2503011 C9.2378102,42.2746023 9.38212708,42.3014886 9.54327243,42.3304432 C9.62843469,42.3464716 9.7141069,42.361983 9.80997818,42.3790455 C10.0833133,42.4281648 10.8186665,42.522267 11.8339842,42.6287784 C14.5316389,42.9116023 19.2216826,43.2854261 22.6006354,43.1603011 C23.4899945,43.1272102 24.3462067,43.0853295 25.1672321,43.045 C28.8343087,42.8650682 31.7298255,42.7233977 33.8619416,43.5444659 C34.1296673,43.647358 34.2637851,43.9508636 34.1623043,44.2217955 C34.0832615,44.4317159 33.8864194,44.5609773 33.6778484,44.5609773 C33.616144,44.5609773 33.5544396,44.5496023 33.4937551,44.5263352 C31.5635806,43.7828239 28.7624052,43.920358 25.2172075,44.0946023 C24.3926125,44.1349318 23.5318107,44.1773295 22.638372,44.2104205 C20.4261931,44.2915966 17.5306763,44.114767 15.037003,43.898642 C16.9625879,44.2864261 19.2538097,44.6700739 22.0152086,45.0862955 C22.5511699,45.1669545 23.0692828,45.2507159 23.5797464,45.3355114 C26.7317698,45.5893807 33.5228225,46.0847102 41.9635751,46.3995909 C53.7083174,46.8375284 67.0940905,52.178608 75.2982247,57.1691307 C79.8444614,59.9348068 85.1306409,63.156 88.9425443,65.4801193 L88.9430543,65.4801193 L91.4336678,64.0220511 L90.1960104,64.7464318 L91.5331088,63.963625" id="Fill-31" fill="#AB2430"></path>
                            <path d="M91.4336678,64.0220511 L95.5826507,61.5934886 L91.4336678,64.0220511" id="Fill-32" fill="#AB2430"></path>
                            <path d="M60.3693319,73.9829318 C56.8486119,67.6780795 50.3303845,58.6907955 39.26949,51.6713864 C38.896204,51.4635341 33.6416417,48.630125 21.9320862,46.8452841 L21.8474339,46.8318409 L21.7612517,46.8183977 C17.5332261,46.1808807 14.3337769,45.6064432 11.8339842,44.9596193 L11.8339842,61.5934886 L53.7083174,86.1055795 L63.4688301,80.3922273 L63.4346632,80.3095 C62.5549932,78.1797898 61.5238669,76.0511136 60.3693319,73.9829318" id="Fill-33" fill="#AB2430"></path>
                            <path d="M11.8339842,1.52270203 L11.8339842,27.6692687 C12.7773984,27.4607929 13.7850668,27.2385901 14.8422007,27.0060923 C15.8269212,26.7894661 18.2731688,25.5570562 20.8642433,24.2521515 C26.696583,21.3137566 34.6844969,17.290086 41.4714699,16.5115186 C43.1895037,16.3146247 44.8963185,16.1816462 46.6888056,16.1057198 C47.0019171,16.092422 47.3155386,16.0838427 47.6291601,16.0748345 C47.9667494,15.9461457 48.6240796,15.6338608 49.8979438,14.8900394 C50.4063676,14.5927682 50.8989828,14.2976418 51.3742596,14.0123816 C53.8261167,12.5423262 55.7629206,11.381553 57.4926834,11.381553 C57.7196128,11.381553 57.9419525,11.4017142 58.1535833,11.4411788 C60.0342923,11.7924993 63.5866294,13.9917914 65.274066,15.5780956 C66.2506272,16.4965049 68.8911672,18.3779355 71.7147805,19.696567 C71.7769948,19.7205889 71.8366594,19.7506163 71.8937742,19.7862202 C80.1489037,22.656839 88.1148896,27.2192868 95.5826507,33.3431591 L95.5826507,0.091 L11.8339842,0.091" id="Fill-34" fill="#AB2430"></path>
                            <path d="M32.9827816,32.1074205 C33.1067003,32.0944943 33.2260295,32.0743295 33.3280202,32.0396875 C33.4249114,32.0071136 33.516703,31.9688523 33.6044151,31.9264545 C33.9537333,31.7584148 34.2331879,31.5298807 34.507033,31.3504659 C34.6437006,31.261017 34.7793482,31.1839773 34.9216253,31.1322727 C34.9930188,31.1069375 35.0659422,31.0878068 35.1414153,31.0764318 C35.1414153,31.0764318 34.364246,30.6390114 33.9323152,30.463733 C33.8782602,30.442017 33.8206354,30.4156477 33.7584211,30.3892784 C33.6962067,30.362392 33.6304227,30.3349886 33.5600491,30.3106875 C33.4198118,30.2615682 33.2632561,30.2227898 33.0903818,30.2227898 C32.9715626,30.2227898 32.8440742,30.2419205 32.7094464,30.2884545 C32.5743087,30.3349886 32.4320316,30.4084091 32.2821053,30.5175057 C32.3142323,30.5138864 32.3453395,30.5076818 32.3779765,30.5076818 C32.5029152,30.5076818 32.6222443,30.533017 32.7308645,30.5800682 C32.8394846,30.6260852 32.9368857,30.6938182 33.0189883,30.7770625 C33.1010908,30.8597898 33.1673848,30.9590625 33.2132806,31.0691932 C33.2591764,31.1788068 33.2846741,31.2997955 33.2846741,31.4269886 C33.2846741,31.6301875 33.2183801,31.8168409 33.1077202,31.9683352 C33.0704936,32.0190057 33.0286774,32.0655398 32.9827816,32.1074205" id="Fill-35" fill="#AB2430"></path>
                            <path d="M64.921688,29.4885852 C64.6611017,29.7398693 64.3413608,29.9823636 63.9849032,30.1136932 C63.9849032,30.1136932 65.5397518,31.9523068 66.9212163,32.3023466 C67.0272866,32.329233 67.1241778,32.3421591 67.2129097,32.3421591 C67.6030243,32.3421591 67.8309735,32.0919091 67.9385738,31.6731023 C67.9564221,31.6033011 67.9707008,31.5288466 67.9824298,31.4497386 C68.0048677,31.2925568 68.0150668,31.1177955 68.0140469,30.9290739 C68.0109872,30.4570114 67.9385738,29.8965341 67.8202645,29.2957273 C67.7728388,29.0553011 67.7177638,28.8086705 67.6570794,28.5579034 C67.5754868,28.2207898 67.4831852,27.8769545 67.3837442,27.5346705 C67.2843032,27.1918693 67.1782329,26.8506193 67.0691028,26.517642 C66.8498227,25.8522045 66.6183038,25.2214091 66.4031034,24.6847159 C66.318451,24.4737614 66.2179902,24.2803864 66.1027407,24.1030398 C65.8722416,23.7488636 65.5841178,23.4598352 65.2500982,23.2271648 C65.0833433,23.1113466 64.9053695,23.0094886 64.7177066,22.9205568 C63.9665449,22.5653466 63.0608672,22.421608 62.1041942,22.421608 C61.8476875,22.421608 61.5871012,22.4319489 61.325495,22.4515966 C60.5396564,22.5105398 59.7390292,22.6511761 58.9771584,22.8378295 C58.7430897,22.8952216 58.5110608,22.9557159 58.2856613,23.0213807 C56.9633515,23.4045114 55.9714917,24.0725341 55.2738751,24.7028125 C55.0749932,24.8827443 54.8995691,25.0595739 54.7476029,25.2260625 C54.6716199,25.3093068 54.6012463,25.3899659 54.5369921,25.4664886 C54.4079738,25.6205682 54.3013935,25.7601705 54.2172512,25.8780568 C54.0484565,26.1133125 53.9673739,26.2606705 53.9673739,26.2606705 C53.9673739,26.2606705 53.9434061,26.2875568 53.9102591,26.3299545 C53.8883311,26.3589091 53.8623234,26.3951023 53.8363158,26.4354318 C53.8108181,26.4757614 53.7853204,26.5202273 53.7649223,26.5662443 C53.7338151,26.6360455 53.7139269,26.7084318 53.7200464,26.7746136 C53.724126,26.8185625 53.7394246,26.8599261 53.7705318,26.8950852 C53.8332561,26.9654034 53.9597246,27.0124545 54.1846141,27.0124545 C54.3931852,27.0124545 54.6853886,26.972125 55.0902918,26.8738864 C55.8633815,26.6856818 56.7797682,26.2844545 57.6497491,25.8149773 C59.0990374,25.0321705 60.4187974,24.0590909 60.7303791,23.5653125 C60.7538369,23.5280852 60.7783147,23.4903409 60.7900436,23.4593182 C60.7900436,23.4593182 60.7941233,23.4732784 60.8017726,23.4996477 C60.8089119,23.526017 60.8196209,23.5647955 60.8318598,23.6133977 C60.8670466,23.753 60.9170221,23.9815341 60.9557786,24.2566023 C60.9593482,24.2819375 60.962408,24.3067557 60.9659776,24.333125 C61.027682,24.8206989 61.0455304,25.4401193 60.8762258,25.9980114 C60.8762258,25.9980114 60.9374202,26.0186932 61.0404309,26.039375 C61.1434415,26.0605739 61.2877584,26.0812557 61.4545132,26.0812557 C61.7258086,26.0812557 62.0552386,26.0264489 62.3596809,25.8284205 C62.5422443,25.7095 62.7161385,25.538875 62.8624952,25.2979318 C62.8624952,25.2979318 62.9486774,25.4509773 63.0027325,25.6810625 C63.0430188,25.8532386 63.0654568,26.0688466 63.0195609,26.2947955 C63.0042623,26.3702841 62.9813144,26.4468068 62.9486774,26.5238466 C62.9486774,26.5238466 62.9573466,26.5264318 62.9736651,26.5300511 C63.0221107,26.5419432 63.1383801,26.5657273 63.2913662,26.5657273 C63.5983583,26.5657273 64.0542569,26.471108 64.4168339,25.9980114 C64.4168339,25.9980114 64.4107145,26.0445455 64.3949059,26.1236534 C64.3841969,26.176392 64.3688983,26.243608 64.3479902,26.3216818 C64.3372812,26.3604602 64.3255522,26.4023409 64.3122934,26.4462898 C64.2720071,26.5776193 64.2174421,26.7291136 64.1455386,26.8862955 C64.097093,26.9917727 64.0409981,27.0993182 63.975724,27.2063466 C63.943087,27.2596023 63.9079002,27.312858 63.8701636,27.3650795 C63.7957104,27.4695227 63.7110581,27.5713807 63.6151868,27.666 C63.5193155,27.7606193 63.4132452,27.848 63.294426,27.9245227 C63.294426,27.9245227 63.57949,28.1173807 63.9670548,28.3107557 C64.3546196,28.5036136 64.8441751,28.6964716 65.252138,28.6964716 C65.3877857,28.6964716 65.5147641,28.6752727 65.625934,28.6251193 C65.625934,28.6251193 65.5285329,28.7854034 65.3571884,29.0035966 C65.2429588,29.1494034 65.0955822,29.3210625 64.921688,29.4885852" id="Fill-36" fill="#AB2430"></path>
                            <path d="M9.0705454,27.2409886 C6.71965912,27.8686818 5.17449959,28.2838693 5.00621489,28.3293693 C2.64053995,28.9529261 1.20502045,29.9963239 0.606334879,31.5210909 C-0.282514317,33.7836818 1.0219471,36.3994148 2.41514044,38.6594205 C4.02965367,41.2782557 5.73442869,42.8774773 9.0705454,44.1106307 L9.0705454,61.5934886 C9.0705454,62.5944886 9.59732752,63.5189659 10.4525198,64.019983 L52.326853,88.5320739 C52.7541942,88.7823239 53.2315108,88.9074489 53.7083174,88.9074489 C54.185634,88.9074489 54.6624407,88.7823239 55.0902918,88.5320739 L96.964625,64.019983 C97.8193073,63.5189659 98.3460894,62.5944886 98.3460894,61.5934886 L98.3460894,0.091 L9.0705454,0.091 L9.0705454,27.2409886 Z M53.7083174,86.1055795 L11.8339842,61.5934886 L11.8339842,44.9596193 C14.3337769,45.6064432 17.5332261,46.1808807 21.7612517,46.8183977 L21.8474339,46.8318409 L21.9320862,46.8452841 C33.6416417,48.630125 38.896204,51.4635341 39.26949,51.6713864 C50.3303845,58.6907955 56.8486119,67.6780795 60.3693319,73.9829318 C61.5238669,76.0511136 62.5549932,78.1797898 63.4346632,80.3095 L63.4688301,80.3922273 L53.7083174,86.1055795 L53.7083174,86.1055795 Z M91.4336678,64.0220511 L88.9430543,65.4801193 L88.9425443,65.4801193 C85.1306409,63.156 79.8444614,59.9348068 75.2982247,57.1691307 C67.0940905,52.178608 53.7083174,46.8375284 41.9635751,46.3995909 C33.5228225,46.0847102 26.7317698,45.5893807 23.5797464,45.3355114 C23.0692828,45.2507159 22.5511699,45.1669545 22.0152086,45.0862955 C19.2538097,44.6700739 16.9625879,44.2864261 15.037003,43.898642 C17.5306763,44.114767 20.4261931,44.2915966 22.638372,44.2104205 C23.5318107,44.1773295 24.3926125,44.1349318 25.2172075,44.0946023 C28.7624052,43.920358 31.5635806,43.7828239 33.4937551,44.5263352 C33.5544396,44.5496023 33.616144,44.5609773 33.6778484,44.5609773 C33.8864194,44.5609773 34.0832615,44.4317159 34.1623043,44.2217955 C34.2637851,43.9508636 34.1296673,43.647358 33.8619416,43.5444659 C31.7298255,42.7233977 28.8343087,42.8650682 25.1672321,43.045 C24.3462067,43.0853295 23.4899945,43.1272102 22.6006354,43.1603011 C19.2216826,43.2854261 14.5316389,42.9116023 11.8339842,42.6287784 C10.8186665,42.522267 10.0833133,42.4281648 9.80997818,42.3790455 C9.7141069,42.361983 9.62843469,42.3464716 9.54327243,42.3304432 C9.38212708,42.3014886 9.2378102,42.2746023 9.10930188,42.2503011 C9.09604309,42.2446136 9.08431415,42.2384091 9.0705454,42.2327216 C8.43820289,41.9705795 7.8726643,41.6929261 7.37341969,41.3894205 C7.67225252,40.5125114 8.53764385,37.9645114 9.0705454,35.9304545 C9.37192801,34.7805455 9.56826016,33.7929886 9.49329697,33.3690114 C9.44638124,33.1058352 9.28982547,32.7857841 9.0705454,32.444017 C8.42188437,31.431125 7.2214535,30.2233068 6.67325334,29.6933352 C7.28213799,29.5304659 8.09653395,29.3122727 9.0705454,29.0516818 C9.88749114,28.8334886 10.8171366,28.5853068 11.8339842,28.314892 C12.8972375,28.0315511 14.0543223,27.7239091 15.279231,27.3992045 C18.8667548,26.4478409 31.9363567,16.1410568 41.7045187,14.7905341 C42.9799127,14.6142216 44.374126,14.4642784 45.8672702,14.3634545 C45.9422334,14.368625 46.0258658,14.3727614 46.1268367,14.3727614 C46.3058304,14.3727614 46.496553,14.35725 46.6918653,14.3345 C47.5506272,14.3469091 48.8963949,14.3903409 50.5823016,14.5216705 C53.2452795,14.7745057 55.9444641,15.1834886 57.2810526,15.3990966 C58.4233488,15.5836818 60.3208863,16.0030057 62.4076166,16.4978182 C66.9329452,17.7051193 71.6903027,19.5809602 75.7296455,22.4960625 C86.2158222,30.0630227 92.224096,35.6295341 92.5698446,36.4175114 C92.9023343,37.1770511 75.2752768,35.4966534 68.9691901,29.8892955 C68.7208427,27.8909148 67.858511,25.5259489 67.3633461,24.2891761 C66.8299346,22.9583011 65.4841669,21.3709716 62.1041942,21.3709716 C60.5391464,21.3709716 59.0087756,21.7189432 58.0005972,22.0110739 C57.728282,22.0901818 57.4717753,22.182733 57.2239378,22.2809716 C55.9434442,21.932483 54.8312353,21.7489318 53.9673739,21.6201875 C51.0315708,21.18225 46.3680447,20.4821705 36.4366976,23.5466989 C26.5058604,26.6112273 15.5382874,32.3023466 13.8110744,34.1414773 C12.0838615,35.9800909 13.9834388,38.6066818 15.5382874,39.7452159 C17.0926261,40.883233 18.7336569,42.8097443 19.337952,41.2332727 C19.9422471,39.6573182 19.6831906,39.3072784 21.9285165,39.4820398 C24.1738424,39.6573182 36.695754,41.0585114 42.5683801,39.6573182 C48.4404963,38.256642 54.3131224,36.5927898 55.4355304,35.366875 C55.4355304,35.366875 55.3493482,36.8554489 54.9174175,37.6434261 C54.9174175,37.6434261 57.4217998,37.2933864 58.2856613,36.6806875 C58.2856613,36.6806875 58.1989692,37.7313239 57.5946741,38.1687443 C57.5946741,38.1687443 59.0628307,38.6945795 60.1852386,37.993983 C60.1852386,37.993983 59.235195,38.8693409 59.4942514,39.6573182 C59.7533079,40.4452955 62.171508,40.7079545 67.2669648,41.3211705 C71.885105,41.8764773 82.8899046,49.5546023 91.5331088,63.963625 L90.1960104,64.7464318 L95.5826507,61.5934886 L91.4336678,64.0220511 L91.4336678,64.0220511 Z M46.9244041,14.3055455 C46.9269539,14.3050284 46.9295037,14.3050284 46.9320534,14.3045114 C46.9346032,14.3045114 46.9376629,14.3050284 46.9407227,14.3050284 C46.9351132,14.3050284 46.9300136,14.3055455 46.9244041,14.3055455 L46.9244041,14.3055455 Z M50.1651595,13.0542955 C50.214625,13.0186193 50.2630706,12.9834602 50.3125361,12.9483011 C50.3614917,12.912625 50.4114671,12.8769489 50.4594028,12.8423068 C50.611369,12.7326932 50.7551759,12.6292841 50.8831743,12.5393182 C51.1401909,12.3578352 51.3803791,12.1830739 51.6292364,12.0046932 C51.8786038,11.8257955 52.1361304,11.6432784 52.3758086,11.4695511 C52.7725525,11.183108 53.1585874,10.9044205 53.5323834,10.6396932 C53.9056695,10.375483 54.2672266,10.12575 54.6134851,9.89773295 C55.7675102,9.13819318 56.7568203,8.62321591 57.4926834,8.62321591 C57.5941642,8.62321591 57.6900355,8.63303977 57.7787674,8.65320455 C58.5579765,8.829 59.8879356,9.63765909 61.1725089,10.6003977 C61.3560922,10.7379318 61.5386556,10.8790852 61.7186692,11.0212727 C61.6957213,11.1096875 61.6788928,11.2017216 61.6651241,11.2937557 C61.6431961,11.4390455 61.6299373,11.5833011 61.621778,11.7130795 C61.6171884,11.7916705 61.6136188,11.8650909 61.610559,11.9292045 C61.5993401,12.1892784 61.5549741,12.389375 61.4968394,12.5243239 C61.4392146,12.6597898 61.3673112,12.7295909 61.3010172,12.7295909 C61.2648105,12.7295909 61.2199346,12.7151136 61.170979,12.6882273 C60.896114,12.5362159 60.7670957,12.0212386 60.7436379,11.854233 L60.6783638,11.3692443 L60.246943,11.5879545 C60.0664194,11.6794716 59.8741669,11.7942557 59.6844641,11.9074886 C59.5824734,11.9685 59.4600845,12.0419205 59.3412653,12.1086193 C59.2219362,12.1748011 59.1066867,12.2342614 59.0189746,12.2673523 C59.0312135,12.0429545 58.9842978,11.8278636 58.9057649,11.6293182 C58.8664985,11.5305625 58.8190728,11.4359432 58.7670575,11.3464943 C58.663027,11.1675966 58.5411481,11.0098977 58.4279384,10.8816705 C58.2581238,10.6898466 58.1081974,10.5642045 58.069441,10.5331818 L57.7706081,10.2906875 L57.7104336,10.2420852 L57.5344996,10.6727841 C56.9480529,12.1065511 52.8643442,13.0584318 50.4206463,13.0584318 C50.3324243,13.0584318 50.247772,13.0568807 50.1651595,13.0542955 L50.1651595,13.0542955 Z M65.252138,28.6964716 C64.8441751,28.6964716 64.3546196,28.5036136 63.9670548,28.3107557 C63.57949,28.1173807 63.294426,27.9245227 63.294426,27.9245227 C63.4132452,27.848 63.5193155,27.7606193 63.6151868,27.666 C63.7110581,27.5713807 63.7957104,27.4695227 63.8701636,27.3650795 C63.9079002,27.312858 63.943087,27.2596023 63.975724,27.2063466 C64.0409981,27.0993182 64.097093,26.9917727 64.1455386,26.8862955 C64.2174421,26.7291136 64.2720071,26.5776193 64.3122934,26.4462898 C64.3255522,26.4023409 64.3372812,26.3604602 64.3479902,26.3216818 C64.3688983,26.243608 64.3841969,26.176392 64.3949059,26.1236534 C64.4107145,26.0445455 64.4168339,25.9980114 64.4168339,25.9980114 C64.0542569,26.471108 63.5983583,26.5657273 63.2913662,26.5657273 C63.1383801,26.5657273 63.0221107,26.5419432 62.9736651,26.5300511 C62.9573466,26.5264318 62.9486774,26.5238466 62.9486774,26.5238466 C62.9813144,26.4468068 63.0042623,26.3702841 63.0195609,26.2947955 C63.0654568,26.0688466 63.0430188,25.8532386 63.0027325,25.6810625 C62.9486774,25.4509773 62.8624952,25.2979318 62.8624952,25.2979318 C62.7161385,25.538875 62.5422443,25.7095 62.3596809,25.8284205 C62.0552386,26.0264489 61.7258086,26.0812557 61.4545132,26.0812557 C61.2877584,26.0812557 61.1434415,26.0605739 61.0404309,26.039375 C60.9374202,26.0186932 60.8762258,25.9980114 60.8762258,25.9980114 C61.0455304,25.4401193 61.027682,24.8206989 60.9659776,24.333125 C60.962408,24.3067557 60.9593482,24.2819375 60.9557786,24.2566023 C60.9170221,23.9815341 60.8670466,23.753 60.8318598,23.6133977 C60.8196209,23.5647955 60.8089119,23.526017 60.8017726,23.4996477 C60.7941233,23.4732784 60.7900436,23.4593182 60.7900436,23.4593182 C60.7783147,23.4903409 60.7538369,23.5280852 60.7303791,23.5653125 C60.4187974,24.0590909 59.0990374,25.0321705 57.6497491,25.8149773 C56.7797682,26.2844545 55.8633815,26.6856818 55.0902918,26.8738864 C54.6853886,26.972125 54.3931852,27.0124545 54.1846141,27.0124545 C53.9597246,27.0124545 53.8332561,26.9654034 53.7705318,26.8950852 C53.7394246,26.8599261 53.724126,26.8185625 53.7200464,26.7746136 C53.7139269,26.7084318 53.7338151,26.6360455 53.7649223,26.5662443 C53.7853204,26.5202273 53.8108181,26.4757614 53.8363158,26.4354318 C53.8623234,26.3951023 53.8883311,26.3589091 53.9102591,26.3299545 C53.9434061,26.2875568 53.9673739,26.2606705 53.9673739,26.2606705 C53.9673739,26.2606705 54.0484565,26.1133125 54.2172512,25.8780568 C54.3013935,25.7601705 54.4079738,25.6205682 54.5369921,25.4664886 C54.6012463,25.3899659 54.6716199,25.3093068 54.7476029,25.2260625 C54.8995691,25.0595739 55.0749932,24.8827443 55.2738751,24.7028125 C55.9714917,24.0725341 56.9633515,23.4045114 58.2856613,23.0213807 C58.5110608,22.9557159 58.7430897,22.8952216 58.9771584,22.8378295 C59.7390292,22.6511761 60.5396564,22.5105398 61.325495,22.4515966 C61.5871012,22.4319489 61.8476875,22.421608 62.1041942,22.421608 C63.0608672,22.421608 63.9665449,22.5653466 64.7177066,22.9205568 C64.9053695,23.0094886 65.0833433,23.1113466 65.2500982,23.2271648 C65.5841178,23.4598352 65.8722416,23.7488636 66.1027407,24.1030398 C66.2179902,24.2803864 66.318451,24.4737614 66.4031034,24.6847159 C66.6183038,25.2214091 66.8498227,25.8522045 67.0691028,26.517642 C67.1782329,26.8506193 67.2843032,27.1918693 67.3837442,27.5346705 C67.4831852,27.8769545 67.5754868,28.2207898 67.6570794,28.5579034 C67.7177638,28.8086705 67.7728388,29.0553011 67.8202645,29.2957273 C67.9385738,29.8965341 68.0109872,30.4570114 68.0140469,30.9290739 C68.0150668,31.1177955 68.0048677,31.2925568 67.9824298,31.4497386 C67.9707008,31.5288466 67.9564221,31.6033011 67.9385738,31.6731023 C67.8309735,32.0919091 67.6030243,32.3421591 67.2129097,32.3421591 C67.1241778,32.3421591 67.0272866,32.329233 66.9212163,32.3023466 C65.5397518,31.9523068 63.9849032,30.1136932 63.9849032,30.1136932 C64.3413608,29.9823636 64.6611017,29.7398693 64.921688,29.4885852 C65.0955822,29.3210625 65.2429588,29.1494034 65.3571884,29.0035966 C65.5285329,28.7854034 65.625934,28.6251193 65.625934,28.6251193 C65.5147641,28.6752727 65.3877857,28.6964716 65.252138,28.6964716 L65.252138,28.6964716 Z M33.2132806,31.0691932 C33.1673848,30.9590625 33.1010908,30.8597898 33.0189883,30.7770625 C32.9368857,30.6938182 32.8394846,30.6260852 32.7308645,30.5800682 C32.6222443,30.533017 32.5029152,30.5076818 32.3779765,30.5076818 C32.3453395,30.5076818 32.3142323,30.5138864 32.2821053,30.5175057 C32.4320316,30.4084091 32.5743087,30.3349886 32.7094464,30.2884545 C32.8440742,30.2419205 32.9715626,30.2227898 33.0903818,30.2227898 C33.2632561,30.2227898 33.4198118,30.2615682 33.5600491,30.3106875 C33.6304227,30.3349886 33.6962067,30.362392 33.7584211,30.3892784 C33.8206354,30.4156477 33.8782602,30.442017 33.9323152,30.463733 C34.364246,30.6390114 35.1414153,31.0764318 35.1414153,31.0764318 C35.0659422,31.0878068 34.9930188,31.1069375 34.9216253,31.1322727 C34.7793482,31.1839773 34.6437006,31.261017 34.507033,31.3504659 C34.2331879,31.5298807 33.9537333,31.7584148 33.6044151,31.9264545 C33.516703,31.9688523 33.4249114,32.0071136 33.3280202,32.0396875 C33.2260295,32.0743295 33.1067003,32.0944943 32.9827816,32.1074205 C33.0286774,32.0655398 33.0704936,32.0190057 33.1077202,31.9683352 C33.2183801,31.8168409 33.2846741,31.6301875 33.2846741,31.4269886 C33.2846741,31.2997955 33.2591764,31.1788068 33.2132806,31.0691932 L33.2132806,31.0691932 Z M95.5826507,0.091 L95.5826507,33.3431591 C88.1148896,25.9618182 80.1489037,20.4625227 71.8937742,17.0024545 C71.8366594,16.9595398 71.7769948,16.9233466 71.7147805,16.894392 C68.8911672,15.3049943 66.2506272,13.037233 65.274066,11.9302386 C63.5866294,10.0182045 60.0342923,7.3673125 58.1535833,6.94385227 C57.9419525,6.89628409 57.7196128,6.87198295 57.4926834,6.87198295 C55.7629206,6.87198295 53.8261167,8.27110795 51.3742596,10.0430227 C50.8989828,10.386858 50.4063676,10.7425852 49.8979438,11.1008977 C48.6240796,11.9974545 47.9667494,12.3738636 47.6291601,12.5289773 C47.3155386,12.5398352 47.0019171,12.5501761 46.6888056,12.5662045 C44.8963185,12.6577216 43.1895037,12.8180057 41.4714699,13.0553295 C34.6844969,13.993767 26.696583,18.8436534 20.8642433,22.3854148 C18.2731688,23.958267 15.8269212,25.4437386 14.8422007,25.7048466 C13.7850668,25.9850852 12.7773984,26.2529148 11.8339842,26.5041989 L11.8339842,0.091 L95.5826507,0.091 Z" id="Fill-37" fill="#3D1719"></path>
                            <path d="M46.9320534,14.3045114 C46.9295037,14.3050284 46.9269539,14.3050284 46.9244041,14.3055455 C46.9300136,14.3055455 46.9351132,14.3050284 46.9407227,14.3050284 C46.9376629,14.3050284 46.9346032,14.3045114 46.9320534,14.3045114" id="Fill-38" fill="#3D1719"></path>
                            <path d="M88.9425443,65.4801193 L88.9430543,65.4801193 L90.1960104,64.7464318 L88.9425443,65.4801193" id="Fill-39" fill="#FFFFFF"></path>
                            <path d="M36.4366976,23.5466989 C46.3680447,20.4821705 51.0315708,21.18225 53.9673739,21.6201875 C54.8312353,21.7489318 55.9434442,21.932483 57.2239378,22.2809716 C57.4717753,22.182733 57.728282,22.0901818 58.0005972,22.0110739 C59.0087756,21.7189432 60.5391464,21.3709716 62.1041942,21.3709716 C65.4841669,21.3709716 66.8299346,22.9583011 67.3633461,24.2891761 C67.858511,25.5259489 68.7208427,27.8909148 68.9691901,29.8892955 C75.2752768,35.4966534 92.9023343,37.1770511 92.5698446,36.4175114 C92.224096,35.6295341 86.2158222,30.0630227 75.7296455,22.4960625 C71.6903027,19.5809602 66.9329452,17.7051193 62.4076166,16.4978182 C60.3208863,16.0030057 58.4233488,15.5836818 57.2810526,15.3990966 C55.9444641,15.1834886 53.2452795,14.7745057 50.5823016,14.5216705 C48.8963949,14.3903409 47.5506272,14.3469091 46.6918653,14.3345 C46.496553,14.35725 46.3058304,14.3727614 46.1268367,14.3727614 C46.0258658,14.3727614 45.9422334,14.368625 45.8672702,14.3634545 C44.374126,14.4642784 42.9799127,14.6142216 41.7045187,14.7905341 C31.9363567,16.1410568 18.8667548,26.4478409 15.279231,27.3992045 C14.0543223,27.7239091 12.8972375,28.0315511 11.8339842,28.314892 C10.8171366,28.5853068 9.88749114,28.8334886 9.0705454,29.0516818 C8.09653395,29.3122727 7.28213799,29.5304659 6.67325334,29.6933352 C7.2214535,30.2233068 8.42188437,31.431125 9.0705454,32.444017 C9.28982547,32.7857841 9.44638124,33.1058352 9.49329697,33.3690114 C9.56826016,33.7929886 9.37192801,34.7805455 9.0705454,35.9304545 C8.53764385,37.9645114 7.67225252,40.5125114 7.37341969,41.3894205 C7.8726643,41.6929261 8.43820289,41.9705795 9.0705454,42.2327216 C9.08431415,42.2384091 9.09604309,42.2446136 9.10930188,42.2503011 C9.2378102,42.2746023 9.38212708,42.3014886 9.54327243,42.3304432 C9.62843469,42.3464716 9.7141069,42.361983 9.80997818,42.3790455 C10.0833133,42.4281648 10.8186665,42.522267 11.8339842,42.6287784 C14.5316389,42.9116023 19.2216826,43.2854261 22.6006354,43.1603011 C23.4899945,43.1272102 24.3462067,43.0853295 25.1672321,43.045 C28.8343087,42.8650682 31.7298255,42.7233977 33.8619416,43.5444659 C34.1296673,43.647358 34.2637851,43.9508636 34.1623043,44.2217955 C34.0832615,44.4317159 33.8864194,44.5609773 33.6778484,44.5609773 C33.616144,44.5609773 33.5544396,44.5496023 33.4937551,44.5263352 C31.5635806,43.7828239 28.7624052,43.920358 25.2172075,44.0946023 C24.3926125,44.1349318 23.5318107,44.1773295 22.638372,44.2104205 C20.4261931,44.2915966 17.5306763,44.114767 15.037003,43.898642 C16.9625879,44.2864261 19.2538097,44.6700739 22.0152086,45.0862955 C22.5511699,45.1669545 23.0692828,45.2507159 23.5797464,45.3355114 C26.7317698,45.5893807 33.5228225,46.0847102 41.9635751,46.3995909 C53.7083174,46.8375284 67.0940905,52.178608 75.2982247,57.1691307 C79.8444614,59.9348068 85.1306409,63.156 88.9425443,65.4801193 L91.5331088,63.963625 C82.8899046,49.5546023 71.885105,41.8764773 67.2669648,41.3211705 C62.171508,40.7079545 59.7533079,40.4452955 59.4942514,39.6573182 C59.235195,38.8693409 60.1852386,37.993983 60.1852386,37.993983 C59.0628307,38.6945795 57.5946741,38.1687443 57.5946741,38.1687443 C58.1989692,37.7313239 58.2856613,36.6806875 58.2856613,36.6806875 C57.4217998,37.2933864 54.9174175,37.6434261 54.9174175,37.6434261 C55.3493482,36.8554489 55.4355304,35.366875 55.4355304,35.366875 C54.3131224,36.5927898 48.4404963,38.256642 42.5683801,39.6573182 C36.695754,41.0585114 24.1738424,39.6573182 21.9285165,39.4820398 C19.6831906,39.3072784 19.9422471,39.6573182 19.337952,41.2332727 C18.7336569,42.8097443 17.0926261,40.883233 15.5382874,39.7452159 C13.9834388,38.6066818 12.0838615,35.9800909 13.8110744,34.1414773 C15.5382874,32.3023466 26.5058604,26.6112273 36.4366976,23.5466989" id="Fill-40" fill="#FFFFFF"></path>
                            <path d="M64.3479902,26.3216818 C64.3688983,26.243608 64.3841969,26.176392 64.3949059,26.1236534 C64.3841969,26.176392 64.3688983,26.243608 64.3479902,26.3216818" id="Fill-41" fill="#FFFFFF"></path>
                            <path d="M64.514745,26.3676989 L64.1807254,26.2756648 C64.2011235,26.2022443 64.2154022,26.1386477 64.2250914,26.0890114 L64.5637006,26.1582955 C64.5529915,26.2136193 64.536673,26.2849716 64.514745,26.3676989" id="Fill-42" fill="#3D1719"></path>
                            <path d="M63.294426,27.9245227 C63.294426,27.9245227 63.57949,28.1173807 63.9670548,28.3107557 C63.57949,28.1173807 63.294426,27.9245227 63.294426,27.9245227" id="Fill-43" fill="#FFFFFF"></path>
                            <path d="M63.8910717,28.4679375 C63.4984074,28.2719773 63.2102836,28.0780852 63.1985547,28.0703295 L63.3897873,27.7787159 C63.3923371,27.7807841 63.6717917,27.9684716 64.0435479,28.1530568 L63.8910717,28.4679375" id="Fill-44" fill="#3D1719"></path>
                            <path d="M53.8363158,26.4354318 C53.8623234,26.3951023 53.8883311,26.3589091 53.9102591,26.3299545 C53.8883311,26.3589091 53.8623234,26.3951023 53.8363158,26.4354318" id="Fill-45" fill="#FFFFFF"></path>
                            <path d="M53.9816526,26.5300511 L53.691489,26.3408125 C53.7200464,26.2953125 53.7491137,26.254983 53.7741014,26.2224091 L54.0464167,26.438017 C54.0270385,26.4633523 54.0040905,26.494375 53.9816526,26.5300511" id="Fill-46" fill="#3D1719"></path>
                            <path d="M63.6151868,27.666 C63.7110581,27.5713807 63.7957104,27.4695227 63.8701636,27.3650795 C63.7957104,27.4695227 63.7110581,27.5713807 63.6151868,27.666" id="Fill-47" fill="#FFFFFF"></path>
                            <path d="M63.7355359,27.791125 L63.4948377,27.540358 C63.5774502,27.4586648 63.656493,27.3655966 63.7294164,27.2642557 C63.7304363,27.2637386 63.7304363,27.2627045 63.7304363,27.2621875 L64.0104009,27.4674545 C63.9257486,27.5853409 63.8339569,27.6944375 63.7355359,27.791125" id="Fill-48" fill="#3D1719"></path>
                            <path d="M54.2172512,25.8780568 C54.3013935,25.7601705 54.4079738,25.6205682 54.5369921,25.4664886 C54.4079738,25.6205682 54.3013935,25.7601705 54.2172512,25.8780568" id="Fill-49" fill="#FFFFFF"></path>
                            <path d="M54.3569785,25.9809489 L54.0775239,25.7746477 C54.164216,25.6541761 54.2728361,25.5114716 54.4049141,25.3532557 L54.6680502,25.5802386 C54.5426016,25.7301818 54.439081,25.8661648 54.3569785,25.9809489" id="Fill-50" fill="#3D1719"></path>
                            <path d="M64.921688,29.4885852 C65.0955822,29.3210625 65.2429588,29.1494034 65.3571884,29.0035966 C65.2429588,29.1494034 65.0955822,29.3210625 64.921688,29.4885852" id="Fill-51" fill="#FFFFFF"></path>
                            <path d="M65.0405072,29.6157784 L64.8023589,29.3619091 C64.9461658,29.2233409 65.087423,29.0661591 65.2220507,28.8945 L65.4923262,29.1126932 C65.3480093,29.2967614 65.1960431,29.4658352 65.0405072,29.6157784" id="Fill-52" fill="#3D1719"></path>
                            <path d="M63.975724,27.2063466 C64.0409981,27.0993182 64.097093,26.9917727 64.1455386,26.8862955 C64.097093,26.9917727 64.0409981,27.0993182 63.975724,27.2063466" id="Fill-53" fill="#FFFFFF"></path>
                            <path d="M64.1215708,27.2988977 L63.8288574,27.1137955 C63.8905618,27.0129716 63.9435969,26.9116307 63.9894928,26.812875 L64.3020944,26.96075 C64.251099,27.0719148 64.1914344,27.1856648 64.1215708,27.2988977" id="Fill-54" fill="#3D1719"></path>
                            <path d="M53.7200464,26.7746136 C53.7139269,26.7084318 53.7338151,26.6360455 53.7649223,26.5662443 C53.7338151,26.6360455 53.7139269,26.7084318 53.7200464,26.7746136" id="Fill-55" fill="#FFFFFF"></path>
                            <path d="M53.547682,26.790642 C53.5466621,26.7777159 53.5461522,26.7642727 53.5461522,26.7508295 C53.5461522,26.6722386 53.5665503,26.585892 53.6073466,26.494375 L53.921988,26.6386307 C53.8959804,26.6975739 53.8913908,26.733767 53.8913908,26.7508295 C53.8913908,26.7539318 53.8919007,26.756517 53.8919007,26.7585852 L53.547682,26.790642" id="Fill-56" fill="#3D1719"></path>
                            <path d="M64.1455386,26.8862955 C64.2174421,26.7291136 64.2720071,26.5776193 64.3122934,26.4462898 C64.2720071,26.5776193 64.2174421,26.7291136 64.1455386,26.8862955" id="Fill-57" fill="#FFFFFF"></path>
                            <path d="M64.3026043,26.960233 L63.9889828,26.812875 C64.0506872,26.6789602 64.1032124,26.5383239 64.1465585,26.3951023 L64.4775184,26.4974773 C64.4290728,26.6562102 64.3704281,26.812358 64.3026043,26.960233" id="Fill-58" fill="#3D1719"></path>
                            <path d="M67.8202645,29.2957273 C67.7728388,29.0553011 67.7177638,28.8086705 67.6570794,28.5579034 C67.5754868,28.2207898 67.4831852,27.8769545 67.3837442,27.5346705 C67.4831852,27.8769545 67.5754868,28.2207898 67.6570794,28.5584205 C67.7177638,28.8086705 67.7728388,29.0553011 67.8202645,29.2957273" id="Fill-59" fill="#FFFFFF"></path>
                            <path d="M67.6509599,29.3303693 C67.6035342,29.0920114 67.5494791,28.8474489 67.4898146,28.5997841 C67.408222,28.2652557 67.3169403,27.9240057 67.2180093,27.5837898 L67.5494791,27.4850341 C67.6494301,27.8299034 67.7427516,28.1763239 67.8253641,28.5165398 C67.8860485,28.769375 67.9411235,29.0185909 67.9895691,29.2610852 L67.6509599,29.3303693" id="Fill-60" fill="#3D1719"></path>
                            <path d="M63.0027325,25.6810625 C63.0430188,25.8532386 63.0654568,26.0688466 63.0195609,26.2947955 C63.0654568,26.0688466 63.0430188,25.8532386 63.0027325,25.6810625" id="Fill-61" fill="#FFFFFF"></path>
                            <path d="M63.1888656,26.3299545 L62.8502563,26.2601534 C62.865045,26.18725 62.8726943,26.1122784 62.8721843,26.0347216 C62.8721843,25.9333807 62.8599455,25.8289375 62.8349577,25.721392 L63.1705072,25.6402159 C63.2021244,25.7741307 63.2179329,25.9059773 63.2179329,26.0342045 C63.2179329,26.1350284 63.2082438,26.2337841 63.1888656,26.3299545" id="Fill-62" fill="#3D1719"></path>
                            <path d="M60.9659776,24.333125 C61.027682,24.8206989 61.0455304,25.4401193 60.8762258,25.9980114 C61.0455304,25.4401193 61.027682,24.8206989 60.9659776,24.333125" id="Fill-63" fill="#FFFFFF"></path>
                            <path d="M61.0409408,26.0497159 L60.7115108,25.9468239 C60.7951432,25.6691705 60.8374693,25.3537727 60.8374693,25.003733 C60.8379793,24.7995 60.8237006,24.582858 60.7946332,24.355358 L61.1373221,24.310892 C61.1674093,24.5518352 61.1832179,24.7814034 61.1832179,25.0006307 C61.1832179,25.3868636 61.1357922,25.7379375 61.0409408,26.0497159" id="Fill-64" fill="#3D1719"></path>
                            <path d="M65.625934,28.6251193 C65.625934,28.6251193 65.5285329,28.7854034 65.3571884,29.0035966 C65.5285329,28.7848864 65.625934,28.6251193 65.625934,28.6251193" id="Fill-65" fill="#FFFFFF"></path>
                            <path d="M65.4928361,29.1126932 L65.2220507,28.895017 C65.383706,28.6887159 65.4765176,28.5372216 65.4785574,28.5330852 L65.7728007,28.7166364 C65.7728007,28.7166364 65.6713199,28.8841591 65.4928361,29.1126932" id="Fill-66" fill="#3D1719"></path>
                            <path d="M63.0195609,26.2947955 C63.0042623,26.3702841 62.9813144,26.4468068 62.9486774,26.5238466 C62.9486774,26.5238466 62.9573466,26.5264318 62.9736651,26.5300511 C62.9573466,26.5264318 62.9486774,26.5238466 62.9486774,26.5238466 C62.9813144,26.4468068 63.0042623,26.3702841 63.0195609,26.2947955" id="Fill-67" fill="#FFFFFF"></path>
                            <path d="M62.9354186,26.7006761 L62.733477,26.654142 L62.7900818,26.4545625 C62.8181293,26.3894148 62.8375075,26.32375 62.8502563,26.2596364 L63.1888656,26.3304716 C63.1710172,26.4168182 63.1444996,26.5047159 63.1077829,26.5926136 L62.9685656,26.5321193 L62.9354186,26.7006761" id="Fill-68" fill="#3D1719"></path>
                            <path d="M61.0404309,26.039375 C61.1434415,26.0605739 61.2877584,26.0812557 61.4545132,26.0812557 C61.7258086,26.0812557 62.0552386,26.0264489 62.3596809,25.8284205 C62.0552386,26.0264489 61.7258086,26.0807386 61.4545132,26.0807386 C61.2877584,26.0807386 61.1434415,26.0605739 61.0404309,26.039375" id="Fill-69" fill="#FFFFFF"></path>
                            <path d="M61.4545132,26.256017 C61.2678702,26.256017 61.1082547,26.2317159 61.0067739,26.2110341 L61.0745978,25.8677159 C61.16027,25.8852955 61.2959176,25.9059773 61.4545132,25.9059773 C61.7640551,25.9059773 62.0368803,25.8304886 62.2668694,25.6810625 L62.4530025,25.9757784 C62.1674284,26.1619148 61.831369,26.256017 61.4545132,26.256017" id="Fill-70" fill="#3D1719"></path>
                            <path d="M58.9771584,22.8378295 C59.7395391,22.6511761 60.5396564,22.5105398 61.325495,22.4515966 C60.5396564,22.5105398 59.7390292,22.6511761 58.9771584,22.8378295 C58.7430897,22.8952216 58.5110608,22.9557159 58.2856613,23.0213807 C56.9633515,23.4045114 55.9714917,24.0725341 55.2738751,24.7028125 C55.9714917,24.0725341 56.9633515,23.4045114 58.2856613,23.0213807 C58.5110608,22.9557159 58.7430897,22.8952216 58.9771584,22.8378295" id="Fill-71" fill="#FFFFFF"></path>
                            <path d="M55.3891246,24.833108 L55.1591355,24.572 C56.0530843,23.764375 57.0888001,23.1858011 58.2382356,22.8528239 C58.4656749,22.7871591 58.6997437,22.7256307 58.9363621,22.6682386 C59.0419226,22.6418693 59.146973,22.6175682 59.2515135,22.5937841 C59.9093537,22.445392 60.5457758,22.3435341 61.1495609,22.2902784 C61.2046359,22.285625 61.258691,22.2809716 61.3122362,22.2768352 L61.3382438,22.626358 C60.61003,22.6806477 59.8298009,22.809392 59.0179547,23.0084545 L59.0174448,23.0084545 C58.9067848,23.0353409 58.7961249,23.0632614 58.6864849,23.0922159 C58.6196809,23.1097955 58.553387,23.127892 58.4876029,23.1459886 C58.486583,23.1459886 58.4860731,23.1465057 58.4850532,23.1465057 C58.4819935,23.1475398 58.4789337,23.1480568 58.476384,23.1490909 C58.4753641,23.1490909 58.4743442,23.149608 58.4738342,23.149608 C58.4707745,23.150642 58.4672048,23.1511591 58.464655,23.1521932 C58.4554759,23.1547784 58.4457867,23.1573636 58.4371175,23.1599489 C58.4350777,23.1604659 58.4330379,23.160983 58.4309981,23.1615 C58.4269185,23.1625341 58.4228388,23.1635682 58.4197791,23.1646023 C58.4151895,23.1661534 58.4111099,23.1671875 58.4070303,23.1682216 C58.4014208,23.1702898 58.3947914,23.1718409 58.388162,23.173392 C58.3845923,23.1749432 58.3810226,23.1754602 58.3779629,23.1764943 C58.3698037,23.1790795 58.3616444,23.1811477 58.3539951,23.183733 C58.3468557,23.1852841 58.3397164,23.1873523 58.333087,23.1894205 C57.2336269,23.5079205 56.2438069,24.0611591 55.3891246,24.833108" id="Fill-72" fill="#3D1719"></path>
                            <path d="M55.2738751,24.7028125 C55.0749932,24.8827443 54.8995691,25.0595739 54.7476029,25.2260625 C54.8995691,25.0595739 55.0749932,24.8827443 55.2738751,24.7028125" id="Fill-73" fill="#FFFFFF"></path>
                            <path d="M54.8740714,25.3455 L54.6206245,25.107142 C54.7924789,24.9189375 54.9740224,24.7390057 55.1596455,24.572 L55.3886147,24.833108 C55.2116608,24.993392 55.0387865,25.1655682 54.8740714,25.3455" id="Fill-74" fill="#3D1719"></path>
                            <path d="M60.7900436,23.4593182 C60.7900436,23.4593182 60.7941233,23.4732784 60.8017726,23.4996477 C60.7941233,23.4732784 60.7900436,23.4588011 60.7900436,23.4588011 L60.7900436,23.4593182" id="Fill-75" fill="#FFFFFF"></path>
                            <path d="M60.6355277,23.54825 L60.5804527,23.354358 L60.7660758,23.2855909 L60.9149823,23.264392 L60.9588383,23.4215739 L60.8721462,23.4551818 L60.9675075,23.4510455 L60.6355277,23.54825" id="Fill-76" fill="#3D1719"></path>
                            <path d="M60.8017726,23.4996477 C60.8089119,23.526017 60.8196209,23.5647955 60.8318598,23.6133977 C60.8670466,23.753 60.9170221,23.9815341 60.9557786,24.2566023 C60.9170221,23.9815341 60.8670466,23.753 60.8318598,23.6133977 C60.8196209,23.5647955 60.8089119,23.526017 60.8017726,23.4996477" id="Fill-77" fill="#FFFFFF"></path>
                            <path d="M60.7844341,24.2809034 C60.7446578,23.9970455 60.6926425,23.7674773 60.664595,23.6563125 L60.6355277,23.547733 L60.9675075,23.4515625 L60.9991246,23.5689318 C61.0287019,23.6883693 61.0842869,23.9313807 61.1261031,24.2317841 L60.7844341,24.2809034" id="Fill-78" fill="#3D1719"></path>
                            <path d="M67.8202645,29.2957273 C67.7728388,29.0553011 67.7177638,28.8086705 67.6570794,28.5584205 C67.5754868,28.2207898 67.4831852,27.8769545 67.3837442,27.5346705 C67.2843032,27.1918693 67.1782329,26.8506193 67.0691028,26.517642 C66.8498227,25.8527216 66.6183038,25.2214091 66.4031034,24.6847159 C66.318451,24.4737614 66.2179902,24.2803864 66.1027407,24.1030398 C65.8722416,23.7488636 65.5841178,23.4598352 65.2500982,23.2271648 C65.0833433,23.1113466 64.9053695,23.0094886 64.7177066,22.9205568 C63.9665449,22.5653466 63.0608672,22.421608 62.1041942,22.421608 C61.8476875,22.421608 61.5871012,22.4319489 61.325495,22.4515966 C60.5396564,22.5105398 59.7395391,22.6511761 58.9771584,22.8378295 C58.7430897,22.8952216 58.5110608,22.9557159 58.2856613,23.0213807 C56.9633515,23.4045114 55.9714917,24.0725341 55.2738751,24.7028125 C55.0749932,24.8827443 54.8995691,25.0595739 54.7476029,25.2260625 C54.6716199,25.3093068 54.6012463,25.3899659 54.5369921,25.4664886 C54.4079738,25.6205682 54.3013935,25.7601705 54.2172512,25.8780568 C54.0484565,26.1133125 53.9673739,26.2606705 53.9673739,26.2606705 C53.9673739,26.2606705 53.9434061,26.2875568 53.9102591,26.3299545 C53.8883311,26.3589091 53.8623234,26.3951023 53.8363158,26.4354318 C53.8108181,26.4757614 53.7853204,26.5202273 53.7649223,26.5662443 C53.7338151,26.6360455 53.7139269,26.7084318 53.7200464,26.7746136 C53.724126,26.8185625 53.7394246,26.8599261 53.7705318,26.8950852 C53.8332561,26.9654034 53.9597246,27.0124545 54.1846141,27.0124545 C54.3931852,27.0124545 54.6853886,26.972125 55.0902918,26.8738864 C55.8633815,26.6856818 56.7797682,26.2844545 57.6497491,25.8149773 C59.0990374,25.0321705 60.4187974,24.0590909 60.7303791,23.5653125 C60.7538369,23.5280852 60.7783147,23.4903409 60.7900436,23.4588011 L60.7900436,23.4588011 C60.7900436,23.4588011 60.7941233,23.4732784 60.8017726,23.4996477 C60.8089119,23.526017 60.8196209,23.5647955 60.8318598,23.6133977 C60.8670466,23.753 60.9170221,23.9815341 60.9557786,24.2566023 C60.9593482,24.2819375 60.962408,24.3067557 60.9659776,24.333125 C61.027682,24.8206989 61.0455304,25.4401193 60.8762258,25.9980114 C60.8762258,25.9980114 60.9374202,26.0186932 61.0404309,26.039375 C61.1434415,26.0605739 61.2877584,26.0807386 61.4545132,26.0807386 C61.7258086,26.0807386 62.0552386,26.0264489 62.3596809,25.8284205 C62.5422443,25.7095 62.7161385,25.538875 62.8624952,25.2979318 C62.8624952,25.2979318 62.9486774,25.4509773 63.0027325,25.6810625 C63.0430188,25.8532386 63.0654568,26.0688466 63.0195609,26.2947955 C63.0042623,26.3702841 62.9813144,26.4468068 62.9486774,26.5238466 C62.9486774,26.5238466 62.9573466,26.5264318 62.9736651,26.5300511 C63.0221107,26.5419432 63.1383801,26.5657273 63.2913662,26.5657273 C63.5983583,26.5657273 64.0542569,26.471108 64.4168339,25.9980114 C64.4168339,25.9980114 64.4107145,26.0445455 64.3949059,26.1236534 C64.3841969,26.176392 64.3688983,26.243608 64.3479902,26.3216818 C64.3372812,26.3604602 64.3255522,26.4023409 64.3122934,26.4462898 C64.2720071,26.5776193 64.2174421,26.7291136 64.1455386,26.8862955 C64.097093,26.9917727 64.0409981,27.0993182 63.975724,27.2063466 C63.943087,27.2596023 63.9079002,27.312858 63.8701636,27.3650795 C63.7957104,27.4695227 63.7110581,27.5713807 63.6151868,27.666 C63.5193155,27.7606193 63.4132452,27.848 63.294426,27.9245227 C63.294426,27.9245227 63.57949,28.1173807 63.9670548,28.3107557 C64.3546196,28.5036136 64.8441751,28.6964716 65.252138,28.6964716 C65.3877857,28.6964716 65.5147641,28.6752727 65.625934,28.6251193 C65.625934,28.6251193 65.5285329,28.7848864 65.3571884,29.0035966 C65.2429588,29.1494034 65.0955822,29.3210625 64.921688,29.4885852 C64.6611017,29.7398693 64.3413608,29.9823636 63.9849032,30.1136932 C63.9849032,30.1136932 65.5397518,31.9523068 66.9212163,32.3023466 C67.0267767,32.329233 67.1241778,32.3421591 67.2129097,32.3421591 C67.6030243,32.3421591 67.8309735,32.0919091 67.9385738,31.6731023 C67.9564221,31.6033011 67.9707008,31.5288466 67.9824298,31.4497386 C68.0048677,31.2925568 68.0150668,31.1177955 68.0140469,30.9290739 C68.0109872,30.4570114 67.9385738,29.8965341 67.8202645,29.2957273" id="Fill-79" fill="#FFFFFF"></path>
                            <path d="M67.2129097,32.5174375 C67.1098991,32.5174375 66.9977093,32.5024432 66.8794001,32.4724545 C65.4601991,32.113108 63.9191192,30.304483 63.8543551,30.2274432 L63.6921898,30.0356193 L63.9257486,29.9487557 C64.2138724,29.8427614 64.5086256,29.64525 64.8023589,29.3619091 C64.9461658,29.2233409 65.087423,29.0661591 65.2220507,28.8945 C65.2281702,28.8867443 65.2342896,28.8795057 65.2404091,28.871233 C64.8768121,28.8686477 64.4229534,28.7331818 63.8910717,28.4674205 C63.4984074,28.2719773 63.2102836,28.0780852 63.1985547,28.0703295 L62.9772348,27.9209034 L63.2011044,27.7766477 C63.304625,27.7104659 63.4030461,27.6308409 63.4948377,27.540358 C63.5789801,27.4576307 63.6580229,27.3640455 63.7304363,27.2627045 C63.7661331,27.2130682 63.7982602,27.1634318 63.8283474,27.1143125 C63.8905618,27.0129716 63.9435969,26.9116307 63.9894928,26.812875 C64.0328388,26.7167045 64.0731252,26.6169148 64.108312,26.5145398 C63.6070275,26.82425 63.0787156,26.7358352 62.9328688,26.7001591 L62.7344969,26.6515568 L62.7900818,26.4545625 C62.8181293,26.3894148 62.8375075,26.32375 62.8502563,26.2596364 C62.8844232,26.0921136 62.8793237,25.9111477 62.8349577,25.721392 C62.8293482,25.698125 62.8232288,25.6764091 62.8176193,25.6552102 C62.7089992,25.7813693 62.5866103,25.8883977 62.4530025,25.9757784 C62.1674284,26.1619148 61.831369,26.256017 61.4545132,26.256017 C61.2678702,26.256017 61.1082547,26.2317159 61.0067739,26.2110341 C60.8905045,26.1882841 60.8216608,26.1645 60.8216608,26.1645 L60.6625552,26.1096932 L60.7115108,25.9468239 C60.8446087,25.5073352 60.8726561,24.9716761 60.7946332,24.355358 L60.7844341,24.2840057 C60.7625061,24.1237216 60.7364985,23.9815341 60.7130406,23.8683011 C60.2097164,24.4282614 59.0123452,25.277767 57.7308317,25.9695739 C57.0515735,26.3366761 56.0484947,26.8206307 55.1300682,27.0439943 C54.3126125,27.2430568 53.8424352,27.2373693 53.6420235,27.0119375 C53.5884783,26.9519602 53.5558413,26.8749205 53.547682,26.790642 C53.5400327,26.7011932 53.5599209,26.6014034 53.6073466,26.494375 C53.6313144,26.4400852 53.6614017,26.3873466 53.691489,26.3397784 C53.7200464,26.2953125 53.7491137,26.254983 53.7741014,26.2224091 C53.8041887,26.1836307 53.8276466,26.1567443 53.8363158,26.1469205 C53.8352959,26.14175 53.9199482,25.9949091 54.0775239,25.7746477 C54.164216,25.6541761 54.2728361,25.5114716 54.4049141,25.3532557 C54.4712081,25.2741477 54.5431115,25.1919375 54.6201145,25.107142 C54.7924789,24.9189375 54.9740224,24.7390057 55.1596455,24.572 C56.0530843,23.764375 57.0888001,23.1858011 58.2382356,22.8528239 C58.4656749,22.7871591 58.6997437,22.7256307 58.9368721,22.6682386 C59.7665667,22.4645227 60.5666839,22.3326761 61.3122362,22.2768352 C62.7293973,22.172392 63.8936215,22.3378466 64.7906299,22.7618239 C64.988492,22.8554091 65.1761549,22.9634716 65.3480093,23.0829091 C65.7105863,23.3352273 66.0129888,23.6464886 66.2470575,24.0068693 C66.3694464,24.1955909 66.4755168,24.400858 66.5627188,24.6185341 C66.7927079,25.1914205 67.0242269,25.8289375 67.2327979,26.4623182 C67.3429479,26.7968466 67.4500382,27.1406818 67.5494791,27.4850341 C67.6494301,27.8299034 67.7422416,28.1763239 67.8253641,28.5165398 C67.8860485,28.769375 67.9411235,29.0185909 67.9895691,29.2610852 C68.1175675,29.9099773 68.1838615,30.4704545 68.1869212,30.9280398 C68.1879411,31.1302045 68.1762122,31.3142727 68.1532642,31.4755909 C68.1405154,31.5609034 68.1252168,31.6415625 68.1058386,31.7170511 C67.936534,32.3788693 67.5265312,32.5174375 67.2129097,32.5174375 L67.2129097,32.5174375 Z M64.2745569,30.1772898 C64.6988383,30.6395284 65.8997791,31.862858 66.9635424,32.1327557 C67.0538042,32.1555057 67.1379466,32.1673977 67.2129097,32.1673977 C67.3934333,32.1673977 67.6479002,32.1115568 67.771309,31.6291534 C67.7876275,31.5650398 67.8008863,31.4967898 67.8115953,31.4244034 C67.8325034,31.2806648 67.8421925,31.1141761 67.8411726,30.930108 C67.8386229,30.4952727 67.7743687,29.9570284 67.6509599,29.3303693 C67.6035342,29.0920114 67.5494791,28.8474489 67.4898146,28.5997841 C67.408222,28.2652557 67.3169403,27.9240057 67.2180093,27.5837898 C67.1190783,27.2435739 67.0140278,26.903875 66.9048977,26.573483 C66.6988765,25.9468239 66.4699073,25.3165455 66.2429779,24.7508977 C66.1639351,24.5544205 66.0685738,24.3688011 65.9584238,24.1992102 C65.7493428,23.8765739 65.4775375,23.5984034 65.152697,23.3719375 C64.9961413,23.2628409 64.8253068,23.1646023 64.6452932,23.0792898 C63.9670548,22.7592386 63.1118626,22.5968864 62.1041942,22.5968864 C61.8512572,22.5968864 61.5957704,22.6072273 61.3377338,22.626358 C60.61003,22.6806477 59.8298009,22.809392 59.0179547,23.0084545 C58.7854159,23.0648125 58.5564467,23.1253068 58.333087,23.1894205 C57.2336269,23.5079205 56.2438069,24.0611591 55.3891246,24.833108 C55.2116608,24.993392 55.0387865,25.1655682 54.8740714,25.3455 C54.8001282,25.4261591 54.7312844,25.505267 54.6680502,25.5802386 C54.5426016,25.7301818 54.439081,25.8661648 54.3569785,25.9809489 C54.1988928,26.2012102 54.1208699,26.3413295 54.1183202,26.3465 C54.0923125,26.3816591 54.0729343,26.403892 54.0464167,26.438017 C54.0270385,26.4633523 54.0040905,26.494375 53.9816526,26.5300511 C53.9602345,26.5636591 53.9393264,26.6003693 53.922498,26.6381136 C53.8913908,26.7079148 53.8908808,26.7456591 53.8919007,26.7585852 C53.9046496,26.7839205 53.9587047,26.8371761 54.1846141,26.8371761 C54.395225,26.8371761 54.6858986,26.7921932 55.0494955,26.7037784 C55.9327352,26.4886875 56.9067467,26.0176591 57.5686665,25.6603807 C59.1219853,24.821733 60.3213962,23.8884659 60.5850423,23.4712102 C60.6039106,23.4412216 60.6243087,23.4086477 60.6288983,23.3962386 L60.8155413,22.9034943 L60.9991246,23.5689318 C61.0287019,23.6883693 61.0842869,23.9313807 61.1261031,24.2317841 L61.1342623,24.2896932 C61.2107554,24.8951534 61.1954568,25.4209886 61.0893864,25.8708182 C61.1760785,25.8878807 61.3050968,25.9059773 61.4545132,25.9059773 C61.7640551,25.9059773 62.0368803,25.8304886 62.2668694,25.6810625 C62.4417835,25.5667955 62.5927298,25.4070284 62.7151186,25.2058977 L62.8675948,24.9551307 L63.0124216,25.2105511 C63.0159913,25.2177898 63.1118626,25.3889318 63.1705072,25.6402159 C63.2266021,25.880125 63.2327216,26.1122784 63.1888656,26.3299545 C63.1847859,26.3485682 63.1812163,26.3671818 63.1766267,26.3852784 C63.4412926,26.4085455 63.9155495,26.3666648 64.2806763,25.8904659 L64.669261,25.3853125 L64.5881783,26.0207614 C64.5881783,26.0207614 64.5820589,26.0719489 64.5631906,26.1593295 C64.5529915,26.2136193 64.536673,26.2849716 64.514745,26.3676989 C64.503526,26.4085455 64.4907772,26.4524943 64.4770085,26.4985114 C64.4290728,26.6562102 64.3704281,26.812358 64.3026043,26.960233 C64.251099,27.0719148 64.1914344,27.1856648 64.1215708,27.2988977 C64.0874039,27.3552557 64.0501773,27.4126477 64.0098909,27.4690057 C63.9257486,27.5853409 63.8339569,27.6944375 63.7355359,27.791125 C63.6926998,27.8335227 63.6488437,27.8738523 63.6034579,27.9126307 C63.7171775,27.9803636 63.8706736,28.0672273 64.0435479,28.1530568 C64.7120971,28.4865511 65.2562176,28.5997841 65.5555604,28.4648352 L66.0634742,28.2363011 L65.7728007,28.7166364 C65.7728007,28.7166364 65.6713199,28.8841591 65.4928361,29.1126932 C65.3480093,29.2967614 65.1960431,29.4658352 65.0405072,29.6157784 C64.7880802,29.8593068 64.5310635,30.0475114 64.2745569,30.1772898 L64.2745569,30.1772898 Z" id="Fill-80" fill="#3D1719"></path>
                            <path d="M33.2132806,31.0691932 C33.2591764,31.1788068 33.2846741,31.2997955 33.2846741,31.4269886 C33.2846741,31.2997955 33.2591764,31.1788068 33.2132806,31.0691932" id="Fill-81" fill="#FFFFFF"></path>
                            <path d="M32.2821053,30.5175057 L32.2821053,30.5175057 C32.4320316,30.4084091 32.5748187,30.3349886 32.7094464,30.2884545 C32.5743087,30.3349886 32.4320316,30.4084091 32.2821053,30.5175057" id="Fill-82" fill="#FFFFFF"></path>
                            <path d="M32.9827816,32.1074205 C33.0286774,32.0655398 33.0704936,32.0190057 33.1077202,31.9683352 C33.0704936,32.0190057 33.0286774,32.0655398 32.9827816,32.1074205 C33.1067003,32.0944943 33.2260295,32.0743295 33.3280202,32.0396875 C33.4249114,32.0071136 33.516703,31.9688523 33.6044151,31.9264545 C33.516703,31.9688523 33.4249114,32.0071136 33.3280202,32.0396875 C33.2260295,32.0743295 33.1067003,32.0944943 32.9827816,32.1074205" id="Fill-83" fill="#FFFFFF"></path>
                            <path d="M35.1414153,31.0764318 L35.1414153,31.0764318 C35.0659422,31.0878068 34.9930188,31.1069375 34.9216253,31.1322727 C34.9930188,31.1069375 35.0659422,31.0878068 35.1414153,31.0764318" id="Fill-84" fill="#FFFFFF"></path>
                            <path d="M33.9323152,30.463733 C33.8782602,30.442017 33.8206354,30.4156477 33.7584211,30.3892784 C33.6962067,30.362392 33.6304227,30.3349886 33.5600491,30.3106875 C33.4198118,30.2615682 33.2632561,30.2227898 33.0903818,30.2227898 C32.9715626,30.2227898 32.8440742,30.2419205 32.7094464,30.2884545 C32.5748187,30.3349886 32.4320316,30.4084091 32.2821053,30.5175057 C32.3142323,30.5138864 32.3453395,30.5076818 32.3779765,30.5076818 C32.5029152,30.5076818 32.6222443,30.533017 32.7308645,30.5800682 C32.8394846,30.6260852 32.9368857,30.6938182 33.0189883,30.7770625 C33.1010908,30.8597898 33.1673848,30.9590625 33.2132806,31.0691932 C33.2591764,31.1788068 33.2846741,31.2997955 33.2846741,31.4269886 C33.2846741,31.6301875 33.2183801,31.8168409 33.1077202,31.9683352 C33.0704936,32.0190057 33.0286774,32.0655398 32.9827816,32.1074205 C33.1067003,32.0944943 33.2260295,32.0743295 33.3280202,32.0396875 C33.4249114,32.0071136 33.516703,31.9688523 33.6044151,31.9264545 C33.9537333,31.7584148 34.2331879,31.5298807 34.507033,31.3504659 C34.6437006,31.261017 34.7793482,31.1839773 34.9216253,31.1322727 C34.9930188,31.1069375 35.0659422,31.0878068 35.1414153,31.0764318 C35.1414153,31.0764318 34.364246,30.6390114 33.9323152,30.463733" id="Fill-85" fill="#FFFFFF"></path>
                            <path d="M58.069441,10.5331818 L57.7706081,10.2906875 L58.069441,10.5331818 C58.1081974,10.5642045 58.2581238,10.6898466 58.4279384,10.8816705 C58.2581238,10.6898466 58.1081974,10.5642045 58.069441,10.5331818" id="Fill-86" fill="#FFFFFF"></path>
                            <path d="M61.621778,11.7130795 C61.6171884,11.7916705 61.6136188,11.8650909 61.610559,11.9292045 C61.6136188,11.8650909 61.6171884,11.7916705 61.621778,11.7130795" id="Fill-87" fill="#FFFFFF"></path>
                            <path d="M50.1651595,13.0542955 L50.1651595,13.0542955 C50.214625,13.0186193 50.2630706,12.9834602 50.3125361,12.9483011 C50.2630706,12.9834602 50.214625,13.0186193 50.1651595,13.0542955" id="Fill-88" fill="#FFFFFF"></path>
                            <path d="M61.7186692,11.0212727 L61.7186692,11.0212727 C61.6957213,11.1096875 61.6788928,11.2017216 61.6651241,11.2937557 C61.6788928,11.2017216 61.6957213,11.1096875 61.7186692,11.0212727" id="Fill-89" fill="#FFFFFF"></path>
                            <path d="M53.5323834,10.6396932 C53.9056695,10.375483 54.2672266,10.12575 54.6134851,9.89773295 C54.2672266,10.12575 53.9056695,10.375483 53.5323834,10.6396932" id="Fill-90" fill="#FFFFFF"></path>
                            <path d="M58.7670575,11.3464943 C58.663027,11.1675966 58.5411481,11.0098977 58.4279384,10.8816705 C58.5411481,11.0098977 58.663027,11.1675966 58.7670575,11.3464943" id="Fill-91" fill="#FFFFFF"></path>
                            <path d="M53.5323834,10.6396932 C53.1585874,10.9044205 52.7725525,11.183108 52.3758086,11.4695511 C52.1361304,11.6432784 51.8786038,11.8257955 51.6292364,12.0046932 C51.8786038,11.8257955 52.1361304,11.6432784 52.3758086,11.4695511 C52.7725525,11.183108 53.1585874,10.9044205 53.5323834,10.6396932" id="Fill-92" fill="#FFFFFF"></path>
                            <path d="M59.0189746,12.2673523 L59.0189746,12.2673523 C59.0312135,12.0429545 58.9842978,11.8278636 58.9057649,11.6293182 C58.9842978,11.8278636 59.0312135,12.0429545 59.0189746,12.2673523" id="Fill-93" fill="#FFFFFF"></path>
                            <path d="M60.7436379,11.854233 C60.7670957,12.0212386 60.896114,12.5362159 61.170979,12.6882273 C60.896114,12.5362159 60.7670957,12.0212386 60.7436379,11.854233" id="Fill-94" fill="#FFFFFF"></path>
                            <path d="M61.1725089,10.6003977 C59.8879356,9.63765909 58.5579765,8.829 57.7787674,8.65320455 C57.6900355,8.63303977 57.5941642,8.62321591 57.4926834,8.62321591 C56.7568203,8.62321591 55.7675102,9.13819318 54.6134851,9.89773295 C54.2672266,10.12575 53.9056695,10.375483 53.5323834,10.6396932 C53.1585874,10.9044205 52.7725525,11.183108 52.3758086,11.4695511 C52.1361304,11.6432784 51.8786038,11.8257955 51.6292364,12.0046932 C51.3803791,12.1830739 51.1401909,12.3578352 50.8831743,12.5393182 C50.7551759,12.628767 50.611369,12.7326932 50.4594028,12.8423068 C50.4114671,12.8769489 50.3614917,12.913142 50.3125361,12.9483011 C50.2630706,12.9834602 50.214625,13.0186193 50.1651595,13.0542955 C50.247772,13.0568807 50.3324243,13.0584318 50.4206463,13.0584318 C52.8643442,13.0584318 56.9480529,12.1065511 57.5344996,10.6727841 L57.7104336,10.2420852 L57.7706081,10.2906875 L58.069441,10.5331818 C58.1081974,10.5642045 58.2581238,10.6898466 58.4279384,10.8816705 C58.5411481,11.0098977 58.663027,11.1675966 58.7670575,11.3464943 C58.8190728,11.4359432 58.8664985,11.5305625 58.9057649,11.6293182 C58.9842978,11.8278636 59.0312135,12.0429545 59.0189746,12.2673523 C59.1066867,12.2342614 59.2219362,12.1748011 59.3412653,12.1086193 C59.4600845,12.0419205 59.5824734,11.9685 59.6844641,11.9074886 C59.8741669,11.7942557 60.0664194,11.6794716 60.246943,11.5879545 L60.6783638,11.3692443 L60.7436379,11.854233 C60.7670957,12.0212386 60.896114,12.5362159 61.170979,12.6882273 C61.2199346,12.7151136 61.2648105,12.7295909 61.3010172,12.7295909 C61.3673112,12.7295909 61.4392146,12.6597898 61.4968394,12.5243239 C61.5549741,12.389375 61.5993401,12.1892784 61.610559,11.9292045 C61.6136188,11.8650909 61.6171884,11.7916705 61.621778,11.7130795 C61.6299373,11.5833011 61.6431961,11.4390455 61.6651241,11.2937557 C61.6788928,11.2017216 61.6957213,11.1096875 61.7186692,11.0212727 C61.5386556,10.8790852 61.3560922,10.7379318 61.1725089,10.6003977" id="Fill-95" fill="#FFFFFF"></path>
                        </g>
                        <path d="M116.943626,23.2147368 L116.943626,39.7773099 C119.393216,40.1391813 121.564444,40.2505263 123.401637,40.2505263 C128.857544,40.2505263 129.943158,37.5504094 129.943158,34.0708772 L129.943158,31.3707602 C129.943158,27.3345029 127.855439,25.5808187 124.34807,25.4973099 C122.984094,25.4973099 121.89848,25.72 121.091228,25.9705263 L121.091228,20.2084211 L114.855906,20.2084211 L114.855906,23.2147368 L116.943626,23.2147368 Z M121.091228,29.0046784 C121.759298,28.8376608 122.455205,28.7263158 123.401637,28.7263158 C125.127485,28.7263158 125.851228,29.1995322 125.851228,31.2594152 L125.851228,34.4884211 C125.851228,36.325614 125.350175,37.0215205 123.401637,37.0215205 C122.817076,37.0215205 121.89848,37.0215205 121.091228,36.9101754 L121.091228,29.0046784 Z M132.003041,34.265731 C132.003041,37.7452632 133.144327,40.2505263 137.375439,40.2505263 C138.433216,40.2505263 139.908538,39.9164912 141.300351,39.1927485 L141.550877,40 L146.728421,40 L146.728421,36.9936842 L144.891228,36.9936842 L144.891228,26.4159064 C142.636491,25.7756725 140.743626,25.4973099 138.655906,25.4973099 C137.681637,25.4973099 136.930058,25.608655 135.955789,25.831345 C132.114386,26.7499415 132.003041,29.6727485 132.003041,31.3707602 L132.003041,34.265731 Z M136.150643,31.4821053 C136.150643,29.6449123 136.456842,28.7263158 138.600234,28.7263158 C139.156959,28.7263158 139.992047,28.7819883 140.743626,28.8933333 L140.743626,36.6039766 C140.047719,36.8266667 139.129123,36.9936842 138.600234,36.9936842 C136.62386,36.9936842 136.17848,36.2977778 136.150643,34.4605848 L136.150643,31.4821053 Z M158.11345,40 L163.374503,40 L163.374503,36.9936842 L161.453801,36.9936842 L161.453801,20.2084211 L155.21848,20.2084211 L155.21848,23.2147368 L157.306199,23.2147368 L157.306199,25.9705263 C156.498947,25.72 155.413333,25.4973099 154.049357,25.4973099 C150.541988,25.5808187 148.454269,27.3345029 148.454269,31.3707602 L148.454269,34.0708772 C148.454269,37.5504094 149.595556,40.2505263 153.826667,40.2505263 C154.884444,40.2505263 156.471111,39.9164912 157.862924,39.1927485 L158.11345,40 Z M157.306199,36.7153216 C156.55462,36.8823392 155.580351,37.0215205 154.995789,37.0215205 C153.047251,37.0215205 152.546199,36.325614 152.546199,34.4884211 L152.546199,31.2594152 C152.546199,29.1995322 153.269942,28.7263158 154.995789,28.7263158 C155.942222,28.7263158 156.638129,28.8376608 157.306199,29.0046784 L157.306199,36.7153216 Z M173.785263,39.8051462 C173.757427,40.8072515 173.479064,41.7536842 172.421287,42.1155556 C170.973801,42.6444444 168.245848,42.6166082 165.712749,42.6166082 L165.712749,45.8734503 L166.909708,45.8734503 C168.552047,45.8734503 171.112982,45.8734503 173.339883,45.3723977 C178.016374,44.1754386 178.044211,40.9185965 178.044211,38.1349708 L178.044211,28.754152 L180.13193,28.754152 L180.13193,25.7478363 L174.70386,25.7478363 L174.453333,26.5550877 C173.06152,25.831345 171.474854,25.4973099 170.417076,25.4973099 C166.185965,25.4973099 165.044678,28.1974269 165.044678,31.6769591 L165.044678,34.377076 C165.044678,38.4133333 167.132398,40.1670175 170.639766,40.2505263 C171.94807,40.2505263 172.978012,40.0278363 173.785263,39.8051462 L173.785263,39.8051462 Z M173.896608,36.7431579 C173.228538,36.9101754 172.532632,37.0215205 171.586199,37.0215205 C169.860351,37.0215205 169.136608,36.5483041 169.136608,34.4884211 L169.136608,31.2594152 C169.136608,29.4222222 169.637661,28.7263158 171.586199,28.7263158 C172.17076,28.7263158 173.145029,28.8654971 173.896608,29.0325146 L173.896608,36.7431579 Z M183.583626,28.754152 L183.583626,36.9936842 L181.718596,36.9936842 L181.718596,40 L183.583626,40 L187.703392,40 L189.568421,40 L189.568421,36.9936842 L187.731228,36.9936842 L187.731228,29.7005848 C189.178713,29.2552047 191.65614,29.1716959 192.658246,29.1438596 L192.658246,25.4973099 C190.848889,25.4973099 189.095205,26.3602339 187.369357,26.9726316 L187.007485,25.7478363 L181.495906,25.7478363 L181.495906,28.754152 L183.583626,28.754152 Z" id="badgrLogoText" fill="#FFFFFF"></path>
                    </g>
                </g>
            </g>
        </g>
    </g>
</svg>