<?xml version="1.0" encoding="UTF-8" standalone="no"?>
<svg width="152px" height="66px" viewBox="0 0 152 66" version="1.1" xmlns="http://www.w3.org/2000/svg" xmlns:xlink="http://www.w3.org/1999/xlink" xmlns:sketch="http://www.bohemiancoding.com/sketch/ns">
    <!-- Generator: Sketch 3.3.3 (12072) - http://www.bohemiancoding.com/sketch -->
    <title>logo + badgr</title>
    <desc>Created with Sketch.</desc>
    <defs></defs>
    <g id="Components" stroke="none" stroke-width="1" fill="none" fill-rule="evenodd" sketch:type="MSPage">
        <g id="Canvas---Objectives" sketch:type="MSArtboardGroup" transform="translate(-219.000000, -178.000000)">
            <g id="objectives" sketch:type="MSLayerGroup" transform="translate(29.000000, 80.000000)">
                <g id="Header" transform="translate(174.000000, 98.688321)" sketch:type="MSShapeGroup">
                    <g id="logo-+-badgr" transform="translate(16.000000, 0.000000)">
                        <g id="logo">
                            <path d="M65.0663627,47.8225591 L66.8883731,46.7576778 L65.0663627,47.8225591" id="Fill-1" fill="#3D1719"></path>
                            <path id="Fill-2" fill="#3D1719" d="M34.3395233,10.4474927 C34.337285,10.4474927 34.3350466,10.447115 34.3331813,10.447115 C34.3313161,10.4474927 34.3294508,10.4474927 34.3275855,10.4478703 C34.3294508,10.4474927 34.3313161,10.4474927 34.3331813,10.447115 C34.3350466,10.447115 34.337285,10.4474927 34.3395233,10.4474927"></path>
                            <path id="Fill-3" fill="#3D1719" d="M39.3358756,19.642478 C39.3131192,19.6168 39.3019275,19.5865906 39.298943,19.5544931 C39.3019275,19.5865906 39.3131192,19.6168 39.3358756,19.642478"></path>
                            <path d="M48.357513,17.6033437 C48.1888912,17.3446757 47.978114,17.1335875 47.7337617,16.9636597 C47.978114,17.1335875 48.1888912,17.3446757 48.357513,17.6033437" id="Fill-4" fill="#3D1719"></path>
                            <path id="Fill-5" fill="#3D1719" d="M46.3030881,20.3943144 L46.3030881,20.3943144 C46.3900104,20.338427 46.4676062,20.2746096 46.5377409,20.2055056 C46.4676062,20.2746096 46.3900104,20.338427 46.3030881,20.3943144"></path>
                            <path d="M49.064456,19.3668172 C48.9040415,18.8808235 48.7346736,18.4201302 48.5772435,18.0281633 C48.5153161,17.8740954 48.4418238,17.7328664 48.357513,17.6033437 C48.4418238,17.7328664 48.5153161,17.8740954 48.5772435,18.0281633 C48.7346736,18.4201302 48.9040415,18.8812012 49.064456,19.3668172" id="Fill-6" fill="#3D1719"></path>
                            <path id="Fill-7" fill="#3D1719" d="M47.7352539,20.9580972 C47.834487,20.9580972 47.9273782,20.9426149 48.0087047,20.905986 C47.9273782,20.9426149 47.834487,20.9580972 47.7352539,20.9580972"></path>
                            <path id="Fill-8" fill="#3D1719" d="M45.150342,8.04924413 C45.0186528,7.94539932 44.8850984,7.84230975 44.7507979,7.74186351 C44.8850984,7.84230975 45.0186528,7.94539932 45.150342,8.04924413"></path>
                            <path d="M44.4273575,17.2106215 C44.1994197,17.5712462 43.2339482,18.2819222 42.1737202,18.8536351 C43.2339482,18.2819222 44.1994197,17.5712462 44.4273575,17.2106215 C44.4445181,17.183433 44.4624249,17.155867 44.4710052,17.1332099 L44.4710052,17.1328323 C44.4624249,17.155867 44.4445181,17.183433 44.4273575,17.2106215" id="Fill-9" fill="#3D1719"></path>
                            <path id="Fill-10" fill="#3D1719" d="M47.3442902,16.7397325 C46.7947772,16.4803093 46.132228,16.3753317 45.4323731,16.3753317 C45.2447254,16.3753317 45.0540933,16.382884 44.862715,16.3972335 C45.0540933,16.382884 45.2447254,16.3753317 45.4323731,16.3753317 C46.132228,16.3753317 46.7947772,16.4803093 47.3442902,16.7397325"></path>
                            <path id="Fill-11" fill="#3D1719" d="M39.3358756,19.642478 C39.3817617,19.693834 39.4742798,19.7281971 39.6387979,19.7281971 C39.7913782,19.7281971 40.0051399,19.698743 40.3013472,19.6269957 C40.0051399,19.698743 39.7913782,19.7281971 39.6387979,19.7281971 C39.4742798,19.7281971 39.3817617,19.693834 39.3358756,19.642478"></path>
                            <path id="Fill-12" fill="#3D1719" d="M44.5997098,17.7713834 C44.5970984,17.7521249 44.5948601,17.7339993 44.5922487,17.715496 C44.5948601,17.7339993 44.5970984,17.7521249 44.5997098,17.7713834"></path>
                            <path id="Fill-13" fill="#3D1719" d="M24.2972021,22.6909838 C24.2636269,22.6105513 24.2151295,22.5380487 24.1550674,22.4776299 C24.2151295,22.5380487 24.2636269,22.6105513 24.2972021,22.6909838"></path>
                            <path id="Fill-14" fill="#3D1719" d="M45.111171,8.24824853 C45.0951295,8.35435904 45.0854301,8.45971431 45.0794611,8.5544963 C45.0854301,8.45971431 45.0951295,8.35435904 45.111171,8.24824853"></path>
                            <path id="Fill-15" fill="#3D1719" d="M24.1550674,22.4776299 C24.0950052,22.4168335 24.0237513,22.3673656 23.9442902,22.3337577 C24.0237513,22.3673656 24.0950052,22.4168335 24.1550674,22.4776299"></path>
                            <path id="Fill-16" fill="#3D1719" d="M25.546943,22.7370531 C25.4428601,22.7748149 25.3436269,22.8310799 25.2436477,22.8964077 C25.3436269,22.8310799 25.4428601,22.7748149 25.546943,22.7370531"></path>
                            <path d="M66.8883731,46.7576778 L69.9235648,44.9840086 L66.8883731,46.7576778" id="Fill-17" fill="#3D1719"></path>
                            <path id="Fill-18" fill="#3D1719" d="M49.7557306,22.5886495 C49.7564767,22.7264798 49.7490155,22.8541145 49.732601,22.9689102 C49.7490155,22.8541145 49.7564767,22.7264798 49.7557306,22.5886495"></path>
                            <path d="M24.8232124,22.2487937 C24.7836684,22.2329338 24.741513,22.2136753 24.696,22.1944168 C24.741513,22.2136753 24.7836684,22.2329338 24.8232124,22.2487937 C25.1391917,22.3768061 25.7073575,22.6962704 25.7073575,22.6962704 C25.7073575,22.6962704 25.1391917,22.3768061 24.8232124,22.2487937" id="Fill-19" fill="#3D1719"></path>
                            <path id="Fill-20" fill="#3D1719" d="M24.3494301,22.9522951 C24.3494301,23.1006987 24.3009326,23.2370186 24.2199793,23.3476606 C24.3009326,23.2370186 24.3494301,23.1006987 24.3494301,22.9522951"></path>
                            <path id="Fill-21" fill="#3D1719" d="M23.616,22.2880659 C23.6395026,22.2854226 23.6622591,22.2808912 23.6861347,22.2808912 C23.6622591,22.2808912 23.6395026,22.2854226 23.616,22.2880659"></path>
                            <path id="Fill-22" fill="#3D1719" d="M24.5508808,22.137019 C24.4482902,22.1011453 24.3337617,22.072824 24.2072953,22.072824 C24.1203731,22.072824 24.0271088,22.0867958 23.9286218,22.1207814 C24.0271088,22.0867958 24.1203731,22.072824 24.2072953,22.072824 C24.3337617,22.072824 24.4482902,22.1011453 24.5508808,22.137019"></path>
                            <path id="Fill-23" fill="#3D1719" d="M49.169658,23.620678 C49.1047461,23.620678 49.0334922,23.6112376 48.9562694,23.5916014 C49.0338653,23.6112376 49.1047461,23.620678 49.169658,23.620678 C49.4550466,23.620678 49.6218031,23.4379111 49.7005181,23.132041 C49.6218031,23.4379111 49.4550466,23.620678 49.169658,23.620678"></path>
                            <path id="Fill-24" fill="#3D1719" d="M44.0736995,8.46311287 L44.3893057,8.30338068 L44.437057,8.65758587 L44.3893057,8.30338068 L44.0736995,8.46311287"></path>
                            <path d="M37.2236269,9.15792901 C37.4116477,9.02538528 37.5873575,8.89775057 37.7694093,8.76747255 C37.5873575,8.89775057 37.4116477,9.02538528 37.2236269,9.15792901 C37.1299896,9.22363445 37.0247876,9.29915794 36.9136166,9.37921284 C36.8785492,9.40451322 36.8419896,9.43056882 36.8061762,9.45662443 C36.8419896,9.43094644 36.8785492,9.40451322 36.9136166,9.37921284 C37.0247876,9.29915794 37.1299896,9.22325683 37.2236269,9.15792901" id="Fill-25" fill="#3D1719"></path>
                            <path d="M36.8852642,9.53705695 C38.6729534,9.53705695 41.6603938,8.84186319 42.0894093,7.79472995 L42.218114,7.4801746 L42.2621347,7.51567065 L42.218114,7.4801746 L42.0894093,7.79472995 C41.6603938,8.84186319 38.6729534,9.53705695 36.8852642,9.53705695 C36.8207254,9.53705695 36.7587979,9.53592409 36.6983627,9.53403601 C36.7587979,9.53592409 36.8207254,9.53705695 36.8852642,9.53705695" id="Fill-26" fill="#3D1719"></path>
                            <path id="Fill-27" fill="#3D1719" d="M44.8448083,9.29689224 C44.8933057,9.29689224 44.9459067,9.24591388 44.9880622,9.1469781 C44.9459067,9.24591388 44.8933057,9.29689224 44.8448083,9.29689224"></path>
                            <path id="Fill-28" fill="#3D1719" d="M43.1753782,8.95930222 C43.239544,8.9351347 43.3238549,8.8917087 43.4111503,8.84337366 C43.3238549,8.8917087 43.239544,8.9351347 43.1753782,8.95930222"></path>
                            <path d="M42.0894093,7.79472995 L42.218114,7.4801746 L42.2621347,7.51567065 L42.4807461,7.69277324 C42.5090984,7.71543029 42.6187772,7.80719133 42.7430052,7.94728741 C42.8258238,8.04093654 42.9149845,8.15610987 42.9910881,8.28676551 C43.0291399,8.35209334 43.0638342,8.42119733 43.0925596,8.49332227 C43.1500104,8.63832737 43.1843316,8.79541624 43.1753782,8.95930222 C43.239544,8.9351347 43.3238549,8.8917087 43.4111503,8.84337366 C43.4980725,8.79466101 43.5876062,8.74103933 43.6622176,8.69648046 C43.8009948,8.61378224 43.9416373,8.52995116 44.0736995,8.46311287 L44.3893057,8.30338068 L44.437057,8.65758587 C44.4542176,8.77955631 44.548601,9.1556633 44.7496788,9.26668284 C44.7854922,9.28631895 44.8183212,9.29689224 44.8448083,9.29689224 C44.8933057,9.29689224 44.9459067,9.24591388 44.9880622,9.1469781 C45.0305907,9.04841994 45.0630466,8.90228198 45.0712539,8.7123404 C45.0734922,8.66551583 45.0761036,8.61189415 45.0794611,8.5544963 C45.0854301,8.45971431 45.0951295,8.35435904 45.111171,8.24824853 C45.1212435,8.18103262 45.1335544,8.11381671 45.150342,8.04924413 C45.0186528,7.94539932 44.8850984,7.84230975 44.7507979,7.74186351 C43.8110674,7.03873979 42.8381347,6.44814607 42.2681036,6.31975613 C42.2031917,6.30502905 42.133057,6.29785432 42.0588187,6.29785432 C41.5204974,6.29785432 40.7967668,6.67396131 39.9525389,7.22868137 C39.6992332,7.39521067 39.4347358,7.57759991 39.161658,7.77056244 C38.8882073,7.96390258 38.6058031,8.16743839 38.3155648,8.37663847 C38.140228,8.50351794 37.9518342,8.63681691 37.7694093,8.76747255 C37.5873575,8.89775057 37.4116477,9.02538528 37.2236269,9.15792901 C37.1299896,9.22363445 37.0247876,9.29915794 36.9136166,9.37921284 C36.8785492,9.40451322 36.8419896,9.43056882 36.8061762,9.45662443 C36.7699896,9.48230241 36.7345492,9.5079804 36.6983627,9.53403601 C36.7587979,9.53592409 36.8207254,9.53705695 36.8852642,9.53705695 C38.6729534,9.53705695 41.6603938,8.84186319 42.0894093,7.79472995" id="Fill-29" fill="#AB2430"></path>
                            <path id="Fill-30" fill="#AB2430" d="M34.3275855,10.4478703 C34.3316891,10.4478703 34.3354197,10.4474927 34.3395233,10.4474927 C34.337285,10.4474927 34.3350466,10.447115 34.3331813,10.447115 C34.3313161,10.4474927 34.3294508,10.4474927 34.3275855,10.4478703"></path>
                            <path d="M66.9611192,46.715007 C60.6381762,36.1915635 52.5876062,30.5839441 49.2092021,30.1783829 C45.4816166,29.7305286 43.7125803,29.5386989 43.5230674,28.9632099 C43.3335544,28.3877209 44.0285596,27.7484145 44.0285596,27.7484145 C43.2074611,28.2600862 42.1334301,27.8760492 42.1334301,27.8760492 C42.5755026,27.5565848 42.6389223,26.7892662 42.6389223,26.7892662 C42.0069637,27.2367428 40.1748808,27.4923899 40.1748808,27.4923899 C40.4908601,26.9169009 40.5539067,25.8297402 40.5539067,25.8297402 C39.7328083,26.7250712 35.4366839,27.9402442 31.1409326,28.9632099 C26.8448083,29.9865532 17.6843938,28.9632099 16.0418238,28.8351976 C14.3992539,28.7075629 14.5887668,28.9632099 14.1466943,30.1141879 C13.7046218,31.2655436 12.5041244,29.8585409 11.3670466,29.0274049 C10.2295959,28.1958912 8.83995855,26.2775945 10.1035026,24.9347868 C11.3670466,23.5916014 19.3903834,19.435166 26.6552953,17.1970273 C33.9205803,14.9588885 37.3321865,15.4701826 39.4798756,15.7900246 C40.1118342,15.8840513 40.9254715,16.0181055 41.8622176,16.2726197 C42.0435233,16.2008724 42.231171,16.1332789 42.4303834,16.0755034 C43.1679171,15.8621495 44.2874611,15.608013 45.4323731,15.608013 C47.9049948,15.608013 48.8894922,16.7672986 49.2797098,17.7392859 C49.6419482,18.6425469 50.2727876,20.3697692 50.4544663,21.8292607 C55.0676891,25.9245222 67.9627772,27.1517789 67.719544,26.5970589 C67.4666114,26.0215698 63.0712539,21.9561402 55.4000829,16.4297086 C52.4450984,14.3007013 48.9648497,12.9307051 45.654342,12.0489683 C44.1277927,11.6875884 42.7396477,11.3813407 41.904,11.2465312 C40.9262176,11.0890647 38.9516269,10.7903693 37.0035233,10.6057144 C35.7701969,10.5097995 34.7856995,10.4780797 34.1574715,10.4690169 C34.0145907,10.485632 33.8750674,10.4969605 33.7441244,10.4969605 C33.6702591,10.4969605 33.6090777,10.4939396 33.5542383,10.4901634 C32.4619275,10.5637988 31.4419896,10.6733079 30.5089741,10.8020755 C23.3630674,11.7884123 13.8019896,19.3158389 11.1775337,20.010655 C10.2814508,20.2477988 9.43498446,20.4724812 8.65716062,20.6794155 C7.91328497,20.8769095 7.23320207,21.0581659 6.63556477,21.2175204 C5.92302591,21.4078396 5.32725389,21.5671942 4.88182383,21.6861437 C5.2828601,22.0732016 6.16103627,22.955316 6.63556477,23.6950686 C6.79597927,23.9446738 6.91050777,24.178419 6.94482902,24.3706263 C6.99966839,24.6802726 6.85604145,25.401522 6.63556477,26.2413432 C6.24572021,27.7268903 5.61264249,29.5877892 5.39403109,30.2282284 C5.75925389,30.4498899 6.17297409,30.6526705 6.63556477,30.8441225 C6.64563731,30.8482763 6.65421762,30.8528077 6.6639171,30.8569615 C6.75792746,30.8747095 6.86350259,30.8943456 6.9813886,30.9154922 C7.04368912,30.9271984 7.10636269,30.9385269 7.17649741,30.9509883 C7.37645596,30.9868619 7.91440415,31.0555883 8.65716062,31.1333775 C10.6306321,31.3399342 14.0616373,31.6129517 16.533513,31.5215682 C17.1841244,31.4974007 17.810487,31.4668137 18.4111088,31.4373596 C21.0937617,31.3059487 23.2119793,31.2024815 24.7717306,31.802138 C24.9675855,31.8772839 25.0656995,32.0989454 24.9914611,32.2968169 C24.9336373,32.4501296 24.7896373,32.544534 24.637057,32.544534 C24.5919171,32.544534 24.5467772,32.5362264 24.5023834,32.5192336 C23.0903627,31.9762197 21.0411606,32.0766659 18.4476684,32.203923 C17.8444352,32.2333772 17.214715,32.2643418 16.5611192,32.2885093 C14.9427979,32.3477953 12.8245803,32.2186501 11.0003316,32.060806 C12.4089948,32.3440191 14.0851399,32.6242112 16.1052435,32.9281933 C16.4973264,32.9871016 16.8763523,33.0482757 17.2497824,33.1102049 C19.5556477,33.2956151 24.5236477,33.6573726 30.698487,33.8873417 C39.2903627,34.2071837 49.0827358,38.1079721 55.0844767,41.7527359 C58.4102798,43.7726117 62.2773886,46.1251685 65.0659896,47.8225591 L65.0663627,47.8225591 L66.8883731,46.7576778 L65.9829637,47.2867199 L66.9611192,46.715007" id="Fill-31" fill="#AB2430"></path>
                            <path d="M66.8883731,46.7576778 L69.9235648,44.9840086 L66.8883731,46.7576778" id="Fill-32" fill="#AB2430"></path>
                            <path d="M44.1632332,54.0324783 C41.5876477,49.4278109 36.8192332,42.8640641 28.7276269,37.7375294 C28.4545492,37.5857271 24.6105699,35.5163834 16.0444352,34.2128479 L15.9825078,34.2030299 L15.9194611,34.1932118 C12.8264456,33.7276095 10.485886,33.3080765 8.65716062,32.835677 L8.65716062,44.9840086 L39.2903627,62.8860974 L46.4306736,58.7134244 L46.4056788,58.6530056 C45.7621554,57.0975993 45.0078342,55.5429482 44.1632332,54.0324783" id="Fill-33" fill="#AB2430"></path>
                            <path d="M8.65716062,1.11208575 L8.65716062,20.2078929 C9.34731606,20.0556352 10.0844767,19.8933524 10.8578238,19.7235506 C11.5781969,19.5653404 13.3677513,18.6652657 15.2632539,17.7122454 C19.5299067,15.5662267 25.3734715,12.6275909 30.338487,12.0589742 C31.5953161,11.9151753 32.8439378,11.8180562 34.1552332,11.7626043 C34.3842902,11.7528924 34.6137202,11.7466267 34.8431503,11.7400477 C35.090114,11.6460614 35.5709845,11.4179882 36.5028808,10.8747478 C36.8748187,10.6576397 37.2351917,10.4420979 37.5828808,10.2337618 C39.3765389,9.16012588 40.7934093,8.31237016 42.0588187,8.31237016 C42.224829,8.31237016 42.3874819,8.32709467 42.5423005,8.35591711 C43.9181347,8.6124995 46.5168497,10.218724 47.7512953,11.3772608 C48.4656995,12.0480092 50.3973886,13.4220877 52.4630052,14.3851332 C52.5085181,14.4026773 52.5521658,14.4246074 52.5939482,14.4506103 C58.6329948,16.5471296 64.4605181,19.8792544 69.9235648,24.3517454 L69.9235648,0.0664606742 L8.65716062,0.0664606742" id="Fill-34" fill="#AB2430"></path>
                            <path d="M24.1285803,23.4492397 C24.2192332,23.4397992 24.3065285,23.4250721 24.3811399,23.3997718 C24.4520207,23.3759819 24.519171,23.3480382 24.5833368,23.3170735 C24.8388808,23.1943479 25.0433161,23.0274409 25.2436477,22.8964077 C25.3436269,22.8310799 25.4428601,22.7748149 25.546943,22.7370531 C25.599171,22.7185499 25.6525181,22.704578 25.7077306,22.6962704 C25.7077306,22.6962704 25.1391917,22.3768061 24.8232124,22.2487937 C24.7836684,22.2329338 24.741513,22.2136753 24.696,22.1944168 C24.650487,22.1747807 24.6023627,22.154767 24.5508808,22.137019 C24.4482902,22.1011453 24.3337617,22.072824 24.2072953,22.072824 C24.1203731,22.072824 24.0271088,22.0867958 23.9286218,22.1207814 C23.8297617,22.154767 23.7256788,22.2083887 23.616,22.2880659 C23.6395026,22.2854226 23.6622591,22.2808912 23.6861347,22.2808912 C23.7775337,22.2808912 23.864829,22.2993945 23.9442902,22.3337577 C24.0237513,22.3673656 24.0950052,22.4168335 24.1550674,22.4776299 C24.2151295,22.5380487 24.2636269,22.6105513 24.2972021,22.6909838 C24.3307772,22.7710387 24.3494301,22.8594012 24.3494301,22.9522951 C24.3494301,23.1006987 24.3009326,23.2370186 24.2199793,23.3476606 C24.1927461,23.3846671 24.1621554,23.4186526 24.1285803,23.4492397" id="Fill-35" fill="#AB2430"></path>
                            <path d="M47.493513,21.5366072 C47.3028808,21.7201293 47.0689741,21.8972319 46.8082073,21.9931467 C46.8082073,21.9931467 47.945658,23.3359544 48.9562694,23.5916014 C49.0338653,23.6112376 49.1047461,23.620678 49.169658,23.620678 C49.4550466,23.620678 49.6218031,23.4379111 49.7005181,23.132041 C49.7135751,23.0810626 49.7240207,23.0266857 49.732601,22.9689102 C49.7490155,22.8541145 49.7564767,22.7264798 49.7557306,22.5886495 C49.7534922,22.2438847 49.7005181,21.8345474 49.6139689,21.3957559 C49.5792746,21.2201638 49.5389845,21.0400402 49.4945907,20.8568957 C49.4349016,20.6106892 49.3673782,20.3595735 49.2946321,20.1095908 C49.221886,19.8592304 49.1442902,19.6100029 49.064456,19.3668172 C48.9040415,18.8808235 48.7346736,18.4201302 48.5772435,18.0281633 C48.5153161,17.8740954 48.4418238,17.7328664 48.357513,17.6033437 C48.1888912,17.3446757 47.978114,17.1335875 47.7337617,16.9636597 C47.611772,16.8790734 47.4815751,16.8046827 47.3442902,16.7397325 C46.7947772,16.4803093 46.132228,16.3753317 45.4323731,16.3753317 C45.2447254,16.3753317 45.0540933,16.382884 44.862715,16.3972335 C44.2878342,16.4402819 43.7021347,16.5429938 43.1447876,16.6793137 C42.9735544,16.7212293 42.8038135,16.7654105 42.6389223,16.8133679 C41.6715855,17.0931825 40.9459896,17.5810642 40.4356477,18.0413799 C40.2901554,18.1727908 40.1618238,18.301936 40.0506528,18.4235288 C39.9950674,18.4843252 39.9435855,18.5432335 39.8965803,18.5991209 C39.8021969,18.7116509 39.724228,18.8136076 39.6626736,18.8997044 C39.5391917,19.0715204 39.4798756,19.1791413 39.4798756,19.1791413 C39.4798756,19.1791413 39.462342,19.1987775 39.4380933,19.2297421 C39.4220518,19.2508887 39.4030259,19.2773219 39.384,19.306776 C39.3653472,19.3362302 39.3466943,19.3687053 39.331772,19.4023133 C39.3090155,19.4532916 39.2944663,19.5061581 39.298943,19.5544931 C39.3019275,19.5865906 39.3131192,19.6168 39.3358756,19.642478 C39.3817617,19.693834 39.4742798,19.7281971 39.6387979,19.7281971 C39.7913782,19.7281971 40.0051399,19.698743 40.3013472,19.6269957 C40.8669016,19.4895429 41.537285,19.1965117 42.1737202,18.8536351 C43.2339482,18.2819222 44.1994197,17.5712462 44.4273575,17.2106215 C44.4445181,17.183433 44.4624249,17.155867 44.4710052,17.1332099 C44.4710052,17.1332099 44.4739896,17.1434056 44.4795855,17.1626641 C44.4848083,17.1819226 44.4926425,17.2102439 44.5015959,17.2457399 C44.5273368,17.3476966 44.5638964,17.5146035 44.5922487,17.715496 C44.5948601,17.7339993 44.5970984,17.7521249 44.5997098,17.7713834 C44.6448497,18.1274767 44.6579067,18.5798624 44.5340518,18.9873117 C44.5340518,18.9873117 44.5788187,19.0024164 44.6541762,19.0175211 C44.7295337,19.0330034 44.8351088,19.0481081 44.9570984,19.0481081 C45.1555648,19.0481081 45.3965596,19.0080806 45.6192746,18.8634531 C45.752829,18.7766011 45.8800415,18.6519874 45.9871088,18.4760176 C45.9871088,18.4760176 46.0501554,18.5877924 46.0896995,18.7558322 C46.119171,18.8815788 46.1355855,19.0390453 46.1020104,19.2040641 C46.0908187,19.2591962 46.0740311,19.3150836 46.0501554,19.3713486 C46.0501554,19.3713486 46.0564974,19.3732367 46.0684352,19.37588 C46.1038756,19.3845652 46.1889326,19.4019356 46.3008497,19.4019356 C46.5254301,19.4019356 46.858943,19.3328317 47.1241865,18.9873117 C47.1241865,18.9873117 47.1197098,19.0212972 47.1081451,19.0790727 C47.1003109,19.1175897 47.0891192,19.16668 47.0738238,19.2237002 C47.0659896,19.2520215 47.0574093,19.2826085 47.0477098,19.314706 C47.0182383,19.4106209 46.9783212,19.5212628 46.9257202,19.6360585 C46.8902798,19.7130924 46.8492435,19.7916369 46.8014922,19.8698037 C46.7776166,19.9086983 46.7518756,19.9475929 46.7242694,19.9857323 C46.6698031,20.062011 46.6078756,20.1364016 46.5377409,20.2055056 C46.4676062,20.2746096 46.3900104,20.338427 46.3030881,20.3943144 C46.3030881,20.3943144 46.5116269,20.5351657 46.7951503,20.6763946 C47.0786736,20.8172459 47.4368083,20.9580972 47.7352539,20.9580972 C47.834487,20.9580972 47.9273782,20.9426149 48.0087047,20.905986 C48.0087047,20.905986 47.9374508,21.0230474 47.8121036,21.182402 C47.7285389,21.2888901 47.6207254,21.4142591 47.493513,21.5366072" id="Fill-36" fill="#AB2430"></path>
                            <path d="M6.63556477,19.8951041 C4.91577202,20.3535317 3.78540933,20.6567585 3.66230052,20.6899888 C1.93168912,21.1453955 0.881533679,21.9074275 0.443564767,23.0210215 C-0.206673575,24.6734755 0.747606218,26.5838422 1.76679793,28.2344082 C2.94789637,30.1470407 4.19502591,31.3150115 6.63556477,32.2156291 L6.63556477,44.9840086 C6.63556477,45.715076 7.02093264,46.390256 7.64654922,46.7561673 L38.2797513,64.6582562 C38.5923731,64.841023 38.9415544,64.9324065 39.2903627,64.9324065 C39.639544,64.9324065 39.9883523,64.841023 40.3013472,64.6582562 L70.9345492,46.7561673 C71.5597927,46.390256 71.9451606,45.715076 71.9451606,44.9840086 L71.9451606,0.0664606742 L6.63556477,0.0664606742 L6.63556477,19.8951041 L6.63556477,19.8951041 Z M39.2903627,62.8860974 L8.65716062,44.9840086 L8.65716062,32.835677 C10.485886,33.3080765 12.8264456,33.7276095 15.9194611,34.1932118 L15.9825078,34.2030299 L16.0444352,34.2128479 C24.6105699,35.5163834 28.4545492,37.5857271 28.7276269,37.7375294 C36.8192332,42.8640641 41.5876477,49.4278109 44.1632332,54.0324783 C45.0078342,55.5429482 45.7621554,57.0975993 46.4056788,58.6530056 L46.4306736,58.7134244 L39.2903627,62.8860974 L39.2903627,62.8860974 Z M66.8883731,46.7576778 L65.0663627,47.8225591 L65.0659896,47.8225591 C62.2773886,46.1251685 58.4102798,43.7726117 55.0844767,41.7527359 C49.0827358,38.1079721 39.2903627,34.2071837 30.698487,33.8873417 C24.5236477,33.6573726 19.5556477,33.2956151 17.2497824,33.1102049 C16.8763523,33.0482757 16.4973264,32.9871016 16.1052435,32.9281933 C14.0851399,32.6242112 12.4089948,32.3440191 11.0003316,32.060806 C12.8245803,32.2186501 14.9427979,32.3477953 16.5611192,32.2885093 C17.214715,32.2643418 17.8444352,32.2333772 18.4476684,32.203923 C21.0411606,32.0766659 23.0903627,31.9762197 24.5023834,32.5192336 C24.5467772,32.5362264 24.5919171,32.544534 24.637057,32.544534 C24.7896373,32.544534 24.9336373,32.4501296 24.9914611,32.2968169 C25.0656995,32.0989454 24.9675855,31.8772839 24.7717306,31.802138 C23.2119793,31.2024815 21.0937617,31.3059487 18.4111088,31.4373596 C17.810487,31.4668137 17.1841244,31.4974007 16.533513,31.5215682 C14.0616373,31.6129517 10.6306321,31.3399342 8.65716062,31.1333775 C7.91440415,31.0555883 7.37645596,30.9868619 7.17649741,30.9509883 C7.10636269,30.9385269 7.04368912,30.9271984 6.9813886,30.9154922 C6.86350259,30.8943456 6.75792746,30.8747095 6.6639171,30.8569615 C6.65421762,30.8528077 6.64563731,30.8482763 6.63556477,30.8441225 C6.17297409,30.6526705 5.75925389,30.4498899 5.39403109,30.2282284 C5.61264249,29.5877892 6.24572021,27.7268903 6.63556477,26.2413432 C6.85604145,25.401522 6.99966839,24.6802726 6.94482902,24.3706263 C6.91050777,24.178419 6.79597927,23.9446738 6.63556477,23.6950686 C6.16103627,22.955316 5.2828601,22.0732016 4.88182383,21.6861437 C5.32725389,21.5671942 5.92302591,21.4078396 6.63556477,21.2175204 C7.23320207,21.0581659 7.91328497,20.8769095 8.65716062,20.6794155 C9.43498446,20.4724812 10.2814508,20.2477988 11.1775337,20.010655 C13.8019896,19.3158389 23.3630674,11.7884123 30.5089741,10.8020755 C31.4419896,10.6733079 32.4619275,10.5637988 33.5542383,10.4901634 C33.6090777,10.4939396 33.6702591,10.4969605 33.7441244,10.4969605 C33.8750674,10.4969605 34.0145907,10.485632 34.1574715,10.4690169 C34.7856995,10.4780797 35.7701969,10.5097995 37.0035233,10.6057144 C38.9516269,10.7903693 40.9262176,11.0890647 41.904,11.2465312 C42.7396477,11.3813407 44.1277927,11.6875884 45.654342,12.0489683 C48.9648497,12.9307051 52.4450984,14.3007013 55.4000829,16.4297086 C63.0712539,21.9561402 67.4666114,26.0215698 67.719544,26.5970589 C67.9627772,27.1517789 55.0676891,25.9245222 50.4544663,21.8292607 C50.2727876,20.3697692 49.6419482,18.6425469 49.2797098,17.7392859 C48.8894922,16.7672986 47.9049948,15.608013 45.4323731,15.608013 C44.2874611,15.608013 43.1679171,15.8621495 42.4303834,16.0755034 C42.231171,16.1332789 42.0435233,16.2008724 41.8622176,16.2726197 C40.9254715,16.0181055 40.1118342,15.8840513 39.4798756,15.7900246 C37.3321865,15.4701826 33.9205803,14.9588885 26.6552953,17.1970273 C19.3903834,19.435166 11.3670466,23.5916014 10.1035026,24.9347868 C8.83995855,26.2775945 10.2295959,28.1958912 11.3670466,29.0274049 C12.5041244,29.8585409 13.7046218,31.2655436 14.1466943,30.1141879 C14.5887668,28.9632099 14.3992539,28.7075629 16.0418238,28.8351976 C17.6843938,28.9632099 26.8448083,29.9865532 31.1409326,28.9632099 C35.4366839,27.9402442 39.7328083,26.7250712 40.5539067,25.8297402 C40.5539067,25.8297402 40.4908601,26.9169009 40.1748808,27.4923899 C40.1748808,27.4923899 42.0069637,27.2367428 42.6389223,26.7892662 C42.6389223,26.7892662 42.5755026,27.5565848 42.1334301,27.8760492 C42.1334301,27.8760492 43.2074611,28.2600862 44.0285596,27.7484145 C44.0285596,27.7484145 43.3335544,28.3877209 43.5230674,28.9632099 C43.7125803,29.5386989 45.4816166,29.7305286 49.2092021,30.1783829 C52.5876062,30.5839441 60.6381762,36.1915635 66.9611192,46.715007 L65.9829637,47.2867199 L69.9235648,44.9840086 L66.8883731,46.7576778 L66.8883731,46.7576778 Z M34.3275855,10.4478703 C34.3294508,10.4474927 34.3313161,10.4474927 34.3331813,10.447115 C34.3350466,10.447115 34.337285,10.4474927 34.3395233,10.4474927 C34.3354197,10.4474927 34.3316891,10.4478703 34.3275855,10.4478703 L34.3275855,10.4478703 L34.3275855,10.4478703 Z M36.6983627,9.53403601 C36.7345492,9.5079804 36.7699896,9.48230241 36.8061762,9.45662443 C36.8419896,9.43056882 36.8785492,9.40451322 36.9136166,9.37921284 C37.0247876,9.29915794 37.1299896,9.22363445 37.2236269,9.15792901 C37.4116477,9.02538528 37.5873575,8.89775057 37.7694093,8.76747255 C37.9518342,8.63681691 38.140228,8.50351794 38.3155648,8.37663847 C38.6058031,8.16743839 38.8882073,7.96390258 39.161658,7.77056244 C39.4347358,7.57759991 39.6992332,7.39521067 39.9525389,7.22868137 C40.7967668,6.67396131 41.5204974,6.29785432 42.0588187,6.29785432 C42.133057,6.29785432 42.2031917,6.30502905 42.2681036,6.31975613 C42.8381347,6.44814607 43.8110674,7.03873979 44.7507979,7.74186351 C44.8850984,7.84230975 45.0186528,7.94539932 45.150342,8.04924413 C45.1335544,8.11381671 45.1212435,8.18103262 45.111171,8.24824853 C45.0951295,8.35435904 45.0854301,8.45971431 45.0794611,8.5544963 C45.0761036,8.61189415 45.0734922,8.66551583 45.0712539,8.7123404 C45.0630466,8.90228198 45.0305907,9.04841994 44.9880622,9.1469781 C44.9459067,9.24591388 44.8933057,9.29689224 44.8448083,9.29689224 C44.8183212,9.29689224 44.7854922,9.28631895 44.7496788,9.26668284 C44.548601,9.1556633 44.4542176,8.77955631 44.437057,8.65758587 L44.3893057,8.30338068 L44.0736995,8.46311287 C43.9416373,8.52995116 43.8009948,8.61378224 43.6622176,8.69648046 C43.5876062,8.74103933 43.4980725,8.79466101 43.4111503,8.84337366 C43.3238549,8.8917087 43.239544,8.9351347 43.1753782,8.95930222 C43.1843316,8.79541624 43.1500104,8.63832737 43.0925596,8.49332227 C43.0638342,8.42119733 43.0291399,8.35209334 42.9910881,8.28676551 C42.9149845,8.15610987 42.8258238,8.04093654 42.7430052,7.94728741 C42.6187772,7.80719133 42.5090984,7.71543029 42.4807461,7.69277324 L42.2621347,7.51567065 L42.218114,7.4801746 L42.0894093,7.79472995 C41.6603938,8.84186319 38.6729534,9.53705695 36.8852642,9.53705695 C36.8207254,9.53705695 36.7587979,9.53592409 36.6983627,9.53403601 L36.6983627,9.53403601 L36.6983627,9.53403601 Z M47.7352539,20.9580972 C47.4368083,20.9580972 47.0786736,20.8172459 46.7951503,20.6763946 C46.5116269,20.5351657 46.3030881,20.3943144 46.3030881,20.3943144 C46.3900104,20.338427 46.4676062,20.2746096 46.5377409,20.2055056 C46.6078756,20.1364016 46.6698031,20.062011 46.7242694,19.9857323 C46.7518756,19.9475929 46.7776166,19.9086983 46.8014922,19.8698037 C46.8492435,19.7916369 46.8902798,19.7130924 46.9257202,19.6360585 C46.9783212,19.5212628 47.0182383,19.4106209 47.0477098,19.314706 C47.0574093,19.2826085 47.0659896,19.2520215 47.0738238,19.2237002 C47.0891192,19.16668 47.1003109,19.1175897 47.1081451,19.0790727 C47.1197098,19.0212972 47.1241865,18.9873117 47.1241865,18.9873117 C46.858943,19.3328317 46.5254301,19.4019356 46.3008497,19.4019356 C46.1889326,19.4019356 46.1038756,19.3845652 46.0684352,19.37588 C46.0564974,19.3732367 46.0501554,19.3713486 46.0501554,19.3713486 C46.0740311,19.3150836 46.0908187,19.2591962 46.1020104,19.2040641 C46.1355855,19.0390453 46.119171,18.8815788 46.0896995,18.7558322 C46.0501554,18.5877924 45.9871088,18.4760176 45.9871088,18.4760176 C45.8800415,18.6519874 45.752829,18.7766011 45.6192746,18.8634531 C45.3965596,19.0080806 45.1555648,19.0481081 44.9570984,19.0481081 C44.8351088,19.0481081 44.7295337,19.0330034 44.6541762,19.0175211 C44.5788187,19.0024164 44.5340518,18.9873117 44.5340518,18.9873117 C44.6579067,18.5798624 44.6448497,18.1274767 44.5997098,17.7713834 C44.5970984,17.7521249 44.5948601,17.7339993 44.5922487,17.715496 C44.5638964,17.5146035 44.5273368,17.3476966 44.5015959,17.2457399 C44.4926425,17.2102439 44.4848083,17.1819226 44.4795855,17.1626641 C44.4739896,17.1434056 44.4710052,17.1332099 44.4710052,17.1332099 C44.4624249,17.155867 44.4445181,17.183433 44.4273575,17.2106215 C44.1994197,17.5712462 43.2339482,18.2819222 42.1737202,18.8536351 C41.537285,19.1965117 40.8669016,19.4895429 40.3013472,19.6269957 C40.0051399,19.698743 39.7913782,19.7281971 39.6387979,19.7281971 C39.4742798,19.7281971 39.3817617,19.693834 39.3358756,19.642478 C39.3131192,19.6168 39.3019275,19.5865906 39.298943,19.5544931 C39.2944663,19.5061581 39.3090155,19.4532916 39.331772,19.4023133 C39.3466943,19.3687053 39.3653472,19.3362302 39.384,19.306776 C39.4030259,19.2773219 39.4220518,19.2508887 39.4380933,19.2297421 C39.462342,19.1987775 39.4798756,19.1791413 39.4798756,19.1791413 C39.4798756,19.1791413 39.5391917,19.0715204 39.6626736,18.8997044 C39.724228,18.8136076 39.8021969,18.7116509 39.8965803,18.5991209 C39.9435855,18.5432335 39.9950674,18.4843252 40.0506528,18.4235288 C40.1618238,18.301936 40.2901554,18.1727908 40.4356477,18.0413799 C40.9459896,17.5810642 41.6715855,17.0931825 42.6389223,16.8133679 C42.8038135,16.7654105 42.9735544,16.7212293 43.1447876,16.6793137 C43.7021347,16.5429938 44.2878342,16.4402819 44.862715,16.3972335 C45.0540933,16.382884 45.2447254,16.3753317 45.4323731,16.3753317 C46.132228,16.3753317 46.7947772,16.4803093 47.3442902,16.7397325 C47.4815751,16.8046827 47.611772,16.8790734 47.7337617,16.9636597 C47.978114,17.1335875 48.1888912,17.3446757 48.357513,17.6033437 C48.4418238,17.7328664 48.5153161,17.8740954 48.5772435,18.0281633 C48.7346736,18.4201302 48.9040415,18.8808235 49.064456,19.3668172 C49.1442902,19.6100029 49.221886,19.8592304 49.2946321,20.1095908 C49.3673782,20.3595735 49.4349016,20.6106892 49.4945907,20.8568957 C49.5389845,21.0400402 49.5792746,21.2201638 49.6139689,21.3957559 C49.7005181,21.8345474 49.7534922,22.2438847 49.7557306,22.5886495 C49.7564767,22.7264798 49.7490155,22.8541145 49.732601,22.9689102 C49.7240207,23.0266857 49.7135751,23.0810626 49.7005181,23.132041 C49.6218031,23.4379111 49.4550466,23.620678 49.169658,23.620678 C49.1047461,23.620678 49.0338653,23.6112376 48.9562694,23.5916014 C47.945658,23.3359544 46.8082073,21.9931467 46.8082073,21.9931467 C47.0689741,21.8972319 47.3028808,21.7201293 47.493513,21.5366072 C47.6207254,21.4142591 47.7285389,21.2888901 47.8121036,21.182402 C47.9374508,21.0230474 48.0087047,20.905986 48.0087047,20.905986 C47.9273782,20.9426149 47.834487,20.9580972 47.7352539,20.9580972 L47.7352539,20.9580972 L47.7352539,20.9580972 Z M24.2972021,22.6909838 C24.2636269,22.6105513 24.2151295,22.5380487 24.1550674,22.4776299 C24.0950052,22.4168335 24.0237513,22.3673656 23.9442902,22.3337577 C23.864829,22.2993945 23.7775337,22.2808912 23.6861347,22.2808912 C23.6622591,22.2808912 23.6395026,22.2854226 23.616,22.2880659 C23.7256788,22.2083887 23.8297617,22.154767 23.9286218,22.1207814 C24.0271088,22.0867958 24.1203731,22.072824 24.2072953,22.072824 C24.3337617,22.072824 24.4482902,22.1011453 24.5508808,22.137019 C24.6023627,22.154767 24.650487,22.1747807 24.696,22.1944168 C24.741513,22.2136753 24.7836684,22.2329338 24.8232124,22.2487937 C25.1391917,22.3768061 25.7077306,22.6962704 25.7077306,22.6962704 C25.6525181,22.704578 25.599171,22.7185499 25.546943,22.7370531 C25.4428601,22.7748149 25.3436269,22.8310799 25.2436477,22.8964077 C25.0433161,23.0274409 24.8388808,23.1943479 24.5833368,23.3170735 C24.519171,23.3480382 24.4520207,23.3759819 24.3811399,23.3997718 C24.3065285,23.4250721 24.2192332,23.4397992 24.1285803,23.4492397 C24.1621554,23.4186526 24.1927461,23.3846671 24.2199793,23.3476606 C24.3009326,23.2370186 24.3494301,23.1006987 24.3494301,22.9522951 C24.3494301,22.8594012 24.3307772,22.7710387 24.2972021,22.6909838 L24.2972021,22.6909838 L24.2972021,22.6909838 Z M69.9235648,0.0664606742 L69.9235648,24.3517454 C64.4605181,18.9608784 58.6329948,14.9445391 52.5939482,12.417523 C52.5521658,12.3861807 52.5085181,12.3597475 52.4630052,12.3386009 C50.3973886,11.1778048 48.4656995,9.52157463 47.7512953,8.71309563 C46.5168497,7.31666624 43.9181347,5.38062149 42.5423005,5.07135278 C42.3874819,5.03661198 42.224829,5.01886396 42.0588187,5.01886396 C40.7934093,5.01886396 39.3765389,6.04069682 37.5828808,7.33479188 C37.2351917,7.58590749 36.8748187,7.84570831 36.5028808,8.10739722 C35.5709845,8.7621859 35.090114,9.03709142 34.8431503,9.15037666 C34.6137202,9.15830663 34.3842902,9.16585898 34.1552332,9.17756512 C32.8439378,9.24440341 31.5953161,9.36146482 30.338487,9.53479124 C25.3734715,10.2201669 19.5299067,13.7622188 15.2632539,16.3488984 C13.3677513,17.4976108 11.5781969,18.5825057 10.8578238,18.7732026 C10.0844767,18.9778712 9.34731606,19.1734771 8.65716062,19.3569992 L8.65716062,0.0664606742 L69.9235648,0.0664606742 L69.9235648,0.0664606742 Z" id="Fill-37" fill="#3D1719"></path>
                            <path id="Fill-38" fill="#3D1719" d="M34.3331813,10.447115 C34.3313161,10.4474927 34.3294508,10.4474927 34.3275855,10.4478703 C34.3316891,10.4478703 34.3354197,10.4474927 34.3395233,10.4474927 C34.337285,10.4474927 34.3350466,10.447115 34.3331813,10.447115"></path>
                            <path d="M65.0659896,47.8225591 L65.0663627,47.8225591 L65.9829637,47.2867199 L65.0659896,47.8225591" id="Fill-39" fill="#FFFFFF"></path>
                            <path d="M26.6552953,17.1970273 C33.9205803,14.9588885 37.3321865,15.4701826 39.4798756,15.7900246 C40.1118342,15.8840513 40.9254715,16.0181055 41.8622176,16.2726197 C42.0435233,16.2008724 42.231171,16.1332789 42.4303834,16.0755034 C43.1679171,15.8621495 44.2874611,15.608013 45.4323731,15.608013 C47.9049948,15.608013 48.8894922,16.7672986 49.2797098,17.7392859 C49.6419482,18.6425469 50.2727876,20.3697692 50.4544663,21.8292607 C55.0676891,25.9245222 67.9627772,27.1517789 67.719544,26.5970589 C67.4666114,26.0215698 63.0712539,21.9561402 55.4000829,16.4297086 C52.4450984,14.3007013 48.9648497,12.9307051 45.654342,12.0489683 C44.1277927,11.6875884 42.7396477,11.3813407 41.904,11.2465312 C40.9262176,11.0890647 38.9516269,10.7903693 37.0035233,10.6057144 C35.7701969,10.5097995 34.7856995,10.4780797 34.1574715,10.4690169 C34.0145907,10.485632 33.8750674,10.4969605 33.7441244,10.4969605 C33.6702591,10.4969605 33.6090777,10.4939396 33.5542383,10.4901634 C32.4619275,10.5637988 31.4419896,10.6733079 30.5089741,10.8020755 C23.3630674,11.7884123 13.8019896,19.3158389 11.1775337,20.010655 C10.2814508,20.2477988 9.43498446,20.4724812 8.65716062,20.6794155 C7.91328497,20.8769095 7.23320207,21.0581659 6.63556477,21.2175204 C5.92302591,21.4078396 5.32725389,21.5671942 4.88182383,21.6861437 C5.2828601,22.0732016 6.16103627,22.955316 6.63556477,23.6950686 C6.79597927,23.9446738 6.91050777,24.178419 6.94482902,24.3706263 C6.99966839,24.6802726 6.85604145,25.401522 6.63556477,26.2413432 C6.24572021,27.7268903 5.61264249,29.5877892 5.39403109,30.2282284 C5.75925389,30.4498899 6.17297409,30.6526705 6.63556477,30.8441225 C6.64563731,30.8482763 6.65421762,30.8528077 6.6639171,30.8569615 C6.75792746,30.8747095 6.86350259,30.8943456 6.9813886,30.9154922 C7.04368912,30.9271984 7.10636269,30.9385269 7.17649741,30.9509883 C7.37645596,30.9868619 7.91440415,31.0555883 8.65716062,31.1333775 C10.6306321,31.3399342 14.0616373,31.6129517 16.533513,31.5215682 C17.1841244,31.4974007 17.810487,31.4668137 18.4111088,31.4373596 C21.0937617,31.3059487 23.2119793,31.2024815 24.7717306,31.802138 C24.9675855,31.8772839 25.0656995,32.0989454 24.9914611,32.2968169 C24.9336373,32.4501296 24.7896373,32.544534 24.637057,32.544534 C24.5919171,32.544534 24.5467772,32.5362264 24.5023834,32.5192336 C23.0903627,31.9762197 21.0411606,32.0766659 18.4476684,32.203923 C17.8444352,32.2333772 17.214715,32.2643418 16.5611192,32.2885093 C14.9427979,32.3477953 12.8245803,32.2186501 11.0003316,32.060806 C12.4089948,32.3440191 14.0851399,32.6242112 16.1052435,32.9281933 C16.4973264,32.9871016 16.8763523,33.0482757 17.2497824,33.1102049 C19.5556477,33.2956151 24.5236477,33.6573726 30.698487,33.8873417 C39.2903627,34.2071837 49.0827358,38.1079721 55.0844767,41.7527359 C58.4102798,43.7726117 62.2773886,46.1251685 65.0659896,47.8225591 L66.9611192,46.715007 C60.6381762,36.1915635 52.5876062,30.5839441 49.2092021,30.1783829 C45.4816166,29.7305286 43.7125803,29.5386989 43.5230674,28.9632099 C43.3335544,28.3877209 44.0285596,27.7484145 44.0285596,27.7484145 C43.2074611,28.2600862 42.1334301,27.8760492 42.1334301,27.8760492 C42.5755026,27.5565848 42.6389223,26.7892662 42.6389223,26.7892662 C42.0069637,27.2367428 40.1748808,27.4923899 40.1748808,27.4923899 C40.4908601,26.9169009 40.5539067,25.8297402 40.5539067,25.8297402 C39.7328083,26.7250712 35.4366839,27.9402442 31.1409326,28.9632099 C26.8448083,29.9865532 17.6843938,28.9632099 16.0418238,28.8351976 C14.3992539,28.7075629 14.5887668,28.9632099 14.1466943,30.1141879 C13.7046218,31.2655436 12.5041244,29.8585409 11.3670466,29.0274049 C10.2295959,28.1958912 8.83995855,26.2775945 10.1035026,24.9347868 C11.3670466,23.5916014 19.3903834,19.435166 26.6552953,17.1970273" id="Fill-40" fill="#FFFFFF"></path>
                            <path id="Fill-41" fill="#FFFFFF" d="M47.0738238,19.2237002 C47.0891192,19.16668 47.1003109,19.1175897 47.1081451,19.0790727 C47.1003109,19.1175897 47.0891192,19.16668 47.0738238,19.2237002"></path>
                            <path id="Fill-42" fill="#3D1719" d="M47.1958135,19.2573082 L46.9514611,19.1900922 C46.9663834,19.1364706 46.976829,19.0900236 46.9839171,19.0537723 L47.2316269,19.1043731 C47.2237927,19.1447782 47.2118549,19.1968894 47.1958135,19.2573082"></path>
                            <path id="Fill-43" fill="#FFFFFF" d="M46.3030881,20.3943144 C46.3030881,20.3943144 46.5116269,20.5351657 46.7951503,20.6763946 C46.5116269,20.5351657 46.3030881,20.3943144 46.3030881,20.3943144"></path>
                            <path d="M46.7395648,20.7911903 C46.4523109,20.6480733 46.2415337,20.5064667 46.2329534,20.5008025 L46.3728497,20.2878262 C46.374715,20.2893367 46.5791503,20.4264118 46.8511088,20.5612213 L46.7395648,20.7911903" id="Fill-44" fill="#3D1719"></path>
                            <path id="Fill-45" fill="#FFFFFF" d="M39.384,19.306776 C39.4030259,19.2773219 39.4220518,19.2508887 39.4380933,19.2297421 C39.4220518,19.2508887 39.4030259,19.2773219 39.384,19.306776"></path>
                            <path id="Fill-46" fill="#3D1719" d="M39.4903212,19.37588 L39.2780518,19.2376721 C39.298943,19.2044417 39.3202073,19.1749876 39.338487,19.1511977 L39.5376995,19.3086641 C39.5235233,19.3271674 39.5067358,19.3498244 39.4903212,19.37588"></path>
                            <path id="Fill-47" fill="#FFFFFF" d="M46.5377409,20.2055056 C46.6078756,20.1364016 46.6698031,20.062011 46.7242694,19.9857323 C46.6698031,20.062011 46.6078756,20.1364016 46.5377409,20.2055056"></path>
                            <path id="Fill-48" fill="#3D1719" d="M46.6257824,20.296889 L46.4496995,20.1137446 C46.5101347,20.054081 46.5679585,19.9861099 46.6213057,19.9120968 C46.6220518,19.9117192 46.6220518,19.910964 46.6220518,19.9105864 L46.8268601,20.0605005 C46.7649326,20.1465973 46.6977824,20.2262746 46.6257824,20.296889"></path>
                            <path id="Fill-49" fill="#FFFFFF" d="M39.6626736,18.8997044 C39.724228,18.8136076 39.8021969,18.7116509 39.8965803,18.5991209 C39.8021969,18.7116509 39.724228,18.8136076 39.6626736,18.8997044"></path>
                            <path id="Fill-50" fill="#3D1719" d="M39.7648912,18.9748503 L39.560456,18.8241809 C39.6238756,18.7361961 39.7033368,18.6319736 39.7999585,18.5164227 L39.992456,18.6821968 C39.9006839,18.7917058 39.8249534,18.8910192 39.7648912,18.9748503"></path>
                            <path id="Fill-51" fill="#FFFFFF" d="M47.493513,21.5366072 C47.6207254,21.4142591 47.7285389,21.2888901 47.8121036,21.182402 C47.7285389,21.2888901 47.6207254,21.4142591 47.493513,21.5366072"></path>
                            <path d="M47.5804352,21.6295011 L47.4062176,21.4440909 C47.5114197,21.3428894 47.6147565,21.2280937 47.7132435,21.1027247 L47.9109637,21.2620793 C47.8053886,21.3965111 47.6942176,21.519992 47.5804352,21.6295011" id="Fill-52" fill="#3D1719"></path>
                            <path id="Fill-53" fill="#FFFFFF" d="M46.8014922,19.8698037 C46.8492435,19.7916369 46.8902798,19.7130924 46.9257202,19.6360585 C46.8902798,19.7130924 46.8492435,19.7916369 46.8014922,19.8698037"></path>
                            <path id="Fill-54" fill="#3D1719" d="M46.9081865,19.9373972 L46.6940518,19.8022102 C46.7391917,19.7285748 46.7779896,19.6545617 46.8115648,19.5824368 L47.0402487,19.6904354 C47.002943,19.7716231 46.9592953,19.854699 46.9081865,19.9373972"></path>
                            <path id="Fill-55" fill="#FFFFFF" d="M39.298943,19.5544931 C39.2944663,19.5061581 39.3090155,19.4532916 39.331772,19.4023133 C39.3090155,19.4532916 39.2944663,19.5061581 39.298943,19.5544931"></path>
                            <path id="Fill-56" fill="#3D1719" d="M39.1728497,19.5661992 C39.1721036,19.5567588 39.1717306,19.5469408 39.1717306,19.5371227 C39.1717306,19.4797248 39.1866528,19.4166627 39.2164974,19.3498244 L39.4466736,19.4551797 C39.4276477,19.4982281 39.4242902,19.5246613 39.4242902,19.5371227 C39.4242902,19.5393884 39.4246632,19.5412765 39.4246632,19.542787 L39.1728497,19.5661992"></path>
                            <path id="Fill-57" fill="#FFFFFF" d="M46.9257202,19.6360585 C46.9783212,19.5212628 47.0182383,19.4106209 47.0477098,19.314706 C47.0182383,19.4106209 46.9783212,19.5212628 46.9257202,19.6360585"></path>
                            <path id="Fill-58" fill="#3D1719" d="M47.0406218,19.6900578 L46.8111917,19.5824368 C46.8563316,19.4846339 46.8947565,19.3819219 46.9264663,19.2773219 L47.1685803,19.3520901 C47.1331399,19.4680187 47.0902383,19.5820592 47.0406218,19.6900578"></path>
                            <path id="Fill-59" fill="#FFFFFF" d="M49.6139689,21.3957559 C49.5792746,21.2201638 49.5389845,21.0400402 49.4945907,20.8568957 C49.4349016,20.6106892 49.3673782,20.3595735 49.2946321,20.1095908 C49.3673782,20.3595735 49.4349016,20.6106892 49.4945907,20.8572734 C49.5389845,21.0400402 49.5792746,21.2201638 49.6139689,21.3957559"></path>
                            <path d="M49.490114,21.4210562 C49.4554197,21.2469746 49.4158756,21.0683615 49.372228,20.8874828 C49.3125389,20.6431643 49.2457617,20.3939367 49.1733886,20.1454644 L49.4158756,20.0733395 C49.4889948,20.3252104 49.5572642,20.5782141 49.6176995,20.8266864 C49.6620933,21.0113413 49.7023834,21.1933529 49.7378238,21.3704555 L49.490114,21.4210562" id="Fill-60" fill="#3D1719"></path>
                            <path id="Fill-61" fill="#FFFFFF" d="M46.0896995,18.7558322 C46.119171,18.8815788 46.1355855,19.0390453 46.1020104,19.2040641 C46.1355855,19.0390453 46.119171,18.8815788 46.0896995,18.7558322"></path>
                            <path id="Fill-62" fill="#3D1719" d="M46.2258653,19.2297421 L45.9781554,19.1787637 C45.9889741,19.1255197 45.9945699,19.0707651 45.9941969,19.0141225 C45.9941969,18.9401095 45.9852435,18.8638308 45.9669637,18.7852863 L46.2124352,18.7260004 C46.2355648,18.8238033 46.2471295,18.9200958 46.2471295,19.0137449 C46.2471295,19.0873803 46.2400415,19.1595052 46.2258653,19.2297421"></path>
                            <path id="Fill-63" fill="#FFFFFF" d="M44.5997098,17.7713834 C44.6448497,18.1274767 44.6579067,18.5798624 44.5340518,18.9873117 C44.6579067,18.5798624 44.6448497,18.1274767 44.5997098,17.7713834"></path>
                            <path id="Fill-64" fill="#3D1719" d="M44.6545492,19.0250734 L44.4135544,18.9499275 C44.4747358,18.747147 44.5056995,18.5168003 44.5056995,18.2611533 C44.5060725,18.1119944 44.4956269,17.9537727 44.4743627,17.787621 L44.725057,17.7551459 C44.7470674,17.9311156 44.7586321,18.0987778 44.7586321,18.2588876 C44.7586321,18.5409678 44.7239378,18.7973701 44.6545492,19.0250734"></path>
                            <path id="Fill-65" fill="#FFFFFF" d="M48.0087047,20.905986 C48.0087047,20.905986 47.9374508,21.0230474 47.8121036,21.182402 C47.9374508,21.0226698 48.0087047,20.905986 48.0087047,20.905986"></path>
                            <path id="Fill-66" fill="#3D1719" d="M47.9113368,21.2620793 L47.7132435,21.1031023 C47.8315026,20.952433 47.899399,20.841791 47.9008912,20.8387701 L48.1161451,20.9728243 C48.1161451,20.9728243 48.0419067,21.0951724 47.9113368,21.2620793"></path>
                            <path id="Fill-67" fill="#FFFFFF" d="M46.1020104,19.2040641 C46.0908187,19.2591962 46.0740311,19.3150836 46.0501554,19.3713486 C46.0501554,19.3713486 46.0564974,19.3732367 46.0684352,19.37588 C46.0564974,19.3732367 46.0501554,19.3713486 46.0501554,19.3713486 C46.0740311,19.3150836 46.0908187,19.2591962 46.1020104,19.2040641"></path>
                            <path id="Fill-68" fill="#3D1719" d="M46.040456,19.5004938 L45.8927254,19.4665082 L45.9341347,19.3207479 C45.9546528,19.2731681 45.968829,19.2252107 45.9781554,19.1783861 L46.2258653,19.2301197 C46.2128083,19.2931818 46.1934093,19.3573768 46.1665492,19.4215718 L46.0647047,19.3773905 L46.040456,19.5004938"></path>
                            <path id="Fill-69" fill="#FFFFFF" d="M44.6541762,19.0175211 C44.7295337,19.0330034 44.8351088,19.0481081 44.9570984,19.0481081 C45.1555648,19.0481081 45.3965596,19.0080806 45.6192746,18.8634531 C45.3965596,19.0080806 45.1555648,19.0477305 44.9570984,19.0477305 C44.8351088,19.0477305 44.7295337,19.0330034 44.6541762,19.0175211"></path>
                            <path id="Fill-70" fill="#3D1719" d="M44.9570984,19.1757428 C44.8205596,19.1757428 44.7037927,19.1579948 44.6295544,19.1428901 L44.679171,18.8921521 C44.7418446,18.9049911 44.8410777,18.9200958 44.9570984,18.9200958 C45.183544,18.9200958 45.3831295,18.8649636 45.5513782,18.7558322 L45.687544,18.9710741 C45.4786321,19.1070164 45.2327876,19.1757428 44.9570984,19.1757428"></path>
                            <path d="M43.1447876,16.6793137 C43.7025078,16.5429938 44.2878342,16.4402819 44.862715,16.3972335 C44.2878342,16.4402819 43.7021347,16.5429938 43.1447876,16.6793137 C42.9735544,16.7212293 42.8038135,16.7654105 42.6389223,16.8133679 C41.6715855,17.0931825 40.9459896,17.5810642 40.4356477,18.0413799 C40.9459896,17.5810642 41.6715855,17.0931825 42.6389223,16.8133679 C42.8038135,16.7654105 42.9735544,16.7212293 43.1447876,16.6793137" id="Fill-71" fill="#FFFFFF"></path>
                            <path d="M40.5199585,18.1365395 L40.3517098,17.9458427 C41.0056788,17.3560042 41.7633575,16.9334503 42.604228,16.6902646 C42.7706114,16.6423072 42.9418446,16.5973707 43.114943,16.5554552 C43.1921658,16.5361967 43.2690155,16.5184487 43.3454922,16.5010783 C43.8267358,16.3927021 44.2923109,16.3183114 44.7340104,16.2794168 C44.7743005,16.2760183 44.8138446,16.2726197 44.8530155,16.2695988 L44.8720415,16.5248682 C44.3393161,16.564518 43.7685389,16.6585448 43.1746321,16.8039275 L43.1742591,16.8039275 C43.0933057,16.8235636 43.0123523,16.8439549 42.9321451,16.8651015 C42.8832746,16.8779405 42.8347772,16.8911571 42.7866528,16.9043737 C42.7859067,16.9043737 42.7855337,16.9047513 42.7847876,16.9047513 C42.7825492,16.9055066 42.7803109,16.9058842 42.7784456,16.9066394 C42.7776995,16.9066394 42.7769534,16.907017 42.7765803,16.907017 C42.774342,16.9077723 42.7717306,16.9081499 42.7698653,16.9089051 C42.7631503,16.9107932 42.7560622,16.9126813 42.7497202,16.9145694 C42.748228,16.914947 42.7467358,16.9153246 42.7452435,16.9157022 C42.7422591,16.9164575 42.7392746,16.9172127 42.7370363,16.917968 C42.7336788,16.9191008 42.7306943,16.919856 42.7277098,16.9206113 C42.7236062,16.9221217 42.7187565,16.9232546 42.7139067,16.9243874 C42.7112953,16.9255203 42.7086839,16.9258979 42.7064456,16.9266532 C42.7004767,16.9285412 42.6945078,16.9300517 42.6889119,16.9319398 C42.6836891,16.9330727 42.6784663,16.9345831 42.6736166,16.9360936 C41.8693057,17.1687059 41.1452021,17.5727566 40.5199585,18.1365395" id="Fill-72" fill="#3D1719"></path>
                            <path id="Fill-73" fill="#FFFFFF" d="M40.4356477,18.0413799 C40.2901554,18.1727908 40.1618238,18.301936 40.0506528,18.4235288 C40.1618238,18.301936 40.2901554,18.1727908 40.4356477,18.0413799"></path>
                            <path d="M40.143171,18.5107584 L39.9577617,18.3366768 C40.0834819,18.199224 40.2162902,18.0678131 40.3520829,17.9458427 L40.5195855,18.1365395 C40.3901347,18.2536009 40.2636684,18.3793475 40.143171,18.5107584" id="Fill-74" fill="#3D1719"></path>
                            <path id="Fill-75" fill="#FFFFFF" d="M44.4710052,17.1332099 C44.4710052,17.1332099 44.4739896,17.1434056 44.4795855,17.1626641 C44.4739896,17.1434056 44.4710052,17.1328323 44.4710052,17.1328323 L44.4710052,17.1332099"></path>
                            <path id="Fill-76" fill="#3D1719" d="M44.3579689,17.1981601 L44.3176788,17.0565536 L44.4534715,17.0063304 L44.5624041,16.9908481 L44.594487,17.1056438 L44.5310674,17.130189 L44.600829,17.127168 L44.3579689,17.1981601"></path>
                            <path id="Fill-77" fill="#FFFFFF" d="M44.4795855,17.1626641 C44.4848083,17.1819226 44.4926425,17.2102439 44.5015959,17.2457399 C44.5273368,17.3476966 44.5638964,17.5146035 44.5922487,17.715496 C44.5638964,17.5146035 44.5273368,17.3476966 44.5015959,17.2457399 C44.4926425,17.2102439 44.4848083,17.1819226 44.4795855,17.1626641"></path>
                            <path id="Fill-78" fill="#3D1719" d="M44.4669016,17.7332441 C44.4378031,17.5259321 44.3997513,17.3582699 44.3792332,17.2770822 L44.3579689,17.1977825 L44.600829,17.1275456 L44.6239585,17.2132648 C44.6455959,17.3004944 44.6862591,17.4779747 44.7168497,17.6973704 L44.4669016,17.7332441"></path>
                            <path d="M49.6139689,21.3957559 C49.5792746,21.2201638 49.5389845,21.0400402 49.4945907,20.8572734 C49.4349016,20.6106892 49.3673782,20.3595735 49.2946321,20.1095908 C49.221886,19.8592304 49.1442902,19.6100029 49.064456,19.3668172 C48.9040415,18.8812012 48.7346736,18.4201302 48.5772435,18.0281633 C48.5153161,17.8740954 48.4418238,17.7328664 48.357513,17.6033437 C48.1888912,17.3446757 47.978114,17.1335875 47.7337617,16.9636597 C47.611772,16.8790734 47.4815751,16.8046827 47.3442902,16.7397325 C46.7947772,16.4803093 46.132228,16.3753317 45.4323731,16.3753317 C45.2447254,16.3753317 45.0540933,16.382884 44.862715,16.3972335 C44.2878342,16.4402819 43.7025078,16.5429938 43.1447876,16.6793137 C42.9735544,16.7212293 42.8038135,16.7654105 42.6389223,16.8133679 C41.6715855,17.0931825 40.9459896,17.5810642 40.4356477,18.0413799 C40.2901554,18.1727908 40.1618238,18.301936 40.0506528,18.4235288 C39.9950674,18.4843252 39.9435855,18.5432335 39.8965803,18.5991209 C39.8021969,18.7116509 39.724228,18.8136076 39.6626736,18.8997044 C39.5391917,19.0715204 39.4798756,19.1791413 39.4798756,19.1791413 C39.4798756,19.1791413 39.462342,19.1987775 39.4380933,19.2297421 C39.4220518,19.2508887 39.4030259,19.2773219 39.384,19.306776 C39.3653472,19.3362302 39.3466943,19.3687053 39.331772,19.4023133 C39.3090155,19.4532916 39.2944663,19.5061581 39.298943,19.5544931 C39.3019275,19.5865906 39.3131192,19.6168 39.3358756,19.642478 C39.3817617,19.693834 39.4742798,19.7281971 39.6387979,19.7281971 C39.7913782,19.7281971 40.0051399,19.698743 40.3013472,19.6269957 C40.8669016,19.4895429 41.537285,19.1965117 42.1737202,18.8536351 C43.2339482,18.2819222 44.1994197,17.5712462 44.4273575,17.2106215 C44.4445181,17.183433 44.4624249,17.155867 44.4710052,17.1328323 L44.4710052,17.1328323 C44.4710052,17.1328323 44.4739896,17.1434056 44.4795855,17.1626641 C44.4848083,17.1819226 44.4926425,17.2102439 44.5015959,17.2457399 C44.5273368,17.3476966 44.5638964,17.5146035 44.5922487,17.715496 C44.5948601,17.7339993 44.5970984,17.7521249 44.5997098,17.7713834 C44.6448497,18.1274767 44.6579067,18.5798624 44.5340518,18.9873117 C44.5340518,18.9873117 44.5788187,19.0024164 44.6541762,19.0175211 C44.7295337,19.0330034 44.8351088,19.0477305 44.9570984,19.0477305 C45.1555648,19.0477305 45.3965596,19.0080806 45.6192746,18.8634531 C45.752829,18.7766011 45.8800415,18.6519874 45.9871088,18.4760176 C45.9871088,18.4760176 46.0501554,18.5877924 46.0896995,18.7558322 C46.119171,18.8815788 46.1355855,19.0390453 46.1020104,19.2040641 C46.0908187,19.2591962 46.0740311,19.3150836 46.0501554,19.3713486 C46.0501554,19.3713486 46.0564974,19.3732367 46.0684352,19.37588 C46.1038756,19.3845652 46.1889326,19.4019356 46.3008497,19.4019356 C46.5254301,19.4019356 46.858943,19.3328317 47.1241865,18.9873117 C47.1241865,18.9873117 47.1197098,19.0212972 47.1081451,19.0790727 C47.1003109,19.1175897 47.0891192,19.16668 47.0738238,19.2237002 C47.0659896,19.2520215 47.0574093,19.2826085 47.0477098,19.314706 C47.0182383,19.4106209 46.9783212,19.5212628 46.9257202,19.6360585 C46.8902798,19.7130924 46.8492435,19.7916369 46.8014922,19.8698037 C46.7776166,19.9086983 46.7518756,19.9475929 46.7242694,19.9857323 C46.6698031,20.062011 46.6078756,20.1364016 46.5377409,20.2055056 C46.4676062,20.2746096 46.3900104,20.338427 46.3030881,20.3943144 C46.3030881,20.3943144 46.5116269,20.5351657 46.7951503,20.6763946 C47.0786736,20.8172459 47.4368083,20.9580972 47.7352539,20.9580972 C47.834487,20.9580972 47.9273782,20.9426149 48.0087047,20.905986 C48.0087047,20.905986 47.9374508,21.0226698 47.8121036,21.182402 C47.7285389,21.2888901 47.6207254,21.4142591 47.493513,21.5366072 C47.3028808,21.7201293 47.0689741,21.8972319 46.8082073,21.9931467 C46.8082073,21.9931467 47.945658,23.3359544 48.9562694,23.5916014 C49.0334922,23.6112376 49.1047461,23.620678 49.169658,23.620678 C49.4550466,23.620678 49.6218031,23.4379111 49.7005181,23.132041 C49.7135751,23.0810626 49.7240207,23.0266857 49.732601,22.9689102 C49.7490155,22.8541145 49.7564767,22.7264798 49.7557306,22.5886495 C49.7534922,22.2438847 49.7005181,21.8345474 49.6139689,21.3957559" id="Fill-79" fill="#FFFFFF"></path>
                            <path d="M49.169658,23.7486903 C49.0943005,23.7486903 49.012228,23.7377394 48.9256788,23.7158376 C47.8874611,23.4533934 46.7600829,22.1324876 46.7127047,22.0762225 L46.5940725,21.9361265 L46.7649326,21.8726867 C46.9757098,21.7952752 47.1913368,21.6510253 47.4062176,21.4440909 C47.5114197,21.3428894 47.6147565,21.2280937 47.7132435,21.1027247 C47.7177202,21.0970605 47.7221969,21.0917738 47.7266736,21.0857319 C47.4606839,21.0838438 47.1286632,20.9849081 46.7395648,20.7908127 C46.4523109,20.6480733 46.2415337,20.5064667 46.2329534,20.5008025 L46.0710466,20.391671 L46.2348187,20.2863158 C46.3105492,20.2379807 46.3825492,20.1798276 46.4496995,20.1137446 C46.5112539,20.0533258 46.5690777,19.984977 46.6220518,19.910964 C46.6481658,19.8747127 46.6716684,19.8384614 46.6936788,19.8025878 C46.7391917,19.7285748 46.7779896,19.6545617 46.8115648,19.5824368 C46.8432746,19.5121999 46.8727461,19.4393198 46.898487,19.3645515 C46.531772,19.5907444 46.145285,19.5261718 46.0385907,19.5001162 L45.8934715,19.4646201 L45.9341347,19.3207479 C45.9546528,19.2731681 45.968829,19.2252107 45.9781554,19.1783861 C46.0031503,19.056038 45.9994197,18.9238719 45.9669637,18.7852863 C45.9628601,18.7682935 45.9583834,18.7524336 45.9542798,18.7369513 C45.8748187,18.82909 45.785285,18.9072568 45.687544,18.9710741 C45.4786321,19.1070164 45.2327876,19.1757428 44.9570984,19.1757428 C44.8205596,19.1757428 44.7037927,19.1579948 44.6295544,19.1428901 C44.5444974,19.1262749 44.4941347,19.1089045 44.4941347,19.1089045 L44.3777409,19.068877 L44.4135544,18.9499275 C44.5109223,18.6289527 44.5314404,18.237741 44.4743627,17.787621 L44.4669016,17.7355098 C44.4508601,17.6184484 44.4318342,17.5146035 44.4146736,17.4319053 C44.0464663,17.840865 43.1705285,18.4612905 42.2330363,18.9665427 C41.7361244,19.2346511 41.0023212,19.5881011 40.3304456,19.7512318 C39.7324352,19.8966145 39.3884767,19.8924607 39.2418653,19.7278195 C39.2026943,19.6840159 39.1788187,19.6277509 39.1728497,19.5661992 C39.1672539,19.5008714 39.1818031,19.4279913 39.2164974,19.3498244 C39.2340311,19.3101746 39.2560415,19.2716576 39.2780518,19.2369168 C39.298943,19.2044417 39.3202073,19.1749876 39.338487,19.1511977 C39.3604974,19.1228763 39.377658,19.1032402 39.384,19.0960655 C39.3832539,19.0922893 39.4451813,18.985046 39.560456,18.8241809 C39.6238756,18.7361961 39.7033368,18.6319736 39.7999585,18.5164227 C39.848456,18.4586472 39.901057,18.398606 39.9573886,18.3366768 C40.0834819,18.199224 40.2162902,18.0678131 40.3520829,17.9458427 C41.0056788,17.3560042 41.7633575,16.9334503 42.604228,16.6902646 C42.7706114,16.6423072 42.9418446,16.5973707 43.1153161,16.5554552 C43.7222798,16.4066739 44.3076062,16.3103814 44.8530155,16.2695988 C45.8897409,16.19332 46.7414301,16.3141576 47.3976373,16.6238039 C47.5423834,16.6921527 47.6796684,16.7710748 47.8053886,16.8583044 C48.0706321,17.0425817 48.2918549,17.2699074 48.4630881,17.5331068 C48.5526218,17.6709372 48.6302176,17.8208513 48.6940104,17.9798283 C48.8622591,18.3982284 49.0316269,18.8638308 49.1842073,19.3264122 C49.2647876,19.5707307 49.3431295,19.8218463 49.4158756,20.0733395 C49.4889948,20.3252104 49.5568912,20.5782141 49.6176995,20.8266864 C49.6620933,21.0113413 49.7023834,21.1933529 49.7378238,21.3704555 C49.8314611,21.8443654 49.8799585,22.2537028 49.8821969,22.5878942 C49.882943,22.7355426 49.8743627,22.8699745 49.8575751,22.9877911 C49.8482487,23.050098 49.837057,23.1090063 49.8228808,23.1641385 C49.6990259,23.6474888 49.3990881,23.7486903 49.169658,23.7486903 L49.169658,23.7486903 L49.169658,23.7486903 Z M47.0201036,22.0395937 C47.330487,22.3771837 48.2090363,23.2706266 48.9872332,23.4677429 C49.0532642,23.4843581 49.1148187,23.4930433 49.169658,23.4930433 C49.3017202,23.4930433 49.4878756,23.4522606 49.5781554,23.0999435 C49.5900933,23.0531189 49.5997927,23.0032734 49.6076269,22.950407 C49.6229223,22.8454293 49.6300104,22.7238365 49.6292642,22.5894047 C49.627399,22.2718284 49.5803938,21.8787286 49.490114,21.4210562 C49.4554197,21.2469746 49.4158756,21.0683615 49.372228,20.8874828 C49.3125389,20.6431643 49.2457617,20.3939367 49.1733886,20.1454644 C49.1010155,19.8969921 49.0241658,19.6488975 48.9443316,19.4075999 C48.7936166,18.9499275 48.626114,18.4896118 48.4601036,18.0764983 C48.4022798,17.9330037 48.3325181,17.797439 48.2519378,17.6735805 C48.0989845,17.4379472 47.9001451,17.234789 47.6625078,17.0693926 C47.5479793,16.9897153 47.4230052,16.917968 47.2913161,16.8556611 C46.7951503,16.6219159 46.1695337,16.503344 45.4323731,16.503344 C45.2473368,16.503344 45.0604352,16.5108963 44.8716684,16.5248682 C44.3393161,16.564518 43.7685389,16.6585448 43.1746321,16.8039275 C43.0045181,16.8450878 42.8370155,16.889269 42.6736166,16.9360936 C41.8693057,17.1687059 41.1452021,17.5727566 40.5199585,18.1365395 C40.3901347,18.2536009 40.2636684,18.3793475 40.143171,18.5107584 C40.0890777,18.5696668 40.038715,18.6274422 39.992456,18.6821968 C39.9006839,18.7917058 39.8249534,18.8910192 39.7648912,18.9748503 C39.6492435,19.1357153 39.5921658,19.2380497 39.5903005,19.2418258 C39.5712746,19.2675038 39.5570984,19.2837414 39.5376995,19.3086641 C39.5235233,19.3271674 39.5067358,19.3498244 39.4903212,19.37588 C39.4746528,19.4004252 39.4593575,19.427236 39.4470466,19.4548021 C39.4242902,19.5057805 39.4239171,19.5333465 39.4246632,19.542787 C39.4339896,19.5612902 39.4735337,19.6001848 39.6387979,19.6001848 C39.7928705,19.6001848 40.005513,19.5673321 40.2715026,19.5027595 C40.9176373,19.3456706 41.6301762,19.0016611 42.1144041,18.7407275 C43.2507358,18.1282319 44.1281658,17.4466324 44.3210363,17.1418951 C44.3348394,17.1199933 44.3497617,17.0962034 44.3531192,17.0871406 L44.489658,16.7272711 L44.6239585,17.2132648 C44.6455959,17.3004944 44.6862591,17.4779747 44.7168497,17.6973704 L44.7228187,17.7396636 C44.7787772,18.1818536 44.7675855,18.5658906 44.6899896,18.8944178 C44.7534093,18.9068791 44.8477927,18.9200958 44.9570984,18.9200958 C45.183544,18.9200958 45.3831295,18.8649636 45.5513782,18.7558322 C45.6793368,18.6723787 45.7897617,18.5556949 45.8792953,18.4088017 L45.9908394,18.2256572 L46.0967876,18.4122003 C46.099399,18.4174869 46.1695337,18.5424783 46.2124352,18.7260004 C46.2534715,18.9012149 46.2579482,19.0707651 46.2258653,19.2297421 C46.2228808,19.2433363 46.2202694,19.2569305 46.2169119,19.2701472 C46.4105285,19.2871399 46.7574715,19.2565529 47.0245803,18.9087672 L47.3088497,18.539835 L47.2495337,19.0039268 C47.2495337,19.0039268 47.245057,19.041311 47.2312539,19.1051283 C47.2237927,19.1447782 47.2118549,19.1968894 47.1958135,19.2573082 C47.1876062,19.2871399 47.1782798,19.3192374 47.1682073,19.3528454 C47.1331399,19.4680187 47.0902383,19.5820592 47.0406218,19.6900578 C47.002943,19.7716231 46.9592953,19.854699 46.9081865,19.9373972 C46.8831917,19.9785575 46.8559585,20.0204731 46.826487,20.0616334 C46.7649326,20.1465973 46.6977824,20.2262746 46.6257824,20.296889 C46.5944456,20.3278537 46.5623627,20.3573078 46.5291606,20.3856291 C46.6123523,20.435097 46.7246425,20.4985368 46.8511088,20.5612213 C47.3401865,20.8047845 47.7382383,20.8874828 47.9572228,20.7889246 L48.3287876,20.6220177 L48.1161451,20.9728243 C48.1161451,20.9728243 48.0419067,21.0951724 47.9113368,21.2620793 C47.8053886,21.3965111 47.6942176,21.519992 47.5804352,21.6295011 C47.395772,21.8073589 47.2077513,21.9448117 47.0201036,22.0395937 L47.0201036,22.0395937 L47.0201036,22.0395937 Z" id="Fill-80" fill="#3D1719"></path>
                            <path id="Fill-81" fill="#FFFFFF" d="M24.2972021,22.6909838 C24.3307772,22.7710387 24.3494301,22.8594012 24.3494301,22.9522951 C24.3494301,22.8594012 24.3307772,22.7710387 24.2972021,22.6909838"></path>
                            <path id="Fill-82" fill="#FFFFFF" d="M23.616,22.2880659 L23.616,22.2880659 C23.7256788,22.2083887 23.8301347,22.154767 23.9286218,22.1207814 C23.8297617,22.154767 23.7256788,22.2083887 23.616,22.2880659"></path>
                            <path id="Fill-83" fill="#FFFFFF" d="M24.1285803,23.4492397 C24.1621554,23.4186526 24.1927461,23.3846671 24.2199793,23.3476606 C24.1927461,23.3846671 24.1621554,23.4186526 24.1285803,23.4492397 C24.2192332,23.4397992 24.3065285,23.4250721 24.3811399,23.3997718 C24.4520207,23.3759819 24.519171,23.3480382 24.5833368,23.3170735 C24.519171,23.3480382 24.4520207,23.3759819 24.3811399,23.3997718 C24.3065285,23.4250721 24.2192332,23.4397992 24.1285803,23.4492397"></path>
                            <path id="Fill-84" fill="#FFFFFF" d="M25.7077306,22.6962704 L25.7077306,22.6962704 C25.6525181,22.704578 25.599171,22.7185499 25.546943,22.7370531 C25.599171,22.7185499 25.6525181,22.704578 25.7077306,22.6962704"></path>
                            <path d="M24.8232124,22.2487937 C24.7836684,22.2329338 24.741513,22.2136753 24.696,22.1944168 C24.650487,22.1747807 24.6023627,22.154767 24.5508808,22.137019 C24.4482902,22.1011453 24.3337617,22.072824 24.2072953,22.072824 C24.1203731,22.072824 24.0271088,22.0867958 23.9286218,22.1207814 C23.8301347,22.154767 23.7256788,22.2083887 23.616,22.2880659 C23.6395026,22.2854226 23.6622591,22.2808912 23.6861347,22.2808912 C23.7775337,22.2808912 23.864829,22.2993945 23.9442902,22.3337577 C24.0237513,22.3673656 24.0950052,22.4168335 24.1550674,22.4776299 C24.2151295,22.5380487 24.2636269,22.6105513 24.2972021,22.6909838 C24.3307772,22.7710387 24.3494301,22.8594012 24.3494301,22.9522951 C24.3494301,23.1006987 24.3009326,23.2370186 24.2199793,23.3476606 C24.1927461,23.3846671 24.1621554,23.4186526 24.1285803,23.4492397 C24.2192332,23.4397992 24.3065285,23.4250721 24.3811399,23.3997718 C24.4520207,23.3759819 24.519171,23.3480382 24.5833368,23.3170735 C24.8388808,23.1943479 25.0433161,23.0274409 25.2436477,22.8964077 C25.3436269,22.8310799 25.4428601,22.7748149 25.546943,22.7370531 C25.599171,22.7185499 25.6525181,22.704578 25.7077306,22.6962704 C25.7077306,22.6962704 25.1391917,22.3768061 24.8232124,22.2487937" id="Fill-85" fill="#FFFFFF"></path>
                            <path id="Fill-86" fill="#FFFFFF" d="M42.4807461,7.69277324 L42.2621347,7.51567065 L42.4807461,7.69277324 C42.5090984,7.71543029 42.6187772,7.80719133 42.7430052,7.94728741 C42.6187772,7.80719133 42.5090984,7.71543029 42.4807461,7.69277324"></path>
                            <path id="Fill-87" fill="#FFFFFF" d="M45.0794611,8.5544963 C45.0761036,8.61189415 45.0734922,8.66551583 45.0712539,8.7123404 C45.0734922,8.66551583 45.0761036,8.61189415 45.0794611,8.5544963"></path>
                            <path id="Fill-88" fill="#FFFFFF" d="M36.6983627,9.53403601 L36.6983627,9.53403601 C36.7345492,9.5079804 36.7699896,9.48230241 36.8061762,9.45662443 C36.7699896,9.48230241 36.7345492,9.5079804 36.6983627,9.53403601"></path>
                            <path id="Fill-89" fill="#FFFFFF" d="M45.150342,8.04924413 L45.150342,8.04924413 C45.1335544,8.11381671 45.1212435,8.18103262 45.111171,8.24824853 C45.1212435,8.18103262 45.1335544,8.11381671 45.150342,8.04924413"></path>
                            <path d="M39.161658,7.77056244 C39.4347358,7.57759991 39.6992332,7.39521067 39.9525389,7.22868137 C39.6992332,7.39521067 39.4347358,7.57759991 39.161658,7.77056244" id="Fill-90" fill="#FFFFFF"></path>
                            <path id="Fill-91" fill="#FFFFFF" d="M42.9910881,8.28676551 C42.9149845,8.15610987 42.8258238,8.04093654 42.7430052,7.94728741 C42.8258238,8.04093654 42.9149845,8.15610987 42.9910881,8.28676551"></path>
                            <path d="M39.161658,7.77056244 C38.8882073,7.96390258 38.6058031,8.16743839 38.3155648,8.37663847 C38.140228,8.50351794 37.9518342,8.63681691 37.7694093,8.76747255 C37.9518342,8.63681691 38.140228,8.50351794 38.3155648,8.37663847 C38.6058031,8.16743839 38.8882073,7.96390258 39.161658,7.77056244" id="Fill-92" fill="#FFFFFF"></path>
                            <path id="Fill-93" fill="#FFFFFF" d="M43.1753782,8.95930222 L43.1753782,8.95930222 C43.1843316,8.79541624 43.1500104,8.63832737 43.0925596,8.49332227 C43.1500104,8.63832737 43.1843316,8.79541624 43.1753782,8.95930222"></path>
                            <path id="Fill-94" fill="#FFFFFF" d="M44.437057,8.65758587 C44.4542176,8.77955631 44.548601,9.1556633 44.7496788,9.26668284 C44.548601,9.1556633 44.4542176,8.77955631 44.437057,8.65758587"></path>
                            <path d="M44.7507979,7.74186351 C43.8110674,7.03873979 42.8381347,6.44814607 42.2681036,6.31975613 C42.2031917,6.30502905 42.133057,6.29785432 42.0588187,6.29785432 C41.5204974,6.29785432 40.7967668,6.67396131 39.9525389,7.22868137 C39.6992332,7.39521067 39.4347358,7.57759991 39.161658,7.77056244 C38.8882073,7.96390258 38.6058031,8.16743839 38.3155648,8.37663847 C38.140228,8.50351794 37.9518342,8.63681691 37.7694093,8.76747255 C37.5873575,8.89775057 37.4116477,9.02538528 37.2236269,9.15792901 C37.1299896,9.22325683 37.0247876,9.29915794 36.9136166,9.37921284 C36.8785492,9.40451322 36.8419896,9.43094644 36.8061762,9.45662443 C36.7699896,9.48230241 36.7345492,9.5079804 36.6983627,9.53403601 C36.7587979,9.53592409 36.8207254,9.53705695 36.8852642,9.53705695 C38.6729534,9.53705695 41.6603938,8.84186319 42.0894093,7.79472995 L42.218114,7.4801746 L42.2621347,7.51567065 L42.4807461,7.69277324 C42.5090984,7.71543029 42.6187772,7.80719133 42.7430052,7.94728741 C42.8258238,8.04093654 42.9149845,8.15610987 42.9910881,8.28676551 C43.0291399,8.35209334 43.0638342,8.42119733 43.0925596,8.49332227 C43.1500104,8.63832737 43.1843316,8.79541624 43.1753782,8.95930222 C43.239544,8.9351347 43.3238549,8.8917087 43.4111503,8.84337366 C43.4980725,8.79466101 43.5876062,8.74103933 43.6622176,8.69648046 C43.8009948,8.61378224 43.9416373,8.52995116 44.0736995,8.46311287 L44.3893057,8.30338068 L44.437057,8.65758587 C44.4542176,8.77955631 44.548601,9.1556633 44.7496788,9.26668284 C44.7854922,9.28631895 44.8183212,9.29689224 44.8448083,9.29689224 C44.8933057,9.29689224 44.9459067,9.24591388 44.9880622,9.1469781 C45.0305907,9.04841994 45.0630466,8.90228198 45.0712539,8.7123404 C45.0734922,8.66551583 45.0761036,8.61189415 45.0794611,8.5544963 C45.0854301,8.45971431 45.0951295,8.35435904 45.111171,8.24824853 C45.1212435,8.18103262 45.1335544,8.11381671 45.150342,8.04924413 C45.0186528,7.94539932 44.8850984,7.84230975 44.7507979,7.74186351" id="Fill-95" fill="#FFFFFF"></path>
                        </g>
                        <path d="M86.464,16.528 L86.464,30.808 C88.576,31.12 90.448,31.216 92.032,31.216 C96.736,31.216 97.672,28.888 97.672,25.888 L97.672,23.56 C97.672,20.08 95.872,18.568 92.848,18.496 C91.672,18.496 90.736,18.688 90.04,18.904 L90.04,13.936 L84.664,13.936 L84.664,16.528 L86.464,16.528 Z M90.04,21.52 C90.616,21.376 91.216,21.28 92.032,21.28 C93.52,21.28 94.144,21.688 94.144,23.464 L94.144,26.248 C94.144,27.832 93.712,28.432 92.032,28.432 C91.528,28.432 90.736,28.432 90.04,28.336 L90.04,21.52 Z M99.448,26.056 C99.448,29.056 100.432,31.216 104.08,31.216 C104.992,31.216 106.264,30.928 107.464,30.304 L107.68,31 L112.144,31 L112.144,28.408 L110.56,28.408 L110.56,19.288 C108.616,18.736 106.984,18.496 105.184,18.496 C104.344,18.496 103.696,18.592 102.856,18.784 C99.544,19.576 99.448,22.096 99.448,23.56 L99.448,26.056 Z M103.024,23.656 C103.024,22.072 103.288,21.28 105.136,21.28 C105.616,21.28 106.336,21.328 106.984,21.424 L106.984,28.072 C106.384,28.264 105.592,28.408 105.136,28.408 C103.432,28.408 103.048,27.808 103.024,26.224 L103.024,23.656 Z M121.96,31 L126.496,31 L126.496,28.408 L124.84,28.408 L124.84,13.936 L119.464,13.936 L119.464,16.528 L121.264,16.528 L121.264,18.904 C120.568,18.688 119.632,18.496 118.456,18.496 C115.432,18.568 113.632,20.08 113.632,23.56 L113.632,25.888 C113.632,28.888 114.616,31.216 118.264,31.216 C119.176,31.216 120.544,30.928 121.744,30.304 L121.96,31 Z M121.264,28.168 C120.616,28.312 119.776,28.432 119.272,28.432 C117.592,28.432 117.16,27.832 117.16,26.248 L117.16,23.464 C117.16,21.688 117.784,21.28 119.272,21.28 C120.088,21.28 120.688,21.376 121.264,21.52 L121.264,28.168 Z M135.472,30.832 C135.448,31.696 135.208,32.512 134.296,32.824 C133.048,33.28 130.696,33.256 128.512,33.256 L128.512,36.064 L129.544,36.064 C130.96,36.064 133.168,36.064 135.088,35.632 C139.12,34.6 139.144,31.792 139.144,29.392 L139.144,21.304 L140.944,21.304 L140.944,18.712 L136.264,18.712 L136.048,19.408 C134.848,18.784 133.48,18.496 132.568,18.496 C128.92,18.496 127.936,20.824 127.936,23.824 L127.936,26.152 C127.936,29.632 129.736,31.144 132.76,31.216 C133.888,31.216 134.776,31.024 135.472,30.832 L135.472,30.832 Z M135.568,28.192 C134.992,28.336 134.392,28.432 133.576,28.432 C132.088,28.432 131.464,28.024 131.464,26.248 L131.464,23.464 C131.464,21.88 131.896,21.28 133.576,21.28 C134.08,21.28 134.92,21.4 135.568,21.544 L135.568,28.192 Z M143.92,21.304 L143.92,28.408 L142.312,28.408 L142.312,31 L143.92,31 L147.472,31 L149.08,31 L149.08,28.408 L147.496,28.408 L147.496,22.12 C148.744,21.736 150.88,21.664 151.744,21.64 L151.744,18.496 C150.184,18.496 148.672,19.24 147.184,19.768 L146.872,18.712 L142.12,18.712 L142.12,21.304 L143.92,21.304 Z" id="badgr" fill="#FFFFFF"></path>
                    </g>
                </g>
            </g>
        </g>
    </g>
</svg>