<?xml version="1.0" encoding="UTF-8" standalone="no"?>
<svg width="100px" height="71px" viewBox="0 0 100 71" version="1.1" xmlns="http://www.w3.org/2000/svg" xmlns:xlink="http://www.w3.org/1999/xlink">
    <!-- Generator: Sketch 3.6.1 (26313) - http://www.bohemiancoding.com/sketch -->
    <title>noun_8338_cc</title>
    <desc>Created with Sketch.</desc>
    <defs></defs>
    <g id="Page-1" stroke="none" stroke-width="1" fill="none" fill-rule="evenodd">
        <g id="noun_8338_cc" fill="#0096DB">
            <g id="Group">
                <path d="M40.639,58.679 C34.266,52.3 31.315,43.81 31.746,35.464 L47.213,35.464 L23.606,11.857 L0,35.464 L14.714,35.464 C14.674,44.564 18.085,53.681 25.027,60.626 C35.904,71.506 52.097,73.77 65.234,67.5 C56.451,68.343 47.368,65.406 40.639,58.679 L40.639,58.679 Z" id="Shape"></path>
                <path d="M85.286,35.486 C85.326,26.386 81.915,17.269 74.973,10.324 C64.096,-0.556 47.898,-2.82 34.766,3.453 C43.549,2.608 52.632,5.544 59.356,12.271 C65.735,18.65 68.686,27.14 68.254,35.486 L52.781,35.486 L76.387,59.095 L100,35.486 L85.286,35.486 L85.286,35.486 Z" id="Shape"></path>
            </g>
        </g>
    </g>
</svg>