<?xml version="1.0" encoding="utf-8"?>
<svg version="1.1" xmlns="http://www.w3.org/2000/svg"
	 viewBox="0 0 179.5 179.5" style="enable-background:new 0 0 179.5 179.5;" xml:space="preserve">
<style type="text/css">
	.st0{fill:#FFFDFD;}
	.st1{fill:#D22529;}
	.st2{fill:#F79620;}
	.st3{fill:#B22F54;}
	.st4{fill:#F16B24;}
	.st5{fill:#EF433D;}
	.st6{fill:#F15C24;}
	.st7{fill:#EF423D;}
	.st8{fill:#F2613F;}
	.st9{fill:#F79822;}
	.st10{fill:#B33256;}
	.st11{fill:#EF453F;}
	.st12{fill:#F26D25;}
	.st13{fill:#F15D25;}
	.st14{fill:#F26341;}
	.st15{fill:#D2262A;}
</style>
<path class="st0" d="M151.6,127.2c-8.7,0.4-16.5,4.7-21.3,13.6c-4.7,8.9-4.2,17.7,1,26.4c0.8,1.4,1.6,1.8,3.1,0.9
	c13.8-8.7,25-19.9,33.6-33.6c1-1.6,0.5-2.3-0.9-3.1C162.8,128.6,158.1,127.2,151.6,127.2z M52.3,27.1c-0.1-5.8-1.4-10.4-4-14.7
	c-1-1.6-1.7-2-3.5-0.9c-13.6,8.6-24.7,19.6-33.3,33.2c-1.2,1.9-0.7,2.7,1,3.6c8.8,5.1,17.8,5.5,26.6,0.5
	C47.8,44,52,36.3,52.3,27.1z M89.6,179.5c7,0.2,14-0.6,20.9-2.1c5.7-1.2,5.5,0,3.5-6.3c-3.5-11.3-14.5-18.3-26.9-17.5
	c-10.8,0.7-20.6,9.6-23,20.5c-0.4,2.1,0.6,2.4,2.1,2.8C73.9,178.5,81.7,179.7,89.6,179.5z M89.6,0c-8,0.1-15.8,1.2-23.6,2.8
	c-2.2,0.4-2.2,1.4-1.8,3.1c2.8,12,13.3,20.3,25.5,20.3c12.2-0.1,22.6-8.6,25.2-20.6c0.3-1.5,0.2-2.4-1.7-2.7
	C105.5,1.2,97.6,0.1,89.6,0z M179.5,89.4c0.1-7.6-1.1-15.3-2.6-23c-0.4-2.2-1.3-2.6-3.4-2c-12.1,3.1-20.1,13.3-20,25.7
	c0.1,12.1,8.4,22.2,20.4,25c1.9,0.4,2.5-0.2,2.8-1.9C178.4,105.4,179.6,97.6,179.5,89.4z M0,89.5c0.1,8.1,1.2,16.1,2.9,24
	c0.3,1.5,1,1.8,2.4,1.6c11.7-2.1,20.7-12.9,20.8-24.7c0.1-13-8.4-23.7-20.6-26.1c-1.5-0.3-2.2-0.1-2.6,1.6
	C1.2,73.6,0.1,81.5,0,89.5z M52.2,152.8c0-9.7-5.1-18.5-13.9-22.9c-9-4.5-17.8-3.9-26.3,1.4c-1.3,0.8-1.4,1.5-0.6,2.7
	c8.6,13.8,19.7,25,33.5,33.6c1.6,1,2.3,0.9,3.3-0.7C50.8,162.6,52.2,158,52.2,152.8z M127.1,27.2c0.3,9,4.5,16.8,13.2,21.6
	c8.9,4.9,17.8,4.5,26.6-0.7c1.5-0.9,2-1.6,0.9-3.3c-8.7-13.8-19.9-24.9-33.7-33.6c-1.5-0.9-2.1-0.5-2.9,0.8
	C128.5,16.4,127.2,21.1,127.1,27.2z M63.5,55.4c0-4.6-3.7-8.4-8.2-8.3c-4.5,0-8.3,3.9-8.3,8.3c0,4.4,3.7,8.1,8.1,8.1
	C59.8,63.6,63.5,60,63.5,55.4z M81.6,138.3c-0.1,4.7,3.5,8.3,8.1,8.3c4.4,0,8.1-3.7,8.1-8.1c0-4.4-3.6-8.1-8.1-8.2
	C85.2,130.3,81.6,133.8,81.6,138.3z M138.3,81.6c-4.5,0-8,3.5-8,8.1c0,4.4,3.7,8.1,8.1,8.1c4.5,0,8.2-3.7,8.2-8.3
	C146.5,85,142.9,81.6,138.3,81.6z M89.6,49.2c4.7,0,8.2-3.4,8.2-7.9c0-4.5-3.7-8.3-8.2-8.3c-4.5,0-8,3.6-8,8.2
	C81.6,45.9,84.9,49.2,89.6,49.2z M55.3,132.1c4.5,0,8.1-3.5,8.2-8c0-4.6-3.6-8.2-8.2-8.2c-4.5,0-8.1,3.7-8.1,8.1
	C47.2,128.5,50.8,132.1,55.3,132.1z M49.2,89.7c0-4.7-3.2-8.1-7.9-8.2c-4.6,0-8.3,3.6-8.3,8.1c0,4.4,3.7,8.1,8.1,8.1
	C45.7,97.8,49.2,94.4,49.2,89.7z M132.2,55.3c0-4.5-3.6-8.1-8-8.2c-4.5-0.1-8.2,3.7-8.1,8.3c0,4.5,3.6,8.1,8.1,8
	C128.6,63.3,132.1,59.7,132.2,55.3z M132.2,124.2c0-4.5-3.4-8.1-7.9-8.2c-4.6-0.1-8.2,3.5-8.2,8.1c0,4.5,3.6,8.1,8.1,8.1
	C128.5,132.2,132.1,128.7,132.2,124.2z"/>
<path class="st1" d="M151.6,127.2c6.5,0,11.2,1.4,15.5,4.1c1.4,0.8,1.9,1.5,0.9,3.1c-8.7,13.8-19.8,25-33.6,33.6
	c-1.5,1-2.3,0.5-3.1-0.9c-5.1-8.6-5.7-17.5-1-26.4C135.1,131.8,142.9,127.6,151.6,127.2z"/>
<path class="st2" d="M52.3,27.1C52,36.3,47.8,44,39.1,48.9c-8.8,4.9-17.8,4.5-26.6-0.5c-1.6-1-2.2-1.7-1-3.6
	c8.6-13.6,19.7-24.6,33.3-33.2c1.8-1.1,2.5-0.7,3.5,0.9C50.9,16.7,52.2,21.3,52.3,27.1z"/>
<path class="st3" d="M89.6,179.5c-8,0.2-15.7-1-23.4-2.6c-1.5-0.3-2.5-0.7-2.1-2.8c2.3-10.9,12.2-19.9,23-20.5
	c12.5-0.8,23.4,6.1,26.9,17.5c1.9,6.2,2.1,5.1-3.5,6.3C103.6,178.8,96.6,179.7,89.6,179.5z"/>
<path class="st4" d="M89.6,0c8,0.1,15.9,1.2,23.7,2.8c1.9,0.4,2,1.2,1.7,2.7c-2.6,12-13,20.5-25.2,20.6
	c-12.2,0.1-22.7-8.3-25.5-20.3c-0.4-1.7-0.4-2.7,1.8-3.1C73.9,1.2,81.7,0.1,89.6,0z"/>
<path class="st5" d="M179.5,89.4c0.1,8.2-1,16-2.6,23.8c-0.4,1.7-1,2.3-2.8,1.9c-12-2.7-20.3-12.9-20.4-25
	c-0.1-12.4,7.9-22.6,20-25.7c2.1-0.5,3-0.1,3.4,2C178.4,74.1,179.6,81.8,179.5,89.4z"/>
<path class="st6" d="M0,89.5c0.1-8,1.2-15.9,2.9-23.7c0.4-1.7,1.1-1.9,2.6-1.6c12.2,2.4,20.7,13.2,20.6,26.1
	c-0.1,11.8-9.1,22.6-20.8,24.7c-1.4,0.3-2,0-2.4-1.6C1.2,105.6,0.1,97.6,0,89.5z"/>
<path class="st7" d="M52.2,152.8c0,5.1-1.4,9.8-4,14.2c-1,1.6-1.7,1.7-3.3,0.7c-13.8-8.6-24.9-19.8-33.5-33.6
	c-0.8-1.3-0.8-1.9,0.6-2.7c8.5-5.3,17.4-5.9,26.3-1.4C47,134.4,52.1,143.1,52.2,152.8z"/>
<path class="st8" d="M127.1,27.2c0.1-6,1.4-10.8,4.2-15.1c0.8-1.3,1.4-1.7,2.9-0.8c13.8,8.6,25,19.8,33.7,33.6
	c1.1,1.7,0.5,2.4-0.9,3.3c-8.8,5.1-17.7,5.6-26.6,0.7C131.6,44,127.4,36.2,127.1,27.2z"/>
<path class="st9" d="M63.5,55.4c0,4.6-3.7,8.1-8.3,8.1c-4.4,0-8.1-3.7-8.1-8.1c0-4.4,3.8-8.3,8.3-8.3
	C59.8,47.1,63.5,50.9,63.5,55.4z"/>
<path class="st10" d="M81.6,138.3c0.1-4.5,3.7-8,8.2-8c4.4,0.1,8.1,3.7,8.1,8.2c0,4.4-3.7,8.1-8.1,8.1
	C85.1,146.6,81.5,143,81.6,138.3z"/>
<path class="st11" d="M138.3,81.6c4.6,0,8.1,3.5,8.2,7.9c0,4.6-3.6,8.3-8.2,8.3c-4.4,0-8.1-3.7-8.1-8.1
	C130.3,85.1,133.8,81.6,138.3,81.6z"/>
<path class="st12" d="M89.6,49.2c-4.7,0-8-3.3-8-8c0-4.6,3.5-8.1,8-8.2c4.5,0,8.3,3.7,8.2,8.3
	C97.8,45.8,94.3,49.2,89.6,49.2z"/>
<path class="st11" d="M55.3,132.1c-4.5,0-8.1-3.6-8.1-8c0-4.4,3.6-8.1,8.1-8.1c4.7,0,8.3,3.5,8.2,8.2
	C63.4,128.5,59.8,132.1,55.3,132.1z"/>
<path class="st13" d="M49.2,89.7c0,4.7-3.4,8.1-8,8.1c-4.4,0-8.1-3.7-8.1-8.1c0-4.6,3.6-8.2,8.3-8.1
	C45.9,81.6,49.2,85,49.2,89.7z"/>
<path class="st14" d="M132.2,55.3c0,4.5-3.6,8.1-8.1,8.1c-4.5,0.1-8.1-3.5-8.1-8c0-4.6,3.6-8.3,8.1-8.3
	C128.6,47.1,132.2,50.8,132.2,55.3z"/>
<path class="st15" d="M132.2,124.2c0,4.5-3.6,8-8.1,8c-4.5,0-8-3.6-8.1-8.1c0-4.6,3.6-8.2,8.2-8.1
	C128.7,116.1,132.2,119.6,132.2,124.2z"/>
</svg>
