
<svg width="80px" height="82px" viewBox="0 -1 80 82" version="1.1" xmlns="http://www.w3.org/2000/svg" xmlns:xlink="http://www.w3.org/1999/xlink">
    <!-- Generator: Sketch 41 (35326) - http://www.bohemiancoding.com/sketch -->
    <desc>Created with Sketch.</desc>
    <defs>
        <rect id="path-1" x="0" y="-1.42108547e-14" width="80" height="80" rx="6"></rect>
        <mask id="mask-2" maskContentUnits="userSpaceOnUse" maskUnits="objectBoundingBox" x="0" y="0" width="80" height="80" fill="white">
            <use xlink:href="#path-1"></use>
        </mask>
        <polygon id="path-3" points="18 63.9059622 61.770828 63.9059622 61.770828 16.4761323 18 16.4761323"></polygon>
    </defs>
    <use id="Rectangle-159" stroke="#E1E0E5" mask="url(#mask-2)" stroke-width="4" fill="none" xlink:href="#path-1"></use>
    <path d="M53.9123819,26.3947856 L60.8340454,26.3947856 L52.0388166,17.4456892 L52.0388166,24.5212204 C52.0388166,25.5539917 52.8791342,26.3947856 53.9123819,26.3947856 Z" id="Fill-1" stroke="none" fill="#CCCCCC" fill-rule="evenodd"></path>
    <mask id="mask-4" fill="white">
        <use xlink:href="#path-3"></use>
    </mask>
    <g id="Clip-4" stroke="none" fill="none"></g>
    <polygon id="Fill-3" stroke="none" fill="#CCCCCC" fill-rule="evenodd" mask="url(#mask-4)" points="18 49.4609792 48.8054518 49.4609792 48.8054518 36.1226049 18 36.1226049"></polygon>
    <path d="M53.9123819,28.3002677 C51.8282609,28.3002677 50.1333346,26.604865 50.1333346,24.5212204 L50.1333346,16.4762752 L26.2504991,16.4762752 C24.9347637,16.4762752 23.8686465,17.5428688 23.8686465,18.8581278 L23.8686465,34.2172658 L49.2815841,34.2172658 C50.0709301,34.2172658 50.7106957,34.8575078 50.7106957,35.6463773 L50.7106957,49.9374926 C50.7106957,50.7268386 50.0709301,51.3666042 49.2815841,51.3666042 L23.8686465,51.3666042 L23.8686465,61.5242526 C23.8686465,62.8395115 24.9347637,63.9061051 26.2504991,63.9061051 L59.3887372,63.9061051 C60.7039962,63.9061051 61.7705898,62.8395115 61.7705898,61.5242526 L61.7705898,28.3002677 L53.9123819,28.3002677 Z" id="Fill-5" stroke="none" fill="#CCCCCC" fill-rule="evenodd" mask="url(#mask-4)"></path>
    <path d="M25.5108862,40.3998405 C24.8596877,40.3998405 24.3552113,40.6446949 23.9979335,41.1339274 C23.6406556,41.6231599 23.4620166,42.3053225 23.4620166,43.1799388 C23.4620166,44.9996741 24.1451319,45.9095418 25.5108862,45.9095418 C26.0839599,45.9095418 26.7780318,45.7666306 27.5931017,45.4798556 L27.5931017,46.9313565 C26.9233248,47.2105096 26.1754231,47.3500862 25.3489202,47.3500862 C24.1618049,47.3500862 23.2538427,46.9899501 22.6245573,46.2696779 C21.9957482,45.549882 21.6813437,44.516158 21.6813437,43.1685059 C21.6813437,42.32009 21.8356877,41.576952 22.1448522,40.9386155 C22.4535403,40.300279 22.8975176,39.8110465 23.4763078,39.4704416 C24.0546216,39.1298367 24.7329732,38.9597724 25.5108862,38.9597724 C26.3035667,38.9597724 27.1000582,39.1512733 27.9003607,39.5347516 L27.3420544,40.9414737 C27.0367009,40.7961807 26.7299183,40.6694662 26.4207539,40.5618064 C26.1120658,40.4536703 25.8086178,40.3998405 25.5108862,40.3998405" id="Fill-6" stroke="none" fill="#FFFFFF" fill-rule="evenodd" mask="url(#mask-4)"></path>
    <path d="M34.8329331,44.9718541 C34.8329331,45.7087992 34.5675947,46.2894949 34.0373943,46.7134647 C33.507194,47.1379108 32.769296,47.3498957 31.8241769,47.3498957 C30.9528953,47.3498957 30.1826042,47.1860242 29.5128272,46.8587577 L29.5128272,45.2510072 C30.0635115,45.4968144 30.5298783,45.6697369 30.911451,45.770251 C31.2925474,45.8707652 31.641727,45.9207841 31.9580371,45.9207841 C32.3377043,45.9207841 32.6287667,45.8483758 32.8317006,45.7030828 C33.0346344,45.5577898 33.135625,45.341994 33.135625,45.0556953 C33.135625,44.8956348 33.0913225,44.7532 33.0017648,44.6283909 C32.9126836,44.5040582 32.7812053,44.3840129 32.6082828,44.2682548 C32.4353603,44.1529732 32.0828461,43.9690941 31.5502639,43.715665 C31.0519803,43.4812907 30.6775531,43.2559675 30.4284113,43.0401716 C30.1787932,42.8243758 29.9796703,42.5733285 29.8310427,42.2865535 C29.6819388,42.0002548 29.607625,41.6653664 29.607625,41.2818881 C29.607625,40.5597104 29.8524794,39.9923531 30.3417119,39.5793399 C30.8314208,39.1658503 31.5078669,38.9595819 32.3710503,38.9595819 C32.7954964,38.9595819 33.199935,39.0096008 33.5853187,39.1101149 C33.9702261,39.2106291 34.3732355,39.3521112 34.7938707,39.5345611 L34.2355645,40.8798314 C33.8001618,40.7011924 33.4400257,40.5763834 33.1556325,40.5058805 C32.8707629,40.4353777 32.5906571,40.3996499 32.3153149,40.3996499 C31.987572,40.3996499 31.7365248,40.4758692 31.5616968,40.6287841 C31.3868688,40.7812227 31.2992166,40.9803456 31.2992166,41.2261527 C31.2992166,41.3785913 31.3344681,41.5114987 31.4054473,41.6253512 C31.4759501,41.7387274 31.5883735,41.8482926 31.743194,41.9545233 C31.897538,42.0607539 32.2629142,42.2513021 32.8397989,42.5266442 C33.6029444,42.891544 34.1259992,43.2569202 34.408487,43.6237255 C34.691451,43.9900544 34.8329331,44.4397482 34.8329331,44.9718541" id="Fill-7" stroke="none" fill="#FFFFFF" fill-rule="evenodd" mask="url(#mask-4)"></path>
    <path d="M41.6539871,39.076769 L43.4013142,39.076769 L40.6269323,47.238425 L38.7400287,47.238425 L35.970887,39.076769 L37.718214,39.076769 L39.2535561,43.9333664 C39.3393028,44.2201414 39.4274314,44.5540771 39.5188945,44.9356499 C39.6098813,45.3172227 39.6665694,45.5820847 39.6889588,45.7311887 C39.7299267,45.3886783 39.8695032,44.7894042 40.1076885,43.9333664 L41.6539871,39.076769 Z" id="Fill-8" stroke="none" fill="#FFFFFF" fill-rule="evenodd" mask="url(#mask-4)"></path>
</svg>