<?xml version="1.0" encoding="UTF-8" standalone="no"?>
<svg width="736px" height="343px" viewBox="0 0 736 343" version="1.1" xmlns="http://www.w3.org/2000/svg" xmlns:xlink="http://www.w3.org/1999/xlink">
    <!-- Generator: Sketch 3.8.3 (29802) - http://www.bohemiancoding.com/sketch -->
    <title>Collections illustration</title>
    <desc>Created with Sketch.</desc>
    <defs>
        <polygon id="path-1" points="0 342.261258 735.351101 342.261258 735.351101 0 0 0"></polygon>
    </defs>
    <g id="Collections" stroke="none" stroke-width="1" fill="none" fill-rule="evenodd">
        <g id="HD---Collection-Overview---Empty" transform="translate(-353.000000, -280.000000)">
            <g id="Place-Holder-Image" transform="translate(353.000000, 232.000000)">
                <g id="Collections-illustration" transform="translate(0.000000, 48.000000)">
                    <path d="M443.347129,103.419981 L443.347129,57.9885834 L534.782064,57.9885834 L534.782064,103.419981 C534.782064,128.667388 514.313425,149.133345 489.064052,149.133345 C463.815768,149.133345 443.347129,128.667388 443.347129,103.419981 L443.347129,103.419981 Z" id="Fill-1" fill="#E6E6E6"></path>
                    <path d="M478.176805,134.924099 C454.769609,134.924099 435.726154,115.882126 435.726154,92.475664 L435.726154,50.3102842 L520.627456,50.3102842 L520.627456,92.475664 C520.627456,115.882126 501.584,134.924099 478.176805,134.924099" id="Fill-3" fill="#FFFFFF"></path>
                    <path d="M523.893946,47.044484 L432.460099,47.044484 L432.460099,92.4758817 C432.460099,117.723289 452.92765,138.190334 478.177022,138.190334 C503.425307,138.190334 523.893946,117.723289 523.893946,92.4758817 L523.893946,47.044484 Z M517.361401,53.5765198 L517.361401,92.4758817 C517.361401,114.08059 499.783413,131.658299 478.177022,131.658299 C456.570632,131.658299 438.992644,114.08059 438.992644,92.4758817 L438.992644,53.5765198 L517.361401,53.5765198 L517.361401,53.5765198 Z" id="Fill-5" fill="#C2132B"></path>
                    <path d="M299.253898,104.780278 C299.253898,109.654265 292.825875,113.452644 291.397425,117.850881 C289.917804,122.409154 292.833496,129.251461 290.072407,133.045485 C287.283011,136.877613 279.855508,136.204813 276.02417,138.993992 C272.228762,141.754866 270.589093,149.041352 266.030466,150.520858 C261.631886,151.949197 256.042206,147.065411 251.167839,147.065411 C246.293472,147.065411 240.703792,151.949197 236.305212,150.520858 C231.746585,149.041352 230.105827,141.754866 226.311508,138.993992 C222.479082,136.204813 215.052667,136.877613 212.263271,133.045485 C209.502182,129.251461 212.417875,122.409154 210.938253,117.85197 C209.509804,113.453732 203.08178,109.654265 203.08178,104.780278 C203.08178,99.9062902 209.509804,96.1079114 210.937164,91.7096739 C212.417875,87.1514016 209.502182,80.3090941 212.263271,76.51507 C215.052667,72.6829423 222.479082,73.355742 226.311508,70.5665627 C230.105827,67.8056889 231.746585,60.5192029 236.305212,59.0396968 C240.703792,57.6113583 246.293472,62.4951438 251.167839,62.4951438 C256.042206,62.4951438 261.631886,57.6113583 266.030466,59.0396968 C270.589093,60.5192029 272.228762,67.8056889 276.02417,70.5665627 C279.855508,73.355742 287.283011,72.6829423 290.072407,76.51507 C292.833496,80.3090941 289.917804,87.1514016 291.397425,91.7085853 C292.825875,96.1068227 299.253898,99.9062902 299.253898,104.780278" id="Fill-7" fill="#E6E6E6"></path>
                    <path d="M310.18143,89.578815 C310.18143,94.4528024 303.753406,98.2511812 302.324956,102.649419 C300.845335,107.207691 303.761027,114.049998 300.999938,117.844023 C298.210542,121.67615 290.783039,121.003351 286.951702,123.79253 C283.156293,126.553404 281.516625,133.83989 276.957998,135.319396 C272.559418,136.747734 266.969737,131.863949 262.09537,131.863949 C257.221004,131.863949 251.631323,136.747734 247.232743,135.319396 C242.674116,133.83989 241.033359,126.553404 237.239039,123.79253 C233.406613,121.003351 225.980199,121.67615 223.190802,117.844023 C220.429714,114.049998 223.345406,107.207691 221.865785,102.650507 C220.437335,98.2522699 214.009311,94.4528024 214.009311,89.578815 C214.009311,84.7048276 220.437335,80.9064488 221.864696,76.5082113 C223.345406,71.949939 220.429714,65.1076315 223.190802,61.3136073 C225.980199,57.4814797 233.406613,58.1542794 237.239039,55.3651001 C241.033359,52.6042263 242.674116,45.3177403 247.232743,43.8382342 C251.631323,42.4098957 257.221004,47.2936812 262.09537,47.2936812 C266.969737,47.2936812 272.559418,42.4098957 276.957998,43.8382342 C281.516625,45.3177403 283.156293,52.6042263 286.951702,55.3651001 C290.783039,58.1542794 298.210542,57.4814797 300.999938,61.3136073 C303.761027,65.1076315 300.845335,71.949939 302.324956,76.5071226 C303.753406,80.9053601 310.18143,84.7048276 310.18143,89.578815" id="Fill-9" fill="#FFFFFF"></path>
                    <path d="M248.979546,46.8410111 C248.708445,46.8410111 248.460208,46.8736712 248.241368,46.944435 C246.805297,47.4103869 245.457415,49.6323677 244.151995,51.7814075 C242.764918,54.0654427 241.331025,56.4278623 239.160043,58.0064376 C236.965108,59.604609 234.254102,60.2491032 231.631285,60.8729127 C229.205534,61.4488205 226.697037,62.0454131 225.831475,63.2353323 C224.986599,64.3958573 225.188019,66.947706 225.383995,69.4146382 C225.597392,72.115635 225.819498,74.9069916 224.971356,77.5165399 C224.155877,80.027019 222.372492,82.0965857 220.646812,84.097566 C218.988634,86.0190732 217.27493,88.0069894 217.27493,89.5790327 C217.27493,91.1499873 218.988634,93.1379036 220.646812,95.0604994 C222.372492,97.0614797 224.155877,99.1310464 224.971356,101.641526 C225.819498,104.249985 225.597392,107.043519 225.383995,109.743427 C225.188019,112.210359 224.986599,114.761119 225.831475,115.922733 C226.697037,117.110475 229.205534,117.708156 231.631285,118.285153 C234.254102,118.907874 236.965108,119.553456 239.161131,121.151628 C241.331025,122.730203 242.764918,125.091534 244.151995,127.376658 C245.457415,129.525698 246.805297,131.74659 248.241368,132.212542 C249.551143,132.637124 251.886528,131.671471 254.142433,130.735213 C256.675972,129.684644 259.295522,128.59706 262.095806,128.59706 C264.895001,128.59706 267.514551,129.684644 270.04809,130.735213 C272.303995,131.671471 274.637202,132.638213 275.949155,132.212542 C277.385226,131.74659 278.733108,129.525698 280.037439,127.376658 C281.425605,125.091534 282.859498,122.730203 285.029392,121.151628 C287.225415,119.553456 289.936421,118.907874 292.558149,118.285153 C294.984989,117.708156 297.493486,117.111564 298.359049,115.922733 C299.203924,114.761119 299.001415,112.209271 298.806528,109.742339 C298.592043,107.04243 298.371025,104.249985 299.219167,101.641526 C300.034646,99.1299577 301.818031,97.0614797 303.543711,95.0604994 C305.201889,93.1379036 306.915593,91.1499873 306.915593,89.5790327 C306.915593,88.0069894 305.201889,86.0190732 303.543711,84.0964773 C301.818031,82.095497 300.034646,80.027019 299.219167,77.5154512 C298.371025,74.9069916 298.592043,72.1145463 298.806528,69.4146382 C299.001415,66.947706 299.203924,64.3958573 298.359049,63.2353323 C297.493486,62.0454131 294.984989,61.4488205 292.558149,60.8729127 C289.936421,60.2491032 287.225415,59.604609 285.029392,58.0064376 C282.859498,56.4278623 281.425605,54.0654427 280.037439,51.7814075 C278.733108,49.6323677 277.385226,47.4103869 275.949155,46.944435 C274.635025,46.5176753 272.302907,47.4855053 270.04809,48.4228524 C267.513463,49.4734215 264.895001,50.5599168 262.095806,50.5599168 C259.296611,50.5599168 256.675972,49.4734215 254.142433,48.4228524 C252.264327,47.6422741 250.331782,46.8410111 248.979546,46.8410111 M248.95777,138.846913 C248.049747,138.846913 247.137368,138.721715 246.223901,138.425597 C242.480753,137.210638 240.402315,133.786762 238.567759,130.766785 C237.516019,129.033618 236.427262,127.240574 235.317818,126.432779 C234.178978,125.605388 232.115782,125.114396 230.12009,124.639735 C226.705747,123.827585 222.836303,122.907657 220.549912,119.765748 C218.284208,116.652144 218.596682,112.707883 218.872137,109.228485 C219.035451,107.16545 219.204208,105.031652 218.757818,103.659925 C218.349534,102.399242 217.001652,100.836996 215.699498,99.3259188 C213.37609,96.631454 210.742386,93.5777273 210.742386,89.5790327 C210.742386,85.5792495 213.37609,82.5255227 215.699498,79.8310579 C217.002741,78.321069 218.349534,76.7588238 218.757818,75.4992295 C219.20312,74.1264133 219.035451,71.9937036 218.872137,69.9295803 C218.596682,66.4501826 218.284208,62.5048329 220.549912,59.3912292 C222.836303,56.2504087 226.705747,55.3293916 230.121179,54.5172418 C232.116871,54.0425806 234.178978,53.5526779 235.317818,52.724198 C236.427262,51.9174916 237.516019,50.1244477 238.567759,48.3912809 C240.402315,45.3702143 242.480753,41.9463389 246.223901,40.7313802 C249.829865,39.5610572 253.449983,41.0623367 256.646575,42.3894287 C258.58783,43.1950464 260.597676,44.027881 262.095806,44.027881 C263.593936,44.027881 265.602693,43.1950464 267.543948,42.3894287 C270.738362,41.0634254 274.361747,39.5643232 277.966622,40.7313802 C281.70977,41.9463389 283.788208,45.3702143 285.621676,48.3912809 C286.674504,50.1244477 287.763262,51.9174916 288.872705,52.724198 C290.011546,53.5526779 292.073652,54.0425806 294.069344,54.5172418 C297.484776,55.3293916 301.35422,56.2504087 303.640611,59.3912292 C305.906315,62.5048329 305.593841,66.4501826 305.318386,69.9295803 C305.155072,71.9937036 304.986315,74.1264133 305.432705,75.4992295 C305.840989,76.7577351 307.187782,78.321069 308.491025,79.8310579 C310.814433,82.5255227 313.448137,85.5792495 313.448137,89.5790327 C313.448137,93.5777273 310.814433,96.631454 308.491025,99.3259188 C307.188871,100.836996 305.840989,102.399242 305.432705,103.657747 C304.986315,105.030563 305.155072,107.164362 305.318386,109.227396 C305.593841,112.706794 305.906315,116.652144 303.640611,119.765748 C301.35422,122.907657 297.484776,123.827585 294.070433,124.639735 C292.074741,125.114396 290.011546,125.605388 288.873794,126.432779 C287.763262,127.240574 286.674504,129.033618 285.621676,130.766785 C283.788208,133.786762 281.70977,137.210638 277.966622,138.425597 C274.359569,139.597008 270.738362,138.093551 267.543948,136.768637 C265.602693,135.963019 263.593936,135.129096 262.095806,135.129096 C260.597676,135.129096 258.588918,135.963019 256.646575,136.768637 C254.260019,137.75824 251.635025,138.846913 248.95777,138.846913" id="Fill-11" fill="#C2132B"></path>
                    <path d="M139.905325,107.338441 C139.905325,158.745562 108.58613,200.419951 69.9526627,200.419951 C31.3191953,200.419951 0,158.745562 0,107.338441 C0,55.9313187 31.3191953,14.2569302 69.9526627,14.2569302 C108.58613,14.2569302 139.905325,55.9313187 139.905325,107.338441" id="Fill-13" fill="#E6E6E6"></path>
                    <path d="M149.055569,94.7145193 C149.055569,146.121641 117.736374,187.79603 79.1029065,187.79603 C40.4694391,187.79603 9.15024379,146.121641 9.15024379,94.7145193 C9.15024379,43.3073974 40.4694391,1.63300895 79.1029065,1.63300895 C117.736374,1.63300895 149.055569,43.3073974 149.055569,94.7145193" id="Fill-15" fill="#FFFFFF"></path>
                    <path d="M79.102471,3.26601791 C41.4303763,3.26601791 10.7829444,44.2893801 10.7829444,94.7145193 C10.7829444,145.139658 41.4303763,186.163021 79.102471,186.163021 C116.774566,186.163021 147.421998,145.139658 147.421998,94.7145193 C147.421998,44.2893801 116.774566,3.26601791 79.102471,3.26601791 M79.102471,189.429039 C39.6295716,189.429039 7.51667219,146.940323 7.51667219,94.7145193 C7.51667219,42.4887156 39.6295716,0 79.102471,0 C118.57537,0 150.68827,42.4887156 150.68827,94.7145193 C150.68827,146.940323 118.57537,189.429039 79.102471,189.429039" id="Fill-17" fill="#E7A1AA"></path>
                    <path d="M132.656161,94.3391449 C132.656161,135.854587 108.875522,169.509813 79.5411314,169.509813 C50.2067408,169.509813 26.4261018,135.854587 26.4261018,94.3391449 C26.4261018,52.8237027 50.2067408,19.1684768 79.5411314,19.1684768 C108.875522,19.1684768 132.656161,52.8237027 132.656161,94.3391449" id="Fill-19" fill="#FFFFFF"></path>
                    <path d="M79.540587,20.8017035 C51.1534154,20.8017035 28.0586935,53.7906617 28.0586935,94.3393627 C28.0586935,134.888064 51.1534154,167.877022 79.540587,167.877022 C107.927759,167.877022 131.02248,134.888064 131.02248,94.3393627 C131.02248,53.7906617 107.927759,20.8017035 79.540587,20.8017035 M79.540587,171.14304 C49.3515219,171.14304 24.7924213,136.688728 24.7924213,94.3393627 C24.7924213,51.9889085 49.3515219,17.5356856 79.540587,17.5356856 C109.729652,17.5356856 134.288753,51.9889085 134.288753,94.3393627 C134.288753,136.688728 109.729652,171.14304 79.540587,171.14304" id="Fill-21" fill="#E7A1AA"></path>
                    <polygon id="Fill-23" fill="#F2F2F2" points="73.3561183 121.250915 44.0652781 104.340563 44.0652781 70.5209473 73.3561183 53.6105953 102.646959 70.5209473 102.646959 104.340563"></polygon>
                    <path d="M49.1752521,130.289946 L109.497856,130.289946" id="Fill-25" fill="#FFFFFF"></path>
                    <mask id="mask-2" fill="white">
                        <use xlink:href="#path-1"></use>
                    </mask>
                    <g id="Clip-28"></g>
                    <polygon id="Fill-27" fill="#E7A1AA" mask="url(#mask-2)" points="49.1759053 131.923173 109.49742 131.923173 109.49742 128.657155 49.1759053 128.657155"></polygon>
                    <path d="M67.6841278,141.176672 L94.2552521,141.176672" id="Fill-29" fill="#FFFFFF" mask="url(#mask-2)"></path>
                    <polygon id="Fill-30" fill="#E7A1AA" mask="url(#mask-2)" points="67.6847811 142.809899 94.2548166 142.809899 94.2548166 139.543881 67.6847811 139.543881"></polygon>
                    <polygon id="Fill-31" fill="#FFFFFF" mask="url(#mask-2)" points="79.3363361 113.959856 52.8512237 98.6705379 52.8512237 68.0908122 79.3363361 52.8004051 105.821449 68.0908122 105.821449 98.6705379"></polygon>
                    <path d="M54.4842509,97.7269853 L79.3362272,112.074602 L104.187115,97.7269853 L104.187115,69.0339293 L79.3362272,54.6863127 L54.4842509,69.0339293 L54.4842509,97.7269853 Z M79.3362272,115.845764 L51.2179787,99.6125663 L51.2179787,67.1472597 L79.3362272,50.9151507 L107.453387,67.1472597 L107.453387,99.6125663 L79.3362272,115.845764 Z" id="Fill-32" fill="#E7A1AA" mask="url(#mask-2)"></path>
                    <polygon id="Fill-33" fill="#E7A1AA" mask="url(#mask-2)" points="94.9252734 90.393251 83.9799953 76.2067579 76.9618651 86.1898859 72.4554982 79.7786928 64.0002083 90.4226451 80.9096994 90.4226451 80.889013 90.393251"></polygon>
                    <path d="M75.293671,72.7810317 C75.293671,74.3704937 74.0045822,75.6583935 72.4160852,75.6583935 C70.8264994,75.6583935 69.5374107,74.3704937 69.5374107,72.7810317 C69.5374107,71.1915696 70.8264994,69.9036699 72.4160852,69.9036699 C74.0045822,69.9036699 75.293671,71.1915696 75.293671,72.7810317" id="Fill-34" fill="#E7A1AA" mask="url(#mask-2)"></path>
                    <path d="M722.286338,195.235256 L620.669344,195.235256 C613.483546,195.235256 607.604256,189.356424 607.604256,182.171185 L607.604256,76.2074111 C607.604256,69.0221717 613.483546,63.1433394 620.669344,63.1433394 L722.286338,63.1433394 C729.472137,63.1433394 735.351427,69.0221717 735.351427,76.2074111 L735.351427,182.171185 C735.351427,189.356424 729.472137,195.235256 722.286338,195.235256" id="Fill-35" fill="#E6E6E6" mask="url(#mask-2)"></path>
                    <path d="M711.827953,57.4524121 L675.947953,21.5752054 C676.170059,20.8523268 676.290911,20.0848126 676.290911,19.2889929 C676.290911,15.0094208 672.82213,11.5398211 668.542225,11.5398211 C664.26232,11.5398211 660.79245,15.0094208 660.79245,19.2889929 C660.79245,19.7897823 660.84471,20.2775076 660.935077,20.7521689 L624.231976,57.4524121 L626.541231,59.7614868 L662.359172,23.9463344 C663.773467,25.81994 666.013041,27.037076 668.542225,27.037076 C670.809018,27.037076 672.842817,26.0572707 674.260379,24.5059122 L709.518698,59.7614868 L711.827953,57.4524121 Z" id="Fill-36" fill="#F2F2F2" mask="url(#mask-2)"></path>
                    <path d="M167.019631,170.377267 C164.318424,170.377267 162.120222,172.575297 162.120222,175.276294 L162.120222,230.829082 C162.120222,233.531167 164.318424,235.728108 167.019631,235.728108 L185.528507,235.728108 C188.229714,235.728108 190.427915,233.531167 190.427915,230.829082 L190.427915,175.276294 C190.427915,172.575297 188.229714,170.377267 185.528507,170.377267 L167.019631,170.377267 Z M185.528507,238.994126 L167.019631,238.994126 C162.51653,238.994126 158.85395,235.331832 158.85395,230.829082 L158.85395,175.276294 C158.85395,170.773544 162.51653,167.11125 167.019631,167.11125 L185.528507,167.11125 C190.031607,167.11125 193.694187,170.773544 193.694187,175.276294 L193.694187,230.829082 C193.694187,235.331832 190.031607,238.994126 185.528507,238.994126 L185.528507,238.994126 Z" id="Fill-37" fill="#CCCCCC" mask="url(#mask-2)"></path>
                    <path d="M553.528615,170.377267 C550.827408,170.377267 548.629207,172.575297 548.629207,175.276294 L548.629207,230.829082 C548.629207,233.531167 550.827408,235.728108 553.528615,235.728108 L572.037491,235.728108 C574.738698,235.728108 576.936899,233.531167 576.936899,230.829082 L576.936899,175.276294 C576.936899,172.575297 574.738698,170.377267 572.037491,170.377267 L553.528615,170.377267 Z M572.037491,238.994126 L553.528615,238.994126 C549.025515,238.994126 545.362935,235.331832 545.362935,230.829082 L545.362935,175.276294 C545.362935,170.773544 549.025515,167.11125 553.528615,167.11125 L572.037491,167.11125 C576.540592,167.11125 580.203172,170.773544 580.203172,175.276294 L580.203172,230.829082 C580.203172,235.331832 576.540592,238.994126 572.037491,238.994126 L572.037491,238.994126 Z" id="Fill-38" fill="#CCCCCC" mask="url(#mask-2)"></path>
                    <path d="M421.553472,192.301066 C419.580644,192.301066 415.814632,192.943383 415.814632,192.943383 L364.384999,205.708069 L364.384999,236.251869 L421.553472,236.272554 C435.80204,236.272554 447.351579,232.344623 447.351579,218.097164 C447.351579,203.850794 435.80204,192.301066 421.553472,192.301066" id="Fill-39" fill="#FFFFFF" mask="url(#mask-2)"></path>
                    <path d="M366.018788,234.619513 L421.555214,234.640198 C438.04009,234.640198 445.719096,229.382998 445.719096,218.096728 C445.719096,204.773553 434.878338,193.933639 421.554125,193.933639 C420.076682,193.933639 417.209983,194.363665 416.148445,194.543296 L366.018788,206.983558 L366.018788,234.619513 Z M421.554125,237.906216 L362.752516,237.883354 L362.752516,204.430621 L415.538741,191.333889 C415.698788,191.306672 419.465889,190.667621 421.554125,190.667621 C436.679143,190.667621 448.985368,202.972888 448.985368,218.096728 C448.985368,231.240273 439.75706,237.906216 421.554125,237.906216 L421.554125,237.906216 Z" id="Fill-40" fill="#CCCCCC" mask="url(#mask-2)"></path>
                    <path d="M376.172975,221.544881 L334.195934,221.544881 C330.149022,221.544881 326.838111,224.855535 326.838111,228.902131 L326.838111,228.902131 C326.838111,232.948727 330.149022,236.260469 334.195934,236.260469 L376.172975,236.260469 C380.219886,236.260469 383.530798,232.948727 383.530798,228.902131 L383.530798,228.902131 C383.530798,224.855535 380.219886,221.544881 376.172975,221.544881" id="Fill-41" fill="#FFFFFF" mask="url(#mask-2)"></path>
                    <path d="M334.196043,223.17789 C331.039735,223.17789 328.471356,225.74498 328.471356,228.902131 C328.471356,232.058193 331.039735,234.62746 334.196043,234.62746 L376.173084,234.62746 C379.329392,234.62746 381.89777,232.058193 381.89777,228.902131 C381.89777,225.74498 379.329392,223.17789 376.173084,223.17789 L334.196043,223.17789 Z M376.173084,237.893478 L334.196043,237.893478 C329.237841,237.893478 325.205084,233.859946 325.205084,228.902131 C325.205084,223.944316 329.237841,219.911872 334.196043,219.911872 L376.173084,219.911872 C381.130196,219.911872 385.164043,223.944316 385.164043,228.902131 C385.164043,233.859946 381.130196,237.893478 376.173084,237.893478 L376.173084,237.893478 Z" id="Fill-42" fill="#CCCCCC" mask="url(#mask-2)"></path>
                    <path d="M505.66684,229.865062 C494.23271,229.865062 485.648947,221.237331 477.779408,213.330302 C466.846107,202.344506 457.405491,192.85237 442.089941,203.710791 L440.202036,201.04572 C457.771314,188.591305 469.120521,199.997328 480.094107,211.025582 C491.772118,222.761473 502.804497,233.84416 521.930698,220.56562 L523.793562,223.249198 C516.984473,227.977304 511.012639,229.865062 505.66684,229.865062" id="Fill-43" fill="#CCCCCC" mask="url(#mask-2)"></path>
                    <path d="M398.916355,221.544881 L387.314556,221.544881 L379.065041,221.544881 C375.01813,221.544881 371.707219,224.855535 371.707219,228.902131 L371.707219,228.902131 C371.707219,232.948727 375.01813,236.260469 379.065041,236.260469 L398.916355,236.260469 C402.963266,236.260469 406.274178,232.948727 406.274178,228.902131 L406.274178,228.902131 C406.274178,224.855535 402.963266,221.544881 398.916355,221.544881" id="Fill-44" fill="#FFFFFF" mask="url(#mask-2)"></path>
                    <path d="M379.064824,223.17789 C375.908516,223.17789 373.340137,225.74498 373.340137,228.902131 C373.340137,232.058193 375.908516,234.62746 379.064824,234.62746 L398.916137,234.62746 C402.073534,234.62746 404.640824,232.058193 404.640824,228.902131 C404.640824,225.74498 402.073534,223.17789 398.916137,223.17789 L379.064824,223.17789 Z M398.916137,237.893478 L379.064824,237.893478 C374.106622,237.893478 370.073865,233.859946 370.073865,228.902131 C370.073865,223.944316 374.106622,219.911872 379.064824,219.911872 L398.916137,219.911872 C403.874338,219.911872 407.907096,223.944316 407.907096,228.902131 C407.907096,233.859946 403.874338,237.893478 398.916137,237.893478 L398.916137,237.893478 Z" id="Fill-45" fill="#CCCCCC" mask="url(#mask-2)"></path>
                    <path d="M378.636507,202.170428 L379.975678,182.651616 L369.369004,191.435027 C365.966637,189.385056 361.993761,188.183162 357.731276,188.183162 C353.204222,188.183162 348.997264,189.527672 345.46098,191.81824 L334.391583,182.651616 L335.730755,202.170428 C335.730755,202.170428 335.119962,207.657338 335.119962,210.792715 C335.119962,223.27979 352.916791,229.047578 357.731276,229.047578 C362.545761,229.047578 380.342589,223.27979 380.342589,210.792715 C380.342589,207.737899 378.636507,202.170428 378.636507,202.170428" id="Fill-46" fill="#FFFFFF" mask="url(#mask-2)"></path>
                    <path d="M336.282102,186.337317 L337.370859,202.205809 L337.354528,202.351692 C337.347995,202.406125 336.753534,207.785257 336.753534,210.793259 C336.753534,222.068642 353.579191,227.414024 357.730622,227.414024 C361.883143,227.414024 378.709889,222.068642 378.709889,210.793259 C378.709889,208.491805 377.529676,204.134937 377.074575,202.648899 L376.986386,202.360401 L378.086031,186.337317 L369.51751,193.432197 L368.525652,192.833427 C365.25067,190.859663 361.518409,189.815626 357.730622,189.815626 C353.691333,189.815626 349.755475,190.982683 346.348753,193.189423 L345.342741,193.841538 L336.282102,186.337317 Z M357.730622,230.680042 C354.781179,230.680042 348.89209,229.042679 343.785818,226.006371 C337.047498,222.001144 333.487262,216.740678 333.487262,210.793259 C333.487262,207.857109 333.991356,203.056063 334.091522,202.138312 L332.500847,178.967003 L345.604043,189.815626 C349.293841,187.675296 353.461605,186.549608 357.730622,186.549608 C361.725273,186.549608 365.664398,187.551187 369.196327,189.457453 L381.866196,178.967003 L380.286409,201.986986 C380.648966,203.216098 381.976161,207.914809 381.976161,210.793259 C381.976161,216.740678 378.413747,222.001144 371.676516,226.006371 C366.569155,229.042679 360.680066,230.680042 357.730622,230.680042 L357.730622,230.680042 Z" id="Fill-47" fill="#CCCCCC" mask="url(#mask-2)"></path>
                    <path d="M566.049217,168.744258 L562.782944,168.744258 C562.782944,115.786867 570.387915,88.0170052 570.465217,87.7426597 L573.609548,88.6223072 C573.534424,88.8933867 566.049217,116.295277 566.049217,168.744258" id="Fill-48" fill="#CCCCCC" mask="url(#mask-2)"></path>
                    <path d="M566.591527,144.804565 L563.325254,144.731624 C563.846769,121.658296 549.136568,102.997358 548.987408,102.811195 L551.536189,100.768846 C552.174201,101.563577 567.139172,120.513012 566.591527,144.804565" id="Fill-49" fill="#CCCCCC" mask="url(#mask-2)"></path>
                    <path d="M176.274069,168.744258 L173.007796,168.744258 C173.007796,141.671147 164.547063,123.908365 164.461051,123.732 L167.400696,122.308016 C167.763252,123.054845 176.274069,140.927584 176.274069,168.744258" id="Fill-50" fill="#CCCCCC" mask="url(#mask-2)"></path>
                    <path d="M174.114627,168.984529 C168.151503,128.875651 178.383645,80.1640829 178.488166,79.6763576 L181.681491,80.3578666 C181.578059,80.8401486 171.470036,128.988873 177.34497,168.504424 L174.114627,168.984529 Z" id="Fill-51" fill="#CCCCCC" mask="url(#mask-2)"></path>
                    <polygon id="Fill-52" fill="#FFFFFF" mask="url(#mask-2)" points="221.652388 234.15465 199.979583 226.835504 195.481927 204.408847 212.657075 189.300249 234.329879 196.619395 238.827536 219.046051"></polygon>
                    <path d="M201.396383,225.59126 L221.281449,232.306193 L237.041212,218.443035 L232.913733,197.864945 L213.028667,191.148924 L197.268904,205.012081 L201.396383,225.59126 Z M222.022892,236.003325 L198.563437,228.081054 L193.696691,203.805832 L212.286135,187.451791 L235.746679,195.372973 L240.614514,219.650373 L222.022892,236.003325 Z" id="Fill-53" fill="#E7A1AA" mask="url(#mask-2)"></path>
                    <polygon id="Fill-54" fill="#FFFFFF" mask="url(#mask-2)" points="219.813477 224.984434 207.002069 220.658049 204.344412 207.401282 214.495986 198.4709 227.307394 202.797285 229.96614 216.054052"></polygon>
                    <path d="M208.419086,219.412172 L219.442755,223.135432 L228.178944,215.449403 L225.891465,204.042291 L214.867796,200.319031 L206.12943,208.003971 L208.419086,219.412172 Z M220.185288,226.832564 L205.58614,221.904143 L202.557217,206.79881 L214.125264,196.62081 L228.723323,201.552497 L231.752246,216.656741 L220.185288,226.832564 Z" id="Fill-55" fill="#E7A1AA" mask="url(#mask-2)"></path>
                    <path d="M414.137401,126.236818 C409.963105,133.53419 398.746727,133.945709 391.965946,137.887792 C384.971768,141.955073 378.983602,151.402574 370.891957,151.441767 C363.049638,151.47987 357.010301,142.226153 349.713449,138.052182 C342.415508,133.878211 331.376596,133.363269 327.434206,126.584104 C323.366608,119.589383 328.476147,109.640003 328.436951,101.548988 C328.397756,93.7061907 323.068289,83.8297525 327.242585,76.5334685 C331.41688,69.2360959 342.633259,68.8234889 349.41404,64.8814053 C356.408218,60.815213 362.396383,51.3677119 370.488028,51.327431 C378.330348,51.2893275 384.369685,60.5430449 391.667626,64.7170157 C398.964478,68.8920753 410.003389,69.4059288 413.94578,76.1850933 C418.013378,83.179815 412.903839,93.1302828 412.943034,101.220209 C412.98223,109.063007 418.311697,118.939445 414.137401,126.236818" id="Fill-56" fill="#E6E6E6" mask="url(#mask-2)"></path>
                    <path d="M414.228639,114.352649 C410.054343,121.650022 398.837964,122.06154 392.057183,126.003624 C385.063006,130.070905 379.07484,139.518406 370.983195,139.557598 C363.140876,139.595702 357.101538,130.341984 349.804686,126.168014 C342.506746,121.994043 331.467834,121.479101 327.525444,114.699936 C323.457846,107.705214 328.567385,97.7558351 328.528189,89.6648201 C328.488994,81.8220225 323.159527,71.9455843 327.333822,64.6493003 C331.508118,57.3519276 342.724497,56.9393207 349.505278,52.9972371 C356.499456,48.9310448 362.487621,39.4835437 370.579266,39.4432628 C378.421586,39.4051592 384.460923,48.6588766 391.758864,52.8328475 C399.055716,57.0079071 410.094627,57.5217606 414.037018,64.3009251 C418.104615,71.2956467 412.995077,81.2461146 413.034272,89.336041 C413.073467,97.1788386 418.402935,107.055277 414.228639,114.352649" id="Fill-57" fill="#FFFFFF" mask="url(#mask-2)"></path>
                    <path d="M370.626954,42.7096073 L370.59538,42.7096073 C366.643191,42.7292034 362.906575,46.1029999 358.950031,49.6738461 C356.48835,51.8969157 353.941747,54.1961923 351.145818,55.8204918 C348.462031,57.3827371 345.287214,58.410444 342.216918,59.4054908 C337.091049,61.0657166 332.249344,62.6344939 330.169818,66.2706605 C328.089202,69.9068271 329.191025,74.875529 330.358173,80.1349065 C331.056066,83.2855251 331.779001,86.5428336 331.794244,89.6488166 C331.810575,92.8810857 331.119214,96.2407294 330.450717,99.4904173 C329.377202,104.710603 328.363569,109.641201 330.350551,113.057456 C332.239546,116.307143 336.946244,117.856325 341.931664,119.495866 C345.156563,120.55841 348.493605,121.655792 351.425628,123.333437 C354.358741,125.009992 356.995711,127.329954 359.54667,129.57262 C363.475995,133.028066 367.188658,136.291907 370.936161,136.291907 L370.967735,136.291907 C374.919924,136.272311 378.655451,132.899603 382.611995,129.327668 C385.074764,127.104599 387.620279,124.805322 390.416208,123.181022 C393.101084,121.619866 396.275901,120.59107 399.345108,119.597112 C404.470978,117.935798 409.312682,116.36702 411.392208,112.730854 L411.393297,112.730854 C413.473912,109.094687 412.37209,104.125985 411.204942,98.8666078 C410.50596,95.7159892 409.783025,92.4586807 409.767782,89.3526977 C409.75254,86.1204286 410.442812,82.7607849 411.112398,79.511097 C412.185912,74.2898231 413.200634,69.3592247 411.212563,65.94297 C409.323569,62.6932822 404.616871,61.1451897 399.633628,59.5056487 C396.406551,58.4431042 393.06951,57.3457222 390.136398,55.6680777 C387.204374,53.9904331 384.566315,51.6704717 382.014267,49.4278061 C378.086031,45.9734478 374.373368,42.7096073 370.626954,42.7096073 L370.626954,42.7096073 Z M370.933983,142.823943 C364.723711,142.823943 359.898338,138.581386 355.231924,134.47709 C352.820327,132.356355 350.540469,130.352109 348.18222,129.003244 C345.823972,127.654378 342.940942,126.705056 339.889155,125.7013 C333.965226,123.751487 327.839877,121.736354 324.702078,116.340892 C321.461936,110.769066 322.837037,104.078084 324.05209,98.174212 C324.680303,95.1183079 325.274764,92.2322368 325.261699,89.6814768 C325.249723,87.2744216 324.633486,84.4939517 323.980232,81.5501809 C322.659569,75.5994963 321.164705,68.856258 324.49848,63.0275047 C327.832256,57.1987514 334.405084,55.0703964 340.203806,53.1913474 C343.071593,52.261621 345.782599,51.3841508 347.863214,50.1746355 C350.069037,48.8921792 352.25635,46.9162383 354.573226,44.8259869 C359.045841,40.7870114 364.117273,36.209143 370.562717,36.1775715 L370.63022,36.1775715 C376.838315,36.1775715 381.662599,40.4190401 386.329013,44.5222472 C388.742788,46.6440702 391.021557,48.6494052 393.379806,49.9982706 C395.739143,51.347136 398.623262,52.2964585 401.676137,53.3013034 C407.598978,55.2500274 413.723238,57.2651604 416.861037,62.6595333 C420.101179,68.2324485 418.724989,74.9234306 417.511025,80.8273023 C416.881723,83.8832064 416.287262,86.7692775 416.300327,89.3200375 C416.312303,91.7270927 416.92854,94.5075626 417.581794,97.4513334 C418.902457,103.402018 420.398409,110.145256 417.062457,115.97401 L417.063546,115.97401 C413.72977,121.802763 407.156942,123.932207 401.359309,125.811256 C398.489344,126.739893 395.780516,127.618452 393.698812,128.827967 C391.492989,130.110424 389.304587,132.085276 386.9888,134.176616 C382.516185,138.215592 377.44693,142.792371 371.000398,142.823943 L370.933983,142.823943 Z" id="Fill-58" fill="#C2132B" mask="url(#mask-2)"></path>
                    <polygon id="Fill-59" fill="#CCCCCC" mask="url(#mask-2)" points="698.631015 48.8748693 657.142826 7.38990985 615.653548 48.8748693 613.344293 46.5657946 657.142826 2.77067186 700.94027 46.5657946"></polygon>
                    <path d="M666.759711,11.6124355 C666.759711,16.9240693 662.453676,21.2286809 657.142717,21.2286809 C651.83067,21.2286809 647.524634,16.9240693 647.524634,11.6124355 C647.524634,6.30080174 651.83067,1.99619014 657.142717,1.99619014 C662.453676,1.99619014 666.759711,6.30080174 666.759711,11.6124355" id="Fill-60" fill="#FFFFFF" mask="url(#mask-2)"></path>
                    <path d="M657.142282,3.62909023 C652.740436,3.62909023 649.158424,7.2108232 649.158424,11.6123267 C649.158424,16.0149188 652.740436,19.5966518 657.142282,19.5966518 C661.544128,19.5966518 665.12614,16.0149188 665.12614,11.6123267 C665.12614,7.2108232 661.544128,3.62909023 657.142282,3.62909023 M657.142282,22.8626697 C650.939631,22.8626697 645.892151,17.8155833 645.892151,11.6123267 C645.892151,5.40906999 650.939631,0.363072324 657.142282,0.363072324 C663.344933,0.363072324 668.392412,5.40906999 668.392412,11.6123267 C668.392412,17.8155833 663.344933,22.8626697 657.142282,22.8626697" id="Fill-61" fill="#CCCCCC" mask="url(#mask-2)"></path>
                    <path d="M262.56027,107.150753 L283.551512,107.150753 L273.161501,73.281059 L262.56027,107.150753 Z M287.970779,110.416771 L258.115962,110.416771 L273.194163,62.2462732 L287.970779,110.416771 Z" id="Fill-62" fill="#C2132B" mask="url(#mask-2)"></path>
                    <polygon id="Fill-63" fill="#C2132B" mask="url(#mask-2)" points="271.544805 119.321787 274.811077 119.321787 274.811077 67.7633395 271.544805 67.7633395"></polygon>
                    <polygon id="Fill-64" fill="#C2132B" mask="url(#mask-2)" points="272.316516 102.857682 262.910741 97.0223964 264.633155 94.2473698 274.03893 100.082655"></polygon>
                    <polygon id="Fill-65" fill="#C2132B" mask="url(#mask-2)" points="273.931579 96.7509903 272.42365 93.8540324 279.708525 90.0621856 281.215366 92.9602322"></polygon>
                    <path d="M240.772383,95.6070131 L254.609401,95.6070131 L247.620667,73.2805147 L240.772383,95.6070131 Z M259.053709,98.873031 L236.353117,98.873031 L247.589093,62.2457289 L259.053709,98.873031 Z" id="Fill-66" fill="#C2132B" mask="url(#mask-2)"></path>
                    <polygon id="Fill-67" fill="#C2132B" mask="url(#mask-2)" points="245.972071 104.813047 249.238343 104.813047 249.238343 67.7633395 245.972071 67.7633395"></polygon>
                    <polygon id="Fill-68" fill="#C2132B" mask="url(#mask-2)" points="248.465979 92.7599164 246.743564 89.9848899 253.50257 85.7913229 255.224985 88.5663494"></polygon>
                    <path d="M478.481983,66.8124928 C468.159475,66.8124928 459.7608,75.2105135 459.7608,85.5322188 C459.7608,95.8550127 468.159475,104.253033 478.481983,104.253033 C488.804492,104.253033 497.203167,95.8550127 497.203167,85.5322188 C497.203167,75.2105135 488.804492,66.8124928 478.481983,66.8124928 M478.481983,107.519051 C466.357581,107.519051 456.494528,97.6556773 456.494528,85.5322188 C456.494528,73.409849 466.357581,63.5464749 478.481983,63.5464749 C490.606386,63.5464749 500.469439,73.409849 500.469439,85.5322188 C500.469439,97.6556773 490.606386,107.519051 478.481983,107.519051" id="Fill-69" fill="#C2132B" mask="url(#mask-2)"></path>
                    <path d="M370.944762,63.4943275 C365.362703,63.4943275 360.821496,68.0351811 360.821496,73.6168057 C360.821496,76.8882669 359.802419,79.9888066 358.72346,83.2722433 C357.505141,86.9769962 356.246537,90.8080353 356.246537,95.3902584 C356.246537,98.8271979 357.678253,106.821321 370.944762,106.821321 C384.211271,106.821321 385.642987,98.8271979 385.642987,95.3902584 C385.642987,90.7078774 384.287484,86.5164877 383.089851,82.8193555 C382.050088,79.6045052 381.068028,76.5692859 381.068028,73.6168057 C381.068028,68.0351811 376.526821,63.4943275 370.944762,63.4943275 M370.944762,110.087339 C359.863389,110.087339 352.980265,104.455635 352.980265,95.3902584 C352.980265,90.2854724 354.382585,86.016787 355.620502,82.252157 C356.659176,79.092829 357.555224,76.3646154 357.555224,73.6168057 C357.555224,66.2345165 363.561898,60.2283096 370.944762,60.2283096 C378.327626,60.2283096 384.334301,66.2345165 384.334301,73.6168057 C384.334301,76.053255 385.197685,78.7226803 386.198253,81.8134219 C387.468833,85.7413528 388.909259,90.1918465 388.909259,95.3902584 C388.909259,104.455635 382.026135,110.087339 370.944762,110.087339" id="Fill-70" fill="#C2132B" mask="url(#mask-2)"></path>
                    <polygon id="Fill-71" fill="#C2132B" mask="url(#mask-2)" points="476.521893 117.631078 479.788166 117.631078 479.788166 79.344639 476.521893 79.344639"></polygon>
                    <polygon id="Fill-72" fill="#C2132B" mask="url(#mask-2)" points="479.310201 99.876134 477.000947 97.5670593 484.573254 89.9953411 486.882509 92.3044158"></polygon>
                    <polygon id="Fill-73" fill="#C2132B" mask="url(#mask-2)" points="477.000838 93.2000668 470.406234 86.6059766 472.715489 84.296902 479.310092 90.8909921"></polygon>
                    <polygon id="Fill-74" fill="#C2132B" mask="url(#mask-2)" points="369.123598 121.795251 372.38987 121.795251 372.38987 108.731179 369.123598 108.731179"></polygon>
                    <path d="M357.636227,99.7044503 C356.562712,99.7044503 355.489198,99.5901397 354.447257,99.3626071 L355.142973,96.1706189 C355.957363,96.3480726 356.796795,96.4384324 357.636227,96.4384324 C364.064251,96.4384324 369.294641,91.208449 369.294641,84.7809258 L372.560914,84.7809258 C372.560914,93.0102023 365.866144,99.7044503 357.636227,99.7044503" id="Fill-75" fill="#C2132B" mask="url(#mask-2)"></path>
                    <path d="M384.109799,99.7044503 C375.878793,99.7044503 369.184024,93.0102023 369.184024,84.7809258 L372.450296,84.7809258 C372.450296,91.208449 377.680686,96.4384324 384.109799,96.4384324 C384.99387,96.4384324 385.876852,96.3393632 386.731527,96.1423134 L387.463172,99.3255922 C386.36897,99.5770756 385.239929,99.7044503 384.109799,99.7044503" id="Fill-76" fill="#C2132B" mask="url(#mask-2)"></path>
                    <path d="M357.636227,82.5855086 L357.636227,79.3194907 C364.064251,79.3194907 369.294641,74.0895073 369.294641,67.6619841 L372.560914,67.6619841 C372.560914,75.8912605 365.866144,82.5855086 357.636227,82.5855086" id="Fill-77" fill="#C2132B" mask="url(#mask-2)"></path>
                    <path d="M384.109799,82.5855086 C375.878793,82.5855086 369.184024,75.8912605 369.184024,67.6619841 L372.450296,67.6619841 C372.450296,74.0895073 377.680686,79.3194907 384.109799,79.3194907 L384.109799,82.5855086 Z" id="Fill-78" fill="#C2132B" mask="url(#mask-2)"></path>
                    <polygon id="Fill-79" fill="#C2132B" mask="url(#mask-2)" points="369.294533 89.2254318 372.560805 89.2254318 372.560805 62.5986765 369.294533 62.5986765"></polygon>
                    <polygon id="Fill-80" fill="#E6E6E6" mask="url(#mask-2)" points="646.134073 250.526218 96.882097 250.526218 96.882097 277.465422 118.119399 277.465422 118.119399 342.26104 151.689056 342.26104 151.689056 277.465422 589.869269 277.465422 589.869269 342.26104 623.484653 342.26104 623.484653 277.465422 646.134073 277.465422"></polygon>
                    <polygon id="Fill-81" fill="#FFFFFF" mask="url(#mask-2)" points="119.646817 331.274374 150.186462 331.274374 150.186462 254.993259 119.646817 254.993259"></polygon>
                    <path d="M121.278864,329.641365 L148.552237,329.641365 L148.552237,256.627357 L121.278864,256.627357 L121.278864,329.641365 Z M118.012592,332.907382 L151.818509,332.907382 L151.818509,253.361339 L118.012592,253.361339 L118.012592,332.907382 Z" id="Fill-82" fill="#CCCCCC" mask="url(#mask-2)"></path>
                    <polygon id="Fill-83" fill="#FFFFFF" mask="url(#mask-2)" points="591.741822 331.274374 621.988592 331.274374 621.988592 254.993259 591.741822 254.993259"></polygon>
                    <path d="M593.374959,329.641365 L620.355456,329.641365 L620.355456,256.627357 L593.374959,256.627357 L593.374959,329.641365 Z M590.108686,332.907382 L623.621728,332.907382 L623.621728,253.361339 L590.108686,253.361339 L590.108686,332.907382 Z" id="Fill-84" fill="#CCCCCC" mask="url(#mask-2)"></path>
                    <polygon id="Fill-85" fill="#FFFFFF" mask="url(#mask-2)" points="103.414533 264.30141 638.512663 264.30141 638.512663 237.362206 103.414533 237.362206"></polygon>
                    <path d="M105.047669,262.668401 L636.880615,262.668401 L636.880615,238.994126 L105.047669,238.994126 L105.047669,262.668401 Z M101.781396,265.934419 L640.146888,265.934419 L640.146888,235.728108 L101.781396,235.728108 L101.781396,265.934419 Z" id="Fill-86" fill="#CCCCCC" mask="url(#mask-2)"></path>
                    <polygon id="Fill-87" fill="#CCCCCC" mask="url(#mask-2)" points="363.069889 214.190571 357.731711 219.528333 352.392445 214.190571"></polygon>
                    <path d="M363.812966,206.16738 L370.617699,206.16738" id="Fill-88" fill="#FFFFFF" mask="url(#mask-2)"></path>
                    <polygon id="Fill-89" fill="#CCCCCC" mask="url(#mask-2)" points="363.812639 207.800389 370.617373 207.800389 370.617373 204.534371 363.812639 204.534371"></polygon>
                    <path d="M344.215333,206.16738 L351.020066,206.16738" id="Fill-90" fill="#FFFFFF" mask="url(#mask-2)"></path>
                    <polygon id="Fill-91" fill="#CCCCCC" mask="url(#mask-2)" points="344.215006 207.800389 351.01974 207.800389 351.01974 204.534371 344.215006 204.534371"></polygon>
                    <path d="M434.845349,221.544881 L409.537183,221.544881 C405.490272,221.544881 402.179361,224.855535 402.179361,228.902131 L402.179361,228.902131 C402.179361,232.948727 405.490272,236.260469 409.537183,236.260469 L434.845349,236.260469 C438.89226,236.260469 442.203172,232.948727 442.203172,228.902131 L442.203172,228.902131 C442.203172,224.855535 438.89226,221.544881 434.845349,221.544881" id="Fill-92" fill="#FFFFFF" mask="url(#mask-2)"></path>
                    <path d="M409.537183,223.17789 C406.380876,223.17789 403.812497,225.74498 403.812497,228.902131 C403.812497,232.058193 406.380876,234.62746 409.537183,234.62746 L434.845349,234.62746 C438.002746,234.62746 440.570036,232.058193 440.570036,228.902131 C440.570036,225.74498 438.002746,223.17789 434.845349,223.17789 L409.537183,223.17789 Z M434.845349,237.893478 L409.537183,237.893478 C404.578982,237.893478 400.546225,233.859946 400.546225,228.902131 C400.546225,223.944316 404.578982,219.911872 409.537183,219.911872 L434.845349,219.911872 C439.80355,219.911872 443.836308,223.944316 443.836308,228.902131 C443.836308,233.859946 439.80355,237.893478 434.845349,237.893478 L434.845349,237.893478 Z" id="Fill-93" fill="#CCCCCC" mask="url(#mask-2)"></path>
                    <polygon id="Fill-94" fill="#CCCCCC" mask="url(#mask-2)" points="376.712237 236.260469 379.978509 236.260469 379.978509 229.524852 376.712237 229.524852"></polygon>
                    <polygon id="Fill-95" fill="#CCCCCC" mask="url(#mask-2)" points="383.244781 236.260469 386.511053 236.260469 386.511053 229.524852 383.244781 229.524852"></polygon>
                    <polygon id="Fill-96" fill="#CCCCCC" mask="url(#mask-2)" points="332.073183 236.260469 335.339456 236.260469 335.339456 229.524852 332.073183 229.524852"></polygon>
                    <polygon id="Fill-97" fill="#CCCCCC" mask="url(#mask-2)" points="338.605728 236.260469 341.872 236.260469 341.872 229.524852 338.605728 229.524852"></polygon>
                    <polygon id="Fill-98" fill="#CCCCCC" mask="url(#mask-2)" points="407.197444 236.260469 410.463716 236.260469 410.463716 229.524852 407.197444 229.524852"></polygon>
                    <polygon id="Fill-99" fill="#CCCCCC" mask="url(#mask-2)" points="413.729988 236.260469 416.99626 236.260469 416.99626 229.524852 413.729988 229.524852"></polygon>
                    <path d="M713.394783,179.812358 L598.712701,179.812358 C595.119801,179.812358 592.180156,176.872942 592.180156,173.280322 L592.180156,54.2524766 C592.180156,50.6598569 595.119801,47.7204408 598.712701,47.7204408 L713.394783,47.7204408 C716.987683,47.7204408 719.927328,50.6598569 719.927328,54.2524766 L719.927328,173.280322 C719.927328,176.872942 716.987683,179.812358 713.394783,179.812358" id="Fill-100" fill="#FFFFFF" mask="url(#mask-2)"></path>
                    <path d="M598.711938,49.3533409 C596.010731,49.3533409 593.81253,51.551371 593.81253,54.2523678 L593.81253,173.280213 C593.81253,175.982298 596.010731,178.17924 598.711938,178.17924 L713.39511,178.17924 C716.096317,178.17924 718.294518,175.982298 718.294518,173.280213 L718.294518,54.2523678 C718.294518,51.551371 716.096317,49.3533409 713.39511,49.3533409 L598.711938,49.3533409 Z M713.39511,181.445258 L598.711938,181.445258 C594.208838,181.445258 590.546258,177.782963 590.546258,173.280213 L590.546258,54.2523678 C590.546258,49.7496178 594.208838,46.087323 598.711938,46.087323 L713.39511,46.087323 C717.898211,46.087323 721.560791,49.7496178 721.560791,54.2523678 L721.560791,173.280213 C721.560791,177.782963 717.898211,181.445258 713.39511,181.445258 L713.39511,181.445258 Z" id="Fill-101" fill="#E7A1AA" mask="url(#mask-2)"></path>
                    <path d="M610.471389,158.444327 L610.471389,93.8468472 C610.471389,79.7452705 621.944715,68.273927 636.046301,68.273927 C650.147886,68.273927 661.621212,79.7452705 661.621212,93.8468472 L661.621212,158.444327 L610.471389,158.444327 Z" id="Fill-102" fill="#FFFFFF" mask="url(#mask-2)"></path>
                    <path d="M688.143233,109.454058 C679.954689,109.454058 673.291493,102.79247 673.291493,94.6045633 L673.291493,68.9685001 L702.994973,68.9685001 L702.994973,94.6045633 C702.994973,102.79247 696.331778,109.454058 688.143233,109.454058" id="Fill-103" fill="#FFFFFF" mask="url(#mask-2)"></path>
                    <path d="M622.392847,143.704788 L649.339593,143.704788" id="Fill-104" fill="#FFFFFF" mask="url(#mask-2)"></path>
                    <path d="M611.777463,130.09638 L659.682788,130.09638" id="Fill-105" fill="#FFFFFF" mask="url(#mask-2)"></path>
                    <path d="M671.65912,84.1906475 L704.627782,84.1906475" id="Fill-106" fill="#FFFFFF" mask="url(#mask-2)"></path>
                    <path d="M674.925065,82.5584006 L701.361183,82.5584006 L701.361183,70.6025977 L674.925065,70.6025977 L674.925065,82.5584006 Z M701.361183,94.6045633 C701.361183,101.892138 695.431811,107.821049 688.143669,107.821049 C680.854438,107.821049 674.925065,101.892138 674.925065,94.6045633 L674.925065,85.8233299 L701.361183,85.8233299 L701.361183,94.6045633 Z M671.658793,67.3365798 L671.658793,82.557312 L671.658793,82.557312 L671.658793,85.8233299 L671.658793,85.8233299 L671.658793,94.6045633 C671.658793,103.708044 679.039479,111.087067 688.143669,111.087067 C697.247858,111.087067 704.627456,103.708044 704.627456,94.6045633 L704.627456,85.8233299 L704.627456,82.557312 L704.627456,67.3365798 L671.658793,67.3365798 Z" id="Fill-107" fill="#E7A1AA" mask="url(#mask-2)"></path>
                    <path d="M688.143233,158.444327 C679.954689,158.444327 673.291493,151.782739 673.291493,143.594832 L673.291493,117.958769 L702.994973,117.958769 L702.994973,143.594832 C702.994973,151.782739 696.331778,158.444327 688.143233,158.444327" id="Fill-108" fill="#FFFFFF" mask="url(#mask-2)"></path>
                    <path d="M671.65912,133.180916 L704.627782,133.180916" id="Fill-109" fill="#FFFFFF" mask="url(#mask-2)"></path>
                    <path d="M674.925065,131.548669 L701.361183,131.548669 L701.361183,119.592866 L674.925065,119.592866 L674.925065,131.548669 Z M701.361183,143.594832 C701.361183,150.882407 695.431811,156.811318 688.143669,156.811318 C680.854438,156.811318 674.925065,150.882407 674.925065,143.594832 L674.925065,134.813598 L701.361183,134.813598 L701.361183,143.594832 Z M671.658793,116.326848 L671.658793,131.547581 L671.658793,131.547581 L671.658793,134.813598 L671.658793,134.813598 L671.658793,143.594832 C671.658793,152.698312 679.039479,160.077336 688.143669,160.077336 C697.247858,160.077336 704.627456,152.698312 704.627456,143.594832 L704.627456,134.813598 L704.627456,131.547581 L704.627456,116.326848 L671.658793,116.326848 Z" id="Fill-110" fill="#E7A1AA" mask="url(#mask-2)"></path>
                    <path d="M651.973515,100.069918 C651.973515,111.95278 644.639645,121.586444 635.594249,121.586444 C626.547763,121.586444 619.213893,111.95278 619.213893,100.069918 C619.213893,88.1870559 626.547763,78.5533917 635.594249,78.5533917 C644.639645,78.5533917 651.973515,88.1870559 651.973515,100.069918" id="Fill-111" fill="#FFFFFF" mask="url(#mask-2)"></path>
                    <path d="M612.104852,156.811318 L659.988402,156.811318 L659.988402,131.729389 L612.104852,131.729389 L612.104852,156.811318 Z M636.046627,69.9069359 C649.247811,69.9069359 659.988402,80.6456028 659.988402,93.8468472 L659.988402,128.463371 L612.104852,128.463371 L612.104852,93.8468472 C612.104852,80.6456028 622.844355,69.9069359 636.046627,69.9069359 L636.046627,69.9069359 Z M636.046627,66.640918 C621.019598,66.640918 608.83858,78.8209875 608.83858,93.8468472 L608.83858,160.077336 L663.254675,160.077336 L663.254675,93.8468472 C663.254675,78.8209875 651.073657,66.640918 636.046627,66.640918 L636.046627,66.640918 Z" id="Fill-112" fill="#E7A1AA" mask="url(#mask-2)"></path>
                    <polygon id="Fill-113" fill="#E7A1AA" mask="url(#mask-2)" points="622.392521 145.337797 649.339266 145.337797 649.339266 142.071779 622.392521 142.071779"></polygon>
                    <path d="M635.593595,80.186945 C643.725524,80.186945 650.340814,89.1064399 650.340814,100.070462 C650.340814,111.033395 643.725524,119.95289 635.593595,119.95289 C627.462755,119.95289 620.847465,111.033395 620.847465,100.070462 C620.847465,89.1064399 627.462755,80.186945 635.593595,80.186945 M635.593595,123.218908 C645.526329,123.218908 653.607086,112.83406 653.607086,100.070462 C653.607086,87.3057754 645.526329,76.9209271 635.593595,76.9209271 C625.66195,76.9209271 617.581193,87.3057754 617.581193,100.070462 C617.581193,112.83406 625.66195,123.218908 635.593595,123.218908" id="Fill-114" fill="#E7A1AA" mask="url(#mask-2)"></path>
                </g>
            </g>
        </g>
    </g>
</svg>