<?xml version="1.0" encoding="UTF-8"?>
<svg width="180px" height="44px" viewBox="0 0 180 44" version="1.1" xmlns="http://www.w3.org/2000/svg" xmlns:xlink="http://www.w3.org/1999/xlink">
    <!-- Generator: Sketch 64 (93537) - https://sketch.com -->
    <title>logo_edubadges</title>
    <desc>Created with Sketch.</desc>
    <defs>
        <polygon id="path-1" points="0 0.0001 179.9995 0.0001 179.9995 44 0 44"></polygon>
    </defs>
    <g id="logo_edubadges" stroke="none" stroke-width="1" fill="none" fill-rule="evenodd">
        <g id="edubadges">
            <g id="Group-3">
                <mask id="mask-2" fill="white">
                    <use xlink:href="#path-1"></use>
                </mask>
                <g id="Clip-2"></g>
                <path d="M167.9995,44.0001 L11.9995,44.0001 C5.3725,44.0001 -0.0005,38.6271 -0.0005,32.0001 L-0.0005,12.0001 C-0.0005,5.3721 5.3725,0.0001 11.9995,0.0001 L167.9995,0.0001 C174.6275,0.0001 179.9995,5.3721 179.9995,12.0001 L179.9995,32.0001 C179.9995,38.6271 174.6275,44.0001 167.9995,44.0001" id="Fill-1" fill="#000000" mask="url(#mask-2)"></path>
            </g>
            <path d="M18.1294,18.2608 C15.3134,18.2608 14.0014,20.4998 13.8414,22.3568 L22.4164,22.3568 C22.3534,20.5648 21.1374,18.2608 18.1294,18.2608 M24.0484,24.7248 L13.8734,24.7248 C14.0974,27.0288 15.8574,28.9798 18.7364,28.9798 C19.8574,28.9798 21.1374,28.6278 22.1924,27.9558 C22.4164,27.8278 22.6724,27.7638 22.8974,27.7638 C23.6014,27.7638 24.3364,28.3398 24.3364,29.1718 C24.3364,30.9318 20.3684,31.7318 18.3854,31.7318 C13.7454,31.7318 10.2894,28.4998 10.2894,23.6048 C10.2894,19.1248 13.5534,15.5088 18.1294,15.5088 C21.7444,15.5088 24.3684,17.6848 25.3284,21.0128 C25.5214,21.6528 25.7124,22.3888 25.7124,23.0608 C25.7124,23.9558 24.9774,24.7248 24.0484,24.7248" id="Fill-4" fill="#FFFFFF"></path>
            <path d="M39.9214,20.5968 C39.1524,19.4448 37.5534,18.5488 35.9534,18.5488 C33.3294,18.5488 31.6334,20.6598 31.6334,23.6358 C31.6334,26.5798 33.3294,28.6918 35.9534,28.6918 C37.5534,28.6918 39.1524,27.7958 39.9214,26.6758 L39.9214,20.5968 Z M41.6164,31.5398 C40.6564,31.5398 39.9214,30.7718 39.9214,29.8438 L39.9214,29.2358 C38.7054,30.8038 36.9444,31.7318 34.9614,31.7318 C31.0254,31.7318 28.1134,28.7238 28.1134,23.6358 C28.1134,18.6448 30.9934,15.5088 34.9614,15.5088 C36.8814,15.5088 38.6734,16.4048 39.9214,18.0048 L39.9214,11.5088 C39.9214,10.5808 40.6564,9.8138 41.6814,9.8138 C42.5764,9.8138 43.3454,10.5808 43.3454,11.5088 L43.3454,29.8438 C43.3454,30.7718 42.5764,31.5398 41.6164,31.5398 L41.6164,31.5398 Z" id="Fill-6" fill="#FFFFFF"></path>
            <path d="M59.1841,31.5401 C58.2241,31.5401 57.4891,30.7711 57.4891,29.8441 L57.4891,29.3001 C56.3691,30.5481 54.4491,31.7311 52.0171,31.7311 C48.6891,31.7311 47.0571,29.9721 47.0571,26.8361 L47.0571,17.3641 C47.0571,16.4691 47.7931,15.7011 48.8171,15.7011 C49.7131,15.7011 50.4811,16.4691 50.4811,17.3641 L50.4811,25.5881 C50.4811,27.9561 51.6971,28.6911 53.5521,28.6911 C55.2481,28.6911 56.6891,27.7311 57.4891,26.7081 L57.4891,17.3641 C57.4891,16.4691 58.2241,15.7011 59.2481,15.7011 C60.1441,15.7011 60.9131,16.4691 60.9131,17.3641 L60.9131,29.8441 C60.9131,30.7711 60.1441,31.5401 59.1841,31.5401" id="Fill-8" fill="#FFFFFF"></path>
            <path d="M74.48,18.5489 C72.945,18.5489 71.313,19.4769 70.577,20.6289 L70.577,26.6759 C71.313,27.7959 72.945,28.6919 74.48,28.6919 C77.136,28.6919 78.833,26.6119 78.833,23.6359 C78.833,20.6599 77.136,18.5489 74.48,18.5489 M75.504,31.7319 C73.52,31.7319 71.76,30.8039 70.577,29.2359 L70.577,29.8439 C70.577,30.7719 69.809,31.5399 68.849,31.5399 C67.889,31.5399 67.153,30.7719 67.153,29.8439 L67.153,11.4779 C67.153,10.5809 67.889,9.8139 68.913,9.8139 C69.809,9.8139 70.577,10.5809 70.577,11.4779 L70.577,18.0049 C71.792,16.4039 73.584,15.5089 75.504,15.5089 C79.472,15.5089 82.352,18.6449 82.352,23.6359 C82.352,28.7239 79.472,31.7319 75.504,31.7319" id="Fill-10" fill="#A565BF"></path>
            <path d="M95.1831,25.4923 C94.4151,24.4683 93.0071,23.9563 91.5361,23.9563 C89.7111,23.9563 88.3041,24.9803 88.3041,26.6763 C88.3041,28.3073 89.7111,29.3643 91.5361,29.3643 C93.0071,29.3643 94.4151,28.8513 95.1831,27.7963 L95.1831,25.4923 Z M96.9121,31.5403 L96.7191,31.5403 C96.2711,31.5403 95.1831,31.1553 95.1831,29.9713 L95.1831,29.6833 C94.0631,30.9963 92.2401,31.7313 90.2231,31.7313 C87.6961,31.7313 84.8161,30.0363 84.8161,26.6123 C84.8161,23.0603 87.6961,21.5883 90.2231,21.5883 C92.2711,21.5883 94.0951,22.2613 95.1831,23.5723 L95.1831,21.2043 C95.1831,19.4443 93.7111,18.3563 91.5991,18.3563 C90.2551,18.3563 89.0391,18.7093 87.9191,19.5403 C87.7281,19.6693 87.4721,19.7643 87.2161,19.7643 C86.5761,19.7643 85.8711,19.2533 85.8711,18.4213 C85.8711,18.1653 85.9681,17.8773 86.1271,17.6843 C87.3441,16.1483 90.1921,15.5093 92.1431,15.5093 C95.5671,15.5093 98.6071,16.9483 98.6071,21.1083 L98.6071,29.8443 C98.6071,30.7713 97.8391,31.5403 96.9121,31.5403 L96.9121,31.5403 Z" id="Fill-12" fill="#A565BF"></path>
            <path d="M113.8071,20.5968 C113.0381,19.4448 111.4391,18.5488 109.8391,18.5488 C107.2151,18.5488 105.5191,20.6598 105.5191,23.6358 C105.5191,26.5798 107.2151,28.6918 109.8391,28.6918 C111.4391,28.6918 113.0381,27.7958 113.8071,26.6758 L113.8071,20.5968 Z M115.5021,31.5398 C114.5421,31.5398 113.8071,30.7718 113.8071,29.8438 L113.8071,29.2358 C112.5911,30.8038 110.8301,31.7318 108.8471,31.7318 C104.9111,31.7318 101.9991,28.7238 101.9991,23.6358 C101.9991,18.6448 104.8791,15.5088 108.8471,15.5088 C110.7671,15.5088 112.5591,16.4048 113.8071,18.0048 L113.8071,11.5088 C113.8071,10.5808 114.5421,9.8138 115.5671,9.8138 C116.4621,9.8138 117.2311,10.5808 117.2311,11.5088 L117.2311,29.8438 C117.2311,30.7718 116.4621,31.5398 115.5021,31.5398 L115.5021,31.5398 Z" id="Fill-14" fill="#A565BF"></path>
            <path d="M132.3989,20.5968 C131.6629,19.4448 130.0309,18.5488 128.4629,18.5488 C125.8389,18.5488 124.1429,20.4998 124.1429,23.4448 C124.1429,26.3878 125.8389,28.3398 128.4629,28.3398 C130.0309,28.3398 131.6629,27.4118 132.3989,26.2598 L132.3989,20.5968 Z M127.8549,37.6188 C125.8069,37.6188 123.1829,37.1708 121.9349,35.7318 C121.7759,35.5078 121.6479,35.1878 121.6479,34.8678 C121.6479,34.0348 122.3199,33.4278 123.1199,33.4278 C123.3759,33.4278 123.6309,33.4918 123.8869,33.6518 C125.0399,34.4838 126.3189,34.8038 127.8549,34.8038 C130.0309,34.8038 132.3989,33.8118 132.3989,30.6118 L132.3989,28.8208 C131.2149,30.3558 129.4549,31.3478 127.4709,31.3478 C123.5359,31.3478 120.6239,28.5328 120.6239,23.4448 C120.6239,18.4208 123.5029,15.5088 127.4709,15.5088 C129.3909,15.5088 131.1509,16.4048 132.3989,18.0048 L132.3989,17.3968 C132.3989,16.4688 133.1339,15.7008 134.1589,15.7008 C135.0539,15.7008 135.8229,16.4688 135.8229,17.3968 L135.8229,30.5158 C135.8229,36.1158 131.6629,37.6188 127.8549,37.6188 L127.8549,37.6188 Z" id="Fill-16" fill="#A565BF"></path>
            <path d="M147.0552,18.2608 C144.2392,18.2608 142.9272,20.4998 142.7672,22.3568 L151.3422,22.3568 C151.2792,20.5648 150.0632,18.2608 147.0552,18.2608 M152.9742,24.7248 L142.7992,24.7248 C143.0232,27.0288 144.7832,28.9798 147.6622,28.9798 C148.7832,28.9798 150.0632,28.6278 151.1182,27.9558 C151.3422,27.8278 151.5982,27.7638 151.8232,27.7638 C152.5272,27.7638 153.2622,28.3398 153.2622,29.1718 C153.2622,30.9318 149.2942,31.7318 147.3112,31.7318 C142.6712,31.7318 139.2152,28.4998 139.2152,23.6048 C139.2152,19.1248 142.4792,15.5088 147.0552,15.5088 C150.6702,15.5088 153.2942,17.6848 154.2542,21.0128 C154.4472,21.6528 154.6382,22.3888 154.6382,23.0608 C154.6382,23.9558 153.9032,24.7248 152.9742,24.7248" id="Fill-18" fill="#A565BF"></path>
            <path d="M163.3101,31.7315 C161.2301,31.7315 158.4791,31.0915 157.2621,29.7155 C157.0711,29.4925 156.9431,29.2045 156.9431,28.8835 C156.9431,28.0845 157.6471,27.4445 158.4141,27.4445 C158.6701,27.4445 158.9581,27.5075 159.1821,27.6685 C160.3671,28.4675 161.9661,29.0435 163.4381,29.0435 C165.4541,29.0435 166.4461,28.1795 166.4461,26.9965 C166.4461,23.9885 157.1031,26.1645 157.1031,20.2125 C157.1031,17.6845 159.3101,15.5085 163.2471,15.5085 C165.3261,15.5085 167.6621,16.1485 168.7181,17.3645 C168.9101,17.5885 169.0051,17.8445 169.0051,18.1325 C169.0051,18.8685 168.3661,19.4445 167.6301,19.4445 C167.4061,19.4445 167.1501,19.3805 166.9261,19.2525 C165.9341,18.5815 164.6221,18.1655 163.2471,18.1655 C161.5181,18.1655 160.4301,18.9965 160.4301,20.0525 C160.4301,22.7725 169.7421,20.7245 169.7421,26.8685 C169.7421,29.6205 167.4701,31.7315 163.3101,31.7315" id="Fill-20" fill="#A565BF"></path>
        </g>
    </g>
</svg>