<?xml version="1.0" encoding="UTF-8" standalone="no"?>
<svg width="45px" height="48px" viewBox="0 0 45 48" version="1.1" xmlns="http://www.w3.org/2000/svg">
    <!-- Generator: Sketch 3.7.2 (28276) - http://www.bohemiancoding.com/sketch -->
    <defs></defs>
    <g id="Symbols" stroke="none" stroke-width="1" fill="none" fill-rule="evenodd">
        <g id="Masthead-/-M" transform="translate(-16.000000, -15.000000)">
            <g id="masthead">
                <g id="logo" transform="translate(16.000000, 15.000000)">
                    <g id="icon" transform="translate(0.000000, 0.470588)">
                        <polygon id="Fill-1" fill="#C30A28" points="43.6605698 35.4131387 24.137893 46.9037355 4.61538462 35.4131387 4.61538462 12.431945 24.137893 0.941176471 43.6605698 12.431945"></polygon>
                        <polygon id="Fill-2" fill="#FFFFFF" points="42.9872782 22.8834693 32.2830114 14.9614427 28.0432875 11.3547445 26.1619795 10.3529412 21.8941211 12.9863461 17.822699 13.4729068 12.9089254 15.562559 6.97944428 18.8647488 1.84615385 20.314298 1.84615385 23.8064405 3.25001696 26.0678403 7.29330447 27.3844568 18.2720094 28.9588665 38.9657233 37.788407 42.1990056 35.5182482 42.812406 34.7410906"></polygon>
                        <path d="M24.0996195,45.7695148 L5.19910355,34.6450837 L5.19910355,27.0962645 C6.32734924,27.3896093 7.77147676,27.6504938 9.67973999,27.9397166 L9.71848817,27.9457278 L9.75706787,27.9519107 C15.0414762,28.7617003 17.4138751,30.0479176 17.5825139,30.142207 C22.5749632,33.3279519 25.5169602,37.4066123 27.1059722,40.2679261 C27.6272194,41.2063547 28.0927028,42.1724345 28.4896189,43.1390296 L28.5051182,43.1766423 L24.0996195,45.7695148 Z M14.4194838,20.5114641 C14.4033106,20.5114641 14.3881483,20.5145556 14.3723121,20.5162731 L14.3723121,20.5162731 C14.4092071,20.4893087 14.4450913,20.4668098 14.4799646,20.4482611 C14.5849216,20.3922714 14.6812866,20.3709747 14.7690597,20.3709747 C14.9385408,20.3709747 15.0761811,20.4465436 15.1821489,20.489824 C15.3939161,20.576213 15.7753329,20.7920996 15.7753329,20.7920996 C15.4786566,20.83538 15.2668895,21.1376556 14.8854727,21.267325 C14.835437,21.284328 14.7769778,21.2942894 14.71616,21.3006441 C14.8064601,21.21769 14.8644139,21.098669 14.8644139,20.9648776 C14.8644139,20.7144697 14.6651135,20.5114641 14.4194838,20.5114641 L14.4194838,20.5114641 Z M29.1250889,19.7255474 C28.7920231,19.7255474 28.3260342,19.4086733 28.3260342,19.4086733 C28.7136844,19.1572349 28.784105,18.6182911 28.784105,18.6182911 C28.6360196,18.8123658 28.4500284,18.851009 28.3248549,18.851009 C28.2412937,18.851009 28.1850246,18.8338343 28.1850246,18.8338343 C28.2906555,18.5823959 28.1498143,18.3307857 28.1498143,18.3307857 C27.9902729,18.5947617 27.7522243,18.6521254 27.575162,18.6521254 C27.439038,18.6521254 27.3391351,18.6182911 27.3391351,18.6182911 C27.4520102,18.2438815 27.3613732,17.8007729 27.3209403,17.6395019 C27.3108321,17.5996565 27.3037564,17.5762988 27.3037564,17.5762988 C27.2990392,17.5891799 27.2890995,17.6046372 27.2794966,17.619751 C27.076153,17.9441821 25.819196,18.7716617 24.9775183,18.9775869 C24.8124174,19.0179476 24.6929719,19.0344354 24.6080629,19.0344354 C24.2401237,19.0344354 24.5194475,18.7259768 24.5194475,18.7259768 C24.5194475,18.7259768 24.5489298,18.6730786 24.6070521,18.5894375 C24.6068836,18.5894375 24.6068836,18.5896093 24.6067151,18.5896093 C24.607389,18.5887505 24.6083998,18.5875483 24.6090737,18.5865178 C24.8053416,18.3057106 25.3355177,17.672134 26.281647,17.3966509 C26.3738002,17.3696866 26.4683121,17.3449549 26.5641717,17.3214255 C26.9786087,17.2192357 27.4211802,17.1505367 27.8403343,17.1505367 C28.6211942,17.1505367 29.3188298,17.3868613 29.5947842,18.0793474 C29.7703302,18.519708 29.9731685,19.1148132 30.106597,19.668699 C30.2167766,20.1255474 30.2791106,20.553714 30.2403624,20.8444826 C30.2310965,20.973465 30.2066683,21.0323744 30.1962232,21.0516101 C30.1920114,21.0516101 30.1874627,21.0509231 30.1830825,21.0507514 C30.1313621,21.1584371 30.0486432,21.2216402 29.9251544,21.2216402 C29.8891018,21.2216402 29.8495113,21.216316 29.8062144,21.2053242 C29.2423443,21.0615715 28.6078851,20.3070846 28.6078851,20.3070846 C28.9957037,20.1633319 29.2775546,19.6961786 29.2775546,19.6961786 C29.232236,19.7167883 29.1805157,19.7255474 29.1250889,19.7255474 L29.1250889,19.7255474 Z M4.14245775,21.8359811 C4.05855953,21.3619579 3.20054023,20.4894805 2.86966453,20.1677973 C3.61531414,19.9668527 5.04175228,19.5831687 6.75408454,19.1266638 C8.37342119,18.6948905 14.2725777,14.0175182 18.6816142,13.4045513 C19.2572773,13.324517 19.8863454,13.2563332 20.5603952,13.2106483 C20.5942577,13.2130528 20.631995,13.214942 20.677482,13.214942 C20.7583478,13.214942 20.8444361,13.2079004 20.9325461,13.1974238 C21.3200278,13.2030915 21.9275317,13.2228424 22.6885121,13.2824388 C23.8905478,13.3971662 25.1087567,13.5828252 25.7122173,13.6807213 C26.2277365,13.7643624 27.0842396,13.9548304 28.0259886,14.1793044 C30.0685227,14.727179 32.2160138,15.5785316 34.0391995,16.901331 C38.7723729,20.3355947 41.4842396,22.8620009 41.6400746,23.2195792 C41.7903501,23.5642765 33.8341711,22.8015457 30.9878652,20.2567626 C30.8756639,19.3499356 30.4864975,18.2765135 30.2629374,17.7154143 C30.0221933,17.1112065 29.4148579,16.3908974 27.8891907,16.3908974 C27.1826262,16.3908974 26.4920664,16.5487334 26.0370281,16.6813225 C25.9138763,16.7172177 25.7983057,16.7592958 25.6862729,16.8039502 C25.1084197,16.645599 24.6065467,16.5624732 24.2165379,16.504079 C22.8913504,16.3053671 20.7864823,15.9874624 16.3038242,17.3782739 C11.8213346,18.7690854 6.87100294,21.3519966 6.09132233,22.1865178 C5.31181019,23.0208673 6.16932408,24.2129669 6.87100294,24.7295835 C7.57251332,25.2462001 8.31310881,26.120395 8.58603072,25.4050666 C8.85895263,24.6899098 8.74203423,24.5308716 9.75538316,24.6103907 C10.7689006,24.6899098 16.4207426,25.3257192 19.0712861,24.6899098 C21.721998,24.0541005 24.3725414,23.2990983 24.8791316,22.7428081 C24.8791316,22.7428081 24.840215,23.4182911 24.6452948,23.7758695 C24.6452948,23.7758695 25.7757306,23.617003 26.1655709,23.338772 C26.1655709,23.338772 26.1264858,23.8157149 25.8537324,24.0144268 C25.8537324,24.0144268 26.5163261,24.2528124 27.0230848,23.9349077 C27.0230848,23.9349077 26.5943279,24.3323315 26.7112463,24.6899098 C26.8281647,25.0474882 27.9195154,25.166681 30.2193036,25.444912 C32.3039553,25.6970374 37.2709655,29.181623 41.1722325,35.7209103 L40.0030486,36.4091026 C38.2822928,35.354401 35.8964162,33.892486 33.8444478,32.6373551 C30.1413019,30.3723486 24.0996195,27.948304 18.7985326,27.7495921 C14.988408,27.6068699 10.6278909,27.5714899 6.64474731,26.6146844 C7.77029747,26.7127523 9.07729015,26.7931301 10.0758137,26.7560326 C10.4791316,26.7410906 10.8674557,26.7218549 11.2396066,26.7036496 C12.8399061,26.624474 14.1042758,26.5621297 14.9754358,26.8996136 C15.002728,26.9102619 15.0308625,26.9152426 15.0584917,26.9152426 C15.1528351,26.9152426 15.2416189,26.8566767 15.2771661,26.7613568 C15.3229901,26.6383856 15.2623408,26.5006441 15.141716,26.453757 C14.1794136,26.0812366 12.8724209,26.1456419 11.2170316,26.227222 C10.8467339,26.245599 10.460263,26.2646629 10.0586297,26.279605 C7.95932116,26.3579219 4.38909829,26.1277802 3.18571484,25.4758265 C3.39663967,24.8528982 4.23663265,22.3683985 4.14245775,21.8359811 L4.14245775,21.8359811 Z M23.1854996,12.5866896 C23.1689895,12.588407 23.1536587,12.589094 23.1373171,12.5906398 C23.0726245,12.5968227 23.0096166,12.6016316 22.947451,12.6057535 C22.9199904,12.607471 22.8925297,12.6097037 22.8657429,12.6110777 C22.7793176,12.6155432 22.6950825,12.6182911 22.6155645,12.6182911 C22.5758055,12.6182911 22.5375627,12.6176041 22.5001623,12.6164019 C22.5451439,12.5841134 22.5897885,12.5518248 22.6332539,12.5202233 C22.7016528,12.4705882 22.7665139,12.4235294 22.8242992,12.3826535 C23.0566198,12.2182911 23.2815277,12.0547875 23.4981805,11.8974667 C24.3725414,11.2621726 25.1367227,10.7077716 25.6675727,10.6191498 L25.6675727,10.6191498 C25.7160921,10.6110777 25.7632638,10.60541 25.80774,10.60541 C25.8533954,10.60541 25.8966923,10.6100472 25.9367883,10.6191498 C26.3387584,10.710176 27.0653709,11.1768141 27.7151609,11.6939459 C27.6969661,11.7650494 27.685847,11.8411335 27.6787713,11.912924 C27.671864,11.9847145 27.6686631,12.0520395 27.6663045,12.1059682 C27.6637774,12.1648776 27.657544,12.2170889 27.6486151,12.2622585 C27.6285671,12.3635895 27.59521,12.4278231 27.5608421,12.454444 C27.5593258,12.4556462 27.5576411,12.4570202 27.5559564,12.4580507 C27.5461852,12.4645771 27.5362454,12.4692143 27.5266426,12.4692143 C27.510301,12.4692143 27.4900845,12.4626878 27.4680149,12.450322 C27.3438523,12.3814513 27.2855616,12.1477029 27.2751164,12.0717905 L27.2456341,11.8517819 L27.050714,11.951052 C26.9693428,11.9926149 26.8825806,12.0446544 26.7971661,12.0960069 C26.7050129,12.1514813 26.5757961,12.2294547 26.4966151,12.2593388 C26.5186847,11.8522971 26.114356,11.510176 26.0680266,11.4723916 L25.9061267,11.3403177 L25.8266087,11.5355947 C25.600353,12.0918849 24.2220974,12.487076 23.1373171,12.5906398 C23.1536587,12.589094 23.1689895,12.588407 23.1854996,12.5866896 L23.1854996,12.5866896 Z M5.19910355,12.3960498 L24.0996195,1.27161872 L43.0001354,12.3960498 L43.0001354,21.8241305 C39.6293814,18.4743667 36.033888,15.9787033 32.3076616,14.4082439 C32.2820541,14.3888364 32.2550989,14.3725204 32.2271328,14.3592958 C30.9524864,13.6379562 29.7607274,12.6086733 29.3198406,12.1063117 C28.5583548,11.2386432 26.9548544,10.0357235 26.1061009,9.84336625 C26.0105782,9.82172606 25.9101699,9.81073422 25.80774,9.81073422 C25.0268801,9.81073422 24.1526876,10.4458566 23.0460062,11.2499785 C22.8315434,11.4059253 22.6091626,11.567368 22.3795376,11.7300129 C21.8048854,12.1368828 21.5080407,12.3077716 21.355575,12.3781881 C21.21406,12.382997 21.0725449,12.3878059 20.9311983,12.3950193 C20.1218669,12.4365822 19.3516207,12.5092314 18.5763203,12.6170889 C15.5128561,13.042851 11.9075914,15.2439674 9.2750743,16.851009 C8.10572186,17.5649635 7.00139896,18.2392443 6.5568058,18.3577501 C6.07969788,18.485015 5.62449109,18.6066123 5.19910355,18.7204809 L5.19910355,12.3960498 Z M43.6238125,11.2948046 L24.7232966,0.170373551 C24.5303981,0.0566766853 24.3149246,0 24.0996195,0 C23.8843144,0 23.6688409,0.0566766853 23.4759424,0.170373551 L4.57542645,11.2948046 C4.18946096,11.5220266 3.95174935,11.9417776 3.95174935,12.3960498 L3.95174935,19.0548733 C2.92104798,19.3315586 2.23301522,19.5175612 2.11373824,19.549678 C1.04951127,19.8318592 0.401574448,20.3051954 0.131179595,20.9971662 C-0.269779749,22.0242164 0.318855524,23.2111636 0.947755202,24.2368398 C1.67638931,25.4255045 2.4459617,26.1511378 3.95174935,26.710863 L3.95174935,34.6450837 C3.95174935,35.0993559 4.18946096,35.5191069 4.57542645,35.7463289 L23.4759424,46.87076 C23.6688409,46.9842851 23.8843144,47.0411335 24.0996195,47.0411335 C24.3149246,47.0411335 24.5303981,46.9842851 24.7232966,46.87076 L43.6238125,35.7463289 C44.009778,35.5191069 44.2474896,35.0993559 44.2474896,34.6450837 L44.2474896,12.3960498 C44.2474896,11.9417776 44.009778,11.5220266 43.6238125,11.2948046 L43.6238125,11.2948046 Z" id="Fill-5" fill="#05012C"></path>
                    </g>
                </g>
            </g>
        </g>
    </g>
</svg>