<?xml version="1.0" encoding="utf-8"?>
<!-- Generator: Adobe Illustrator 19.0.0, SVG Export Plug-In . SVG Version: 6.00 Build 0)  -->
<svg version="1.1" id="Layer_1" xmlns="http://www.w3.org/2000/svg" xmlns:xlink="http://www.w3.org/1999/xlink" x="0px" y="0px"
	 viewBox="-465 462 84 84" style="enable-background:new -465 462 84 84;" xml:space="preserve">
<style type="text/css">
	.st0{filter:url(#Adobe_OpacityMaskFilter);}
	.st1{fill:#FFFFFF;}
	.st2{mask:url(#mask-2);}
	.st3{fill:none;stroke:#E1E0E5;stroke-width:4;}
	.st4{fill:#05012C;fill-opacity:0.12;}
</style>
<title>placeholderavatar-issuer</title>
<desc>Created with Sketch.</desc>
<g id="Symbols">
	<g id="Placeholder-_x2F_-Issuer">
		<defs>
			<filter id="Adobe_OpacityMaskFilter" filterUnits="userSpaceOnUse" x="-465" y="462" width="84" height="84">
				<feColorMatrix  type="matrix" values="1 0 0 0 0  0 1 0 0 0  0 0 1 0 0  0 0 0 1 0"/>
			</filter>
		</defs>
		<mask maskUnits="userSpaceOnUse" x="-465" y="462" width="84" height="84" id="mask-2">
			<g class="st0">
				<path id="path-1" class="st1" d="M-457,464h68c3.3,0,6,2.7,6,6v68c0,3.3-2.7,6-6,6h-68c-3.3,0-6-2.7-6-6v-68
					C-463,466.7-460.3,464-457,464z"/>
			</g>
		</mask>
		<g id="image" class="st2">
			<g id="bounds">
				<path id="path-1_1_" class="st3" d="M-457,464h68c3.3,0,6,2.7,6,6v68c0,3.3-2.7,6-6,6h-68c-3.3,0-6-2.7-6-6v-68
					C-463,466.7-460.3,464-457,464z"/>
			</g>
		</g>
	</g>
</g>
<g>
	<circle class="st4" cx="-423" cy="504" r="3.8"/>
	<circle class="st4" cx="-412" cy="504" r="3.8"/>
	<circle class="st4" cx="-434" cy="504" r="3.8"/>
</g>
</svg>
