<?xml version="1.0" encoding="utf-8"?>
<!-- Generator: Adobe Illustrator 19.0.0, SVG Export Plug-In . SVG Version: 6.00 Build 0)  -->
<svg version="1.1" id="Layer_1" xmlns="http://www.w3.org/2000/svg" x="0px" y="0px"
     viewBox="-926 925 84 84" style="enable-background:new -926 925 84 84;" xml:space="preserve">
<style type="text/css">
	.st0{fill:#FFFFFF;}
	.st1{fill:none;stroke:#E1E0E5;stroke-width:4;}
	.st2{fill:#05012C;fill-opacity:0.12;}
</style>
<title>placeholderavatar-issuer</title>
<desc>Created with Sketch.</desc>
<g>
	<g>
		<path id="path-1" class="st0" d="M-918,927h68c3.3,0,6,2.7,6,6v68c0,3.3-2.7,6-6,6h-68c-3.3,0-6-2.7-6-6v-68
			C-924,929.7-921.3,927-918,927z"/>
	</g>
	<g id="Symbols">
		<g id="Placeholder-_x2F_-Issuer">
			<g id="image">
				<g id="bounds">
					<path id="path-1_1_" class="st1" d="M-918,927h68c3.3,0,6,2.7,6,6v68c0,3.3-2.7,6-6,6h-68c-3.3,0-6-2.7-6-6v-68
						C-924,929.7-921.3,927-918,927z"/>
				</g>
			</g>
		</g>
	</g>
</g>
<polygon class="st2" points="-863.8,951.1 -868.6,946.3 -884,961.9 -899.6,946.3 -904.2,951.1 -888.8,966.5 -904.2,982.1 
	-899.6,986.8 -884,971.4 -868.6,986.8 -863.8,982.1 -879.3,966.5 "/>
</svg>
